0, 0, Header, 1, 3, 480
1, 0, Start_track
1, 0, Time_signature, 3, 2, 24, 8
1, 0, Key_signature, -1, "major"
1, 0, Tempo, 625000
1, 0, Control_c, 0, 121, 0
1, 0, Program_c, 0, 40
1, 0, Control_c, 0, 7, 100
1, 0, Control_c, 0, 10, 64
1, 0, Control_c, 0, 91, 0
1, 0, Control_c, 0, 93, 0
1, 0, MIDI_port, 0
1, 0, Note_on_c, 0, 74, 64
1, 0, Control_c, 1, 121, 0
1, 0, Program_c, 1, 45
1, 0, Control_c, 1, 7, 100
1, 0, Control_c, 1, 10, 64
1, 0, Control_c, 1, 91, 0
1, 0, Control_c, 1, 93, 0
1, 0, MIDI_port, 0
1, 0, Control_c, 2, 121, 0
1, 0, Program_c, 2, 44
1, 0, Control_c, 2, 7, 100
1, 0, Control_c, 2, 10, 64
1, 0, Control_c, 2, 91, 0
1, 0, Control_c, 2, 93, 0
1, 0, MIDI_port, 0
1, 479, Note_on_c, 0, 74, 0
1, 480, Note_on_c, 0, 74, 64
1, 1199, Note_on_c, 0, 74, 0
1, 1200, Note_on_c, 0, 74, 64
1, 1439, Note_on_c, 0, 74, 0
1, 1440, Note_on_c, 0, 73, 64
1, 1919, Note_on_c, 0, 73, 0
1, 1920, Note_on_c, 0, 73, 64
1, 2639, Note_on_c, 0, 73, 0
1, 2640, Note_on_c, 0, 73, 64
1, 2879, Note_on_c, 0, 73, 0
1, 2880, Note_on_c, 0, 74, 64
1, 3359, Note_on_c, 0, 74, 0
1, 3360, Note_on_c, 0, 74, 64
1, 4079, Note_on_c, 0, 74, 0
1, 4080, Note_on_c, 0, 74, 64
1, 4319, Note_on_c, 0, 74, 0
1, 4320, Note_on_c, 0, 76, 64
1, 4799, Note_on_c, 0, 76, 0
1, 4800, Note_on_c, 0, 76, 64
1, 5519, Note_on_c, 0, 76, 0
1, 5520, Note_on_c, 0, 76, 64
1, 5759, Note_on_c, 0, 76, 0
1, 5760, Note_on_c, 0, 77, 64
1, 6239, Note_on_c, 0, 77, 0
1, 6240, Note_on_c, 0, 77, 64
1, 6959, Note_on_c, 0, 77, 0
1, 6960, Note_on_c, 0, 77, 64
1, 7199, Note_on_c, 0, 77, 0
1, 7200, Note_on_c, 0, 76, 64
1, 7679, Note_on_c, 0, 76, 0
1, 7680, Note_on_c, 0, 76, 64
1, 8399, Note_on_c, 0, 76, 0
1, 8400, Note_on_c, 0, 76, 64
1, 8639, Note_on_c, 0, 76, 0
1, 8640, Note_on_c, 0, 74, 64
1, 9119, Note_on_c, 0, 74, 0
1, 9120, Note_on_c, 0, 74, 64
1, 9839, Note_on_c, 0, 74, 0
1, 9840, Note_on_c, 0, 74, 64
1, 10079, Note_on_c, 0, 74, 0
1, 10080, Note_on_c, 0, 73, 64
1, 11519, Note_on_c, 0, 73, 0
1, 11520, Note_on_c, 0, 74, 49
1, 11999, Note_on_c, 0, 74, 0
1, 12000, Note_on_c, 0, 74, 49
1, 12719, Note_on_c, 0, 74, 0
1, 12720, Note_on_c, 0, 74, 49
1, 12959, Note_on_c, 0, 74, 0
1, 12960, Note_on_c, 0, 73, 49
1, 13439, Note_on_c, 0, 73, 0
1, 13440, Note_on_c, 0, 73, 49
1, 14159, Note_on_c, 0, 73, 0
1, 14160, Note_on_c, 0, 73, 49
1, 14399, Note_on_c, 0, 73, 0
1, 14400, Note_on_c, 0, 74, 49
1, 14879, Note_on_c, 0, 74, 0
1, 14880, Note_on_c, 0, 74, 49
1, 15599, Note_on_c, 0, 74, 0
1, 15600, Note_on_c, 0, 74, 49
1, 15839, Note_on_c, 0, 74, 0
1, 15840, Note_on_c, 0, 76, 49
1, 16319, Note_on_c, 0, 76, 0
1, 16320, Note_on_c, 0, 76, 49
1, 17039, Note_on_c, 0, 76, 0
1, 17040, Note_on_c, 0, 76, 49
1, 17279, Note_on_c, 0, 76, 0
1, 17280, Note_on_c, 0, 77, 49
1, 17759, Note_on_c, 0, 77, 0
1, 17760, Note_on_c, 0, 77, 49
1, 18479, Note_on_c, 0, 77, 0
1, 18480, Note_on_c, 0, 77, 49
1, 18719, Note_on_c, 0, 77, 0
1, 18720, Note_on_c, 0, 76, 49
1, 19199, Note_on_c, 0, 76, 0
1, 19200, Note_on_c, 0, 76, 49
1, 19439, Note_on_c, 0, 76, 0
1, 19440, Note_on_c, 0, 77, 49
1, 19679, Note_on_c, 0, 77, 0
1, 19680, Note_on_c, 0, 79, 49
1, 20159, Note_on_c, 0, 79, 0
1, 20160, Note_on_c, 0, 77, 49
1, 20399, Note_on_c, 0, 77, 0
1, 20400, Note_on_c, 0, 76, 49
1, 20519, Note_on_c, 0, 76, 0
1, 20520, Note_on_c, 0, 74, 49
1, 20639, Note_on_c, 0, 74, 0
1, 20640, Note_on_c, 0, 73, 49
1, 21359, Note_on_c, 0, 73, 0
1, 21360, Note_on_c, 0, 74, 49
1, 21599, Note_on_c, 0, 74, 0
1, 21600, Note_on_c, 0, 74, 49
1, 23039, Note_on_c, 0, 74, 0
1, 23040, Note_on_c, 0, 77, 49
1, 23519, Note_on_c, 0, 77, 0
1, 23520, Note_on_c, 0, 77, 49
1, 23879, Note_on_c, 0, 77, 0
1, 23880, Note_on_c, 0, 79, 49
1, 23999, Note_on_c, 0, 79, 0
1, 24000, Note_on_c, 0, 81, 49
1, 24359, Note_on_c, 0, 81, 0
1, 24360, Note_on_c, 0, 77, 49
1, 24479, Note_on_c, 0, 77, 0
1, 24480, Note_on_c, 0, 76, 49
1, 24959, Note_on_c, 0, 76, 0
1, 24960, Note_on_c, 0, 76, 49
1, 25679, Note_on_c, 0, 76, 0
1, 25680, Note_on_c, 0, 76, 49
1, 25919, Note_on_c, 0, 76, 0
1, 25920, Note_on_c, 0, 77, 49
1, 26399, Note_on_c, 0, 77, 0
1, 26400, Note_on_c, 0, 77, 49
1, 26759, Note_on_c, 0, 77, 0
1, 26760, Note_on_c, 0, 79, 49
1, 26879, Note_on_c, 0, 79, 0
1, 26880, Note_on_c, 0, 81, 49
1, 27239, Note_on_c, 0, 81, 0
1, 27240, Note_on_c, 0, 77, 49
1, 27359, Note_on_c, 0, 77, 0
1, 27360, Note_on_c, 0, 79, 49
1, 27839, Note_on_c, 0, 79, 0
1, 27840, Note_on_c, 0, 79, 49
1, 28559, Note_on_c, 0, 79, 0
1, 28560, Note_on_c, 0, 79, 49
1, 28799, Note_on_c, 0, 79, 0
1, 28800, Note_on_c, 0, 81, 49
1, 29279, Note_on_c, 0, 81, 0
1, 29280, Note_on_c, 0, 81, 49
1, 29639, Note_on_c, 0, 81, 0
1, 29640, Note_on_c, 0, 82, 49
1, 29759, Note_on_c, 0, 82, 0
1, 29760, Note_on_c, 0, 84, 49
1, 30119, Note_on_c, 0, 84, 0
1, 30120, Note_on_c, 0, 81, 49
1, 30239, Note_on_c, 0, 81, 0
1, 30240, Note_on_c, 0, 79, 49
1, 30719, Note_on_c, 0, 79, 0
1, 30720, Note_on_c, 0, 79, 49
1, 31079, Note_on_c, 0, 79, 0
1, 31080, Note_on_c, 0, 81, 49
1, 31199, Note_on_c, 0, 81, 0
1, 31200, Note_on_c, 0, 82, 49
1, 31559, Note_on_c, 0, 82, 0
1, 31560, Note_on_c, 0, 79, 49
1, 31679, Note_on_c, 0, 79, 0
1, 31680, Note_on_c, 0, 77, 49
1, 32159, Note_on_c, 0, 77, 0
1, 32160, Note_on_c, 0, 77, 49
1, 32519, Note_on_c, 0, 77, 0
1, 32520, Note_on_c, 0, 79, 49
1, 32639, Note_on_c, 0, 79, 0
1, 32640, Note_on_c, 0, 81, 49
1, 32999, Note_on_c, 0, 81, 0
1, 33000, Note_on_c, 0, 77, 49
1, 33119, Note_on_c, 0, 77, 0
1, 33120, Note_on_c, 0, 76, 49
1, 34559, Note_on_c, 0, 76, 0
1, 34560, Note_on_c, 0, 77, 49
1, 35039, Note_on_c, 0, 77, 0
1, 35040, Note_on_c, 0, 77, 49
1, 35399, Note_on_c, 0, 77, 0
1, 35400, Note_on_c, 0, 79, 49
1, 35519, Note_on_c, 0, 79, 0
1, 35520, Note_on_c, 0, 81, 49
1, 35879, Note_on_c, 0, 81, 0
1, 35880, Note_on_c, 0, 77, 49
1, 35999, Note_on_c, 0, 77, 0
1, 36000, Note_on_c, 0, 76, 49
1, 36479, Note_on_c, 0, 76, 0
1, 36480, Note_on_c, 0, 76, 49
1, 37199, Note_on_c, 0, 76, 0
1, 37200, Note_on_c, 0, 76, 49
1, 37439, Note_on_c, 0, 76, 0
1, 37440, Note_on_c, 0, 77, 49
1, 37919, Note_on_c, 0, 77, 0
1, 37920, Note_on_c, 0, 77, 49
1, 38279, Note_on_c, 0, 77, 0
1, 38280, Note_on_c, 0, 79, 49
1, 38399, Note_on_c, 0, 79, 0
1, 38400, Note_on_c, 0, 81, 49
1, 38759, Note_on_c, 0, 81, 0
1, 38760, Note_on_c, 0, 77, 49
1, 38879, Note_on_c, 0, 77, 0
1, 38880, Note_on_c, 0, 79, 49
1, 39359, Note_on_c, 0, 79, 0
1, 39360, Note_on_c, 0, 79, 49
1, 40079, Note_on_c, 0, 79, 0
1, 40080, Note_on_c, 0, 79, 49
1, 40319, Note_on_c, 0, 79, 0
1, 40320, Note_on_c, 0, 81, 49
1, 40799, Note_on_c, 0, 81, 0
1, 40800, Note_on_c, 0, 81, 49
1, 41159, Note_on_c, 0, 81, 0
1, 41160, Note_on_c, 0, 82, 49
1, 41279, Note_on_c, 0, 82, 0
1, 41280, Note_on_c, 0, 84, 49
1, 41639, Note_on_c, 0, 84, 0
1, 41640, Note_on_c, 0, 81, 49
1, 41759, Note_on_c, 0, 81, 0
1, 41760, Note_on_c, 0, 79, 49
1, 42119, Note_on_c, 0, 79, 0
1, 42120, Note_on_c, 0, 81, 49
1, 42239, Note_on_c, 0, 81, 0
1, 42240, Note_on_c, 0, 82, 49
1, 42959, Note_on_c, 0, 82, 0
1, 42960, Note_on_c, 0, 82, 49
1, 43199, Note_on_c, 0, 82, 0
1, 43200, Note_on_c, 0, 81, 49
1, 43439, Note_on_c, 0, 81, 0
1, 43440, Note_on_c, 0, 79, 49
1, 43559, Note_on_c, 0, 79, 0
1, 43560, Note_on_c, 0, 77, 49
1, 43679, Note_on_c, 0, 77, 0
1, 43680, Note_on_c, 0, 76, 49
1, 44399, Note_on_c, 0, 76, 0
1, 44400, Note_on_c, 0, 74, 49
1, 44639, Note_on_c, 0, 74, 0
1, 44640, Note_on_c, 0, 74, 49
1, 46079, Note_on_c, 0, 74, 0
1, 46080, Note_on_c, 0, 62, 49
1, 46559, Note_on_c, 0, 62, 0
1, 46560, Note_on_c, 0, 77, 49
1, 47039, Note_on_c, 0, 77, 0
1, 47520, Note_on_c, 0, 61, 49
1, 47999, Note_on_c, 0, 61, 0
1, 48000, Note_on_c, 0, 76, 49
1, 48479, Note_on_c, 0, 76, 0
1, 48960, Note_on_c, 0, 65, 49
1, 49439, Note_on_c, 0, 65, 0
1, 49440, Note_on_c, 0, 77, 49
1, 49919, Note_on_c, 0, 77, 0
1, 50400, Note_on_c, 0, 64, 49
1, 50879, Note_on_c, 0, 64, 0
1, 50880, Note_on_c, 0, 79, 49
1, 51359, Note_on_c, 0, 79, 0
1, 51840, Note_on_c, 0, 69, 49
1, 52319, Note_on_c, 0, 69, 0
1, 52320, Note_on_c, 0, 81, 49
1, 52799, Note_on_c, 0, 81, 0
1, 53280, Note_on_c, 0, 64, 49
1, 53759, Note_on_c, 0, 64, 0
1, 53760, Note_on_c, 0, 79, 49
1, 54239, Note_on_c, 0, 79, 0
1, 54720, Note_on_c, 0, 65, 49
1, 55199, Note_on_c, 0, 65, 0
1, 55200, Note_on_c, 0, 81, 49
1, 55679, Note_on_c, 0, 81, 0
1, 55680, Note_on_c, 0, 82, 49
1, 56159, Note_on_c, 0, 82, 0
1, 56160, Note_on_c, 0, 76, 49
1, 56639, Note_on_c, 0, 76, 0
1, 56640, Note_on_c, 0, 73, 49
1, 57119, Note_on_c, 0, 73, 0
1, 57120, Note_on_c, 0, 61, 49
1, 57599, Note_on_c, 0, 61, 0
1, 58080, Note_on_c, 0, 74, 49
1, 58559, Note_on_c, 0, 74, 0
1, 58560, Note_on_c, 0, 62, 49
1, 59039, Note_on_c, 0, 62, 0
1, 59520, Note_on_c, 0, 73, 49
1, 59999, Note_on_c, 0, 73, 0
1, 60000, Note_on_c, 0, 61, 49
1, 60479, Note_on_c, 0, 61, 0
1, 60960, Note_on_c, 0, 74, 49
1, 61439, Note_on_c, 0, 74, 0
1, 61440, Note_on_c, 0, 62, 49
1, 61919, Note_on_c, 0, 62, 0
1, 62400, Note_on_c, 0, 76, 49
1, 62879, Note_on_c, 0, 76, 0
1, 62880, Note_on_c, 0, 64, 49
1, 63359, Note_on_c, 0, 64, 0
1, 63840, Note_on_c, 0, 77, 49
1, 64319, Note_on_c, 0, 77, 0
1, 64320, Note_on_c, 0, 65, 49
1, 64799, Note_on_c, 0, 65, 0
1, 65280, Note_on_c, 0, 79, 49
1, 65759, Note_on_c, 0, 79, 0
1, 65760, Note_on_c, 0, 77, 49
1, 66239, Note_on_c, 0, 77, 0
1, 66240, Note_on_c, 0, 82, 49
1, 66719, Note_on_c, 0, 82, 0
1, 66720, Note_on_c, 0, 76, 49
1, 67439, Note_on_c, 0, 76, 0
1, 67440, Note_on_c, 0, 74, 49
1, 67679, Note_on_c, 0, 74, 0
1, 67680, Note_on_c, 0, 74, 49
1, 69119, Note_on_c, 0, 74, 0
1, 69840, Note_on_c, 0, 65, 49
1, 70079, Note_on_c, 0, 65, 0
1, 70080, Note_on_c, 0, 69, 49
1, 70319, Note_on_c, 0, 69, 0
1, 70320, Note_on_c, 0, 74, 49
1, 70559, Note_on_c, 0, 74, 0
1, 70560, Note_on_c, 0, 73, 49
1, 71039, Note_on_c, 0, 73, 0
1, 71280, Note_on_c, 0, 64, 49
1, 71519, Note_on_c, 0, 64, 0
1, 71520, Note_on_c, 0, 69, 49
1, 71759, Note_on_c, 0, 69, 0
1, 71760, Note_on_c, 0, 73, 49
1, 71999, Note_on_c, 0, 73, 0
1, 72000, Note_on_c, 0, 74, 49
1, 72479, Note_on_c, 0, 74, 0
1, 72720, Note_on_c, 0, 65, 49
1, 72959, Note_on_c, 0, 65, 0
1, 72960, Note_on_c, 0, 69, 49
1, 73199, Note_on_c, 0, 69, 0
1, 73200, Note_on_c, 0, 74, 49
1, 73439, Note_on_c, 0, 74, 0
1, 73440, Note_on_c, 0, 76, 49
1, 73919, Note_on_c, 0, 76, 0
1, 74160, Note_on_c, 0, 72, 49
1, 74399, Note_on_c, 0, 72, 0
1, 74400, Note_on_c, 0, 76, 49
1, 74639, Note_on_c, 0, 76, 0
1, 74640, Note_on_c, 0, 79, 49
1, 74879, Note_on_c, 0, 79, 0
1, 74880, Note_on_c, 0, 77, 49
1, 75359, Note_on_c, 0, 77, 0
1, 75600, Note_on_c, 0, 69, 49
1, 75839, Note_on_c, 0, 69, 0
1, 75840, Note_on_c, 0, 72, 49
1, 76079, Note_on_c, 0, 72, 0
1, 76080, Note_on_c, 0, 77, 49
1, 76319, Note_on_c, 0, 77, 0
1, 76320, Note_on_c, 0, 76, 49
1, 76799, Note_on_c, 0, 76, 0
1, 77040, Note_on_c, 0, 73, 49
1, 77279, Note_on_c, 0, 73, 0
1, 77280, Note_on_c, 0, 76, 49
1, 77519, Note_on_c, 0, 76, 0
1, 77520, Note_on_c, 0, 79, 49
1, 77759, Note_on_c, 0, 79, 0
1, 77760, Note_on_c, 0, 77, 49
1, 78239, Note_on_c, 0, 77, 0
1, 78480, Note_on_c, 0, 74, 49
1, 78719, Note_on_c, 0, 74, 0
1, 78720, Note_on_c, 0, 77, 49
1, 78959, Note_on_c, 0, 77, 0
1, 78960, Note_on_c, 0, 74, 49
1, 79199, Note_on_c, 0, 74, 0
1, 79200, Note_on_c, 0, 73, 49
1, 79679, Note_on_c, 0, 73, 0
1, 79920, Note_on_c, 0, 76, 49
1, 80159, Note_on_c, 0, 76, 0
1, 80160, Note_on_c, 0, 69, 49
1, 80639, Note_on_c, 0, 69, 0
1, 80880, Note_on_c, 0, 69, 49
1, 81119, Note_on_c, 0, 69, 0
1, 81120, Note_on_c, 0, 65, 49
1, 81359, Note_on_c, 0, 65, 0
1, 81360, Note_on_c, 0, 62, 49
1, 81599, Note_on_c, 0, 62, 0
1, 81600, Note_on_c, 0, 77, 49
1, 82079, Note_on_c, 0, 77, 0
1, 82320, Note_on_c, 0, 69, 49
1, 82559, Note_on_c, 0, 69, 0
1, 82560, Note_on_c, 0, 64, 49
1, 82799, Note_on_c, 0, 64, 0
1, 82800, Note_on_c, 0, 61, 49
1, 83039, Note_on_c, 0, 61, 0
1, 83040, Note_on_c, 0, 76, 49
1, 83519, Note_on_c, 0, 76, 0
1, 83760, Note_on_c, 0, 69, 49
1, 83999, Note_on_c, 0, 69, 0
1, 84000, Note_on_c, 0, 65, 49
1, 84239, Note_on_c, 0, 65, 0
1, 84240, Note_on_c, 0, 62, 49
1, 84479, Note_on_c, 0, 62, 0
1, 84480, Note_on_c, 0, 77, 49
1, 84959, Note_on_c, 0, 77, 0
1, 85200, Note_on_c, 0, 72, 49
1, 85439, Note_on_c, 0, 72, 0
1, 85440, Note_on_c, 0, 67, 49
1, 85679, Note_on_c, 0, 67, 0
1, 85680, Note_on_c, 0, 64, 49
1, 85919, Note_on_c, 0, 64, 0
1, 85920, Note_on_c, 0, 79, 49
1, 86399, Note_on_c, 0, 79, 0
1, 86640, Note_on_c, 0, 72, 49
1, 86879, Note_on_c, 0, 72, 0
1, 86880, Note_on_c, 0, 69, 49
1, 87119, Note_on_c, 0, 69, 0
1, 87120, Note_on_c, 0, 65, 49
1, 87359, Note_on_c, 0, 65, 0
1, 87360, Note_on_c, 0, 81, 49
1, 87839, Note_on_c, 0, 81, 0
1, 87840, Note_on_c, 0, 79, 49
1, 88319, Note_on_c, 0, 79, 0
1, 88320, Note_on_c, 0, 77, 49
1, 88799, Note_on_c, 0, 77, 0
1, 88800, Note_on_c, 0, 76, 49
1, 89279, Note_on_c, 0, 76, 0
1, 89280, Note_on_c, 0, 77, 49
1, 89519, Note_on_c, 0, 77, 0
1, 89520, Note_on_c, 0, 79, 49
1, 89759, Note_on_c, 0, 79, 0
1, 89760, Note_on_c, 0, 76, 49
1, 90479, Note_on_c, 0, 76, 0
1, 90480, Note_on_c, 0, 74, 49
1, 90719, Note_on_c, 0, 74, 0
1, 90720, Note_on_c, 0, 74, 49
1, 92159, Note_on_c, 0, 74, 0
1, 93720, Note_on_c, 0, 81, 49
1, 93839, Note_on_c, 0, 81, 0
1, 93840, Note_on_c, 0, 79, 49
1, 93959, Note_on_c, 0, 79, 0
1, 93960, Note_on_c, 0, 77, 49
1, 94079, Note_on_c, 0, 77, 0
1, 94080, Note_on_c, 0, 76, 49
1, 94199, Note_on_c, 0, 76, 0
1, 94200, Note_on_c, 0, 74, 49
1, 94319, Note_on_c, 0, 74, 0
1, 94320, Note_on_c, 0, 73, 49
1, 94439, Note_on_c, 0, 73, 0
1, 94440, Note_on_c, 0, 71, 49
1, 94559, Note_on_c, 0, 71, 0
1, 94560, Note_on_c, 0, 69, 49
1, 94799, Note_on_c, 0, 69, 0
1, 94800, Note_on_c, 0, 81, 49
1, 95039, Note_on_c, 0, 81, 0
1, 95040, Note_on_c, 0, 77, 49
1, 95519, Note_on_c, 0, 77, 0
1, 96600, Note_on_c, 0, 84, 49
1, 96719, Note_on_c, 0, 84, 0
1, 96720, Note_on_c, 0, 82, 49
1, 96839, Note_on_c, 0, 82, 0
1, 96840, Note_on_c, 0, 81, 49
1, 96959, Note_on_c, 0, 81, 0
1, 96960, Note_on_c, 0, 79, 49
1, 97079, Note_on_c, 0, 79, 0
1, 97080, Note_on_c, 0, 77, 49
1, 97199, Note_on_c, 0, 77, 0
1, 97200, Note_on_c, 0, 76, 49
1, 97319, Note_on_c, 0, 76, 0
1, 97320, Note_on_c, 0, 74, 49
1, 97439, Note_on_c, 0, 74, 0
1, 97440, Note_on_c, 0, 72, 49
1, 97679, Note_on_c, 0, 72, 0
1, 97680, Note_on_c, 0, 84, 49
1, 97919, Note_on_c, 0, 84, 0
1, 97920, Note_on_c, 0, 81, 49
1, 98399, Note_on_c, 0, 81, 0
1, 99480, Note_on_c, 0, 81, 49
1, 99599, Note_on_c, 0, 81, 0
1, 99600, Note_on_c, 0, 79, 49
1, 99719, Note_on_c, 0, 79, 0
1, 99720, Note_on_c, 0, 77, 49
1, 99839, Note_on_c, 0, 77, 0
1, 99840, Note_on_c, 0, 76, 49
1, 99959, Note_on_c, 0, 76, 0
1, 99960, Note_on_c, 0, 74, 49
1, 100079, Note_on_c, 0, 74, 0
1, 100080, Note_on_c, 0, 73, 49
1, 100199, Note_on_c, 0, 73, 0
1, 100200, Note_on_c, 0, 71, 49
1, 100319, Note_on_c, 0, 71, 0
1, 100320, Note_on_c, 0, 69, 49
1, 100559, Note_on_c, 0, 69, 0
1, 100560, Note_on_c, 0, 81, 49
1, 100799, Note_on_c, 0, 81, 0
1, 100800, Note_on_c, 0, 77, 49
1, 101279, Note_on_c, 0, 77, 0
1, 102240, Note_on_c, 0, 76, 49
1, 102719, Note_on_c, 0, 76, 0
1, 102720, Note_on_c, 0, 79, 49
1, 103439, Note_on_c, 0, 79, 0
1, 103440, Note_on_c, 0, 79, 49
1, 103679, Note_on_c, 0, 79, 0
1, 103680, Note_on_c, 0, 77, 49
1, 104159, Note_on_c, 0, 77, 0
1, 105240, Note_on_c, 0, 81, 49
1, 105359, Note_on_c, 0, 81, 0
1, 105360, Note_on_c, 0, 79, 49
1, 105479, Note_on_c, 0, 79, 0
1, 105480, Note_on_c, 0, 77, 49
1, 105599, Note_on_c, 0, 77, 0
1, 105600, Note_on_c, 0, 76, 49
1, 105719, Note_on_c, 0, 76, 0
1, 105720, Note_on_c, 0, 74, 49
1, 105839, Note_on_c, 0, 74, 0
1, 105840, Note_on_c, 0, 73, 49
1, 105959, Note_on_c, 0, 73, 0
1, 105960, Note_on_c, 0, 71, 49
1, 106079, Note_on_c, 0, 71, 0
1, 106080, Note_on_c, 0, 69, 49
1, 106319, Note_on_c, 0, 69, 0
1, 106320, Note_on_c, 0, 81, 49
1, 106559, Note_on_c, 0, 81, 0
1, 106560, Note_on_c, 0, 77, 49
1, 107039, Note_on_c, 0, 77, 0
1, 108120, Note_on_c, 0, 84, 49
1, 108239, Note_on_c, 0, 84, 0
1, 108240, Note_on_c, 0, 82, 49
1, 108359, Note_on_c, 0, 82, 0
1, 108360, Note_on_c, 0, 81, 49
1, 108479, Note_on_c, 0, 81, 0
1, 108480, Note_on_c, 0, 79, 49
1, 108599, Note_on_c, 0, 79, 0
1, 108600, Note_on_c, 0, 77, 49
1, 108719, Note_on_c, 0, 77, 0
1, 108720, Note_on_c, 0, 76, 49
1, 108839, Note_on_c, 0, 76, 0
1, 108840, Note_on_c, 0, 74, 49
1, 108959, Note_on_c, 0, 74, 0
1, 108960, Note_on_c, 0, 72, 49
1, 109199, Note_on_c, 0, 72, 0
1, 109200, Note_on_c, 0, 84, 49
1, 109439, Note_on_c, 0, 84, 0
1, 109440, Note_on_c, 0, 81, 49
1, 109919, Note_on_c, 0, 81, 0
1, 111000, Note_on_c, 0, 81, 49
1, 111119, Note_on_c, 0, 81, 0
1, 111120, Note_on_c, 0, 79, 49
1, 111239, Note_on_c, 0, 79, 0
1, 111240, Note_on_c, 0, 77, 49
1, 111359, Note_on_c, 0, 77, 0
1, 111360, Note_on_c, 0, 76, 49
1, 111479, Note_on_c, 0, 76, 0
1, 111480, Note_on_c, 0, 74, 49
1, 111599, Note_on_c, 0, 74, 0
1, 111600, Note_on_c, 0, 73, 49
1, 111719, Note_on_c, 0, 73, 0
1, 111720, Note_on_c, 0, 71, 49
1, 111839, Note_on_c, 0, 71, 0
1, 111840, Note_on_c, 0, 69, 49
1, 112079, Note_on_c, 0, 69, 0
1, 112080, Note_on_c, 0, 79, 49
1, 112319, Note_on_c, 0, 79, 0
1, 112320, Note_on_c, 0, 77, 49
1, 112559, Note_on_c, 0, 77, 0
1, 112560, Note_on_c, 0, 76, 49
1, 112679, Note_on_c, 0, 76, 0
1, 112680, Note_on_c, 0, 74, 49
1, 112799, Note_on_c, 0, 74, 0
1, 112800, Note_on_c, 0, 73, 49
1, 113519, Note_on_c, 0, 73, 0
1, 113520, Note_on_c, 0, 74, 49
1, 113759, Note_on_c, 0, 74, 0
1, 113760, Note_on_c, 0, 74, 49
1, 115199, Note_on_c, 0, 74, 0
1, 116640, Note_on_c, 0, 81, 49
1, 116879, Note_on_c, 0, 81, 0
1, 116880, Note_on_c, 0, 76, 49
1, 117119, Note_on_c, 0, 76, 0
1, 117120, Note_on_c, 0, 73, 49
1, 117359, Note_on_c, 0, 73, 0
1, 117360, Note_on_c, 0, 69, 49
1, 117599, Note_on_c, 0, 69, 0
1, 117600, Note_on_c, 0, 76, 49
1, 117839, Note_on_c, 0, 76, 0
1, 117840, Note_on_c, 0, 79, 49
1, 118079, Note_on_c, 0, 79, 0
1, 118080, Note_on_c, 0, 77, 49
1, 118559, Note_on_c, 0, 77, 0
1, 118560, Note_on_c, 0, 77, 49
1, 119279, Note_on_c, 0, 77, 0
1, 119280, Note_on_c, 0, 77, 49
1, 119519, Note_on_c, 0, 77, 0
1, 119520, Note_on_c, 0, 79, 49
1, 119759, Note_on_c, 0, 79, 0
1, 119760, Note_on_c, 0, 76, 49
1, 119999, Note_on_c, 0, 76, 0
1, 120000, Note_on_c, 0, 72, 49
1, 120239, Note_on_c, 0, 72, 0
1, 120240, Note_on_c, 0, 76, 49
1, 120479, Note_on_c, 0, 76, 0
1, 120480, Note_on_c, 0, 79, 49
1, 120719, Note_on_c, 0, 79, 0
1, 120720, Note_on_c, 0, 82, 49
1, 120959, Note_on_c, 0, 82, 0
1, 120960, Note_on_c, 0, 81, 49
1, 121679, Note_on_c, 0, 81, 0
1, 121680, Note_on_c, 0, 81, 49
1, 121919, Note_on_c, 0, 81, 0
1, 121920, Note_on_c, 0, 72, 49
1, 122159, Note_on_c, 0, 72, 0
1, 122160, Note_on_c, 0, 81, 49
1, 122399, Note_on_c, 0, 81, 0
1, 122400, Note_on_c, 0, 79, 49
1, 123119, Note_on_c, 0, 79, 0
1, 123120, Note_on_c, 0, 79, 49
1, 123359, Note_on_c, 0, 79, 0
1, 123360, Note_on_c, 0, 73, 49
1, 123599, Note_on_c, 0, 73, 0
1, 123600, Note_on_c, 0, 79, 49
1, 123839, Note_on_c, 0, 79, 0
1, 123840, Note_on_c, 0, 77, 49
1, 124079, Note_on_c, 0, 77, 0
1, 124080, Note_on_c, 0, 74, 49
1, 124319, Note_on_c, 0, 74, 0
1, 124320, Note_on_c, 0, 81, 49
1, 125039, Note_on_c, 0, 81, 0
1, 125040, Note_on_c, 0, 82, 49
1, 125279, Note_on_c, 0, 82, 0
1, 125280, Note_on_c, 0, 73, 49
1, 125519, Note_on_c, 0, 73, 0
1, 125520, Note_on_c, 0, 81, 49
1, 125759, Note_on_c, 0, 81, 0
1, 125760, Note_on_c, 0, 81, 49
1, 125999, Note_on_c, 0, 81, 0
1, 126000, Note_on_c, 0, 79, 49
1, 126239, Note_on_c, 0, 79, 0
1, 126240, Note_on_c, 0, 79, 49
1, 126479, Note_on_c, 0, 79, 0
1, 126480, Note_on_c, 0, 77, 49
1, 126719, Note_on_c, 0, 77, 0
1, 126720, Note_on_c, 0, 77, 49
1, 127199, Note_on_c, 0, 77, 0
1, 128160, Note_on_c, 0, 81, 49
1, 128399, Note_on_c, 0, 81, 0
1, 128400, Note_on_c, 0, 76, 49
1, 128639, Note_on_c, 0, 76, 0
1, 128640, Note_on_c, 0, 73, 49
1, 128879, Note_on_c, 0, 73, 0
1, 128880, Note_on_c, 0, 69, 49
1, 129119, Note_on_c, 0, 69, 0
1, 129120, Note_on_c, 0, 76, 49
1, 129359, Note_on_c, 0, 76, 0
1, 129360, Note_on_c, 0, 79, 49
1, 129599, Note_on_c, 0, 79, 0
1, 129600, Note_on_c, 0, 77, 49
1, 130079, Note_on_c, 0, 77, 0
1, 130080, Note_on_c, 0, 77, 49
1, 130799, Note_on_c, 0, 77, 0
1, 130800, Note_on_c, 0, 77, 49
1, 131039, Note_on_c, 0, 77, 0
1, 131040, Note_on_c, 0, 79, 49
1, 131279, Note_on_c, 0, 79, 0
1, 131280, Note_on_c, 0, 76, 49
1, 131519, Note_on_c, 0, 76, 0
1, 131520, Note_on_c, 0, 72, 49
1, 131759, Note_on_c, 0, 72, 0
1, 131760, Note_on_c, 0, 76, 49
1, 131999, Note_on_c, 0, 76, 0
1, 132000, Note_on_c, 0, 79, 49
1, 132239, Note_on_c, 0, 79, 0
1, 132240, Note_on_c, 0, 82, 49
1, 132479, Note_on_c, 0, 82, 0
1, 132480, Note_on_c, 0, 81, 49
1, 133199, Note_on_c, 0, 81, 0
1, 133200, Note_on_c, 0, 81, 49
1, 133439, Note_on_c, 0, 81, 0
1, 133440, Note_on_c, 0, 72, 49
1, 133679, Note_on_c, 0, 72, 0
1, 133680, Note_on_c, 0, 81, 49
1, 133919, Note_on_c, 0, 81, 0
1, 133920, Note_on_c, 0, 79, 49
1, 134639, Note_on_c, 0, 79, 0
1, 134640, Note_on_c, 0, 79, 49
1, 134879, Note_on_c, 0, 79, 0
1, 134880, Note_on_c, 0, 73, 49
1, 135119, Note_on_c, 0, 73, 0
1, 135120, Note_on_c, 0, 79, 49
1, 135359, Note_on_c, 0, 79, 0
1, 135360, Note_on_c, 0, 77, 49
1, 135599, Note_on_c, 0, 77, 0
1, 135600, Note_on_c, 0, 73, 49
1, 135839, Note_on_c, 0, 73, 0
1, 135840, Note_on_c, 0, 74, 49
1, 136079, Note_on_c, 0, 74, 0
1, 136080, Note_on_c, 0, 65, 49
1, 136319, Note_on_c, 0, 65, 0
1, 136320, Note_on_c, 0, 57, 49
1, 136559, Note_on_c, 0, 57, 0
1, 136560, Note_on_c, 0, 73, 49
1, 136799, Note_on_c, 0, 73, 0
1, 136800, Note_on_c, 0, 74, 49
1, 138239, Note_on_c, 0, 74, 0
1, 138840, Note_on_c, 0, 77, 49
1, 138959, Note_on_c, 0, 77, 0
1, 138960, Note_on_c, 0, 81, 49
1, 139079, Note_on_c, 0, 81, 0
1, 139080, Note_on_c, 0, 77, 49
1, 139199, Note_on_c, 0, 77, 0
1, 139200, Note_on_c, 0, 74, 49
1, 139319, Note_on_c, 0, 74, 0
1, 139320, Note_on_c, 0, 69, 49
1, 139439, Note_on_c, 0, 69, 0
1, 139440, Note_on_c, 0, 81, 49
1, 139559, Note_on_c, 0, 81, 0
1, 139560, Note_on_c, 0, 77, 49
1, 139679, Note_on_c, 0, 77, 0
1, 139680, Note_on_c, 0, 76, 49
1, 140159, Note_on_c, 0, 76, 0
1, 140280, Note_on_c, 0, 76, 49
1, 140399, Note_on_c, 0, 76, 0
1, 140400, Note_on_c, 0, 81, 49
1, 140519, Note_on_c, 0, 81, 0
1, 140520, Note_on_c, 0, 76, 49
1, 140639, Note_on_c, 0, 76, 0
1, 140640, Note_on_c, 0, 73, 49
1, 140759, Note_on_c, 0, 73, 0
1, 140760, Note_on_c, 0, 69, 49
1, 140879, Note_on_c, 0, 69, 0
1, 140880, Note_on_c, 0, 79, 49
1, 140999, Note_on_c, 0, 79, 0
1, 141000, Note_on_c, 0, 76, 49
1, 141119, Note_on_c, 0, 76, 0
1, 141120, Note_on_c, 0, 77, 49
1, 141599, Note_on_c, 0, 77, 0
1, 141720, Note_on_c, 0, 77, 49
1, 141839, Note_on_c, 0, 77, 0
1, 141840, Note_on_c, 0, 81, 49
1, 141959, Note_on_c, 0, 81, 0
1, 141960, Note_on_c, 0, 77, 49
1, 142079, Note_on_c, 0, 77, 0
1, 142080, Note_on_c, 0, 74, 49
1, 142199, Note_on_c, 0, 74, 0
1, 142200, Note_on_c, 0, 69, 49
1, 142319, Note_on_c, 0, 69, 0
1, 142320, Note_on_c, 0, 81, 49
1, 142439, Note_on_c, 0, 81, 0
1, 142440, Note_on_c, 0, 77, 49
1, 142559, Note_on_c, 0, 77, 0
1, 142560, Note_on_c, 0, 79, 49
1, 143039, Note_on_c, 0, 79, 0
1, 143160, Note_on_c, 0, 79, 49
1, 143279, Note_on_c, 0, 79, 0
1, 143280, Note_on_c, 0, 84, 49
1, 143399, Note_on_c, 0, 84, 0
1, 143400, Note_on_c, 0, 79, 49
1, 143519, Note_on_c, 0, 79, 0
1, 143520, Note_on_c, 0, 76, 49
1, 143639, Note_on_c, 0, 76, 0
1, 143640, Note_on_c, 0, 72, 49
1, 143759, Note_on_c, 0, 72, 0
1, 143760, Note_on_c, 0, 84, 49
1, 143879, Note_on_c, 0, 84, 0
1, 143880, Note_on_c, 0, 79, 49
1, 143999, Note_on_c, 0, 79, 0
1, 144000, Note_on_c, 0, 81, 49
1, 144479, Note_on_c, 0, 81, 0
1, 144600, Note_on_c, 0, 81, 49
1, 144719, Note_on_c, 0, 81, 0
1, 144720, Note_on_c, 0, 84, 49
1, 144839, Note_on_c, 0, 84, 0
1, 144840, Note_on_c, 0, 81, 49
1, 144959, Note_on_c, 0, 81, 0
1, 144960, Note_on_c, 0, 77, 49
1, 145079, Note_on_c, 0, 77, 0
1, 145080, Note_on_c, 0, 72, 49
1, 145199, Note_on_c, 0, 72, 0
1, 145200, Note_on_c, 0, 84, 49
1, 145319, Note_on_c, 0, 84, 0
1, 145320, Note_on_c, 0, 81, 49
1, 145439, Note_on_c, 0, 81, 0
1, 145440, Note_on_c, 0, 79, 49
1, 145919, Note_on_c, 0, 79, 0
1, 146040, Note_on_c, 0, 82, 49
1, 146159, Note_on_c, 0, 82, 0
1, 146160, Note_on_c, 0, 79, 49
1, 146279, Note_on_c, 0, 79, 0
1, 146280, Note_on_c, 0, 76, 49
1, 146399, Note_on_c, 0, 76, 0
1, 146400, Note_on_c, 0, 73, 49
1, 146519, Note_on_c, 0, 73, 0
1, 146520, Note_on_c, 0, 76, 49
1, 146639, Note_on_c, 0, 76, 0
1, 146640, Note_on_c, 0, 79, 49
1, 146759, Note_on_c, 0, 79, 0
1, 146760, Note_on_c, 0, 76, 49
1, 146879, Note_on_c, 0, 76, 0
1, 146880, Note_on_c, 0, 77, 49
1, 147359, Note_on_c, 0, 77, 0
1, 147480, Note_on_c, 0, 77, 49
1, 147599, Note_on_c, 0, 77, 0
1, 147600, Note_on_c, 0, 81, 49
1, 147719, Note_on_c, 0, 81, 0
1, 147720, Note_on_c, 0, 77, 49
1, 147839, Note_on_c, 0, 77, 0
1, 147840, Note_on_c, 0, 74, 49
1, 147959, Note_on_c, 0, 74, 0
1, 147960, Note_on_c, 0, 69, 49
1, 148079, Note_on_c, 0, 69, 0
1, 148080, Note_on_c, 0, 77, 49
1, 148199, Note_on_c, 0, 77, 0
1, 148200, Note_on_c, 0, 74, 49
1, 148319, Note_on_c, 0, 74, 0
1, 148320, Note_on_c, 0, 73, 49
1, 148559, Note_on_c, 0, 73, 0
1, 148560, Note_on_c, 0, 69, 49
1, 148799, Note_on_c, 0, 69, 0
1, 148800, Note_on_c, 0, 76, 49
1, 148919, Note_on_c, 0, 76, 0
1, 148920, Note_on_c, 0, 81, 49
1, 149039, Note_on_c, 0, 81, 0
1, 149040, Note_on_c, 0, 76, 49
1, 149159, Note_on_c, 0, 76, 0
1, 149160, Note_on_c, 0, 73, 49
1, 149279, Note_on_c, 0, 73, 0
1, 149280, Note_on_c, 0, 69, 49
1, 149399, Note_on_c, 0, 69, 0
1, 149400, Note_on_c, 0, 76, 49
1, 149519, Note_on_c, 0, 76, 0
1, 149520, Note_on_c, 0, 81, 49
1, 149639, Note_on_c, 0, 81, 0
1, 149640, Note_on_c, 0, 79, 49
1, 149759, Note_on_c, 0, 79, 0
1, 149760, Note_on_c, 0, 77, 49
1, 150239, Note_on_c, 0, 77, 0
1, 150360, Note_on_c, 0, 77, 49
1, 150479, Note_on_c, 0, 77, 0
1, 150480, Note_on_c, 0, 81, 49
1, 150599, Note_on_c, 0, 81, 0
1, 150600, Note_on_c, 0, 77, 49
1, 150719, Note_on_c, 0, 77, 0
1, 150720, Note_on_c, 0, 74, 49
1, 150839, Note_on_c, 0, 74, 0
1, 150840, Note_on_c, 0, 69, 49
1, 150959, Note_on_c, 0, 69, 0
1, 150960, Note_on_c, 0, 81, 49
1, 151079, Note_on_c, 0, 81, 0
1, 151080, Note_on_c, 0, 77, 49
1, 151199, Note_on_c, 0, 77, 0
1, 151200, Note_on_c, 0, 76, 49
1, 151679, Note_on_c, 0, 76, 0
1, 151800, Note_on_c, 0, 76, 49
1, 151919, Note_on_c, 0, 76, 0
1, 151920, Note_on_c, 0, 79, 49
1, 152039, Note_on_c, 0, 79, 0
1, 152040, Note_on_c, 0, 76, 49
1, 152159, Note_on_c, 0, 76, 0
1, 152160, Note_on_c, 0, 73, 49
1, 152279, Note_on_c, 0, 73, 0
1, 152280, Note_on_c, 0, 69, 49
1, 152399, Note_on_c, 0, 69, 0
1, 152400, Note_on_c, 0, 79, 49
1, 152519, Note_on_c, 0, 79, 0
1, 152520, Note_on_c, 0, 76, 49
1, 152639, Note_on_c, 0, 76, 0
1, 152640, Note_on_c, 0, 77, 49
1, 153119, Note_on_c, 0, 77, 0
1, 153240, Note_on_c, 0, 77, 49
1, 153359, Note_on_c, 0, 77, 0
1, 153360, Note_on_c, 0, 81, 49
1, 153479, Note_on_c, 0, 81, 0
1, 153480, Note_on_c, 0, 77, 49
1, 153599, Note_on_c, 0, 77, 0
1, 153600, Note_on_c, 0, 74, 49
1, 153719, Note_on_c, 0, 74, 0
1, 153720, Note_on_c, 0, 69, 49
1, 153839, Note_on_c, 0, 69, 0
1, 153840, Note_on_c, 0, 81, 49
1, 153959, Note_on_c, 0, 81, 0
1, 153960, Note_on_c, 0, 77, 49
1, 154079, Note_on_c, 0, 77, 0
1, 154080, Note_on_c, 0, 79, 49
1, 154559, Note_on_c, 0, 79, 0
1, 154680, Note_on_c, 0, 79, 49
1, 154799, Note_on_c, 0, 79, 0
1, 154800, Note_on_c, 0, 84, 49
1, 154919, Note_on_c, 0, 84, 0
1, 154920, Note_on_c, 0, 79, 49
1, 155039, Note_on_c, 0, 79, 0
1, 155040, Note_on_c, 0, 76, 49
1, 155159, Note_on_c, 0, 76, 0
1, 155160, Note_on_c, 0, 72, 49
1, 155279, Note_on_c, 0, 72, 0
1, 155280, Note_on_c, 0, 84, 49
1, 155399, Note_on_c, 0, 84, 0
1, 155400, Note_on_c, 0, 79, 49
1, 155519, Note_on_c, 0, 79, 0
1, 155520, Note_on_c, 0, 81, 49
1, 155999, Note_on_c, 0, 81, 0
1, 156120, Note_on_c, 0, 81, 49
1, 156239, Note_on_c, 0, 81, 0
1, 156240, Note_on_c, 0, 84, 49
1, 156359, Note_on_c, 0, 84, 0
1, 156360, Note_on_c, 0, 81, 49
1, 156479, Note_on_c, 0, 81, 0
1, 156480, Note_on_c, 0, 77, 49
1, 156599, Note_on_c, 0, 77, 0
1, 156600, Note_on_c, 0, 72, 49
1, 156719, Note_on_c, 0, 72, 0
1, 156720, Note_on_c, 0, 84, 49
1, 156839, Note_on_c, 0, 84, 0
1, 156840, Note_on_c, 0, 81, 49
1, 156959, Note_on_c, 0, 81, 0
1, 156960, Note_on_c, 0, 79, 49
1, 157439, Note_on_c, 0, 79, 0
1, 157560, Note_on_c, 0, 82, 49
1, 157679, Note_on_c, 0, 82, 0
1, 157680, Note_on_c, 0, 79, 49
1, 157799, Note_on_c, 0, 79, 0
1, 157800, Note_on_c, 0, 76, 49
1, 157919, Note_on_c, 0, 76, 0
1, 157920, Note_on_c, 0, 73, 49
1, 158039, Note_on_c, 0, 73, 0
1, 158040, Note_on_c, 0, 69, 49
1, 158159, Note_on_c, 0, 69, 0
1, 158160, Note_on_c, 0, 79, 49
1, 158279, Note_on_c, 0, 79, 0
1, 158280, Note_on_c, 0, 76, 49
1, 158399, Note_on_c, 0, 76, 0
1, 158400, Note_on_c, 0, 77, 49
1, 158639, Note_on_c, 0, 77, 0
1, 158640, Note_on_c, 0, 76, 49
1, 158759, Note_on_c, 0, 76, 0
1, 158760, Note_on_c, 0, 74, 49
1, 158879, Note_on_c, 0, 74, 0
1, 158880, Note_on_c, 0, 73, 49
1, 159119, Note_on_c, 0, 73, 0
1, 159120, Note_on_c, 0, 74, 49
1, 159359, Note_on_c, 0, 74, 0
1, 159360, Note_on_c, 0, 64, 49
1, 159599, Note_on_c, 0, 64, 0
1, 159600, Note_on_c, 0, 73, 49
1, 159839, Note_on_c, 0, 73, 0
1, 159840, Note_on_c, 0, 62, 49
1, 161279, Note_on_c, 0, 62, 0
1, 161280, Note_on_c, 0, 74, 49
1, 161519, Note_on_c, 0, 74, 0
1, 161520, Note_on_c, 0, 69, 49
1, 161759, Note_on_c, 0, 69, 0
1, 161760, Note_on_c, 0, 77, 49
1, 161999, Note_on_c, 0, 77, 0
1, 162000, Note_on_c, 0, 74, 49
1, 162239, Note_on_c, 0, 74, 0
1, 162240, Note_on_c, 0, 81, 49
1, 162479, Note_on_c, 0, 81, 0
1, 162480, Note_on_c, 0, 74, 49
1, 162719, Note_on_c, 0, 74, 0
1, 162720, Note_on_c, 0, 73, 49
1, 162959, Note_on_c, 0, 73, 0
1, 162960, Note_on_c, 0, 69, 49
1, 163199, Note_on_c, 0, 69, 0
1, 163200, Note_on_c, 0, 76, 49
1, 163439, Note_on_c, 0, 76, 0
1, 163440, Note_on_c, 0, 73, 49
1, 163679, Note_on_c, 0, 73, 0
1, 163680, Note_on_c, 0, 81, 49
1, 163919, Note_on_c, 0, 81, 0
1, 163920, Note_on_c, 0, 73, 49
1, 164159, Note_on_c, 0, 73, 0
1, 164160, Note_on_c, 0, 74, 49
1, 164399, Note_on_c, 0, 74, 0
1, 164400, Note_on_c, 0, 69, 49
1, 164639, Note_on_c, 0, 69, 0
1, 164640, Note_on_c, 0, 77, 49
1, 164879, Note_on_c, 0, 77, 0
1, 164880, Note_on_c, 0, 74, 49
1, 165119, Note_on_c, 0, 74, 0
1, 165120, Note_on_c, 0, 81, 49
1, 165359, Note_on_c, 0, 81, 0
1, 165360, Note_on_c, 0, 74, 49
1, 165599, Note_on_c, 0, 74, 0
1, 165600, Note_on_c, 0, 76, 49
1, 165839, Note_on_c, 0, 76, 0
1, 165840, Note_on_c, 0, 72, 49
1, 166079, Note_on_c, 0, 72, 0
1, 166080, Note_on_c, 0, 79, 49
1, 166319, Note_on_c, 0, 79, 0
1, 166320, Note_on_c, 0, 76, 49
1, 166559, Note_on_c, 0, 76, 0
1, 166560, Note_on_c, 0, 84, 49
1, 166799, Note_on_c, 0, 84, 0
1, 166800, Note_on_c, 0, 76, 49
1, 167039, Note_on_c, 0, 76, 0
1, 167040, Note_on_c, 0, 77, 49
1, 167279, Note_on_c, 0, 77, 0
1, 167280, Note_on_c, 0, 72, 49
1, 167519, Note_on_c, 0, 72, 0
1, 167520, Note_on_c, 0, 81, 49
1, 167759, Note_on_c, 0, 81, 0
1, 167760, Note_on_c, 0, 77, 49
1, 167999, Note_on_c, 0, 77, 0
1, 168000, Note_on_c, 0, 84, 49
1, 168239, Note_on_c, 0, 84, 0
1, 168240, Note_on_c, 0, 77, 49
1, 168479, Note_on_c, 0, 77, 0
1, 168480, Note_on_c, 0, 76, 49
1, 168719, Note_on_c, 0, 76, 0
1, 168720, Note_on_c, 0, 72, 49
1, 168959, Note_on_c, 0, 72, 0
1, 168960, Note_on_c, 0, 79, 49
1, 169199, Note_on_c, 0, 79, 0
1, 169200, Note_on_c, 0, 76, 49
1, 169439, Note_on_c, 0, 76, 0
1, 169440, Note_on_c, 0, 82, 49
1, 169679, Note_on_c, 0, 82, 0
1, 169680, Note_on_c, 0, 76, 49
1, 169919, Note_on_c, 0, 76, 0
1, 169920, Note_on_c, 0, 81, 49
1, 170159, Note_on_c, 0, 81, 0
1, 170160, Note_on_c, 0, 69, 49
1, 170399, Note_on_c, 0, 69, 0
1, 170400, Note_on_c, 0, 74, 49
1, 170639, Note_on_c, 0, 74, 0
1, 170640, Note_on_c, 0, 77, 49
1, 170879, Note_on_c, 0, 77, 0
1, 170880, Note_on_c, 0, 76, 49
1, 171119, Note_on_c, 0, 76, 0
1, 171120, Note_on_c, 0, 74, 49
1, 171359, Note_on_c, 0, 74, 0
1, 171360, Note_on_c, 0, 73, 49
1, 171519, Note_on_c, 0, 73, 0
1, 171520, Note_on_c, 0, 70, 49
1, 171679, Note_on_c, 0, 70, 0
1, 171680, Note_on_c, 0, 69, 49
1, 171839, Note_on_c, 0, 69, 0
1, 171840, Note_on_c, 0, 76, 49
1, 171999, Note_on_c, 0, 76, 0
1, 172000, Note_on_c, 0, 74, 49
1, 172159, Note_on_c, 0, 74, 0
1, 172160, Note_on_c, 0, 73, 49
1, 172319, Note_on_c, 0, 73, 0
1, 172320, Note_on_c, 0, 81, 49
1, 172559, Note_on_c, 0, 81, 0
1, 172560, Note_on_c, 0, 73, 49
1, 172799, Note_on_c, 0, 73, 0
1, 172800, Note_on_c, 0, 74, 49
1, 173039, Note_on_c, 0, 74, 0
1, 173040, Note_on_c, 0, 69, 49
1, 173279, Note_on_c, 0, 69, 0
1, 173280, Note_on_c, 0, 77, 49
1, 173439, Note_on_c, 0, 77, 0
1, 173440, Note_on_c, 0, 76, 49
1, 173599, Note_on_c, 0, 76, 0
1, 173600, Note_on_c, 0, 74, 49
1, 173759, Note_on_c, 0, 74, 0
1, 173760, Note_on_c, 0, 81, 49
1, 173999, Note_on_c, 0, 81, 0
1, 174000, Note_on_c, 0, 74, 49
1, 174239, Note_on_c, 0, 74, 0
1, 174240, Note_on_c, 0, 73, 49
1, 174399, Note_on_c, 0, 73, 0
1, 174400, Note_on_c, 0, 70, 49
1, 174559, Note_on_c, 0, 70, 0
1, 174560, Note_on_c, 0, 69, 49
1, 174719, Note_on_c, 0, 69, 0
1, 174720, Note_on_c, 0, 76, 49
1, 174879, Note_on_c, 0, 76, 0
1, 174880, Note_on_c, 0, 74, 49
1, 175039, Note_on_c, 0, 74, 0
1, 175040, Note_on_c, 0, 73, 49
1, 175199, Note_on_c, 0, 73, 0
1, 175200, Note_on_c, 0, 81, 49
1, 175439, Note_on_c, 0, 81, 0
1, 175440, Note_on_c, 0, 73, 49
1, 175679, Note_on_c, 0, 73, 0
1, 175680, Note_on_c, 0, 74, 49
1, 175919, Note_on_c, 0, 74, 0
1, 175920, Note_on_c, 0, 69, 49
1, 176159, Note_on_c, 0, 69, 0
1, 176160, Note_on_c, 0, 77, 49
1, 176319, Note_on_c, 0, 77, 0
1, 176320, Note_on_c, 0, 76, 49
1, 176479, Note_on_c, 0, 76, 0
1, 176480, Note_on_c, 0, 74, 49
1, 176639, Note_on_c, 0, 74, 0
1, 176640, Note_on_c, 0, 81, 49
1, 176879, Note_on_c, 0, 81, 0
1, 176880, Note_on_c, 0, 74, 49
1, 177119, Note_on_c, 0, 74, 0
1, 177120, Note_on_c, 0, 76, 49
1, 177279, Note_on_c, 0, 76, 0
1, 177280, Note_on_c, 0, 74, 49
1, 177439, Note_on_c, 0, 74, 0
1, 177440, Note_on_c, 0, 72, 49
1, 177599, Note_on_c, 0, 72, 0
1, 177600, Note_on_c, 0, 79, 49
1, 177759, Note_on_c, 0, 79, 0
1, 177760, Note_on_c, 0, 77, 49
1, 177919, Note_on_c, 0, 77, 0
1, 177920, Note_on_c, 0, 76, 49
1, 178079, Note_on_c, 0, 76, 0
1, 178080, Note_on_c, 0, 84, 49
1, 178319, Note_on_c, 0, 84, 0
1, 178320, Note_on_c, 0, 76, 49
1, 178559, Note_on_c, 0, 76, 0
1, 178560, Note_on_c, 0, 77, 49
1, 178799, Note_on_c, 0, 77, 0
1, 178800, Note_on_c, 0, 72, 49
1, 179039, Note_on_c, 0, 72, 0
1, 179040, Note_on_c, 0, 81, 49
1, 179199, Note_on_c, 0, 81, 0
1, 179200, Note_on_c, 0, 79, 49
1, 179359, Note_on_c, 0, 79, 0
1, 179360, Note_on_c, 0, 77, 49
1, 179519, Note_on_c, 0, 77, 0
1, 179520, Note_on_c, 0, 84, 49
1, 179759, Note_on_c, 0, 84, 0
1, 179760, Note_on_c, 0, 77, 49
1, 179999, Note_on_c, 0, 77, 0
1, 180000, Note_on_c, 0, 76, 49
1, 180159, Note_on_c, 0, 76, 0
1, 180160, Note_on_c, 0, 74, 49
1, 180319, Note_on_c, 0, 74, 0
1, 180320, Note_on_c, 0, 72, 49
1, 180479, Note_on_c, 0, 72, 0
1, 180480, Note_on_c, 0, 79, 49
1, 180639, Note_on_c, 0, 79, 0
1, 180640, Note_on_c, 0, 77, 49
1, 180799, Note_on_c, 0, 77, 0
1, 180800, Note_on_c, 0, 76, 49
1, 180959, Note_on_c, 0, 76, 0
1, 180960, Note_on_c, 0, 82, 49
1, 181119, Note_on_c, 0, 82, 0
1, 181120, Note_on_c, 0, 81, 49
1, 181279, Note_on_c, 0, 81, 0
1, 181280, Note_on_c, 0, 79, 49
1, 181439, Note_on_c, 0, 79, 0
1, 181440, Note_on_c, 0, 77, 49
1, 181599, Note_on_c, 0, 77, 0
1, 181600, Note_on_c, 0, 76, 49
1, 181759, Note_on_c, 0, 76, 0
1, 181760, Note_on_c, 0, 74, 49
1, 181919, Note_on_c, 0, 74, 0
1, 181920, Note_on_c, 0, 73, 49
1, 182079, Note_on_c, 0, 73, 0
1, 182080, Note_on_c, 0, 69, 49
1, 182239, Note_on_c, 0, 69, 0
1, 182240, Note_on_c, 0, 74, 49
1, 182399, Note_on_c, 0, 74, 0
1, 182400, Note_on_c, 0, 64, 49
1, 182559, Note_on_c, 0, 64, 0
1, 182560, Note_on_c, 0, 74, 49
1, 182719, Note_on_c, 0, 74, 0
1, 182720, Note_on_c, 0, 73, 49
1, 182879, Note_on_c, 0, 73, 0
1, 182880, Note_on_c, 0, 74, 49
1, 184319, Note_on_c, 0, 74, 0
1, 184320, Note_on_c, 0, 62, 49
1, 184799, Note_on_c, 0, 62, 0
1, 184800, Note_on_c, 0, 74, 49
1, 186239, Note_on_c, 0, 74, 0
1, 186240, Note_on_c, 0, 73, 49
1, 186479, Note_on_c, 0, 73, 0
1, 186480, Note_on_c, 0, 71, 49
1, 186719, Note_on_c, 0, 71, 0
1, 186720, Note_on_c, 0, 73, 49
1, 187199, Note_on_c, 0, 73, 0
1, 187200, Note_on_c, 0, 74, 49
1, 187679, Note_on_c, 0, 74, 0
1, 187680, Note_on_c, 0, 69, 49
1, 188159, Note_on_c, 0, 69, 0
1, 188160, Note_on_c, 0, 81, 49
1, 188399, Note_on_c, 0, 81, 0
1, 188400, Note_on_c, 0, 83, 49
1, 188639, Note_on_c, 0, 83, 0
1, 188640, Note_on_c, 0, 84, 49
1, 189119, Note_on_c, 0, 84, 0
1, 189120, Note_on_c, 0, 72, 49
1, 189599, Note_on_c, 0, 72, 0
1, 189600, Note_on_c, 0, 82, 49
1, 190559, Note_on_c, 0, 82, 0
1, 190560, Note_on_c, 0, 81, 49
1, 190799, Note_on_c, 0, 81, 0
1, 190800, Note_on_c, 0, 79, 49
1, 191039, Note_on_c, 0, 79, 0
1, 191040, Note_on_c, 0, 81, 49
1, 191519, Note_on_c, 0, 81, 0
1, 191520, Note_on_c, 0, 79, 49
1, 191999, Note_on_c, 0, 79, 0
1, 192000, Note_on_c, 0, 72, 49
1, 192479, Note_on_c, 0, 72, 0
1, 192480, Note_on_c, 0, 79, 49
1, 193439, Note_on_c, 0, 79, 0
1, 193440, Note_on_c, 0, 77, 49
1, 193679, Note_on_c, 0, 77, 0
1, 193680, Note_on_c, 0, 76, 49
1, 193919, Note_on_c, 0, 76, 0
1, 193920, Note_on_c, 0, 77, 49
1, 194159, Note_on_c, 0, 77, 0
1, 194160, Note_on_c, 0, 79, 49
1, 194399, Note_on_c, 0, 79, 0
1, 194400, Note_on_c, 0, 76, 49
1, 195359, Note_on_c, 0, 76, 0
1, 196320, Note_on_c, 0, 69, 49
1, 196799, Note_on_c, 0, 69, 0
1, 196800, Note_on_c, 0, 74, 49
1, 197279, Note_on_c, 0, 74, 0
1, 197280, Note_on_c, 0, 76, 49
1, 197759, Note_on_c, 0, 76, 0
1, 197760, Note_on_c, 0, 69, 49
1, 198239, Note_on_c, 0, 69, 0
1, 198240, Note_on_c, 0, 79, 49
1, 199199, Note_on_c, 0, 79, 0
1, 199200, Note_on_c, 0, 77, 49
1, 199439, Note_on_c, 0, 77, 0
1, 199440, Note_on_c, 0, 76, 49
1, 199679, Note_on_c, 0, 76, 0
1, 199680, Note_on_c, 0, 77, 49
1, 200639, Note_on_c, 0, 77, 0
1, 200640, Note_on_c, 0, 76, 49
1, 200879, Note_on_c, 0, 76, 0
1, 200880, Note_on_c, 0, 74, 49
1, 201119, Note_on_c, 0, 74, 0
1, 201120, Note_on_c, 0, 76, 49
1, 201599, Note_on_c, 0, 76, 0
1, 201600, Note_on_c, 0, 77, 49
1, 202079, Note_on_c, 0, 77, 0
1, 202080, Note_on_c, 0, 72, 49
1, 202559, Note_on_c, 0, 72, 0
1, 202560, Note_on_c, 0, 77, 49
1, 203039, Note_on_c, 0, 77, 0
1, 203040, Note_on_c, 0, 75, 49
1, 203519, Note_on_c, 0, 75, 0
1, 203520, Note_on_c, 0, 73, 49
1, 203999, Note_on_c, 0, 73, 0
1, 204000, Note_on_c, 0, 74, 49
1, 204479, Note_on_c, 0, 74, 0
1, 204480, Note_on_c, 0, 57, 49
1, 204959, Note_on_c, 0, 57, 0
1, 204960, Note_on_c, 0, 73, 49
1, 205919, Note_on_c, 0, 73, 0
1, 205920, Note_on_c, 0, 74, 49
1, 207359, Note_on_c, 0, 74, 0
1, 207360, Note_on_c, 0, 74, 49
1, 207599, Note_on_c, 0, 74, 0
1, 207600, Note_on_c, 0, 62, 49
1, 207839, Note_on_c, 0, 62, 0
1, 207840, Note_on_c, 0, 65, 49
1, 208079, Note_on_c, 0, 65, 0
1, 208080, Note_on_c, 0, 62, 49
1, 208319, Note_on_c, 0, 62, 0
1, 208320, Note_on_c, 0, 69, 49
1, 208559, Note_on_c, 0, 69, 0
1, 208560, Note_on_c, 0, 74, 49
1, 208799, Note_on_c, 0, 74, 0
1, 208800, Note_on_c, 0, 73, 49
1, 209039, Note_on_c, 0, 73, 0
1, 209040, Note_on_c, 0, 57, 49
1, 209279, Note_on_c, 0, 57, 0
1, 209280, Note_on_c, 0, 61, 49
1, 209519, Note_on_c, 0, 61, 0
1, 209520, Note_on_c, 0, 64, 49
1, 209759, Note_on_c, 0, 64, 0
1, 209760, Note_on_c, 0, 69, 49
1, 209999, Note_on_c, 0, 69, 0
1, 210000, Note_on_c, 0, 73, 49
1, 210239, Note_on_c, 0, 73, 0
1, 210240, Note_on_c, 0, 74, 49
1, 210479, Note_on_c, 0, 74, 0
1, 210480, Note_on_c, 0, 62, 49
1, 210719, Note_on_c, 0, 62, 0
1, 210720, Note_on_c, 0, 65, 49
1, 210959, Note_on_c, 0, 65, 0
1, 210960, Note_on_c, 0, 62, 49
1, 211199, Note_on_c, 0, 62, 0
1, 211200, Note_on_c, 0, 69, 49
1, 211439, Note_on_c, 0, 69, 0
1, 211440, Note_on_c, 0, 74, 49
1, 211679, Note_on_c, 0, 74, 0
1, 211680, Note_on_c, 0, 76, 49
1, 211919, Note_on_c, 0, 76, 0
1, 211920, Note_on_c, 0, 60, 49
1, 212159, Note_on_c, 0, 60, 0
1, 212160, Note_on_c, 0, 64, 49
1, 212399, Note_on_c, 0, 64, 0
1, 212400, Note_on_c, 0, 67, 49
1, 212639, Note_on_c, 0, 67, 0
1, 212640, Note_on_c, 0, 72, 49
1, 212879, Note_on_c, 0, 72, 0
1, 212880, Note_on_c, 0, 76, 49
1, 213119, Note_on_c, 0, 76, 0
1, 213120, Note_on_c, 0, 77, 49
1, 213359, Note_on_c, 0, 77, 0
1, 213360, Note_on_c, 0, 65, 49
1, 213599, Note_on_c, 0, 65, 0
1, 213600, Note_on_c, 0, 69, 49
1, 213839, Note_on_c, 0, 69, 0
1, 213840, Note_on_c, 0, 65, 49
1, 214079, Note_on_c, 0, 65, 0
1, 214080, Note_on_c, 0, 72, 49
1, 214319, Note_on_c, 0, 72, 0
1, 214320, Note_on_c, 0, 77, 49
1, 214559, Note_on_c, 0, 77, 0
1, 214560, Note_on_c, 0, 76, 49
1, 214799, Note_on_c, 0, 76, 0
1, 214800, Note_on_c, 0, 60, 49
1, 215039, Note_on_c, 0, 60, 0
1, 215040, Note_on_c, 0, 64, 49
1, 215279, Note_on_c, 0, 64, 0
1, 215280, Note_on_c, 0, 67, 49
1, 215519, Note_on_c, 0, 67, 0
1, 215520, Note_on_c, 0, 73, 49
1, 215759, Note_on_c, 0, 73, 0
1, 215760, Note_on_c, 0, 76, 49
1, 215999, Note_on_c, 0, 76, 0
1, 216000, Note_on_c, 0, 74, 49
1, 216239, Note_on_c, 0, 74, 0
1, 216240, Note_on_c, 0, 62, 49
1, 216479, Note_on_c, 0, 62, 0
1, 216480, Note_on_c, 0, 65, 49
1, 216719, Note_on_c, 0, 65, 0
1, 216720, Note_on_c, 0, 62, 49
1, 216959, Note_on_c, 0, 62, 0
1, 216960, Note_on_c, 0, 70, 49
1, 217199, Note_on_c, 0, 70, 0
1, 217200, Note_on_c, 0, 74, 49
1, 217439, Note_on_c, 0, 74, 0
1, 217440, Note_on_c, 0, 73, 49
1, 217679, Note_on_c, 0, 73, 0
1, 217680, Note_on_c, 0, 57, 49
1, 217919, Note_on_c, 0, 57, 0
1, 217920, Note_on_c, 0, 61, 49
1, 218159, Note_on_c, 0, 61, 0
1, 218160, Note_on_c, 0, 64, 49
1, 218399, Note_on_c, 0, 64, 0
1, 218400, Note_on_c, 0, 69, 49
1, 218639, Note_on_c, 0, 69, 0
1, 218640, Note_on_c, 0, 73, 49
1, 218879, Note_on_c, 0, 73, 0
1, 218880, Note_on_c, 0, 74, 49
1, 219119, Note_on_c, 0, 74, 0
1, 219120, Note_on_c, 0, 62, 49
1, 219359, Note_on_c, 0, 62, 0
1, 219360, Note_on_c, 0, 65, 49
1, 219599, Note_on_c, 0, 65, 0
1, 219600, Note_on_c, 0, 62, 49
1, 219839, Note_on_c, 0, 62, 0
1, 219840, Note_on_c, 0, 69, 49
1, 220079, Note_on_c, 0, 69, 0
1, 220080, Note_on_c, 0, 74, 49
1, 220319, Note_on_c, 0, 74, 0
1, 220320, Note_on_c, 0, 73, 49
1, 220559, Note_on_c, 0, 73, 0
1, 220560, Note_on_c, 0, 57, 49
1, 220799, Note_on_c, 0, 57, 0
1, 220800, Note_on_c, 0, 61, 49
1, 221039, Note_on_c, 0, 61, 0
1, 221040, Note_on_c, 0, 64, 49
1, 221279, Note_on_c, 0, 64, 0
1, 221280, Note_on_c, 0, 69, 49
1, 221519, Note_on_c, 0, 69, 0
1, 221520, Note_on_c, 0, 73, 49
1, 221759, Note_on_c, 0, 73, 0
1, 221760, Note_on_c, 0, 74, 49
1, 221999, Note_on_c, 0, 74, 0
1, 222000, Note_on_c, 0, 62, 49
1, 222239, Note_on_c, 0, 62, 0
1, 222240, Note_on_c, 0, 65, 49
1, 222479, Note_on_c, 0, 65, 0
1, 222480, Note_on_c, 0, 62, 49
1, 222719, Note_on_c, 0, 62, 0
1, 222720, Note_on_c, 0, 69, 49
1, 222959, Note_on_c, 0, 69, 0
1, 222960, Note_on_c, 0, 74, 49
1, 223199, Note_on_c, 0, 74, 0
1, 223200, Note_on_c, 0, 76, 49
1, 223439, Note_on_c, 0, 76, 0
1, 223440, Note_on_c, 0, 60, 49
1, 223679, Note_on_c, 0, 60, 0
1, 223680, Note_on_c, 0, 64, 49
1, 223919, Note_on_c, 0, 64, 0
1, 223920, Note_on_c, 0, 67, 49
1, 224159, Note_on_c, 0, 67, 0
1, 224160, Note_on_c, 0, 72, 49
1, 224399, Note_on_c, 0, 72, 0
1, 224400, Note_on_c, 0, 76, 49
1, 224639, Note_on_c, 0, 76, 0
1, 224640, Note_on_c, 0, 77, 49
1, 224879, Note_on_c, 0, 77, 0
1, 224880, Note_on_c, 0, 65, 49
1, 225119, Note_on_c, 0, 65, 0
1, 225120, Note_on_c, 0, 69, 49
1, 225359, Note_on_c, 0, 69, 0
1, 225360, Note_on_c, 0, 65, 49
1, 225599, Note_on_c, 0, 65, 0
1, 225600, Note_on_c, 0, 72, 49
1, 225839, Note_on_c, 0, 72, 0
1, 225840, Note_on_c, 0, 77, 49
1, 226079, Note_on_c, 0, 77, 0
1, 226080, Note_on_c, 0, 76, 49
1, 226319, Note_on_c, 0, 76, 0
1, 226320, Note_on_c, 0, 77, 49
1, 226559, Note_on_c, 0, 77, 0
1, 226560, Note_on_c, 0, 79, 49
1, 226799, Note_on_c, 0, 79, 0
1, 226800, Note_on_c, 0, 73, 49
1, 227039, Note_on_c, 0, 73, 0
1, 227040, Note_on_c, 0, 69, 49
1, 227279, Note_on_c, 0, 69, 0
1, 227280, Note_on_c, 0, 79, 49
1, 227519, Note_on_c, 0, 79, 0
1, 227520, Note_on_c, 0, 77, 49
1, 227759, Note_on_c, 0, 77, 0
1, 227760, Note_on_c, 0, 76, 49
1, 227879, Note_on_c, 0, 76, 0
1, 227880, Note_on_c, 0, 74, 49
1, 227999, Note_on_c, 0, 74, 0
1, 228000, Note_on_c, 0, 73, 49
1, 228719, Note_on_c, 0, 73, 0
1, 228720, Note_on_c, 0, 74, 49
1, 228959, Note_on_c, 0, 74, 0
1, 228960, Note_on_c, 0, 74, 49
1, 230399, Note_on_c, 0, 74, 0
1, 230520, Note_on_c, 0, 81, 49
1, 230639, Note_on_c, 0, 81, 0
1, 230640, Note_on_c, 0, 77, 49
1, 230759, Note_on_c, 0, 77, 0
1, 230760, Note_on_c, 0, 81, 49
1, 230879, Note_on_c, 0, 81, 0
1, 230880, Note_on_c, 0, 74, 49
1, 231359, Note_on_c, 0, 74, 0
1, 231480, Note_on_c, 0, 81, 49
1, 231599, Note_on_c, 0, 81, 0
1, 231600, Note_on_c, 0, 77, 49
1, 231719, Note_on_c, 0, 77, 0
1, 231720, Note_on_c, 0, 81, 49
1, 231839, Note_on_c, 0, 81, 0
1, 231840, Note_on_c, 0, 73, 49
1, 232319, Note_on_c, 0, 73, 0
1, 232440, Note_on_c, 0, 81, 49
1, 232559, Note_on_c, 0, 81, 0
1, 232560, Note_on_c, 0, 76, 49
1, 232679, Note_on_c, 0, 76, 0
1, 232680, Note_on_c, 0, 81, 49
1, 232799, Note_on_c, 0, 81, 0
1, 232800, Note_on_c, 0, 73, 49
1, 233279, Note_on_c, 0, 73, 0
1, 233400, Note_on_c, 0, 81, 49
1, 233519, Note_on_c, 0, 81, 0
1, 233520, Note_on_c, 0, 77, 49
1, 233639, Note_on_c, 0, 77, 0
1, 233640, Note_on_c, 0, 81, 49
1, 233759, Note_on_c, 0, 81, 0
1, 233760, Note_on_c, 0, 74, 49
1, 234239, Note_on_c, 0, 74, 0
1, 234360, Note_on_c, 0, 81, 49
1, 234479, Note_on_c, 0, 81, 0
1, 234480, Note_on_c, 0, 77, 49
1, 234599, Note_on_c, 0, 77, 0
1, 234600, Note_on_c, 0, 81, 49
1, 234719, Note_on_c, 0, 81, 0
1, 234720, Note_on_c, 0, 76, 49
1, 235199, Note_on_c, 0, 76, 0
1, 235320, Note_on_c, 0, 84, 49
1, 235439, Note_on_c, 0, 84, 0
1, 235440, Note_on_c, 0, 79, 49
1, 235559, Note_on_c, 0, 79, 0
1, 235560, Note_on_c, 0, 84, 49
1, 235679, Note_on_c, 0, 84, 0
1, 235680, Note_on_c, 0, 76, 49
1, 236159, Note_on_c, 0, 76, 0
1, 236280, Note_on_c, 0, 84, 49
1, 236399, Note_on_c, 0, 84, 0
1, 236400, Note_on_c, 0, 81, 49
1, 236519, Note_on_c, 0, 81, 0
1, 236520, Note_on_c, 0, 84, 49
1, 236639, Note_on_c, 0, 84, 0
1, 236640, Note_on_c, 0, 77, 49
1, 237119, Note_on_c, 0, 77, 0
1, 237240, Note_on_c, 0, 84, 49
1, 237359, Note_on_c, 0, 84, 0
1, 237360, Note_on_c, 0, 81, 49
1, 237479, Note_on_c, 0, 81, 0
1, 237480, Note_on_c, 0, 84, 49
1, 237599, Note_on_c, 0, 84, 0
1, 237600, Note_on_c, 0, 76, 49
1, 238079, Note_on_c, 0, 76, 0
1, 238200, Note_on_c, 0, 79, 49
1, 238319, Note_on_c, 0, 79, 0
1, 238320, Note_on_c, 0, 76, 49
1, 238439, Note_on_c, 0, 76, 0
1, 238440, Note_on_c, 0, 79, 49
1, 238559, Note_on_c, 0, 79, 0
1, 238560, Note_on_c, 0, 73, 49
1, 239039, Note_on_c, 0, 73, 0
1, 239160, Note_on_c, 0, 81, 49
1, 239279, Note_on_c, 0, 81, 0
1, 239280, Note_on_c, 0, 77, 49
1, 239399, Note_on_c, 0, 77, 0
1, 239400, Note_on_c, 0, 81, 49
1, 239519, Note_on_c, 0, 81, 0
1, 239520, Note_on_c, 0, 74, 49
1, 239999, Note_on_c, 0, 74, 0
1, 240120, Note_on_c, 0, 74, 49
1, 240239, Note_on_c, 0, 74, 0
1, 240240, Note_on_c, 0, 77, 49
1, 240359, Note_on_c, 0, 77, 0
1, 240360, Note_on_c, 0, 74, 49
1, 240479, Note_on_c, 0, 74, 0
1, 240480, Note_on_c, 0, 73, 49
1, 240959, Note_on_c, 0, 73, 0
1, 241080, Note_on_c, 0, 81, 49
1, 241199, Note_on_c, 0, 81, 0
1, 241200, Note_on_c, 0, 76, 49
1, 241319, Note_on_c, 0, 76, 0
1, 241320, Note_on_c, 0, 81, 49
1, 241439, Note_on_c, 0, 81, 0
1, 241440, Note_on_c, 0, 73, 49
1, 241919, Note_on_c, 0, 73, 0
1, 242040, Note_on_c, 0, 81, 49
1, 242159, Note_on_c, 0, 81, 0
1, 242160, Note_on_c, 0, 77, 49
1, 242279, Note_on_c, 0, 77, 0
1, 242280, Note_on_c, 0, 81, 49
1, 242399, Note_on_c, 0, 81, 0
1, 242400, Note_on_c, 0, 74, 49
1, 242879, Note_on_c, 0, 74, 0
1, 243000, Note_on_c, 0, 81, 49
1, 243119, Note_on_c, 0, 81, 0
1, 243120, Note_on_c, 0, 77, 49
1, 243239, Note_on_c, 0, 77, 0
1, 243240, Note_on_c, 0, 81, 49
1, 243359, Note_on_c, 0, 81, 0
1, 243360, Note_on_c, 0, 73, 49
1, 243839, Note_on_c, 0, 73, 0
1, 243960, Note_on_c, 0, 81, 49
1, 244079, Note_on_c, 0, 81, 0
1, 244080, Note_on_c, 0, 76, 49
1, 244199, Note_on_c, 0, 76, 0
1, 244200, Note_on_c, 0, 81, 49
1, 244319, Note_on_c, 0, 81, 0
1, 244320, Note_on_c, 0, 73, 49
1, 244799, Note_on_c, 0, 73, 0
1, 244920, Note_on_c, 0, 81, 49
1, 245039, Note_on_c, 0, 81, 0
1, 245040, Note_on_c, 0, 77, 49
1, 245159, Note_on_c, 0, 77, 0
1, 245160, Note_on_c, 0, 81, 49
1, 245279, Note_on_c, 0, 81, 0
1, 245280, Note_on_c, 0, 74, 49
1, 245759, Note_on_c, 0, 74, 0
1, 245880, Note_on_c, 0, 81, 49
1, 245999, Note_on_c, 0, 81, 0
1, 246000, Note_on_c, 0, 77, 49
1, 246119, Note_on_c, 0, 77, 0
1, 246120, Note_on_c, 0, 81, 49
1, 246239, Note_on_c, 0, 81, 0
1, 246240, Note_on_c, 0, 76, 49
1, 246719, Note_on_c, 0, 76, 0
1, 246840, Note_on_c, 0, 84, 49
1, 246959, Note_on_c, 0, 84, 0
1, 246960, Note_on_c, 0, 79, 49
1, 247079, Note_on_c, 0, 79, 0
1, 247080, Note_on_c, 0, 84, 49
1, 247199, Note_on_c, 0, 84, 0
1, 247200, Note_on_c, 0, 76, 49
1, 247679, Note_on_c, 0, 76, 0
1, 247800, Note_on_c, 0, 84, 49
1, 247919, Note_on_c, 0, 84, 0
1, 247920, Note_on_c, 0, 81, 49
1, 248039, Note_on_c, 0, 81, 0
1, 248040, Note_on_c, 0, 84, 49
1, 248159, Note_on_c, 0, 84, 0
1, 248160, Note_on_c, 0, 77, 49
1, 248639, Note_on_c, 0, 77, 0
1, 248760, Note_on_c, 0, 84, 49
1, 248879, Note_on_c, 0, 84, 0
1, 248880, Note_on_c, 0, 81, 49
1, 248999, Note_on_c, 0, 81, 0
1, 249000, Note_on_c, 0, 84, 49
1, 249119, Note_on_c, 0, 84, 0
1, 249120, Note_on_c, 0, 76, 49
1, 249599, Note_on_c, 0, 76, 0
1, 249720, Note_on_c, 0, 79, 49
1, 249839, Note_on_c, 0, 79, 0
1, 249840, Note_on_c, 0, 76, 49
1, 249959, Note_on_c, 0, 76, 0
1, 249960, Note_on_c, 0, 79, 49
1, 250079, Note_on_c, 0, 79, 0
1, 250080, Note_on_c, 0, 73, 49
1, 250559, Note_on_c, 0, 73, 0
1, 250680, Note_on_c, 0, 77, 49
1, 250799, Note_on_c, 0, 77, 0
1, 250800, Note_on_c, 0, 74, 49
1, 250919, Note_on_c, 0, 74, 0
1, 250920, Note_on_c, 0, 77, 49
1, 251039, Note_on_c, 0, 77, 0
1, 251040, Note_on_c, 0, 69, 49
1, 251159, Note_on_c, 0, 69, 0
1, 251160, Note_on_c, 0, 77, 49
1, 251279, Note_on_c, 0, 77, 0
1, 251280, Note_on_c, 0, 74, 49
1, 251399, Note_on_c, 0, 74, 0
1, 251400, Note_on_c, 0, 77, 49
1, 251519, Note_on_c, 0, 77, 0
1, 251520, Note_on_c, 0, 69, 49
1, 251639, Note_on_c, 0, 69, 0
1, 251640, Note_on_c, 0, 76, 49
1, 251759, Note_on_c, 0, 76, 0
1, 251760, Note_on_c, 0, 73, 49
1, 251879, Note_on_c, 0, 73, 0
1, 251880, Note_on_c, 0, 76, 49
1, 251999, Note_on_c, 0, 76, 0
1, 252000, Note_on_c, 0, 74, 49
1, 253439, Note_on_c, 0, 74, 0
1, 253440, Note_on_c, 0, 81, 49
1, 253919, Note_on_c, 0, 81, 0
1, 253920, Note_on_c, 0, 79, 49
1, 254159, Note_on_c, 0, 79, 0
1, 254160, Note_on_c, 0, 77, 49
1, 254399, Note_on_c, 0, 77, 0
1, 254400, Note_on_c, 0, 76, 49
1, 254639, Note_on_c, 0, 76, 0
1, 254640, Note_on_c, 0, 77, 49
1, 254819, Note_on_c, 0, 77, 0
1, 254820, Note_on_c, 0, 79, 49
1, 254879, Note_on_c, 0, 79, 0
1, 254880, Note_on_c, 0, 73, 49
1, 255839, Note_on_c, 0, 73, 0
1, 255840, Note_on_c, 0, 73, 49
1, 256319, Note_on_c, 0, 73, 0
1, 256320, Note_on_c, 0, 74, 49
1, 256799, Note_on_c, 0, 74, 0
1, 256800, Note_on_c, 0, 74, 49
1, 257159, Note_on_c, 0, 74, 0
1, 257160, Note_on_c, 0, 76, 49
1, 257279, Note_on_c, 0, 76, 0
1, 257280, Note_on_c, 0, 77, 49
1, 257639, Note_on_c, 0, 77, 0
1, 257640, Note_on_c, 0, 79, 49
1, 257759, Note_on_c, 0, 79, 0
1, 257760, Note_on_c, 0, 76, 49
1, 258719, Note_on_c, 0, 76, 0
1, 258720, Note_on_c, 0, 76, 49
1, 259199, Note_on_c, 0, 76, 0
1, 259200, Note_on_c, 0, 77, 49
1, 259679, Note_on_c, 0, 77, 0
1, 259680, Note_on_c, 0, 79, 49
1, 260039, Note_on_c, 0, 79, 0
1, 260040, Note_on_c, 0, 81, 49
1, 260159, Note_on_c, 0, 81, 0
1, 260160, Note_on_c, 0, 79, 49
1, 260519, Note_on_c, 0, 79, 0
1, 260520, Note_on_c, 0, 77, 49
1, 260639, Note_on_c, 0, 77, 0
1, 260640, Note_on_c, 0, 76, 49
1, 261119, Note_on_c, 0, 76, 0
1, 261120, Note_on_c, 0, 77, 49
1, 261479, Note_on_c, 0, 77, 0
1, 261480, Note_on_c, 0, 79, 49
1, 261599, Note_on_c, 0, 79, 0
1, 261600, Note_on_c, 0, 77, 49
1, 261959, Note_on_c, 0, 77, 0
1, 261960, Note_on_c, 0, 76, 49
1, 262079, Note_on_c, 0, 76, 0
1, 262080, Note_on_c, 0, 74, 49
1, 262559, Note_on_c, 0, 74, 0
1, 262560, Note_on_c, 0, 76, 49
1, 262919, Note_on_c, 0, 76, 0
1, 262920, Note_on_c, 0, 77, 49
1, 263039, Note_on_c, 0, 77, 0
1, 263040, Note_on_c, 0, 76, 49
1, 263399, Note_on_c, 0, 76, 0
1, 263400, Note_on_c, 0, 74, 49
1, 263519, Note_on_c, 0, 74, 0
1, 263520, Note_on_c, 0, 73, 49
1, 264959, Note_on_c, 0, 73, 0
1, 264960, Note_on_c, 0, 81, 49
1, 265439, Note_on_c, 0, 81, 0
1, 265440, Note_on_c, 0, 79, 49
1, 265679, Note_on_c, 0, 79, 0
1, 265680, Note_on_c, 0, 77, 49
1, 265919, Note_on_c, 0, 77, 0
1, 265920, Note_on_c, 0, 76, 49
1, 266159, Note_on_c, 0, 76, 0
1, 266160, Note_on_c, 0, 77, 49
1, 266339, Note_on_c, 0, 77, 0
1, 266340, Note_on_c, 0, 79, 49
1, 266399, Note_on_c, 0, 79, 0
1, 266400, Note_on_c, 0, 73, 49
1, 267359, Note_on_c, 0, 73, 0
1, 267360, Note_on_c, 0, 73, 49
1, 267839, Note_on_c, 0, 73, 0
1, 267840, Note_on_c, 0, 74, 49
1, 268319, Note_on_c, 0, 74, 0
1, 268320, Note_on_c, 0, 74, 49
1, 268679, Note_on_c, 0, 74, 0
1, 268680, Note_on_c, 0, 76, 49
1, 268799, Note_on_c, 0, 76, 0
1, 268800, Note_on_c, 0, 77, 49
1, 269159, Note_on_c, 0, 77, 0
1, 269160, Note_on_c, 0, 79, 49
1, 269279, Note_on_c, 0, 79, 0
1, 269280, Note_on_c, 0, 76, 49
1, 270239, Note_on_c, 0, 76, 0
1, 270240, Note_on_c, 0, 76, 49
1, 270719, Note_on_c, 0, 76, 0
1, 270720, Note_on_c, 0, 81, 49
1, 271199, Note_on_c, 0, 81, 0
1, 271200, Note_on_c, 0, 79, 49
1, 271439, Note_on_c, 0, 79, 0
1, 271440, Note_on_c, 0, 77, 49
1, 271679, Note_on_c, 0, 77, 0
1, 271680, Note_on_c, 0, 76, 49
1, 271919, Note_on_c, 0, 76, 0
1, 271920, Note_on_c, 0, 77, 49
1, 272099, Note_on_c, 0, 77, 0
1, 272100, Note_on_c, 0, 79, 49
1, 272159, Note_on_c, 0, 79, 0
1, 272160, Note_on_c, 0, 73, 49
1, 272879, Note_on_c, 0, 73, 0
1, 272880, Note_on_c, 0, 69, 49
1, 273119, Note_on_c, 0, 69, 0
1, 273120, Note_on_c, 0, 74, 49
1, 273719, Note_on_c, 0, 74, 0
1, 273720, Note_on_c, 0, 73, 49
1, 273839, Note_on_c, 0, 73, 0
1, 273840, Note_on_c, 0, 74, 49
1, 273959, Note_on_c, 0, 74, 0
1, 273960, Note_on_c, 0, 76, 49
1, 274079, Note_on_c, 0, 76, 0
1, 274080, Note_on_c, 0, 76, 49
1, 274799, Note_on_c, 0, 76, 0
1, 274800, Note_on_c, 0, 74, 49
1, 275039, Note_on_c, 0, 74, 0
1, 275040, Note_on_c, 0, 74, 49
1, 276479, Note_on_c, 0, 74, 0
1, 276480, Time_signature, 9, 3, 24, 8
1, 276480, Note_on_c, 0, 77, 49
1, 276719, Note_on_c, 0, 77, 0
1, 276720, Note_on_c, 0, 76, 49
1, 276959, Note_on_c, 0, 76, 0
1, 276960, Note_on_c, 0, 77, 49
1, 277199, Note_on_c, 0, 77, 0
1, 277200, Note_on_c, 0, 77, 49
1, 277439, Note_on_c, 0, 77, 0
1, 277440, Note_on_c, 0, 76, 49
1, 277679, Note_on_c, 0, 76, 0
1, 277680, Note_on_c, 0, 77, 49
1, 277919, Note_on_c, 0, 77, 0
1, 277920, Note_on_c, 0, 77, 49
1, 278159, Note_on_c, 0, 77, 0
1, 278160, Note_on_c, 0, 79, 49
1, 278399, Note_on_c, 0, 79, 0
1, 278400, Note_on_c, 0, 77, 49
1, 278639, Note_on_c, 0, 77, 0
1, 278640, Note_on_c, 0, 76, 49
1, 278879, Note_on_c, 0, 76, 0
1, 278880, Note_on_c, 0, 74, 49
1, 279119, Note_on_c, 0, 74, 0
1, 279120, Note_on_c, 0, 76, 49
1, 279359, Note_on_c, 0, 76, 0
1, 279360, Note_on_c, 0, 76, 49
1, 279599, Note_on_c, 0, 76, 0
1, 279600, Note_on_c, 0, 74, 49
1, 279839, Note_on_c, 0, 74, 0
1, 279840, Note_on_c, 0, 76, 49
1, 280079, Note_on_c, 0, 76, 0
1, 280080, Note_on_c, 0, 76, 49
1, 280319, Note_on_c, 0, 76, 0
1, 280320, Note_on_c, 0, 74, 49
1, 280559, Note_on_c, 0, 74, 0
1, 280560, Note_on_c, 0, 76, 49
1, 280799, Note_on_c, 0, 76, 0
1, 280800, Note_on_c, 0, 77, 49
1, 281039, Note_on_c, 0, 77, 0
1, 281040, Note_on_c, 0, 76, 49
1, 281279, Note_on_c, 0, 76, 0
1, 281280, Note_on_c, 0, 77, 49
1, 281519, Note_on_c, 0, 77, 0
1, 281520, Note_on_c, 0, 77, 49
1, 281759, Note_on_c, 0, 77, 0
1, 281760, Note_on_c, 0, 76, 49
1, 281999, Note_on_c, 0, 76, 0
1, 282000, Note_on_c, 0, 77, 49
1, 282239, Note_on_c, 0, 77, 0
1, 282240, Note_on_c, 0, 77, 49
1, 282479, Note_on_c, 0, 77, 0
1, 282480, Note_on_c, 0, 79, 49
1, 282719, Note_on_c, 0, 79, 0
1, 282720, Note_on_c, 0, 77, 49
1, 282959, Note_on_c, 0, 77, 0
1, 282960, Note_on_c, 0, 77, 49
1, 283199, Note_on_c, 0, 77, 0
1, 283200, Note_on_c, 0, 76, 49
1, 283439, Note_on_c, 0, 76, 0
1, 283440, Note_on_c, 0, 77, 49
1, 283679, Note_on_c, 0, 77, 0
1, 283680, Note_on_c, 0, 77, 49
1, 283919, Note_on_c, 0, 77, 0
1, 283920, Note_on_c, 0, 76, 49
1, 284159, Note_on_c, 0, 76, 0
1, 284160, Note_on_c, 0, 77, 49
1, 284399, Note_on_c, 0, 77, 0
1, 284400, Note_on_c, 0, 77, 49
1, 284639, Note_on_c, 0, 77, 0
1, 284640, Note_on_c, 0, 79, 49
1, 284879, Note_on_c, 0, 79, 0
1, 284880, Note_on_c, 0, 77, 49
1, 285119, Note_on_c, 0, 77, 0
1, 285120, Note_on_c, 0, 81, 49
1, 285359, Note_on_c, 0, 81, 0
1, 285360, Note_on_c, 0, 79, 49
1, 285599, Note_on_c, 0, 79, 0
1, 285600, Note_on_c, 0, 81, 49
1, 285839, Note_on_c, 0, 81, 0
1, 285840, Note_on_c, 0, 81, 49
1, 286079, Note_on_c, 0, 81, 0
1, 286080, Note_on_c, 0, 79, 49
1, 286319, Note_on_c, 0, 79, 0
1, 286320, Note_on_c, 0, 81, 49
1, 286559, Note_on_c, 0, 81, 0
1, 286560, Note_on_c, 0, 81, 49
1, 286799, Note_on_c, 0, 81, 0
1, 286800, Note_on_c, 0, 82, 49
1, 287039, Note_on_c, 0, 82, 0
1, 287040, Note_on_c, 0, 81, 49
1, 287279, Note_on_c, 0, 81, 0
1, 287280, Note_on_c, 0, 79, 49
1, 287519, Note_on_c, 0, 79, 0
1, 287520, Note_on_c, 0, 77, 49
1, 287759, Note_on_c, 0, 77, 0
1, 287760, Note_on_c, 0, 79, 49
1, 287999, Note_on_c, 0, 79, 0
1, 288000, Note_on_c, 0, 79, 49
1, 288239, Note_on_c, 0, 79, 0
1, 288240, Note_on_c, 0, 77, 49
1, 288479, Note_on_c, 0, 77, 0
1, 288480, Note_on_c, 0, 79, 49
1, 288719, Note_on_c, 0, 79, 0
1, 288720, Note_on_c, 0, 79, 49
1, 288959, Note_on_c, 0, 79, 0
1, 288960, Note_on_c, 0, 81, 49
1, 289199, Note_on_c, 0, 81, 0
1, 289200, Note_on_c, 0, 79, 49
1, 289439, Note_on_c, 0, 79, 0
1, 289440, Note_on_c, 0, 77, 49
1, 289679, Note_on_c, 0, 77, 0
1, 289680, Note_on_c, 0, 76, 49
1, 289919, Note_on_c, 0, 76, 0
1, 289920, Note_on_c, 0, 77, 49
1, 290159, Note_on_c, 0, 77, 0
1, 290160, Note_on_c, 0, 77, 49
1, 290399, Note_on_c, 0, 77, 0
1, 290400, Note_on_c, 0, 76, 49
1, 290639, Note_on_c, 0, 76, 0
1, 290640, Note_on_c, 0, 77, 49
1, 290879, Note_on_c, 0, 77, 0
1, 290880, Note_on_c, 0, 77, 49
1, 291119, Note_on_c, 0, 77, 0
1, 291120, Note_on_c, 0, 79, 49
1, 291359, Note_on_c, 0, 79, 0
1, 291360, Note_on_c, 0, 77, 49
1, 291599, Note_on_c, 0, 77, 0
1, 291600, Note_on_c, 0, 76, 49
1, 291839, Note_on_c, 0, 76, 0
1, 291840, Note_on_c, 0, 74, 49
1, 292079, Note_on_c, 0, 74, 0
1, 292080, Note_on_c, 0, 76, 49
1, 292319, Note_on_c, 0, 76, 0
1, 292320, Note_on_c, 0, 76, 49
1, 292559, Note_on_c, 0, 76, 0
1, 292560, Note_on_c, 0, 74, 49
1, 292799, Note_on_c, 0, 74, 0
1, 292800, Note_on_c, 0, 76, 49
1, 293039, Note_on_c, 0, 76, 0
1, 293040, Note_on_c, 0, 76, 49
1, 293279, Note_on_c, 0, 76, 0
1, 293280, Note_on_c, 0, 74, 49
1, 293519, Note_on_c, 0, 74, 0
1, 293520, Note_on_c, 0, 76, 49
1, 293759, Note_on_c, 0, 76, 0
1, 293760, Note_on_c, 0, 77, 49
1, 293999, Note_on_c, 0, 77, 0
1, 294000, Note_on_c, 0, 76, 49
1, 294239, Note_on_c, 0, 76, 0
1, 294240, Note_on_c, 0, 77, 49
1, 294479, Note_on_c, 0, 77, 0
1, 294480, Note_on_c, 0, 77, 49
1, 294719, Note_on_c, 0, 77, 0
1, 294720, Note_on_c, 0, 76, 49
1, 294959, Note_on_c, 0, 76, 0
1, 294960, Note_on_c, 0, 77, 49
1, 295199, Note_on_c, 0, 77, 0
1, 295200, Note_on_c, 0, 77, 49
1, 295439, Note_on_c, 0, 77, 0
1, 295440, Note_on_c, 0, 79, 49
1, 295679, Note_on_c, 0, 79, 0
1, 295680, Note_on_c, 0, 77, 49
1, 295919, Note_on_c, 0, 77, 0
1, 295920, Note_on_c, 0, 76, 49
1, 296159, Note_on_c, 0, 76, 0
1, 296160, Note_on_c, 0, 74, 49
1, 296399, Note_on_c, 0, 74, 0
1, 296400, Note_on_c, 0, 76, 49
1, 296639, Note_on_c, 0, 76, 0
1, 296640, Note_on_c, 0, 76, 49
1, 296879, Note_on_c, 0, 76, 0
1, 296880, Note_on_c, 0, 74, 49
1, 297119, Note_on_c, 0, 74, 0
1, 297120, Note_on_c, 0, 76, 49
1, 297359, Note_on_c, 0, 76, 0
1, 297360, Note_on_c, 0, 76, 49
1, 297599, Note_on_c, 0, 76, 0
1, 297600, Note_on_c, 0, 74, 49
1, 297839, Note_on_c, 0, 74, 0
1, 297840, Note_on_c, 0, 76, 49
1, 298079, Note_on_c, 0, 76, 0
1, 298080, Note_on_c, 0, 77, 49
1, 298319, Note_on_c, 0, 77, 0
1, 298320, Note_on_c, 0, 76, 49
1, 298559, Note_on_c, 0, 76, 0
1, 298560, Note_on_c, 0, 77, 49
1, 298799, Note_on_c, 0, 77, 0
1, 298800, Note_on_c, 0, 77, 49
1, 299039, Note_on_c, 0, 77, 0
1, 299040, Note_on_c, 0, 76, 49
1, 299279, Note_on_c, 0, 76, 0
1, 299280, Note_on_c, 0, 77, 49
1, 299519, Note_on_c, 0, 77, 0
1, 299520, Note_on_c, 0, 77, 49
1, 299759, Note_on_c, 0, 77, 0
1, 299760, Note_on_c, 0, 76, 49
1, 299999, Note_on_c, 0, 76, 0
1, 300000, Note_on_c, 0, 77, 49
1, 300239, Note_on_c, 0, 77, 0
1, 300240, Note_on_c, 0, 79, 49
1, 300479, Note_on_c, 0, 79, 0
1, 300480, Note_on_c, 0, 77, 49
1, 300719, Note_on_c, 0, 77, 0
1, 300720, Note_on_c, 0, 79, 49
1, 300959, Note_on_c, 0, 79, 0
1, 300960, Note_on_c, 0, 79, 49
1, 301199, Note_on_c, 0, 79, 0
1, 301200, Note_on_c, 0, 77, 49
1, 301439, Note_on_c, 0, 77, 0
1, 301440, Note_on_c, 0, 79, 49
1, 301679, Note_on_c, 0, 79, 0
1, 301680, Note_on_c, 0, 79, 49
1, 301919, Note_on_c, 0, 79, 0
1, 301920, Note_on_c, 0, 77, 49
1, 302159, Note_on_c, 0, 77, 0
1, 302160, Note_on_c, 0, 79, 49
1, 302399, Note_on_c, 0, 79, 0
1, 302400, Note_on_c, 0, 81, 49
1, 302639, Note_on_c, 0, 81, 0
1, 302640, Note_on_c, 0, 79, 49
1, 302879, Note_on_c, 0, 79, 0
1, 302880, Note_on_c, 0, 81, 49
1, 303119, Note_on_c, 0, 81, 0
1, 303120, Note_on_c, 0, 81, 49
1, 303359, Note_on_c, 0, 81, 0
1, 303360, Note_on_c, 0, 79, 49
1, 303599, Note_on_c, 0, 79, 0
1, 303600, Note_on_c, 0, 81, 49
1, 303839, Note_on_c, 0, 81, 0
1, 303840, Note_on_c, 0, 81, 49
1, 304079, Note_on_c, 0, 81, 0
1, 304080, Note_on_c, 0, 82, 49
1, 304319, Note_on_c, 0, 82, 0
1, 304320, Note_on_c, 0, 81, 49
1, 304559, Note_on_c, 0, 81, 0
1, 304560, Note_on_c, 0, 79, 49
1, 304799, Note_on_c, 0, 79, 0
1, 304800, Note_on_c, 0, 77, 49
1, 305039, Note_on_c, 0, 77, 0
1, 305040, Note_on_c, 0, 79, 49
1, 305279, Note_on_c, 0, 79, 0
1, 305280, Note_on_c, 0, 79, 49
1, 305519, Note_on_c, 0, 79, 0
1, 305520, Note_on_c, 0, 77, 49
1, 305759, Note_on_c, 0, 77, 0
1, 305760, Note_on_c, 0, 79, 49
1, 305999, Note_on_c, 0, 79, 0
1, 306000, Note_on_c, 0, 79, 49
1, 306239, Note_on_c, 0, 79, 0
1, 306240, Note_on_c, 0, 81, 49
1, 306479, Note_on_c, 0, 81, 0
1, 306480, Note_on_c, 0, 79, 49
1, 306719, Note_on_c, 0, 79, 0
1, 306720, Note_on_c, 0, 81, 49
1, 306959, Note_on_c, 0, 81, 0
1, 306960, Note_on_c, 0, 79, 49
1, 307199, Note_on_c, 0, 79, 0
1, 307200, Note_on_c, 0, 77, 49
1, 307439, Note_on_c, 0, 77, 0
1, 307440, Note_on_c, 0, 76, 49
1, 308639, Note_on_c, 0, 76, 0
1, 308640, Note_on_c, 0, 74, 49
1, 308879, Note_on_c, 0, 74, 0
1, 308880, Note_on_c, 0, 74, 49
1, 311039, Note_on_c, 0, 74, 0
1, 311040, Note_on_c, 0, 77, 49
1, 311759, Note_on_c, 0, 77, 0
1, 313200, Note_on_c, 0, 76, 49
1, 313919, Note_on_c, 0, 76, 0
1, 315360, Note_on_c, 0, 77, 49
1, 316079, Note_on_c, 0, 77, 0
1, 317520, Note_on_c, 0, 79, 49
1, 318239, Note_on_c, 0, 79, 0
1, 319680, Note_on_c, 0, 81, 49
1, 320399, Note_on_c, 0, 81, 0
1, 321840, Note_on_c, 0, 79, 49
1, 322559, Note_on_c, 0, 79, 0
1, 324000, Note_on_c, 0, 77, 49
1, 324719, Note_on_c, 0, 77, 0
1, 326160, Note_on_c, 0, 76, 49
1, 326879, Note_on_c, 0, 76, 0
1, 328320, Note_on_c, 0, 77, 49
1, 329039, Note_on_c, 0, 77, 0
1, 330480, Note_on_c, 0, 76, 49
1, 331199, Note_on_c, 0, 76, 0
1, 332640, Note_on_c, 0, 77, 49
1, 333359, Note_on_c, 0, 77, 0
1, 334800, Note_on_c, 0, 79, 49
1, 335519, Note_on_c, 0, 79, 0
1, 336960, Note_on_c, 0, 81, 49
1, 337679, Note_on_c, 0, 81, 0
1, 339120, Note_on_c, 0, 79, 49
1, 339839, Note_on_c, 0, 79, 0
1, 341280, Note_on_c, 0, 77, 49
1, 341999, Note_on_c, 0, 77, 0
1, 342000, Note_on_c, 0, 76, 49
1, 343199, Note_on_c, 0, 76, 0
1, 343200, Note_on_c, 0, 74, 49
1, 343439, Note_on_c, 0, 74, 0
1, 343440, Note_on_c, 0, 74, 49
1, 345599, Note_on_c, 0, 74, 0
1, 345600, Time_signature, 12, 3, 24, 8
1, 345600, Note_on_c, 0, 74, 49
1, 345959, Note_on_c, 0, 74, 0
1, 345960, Note_on_c, 0, 76, 49
1, 346079, Note_on_c, 0, 76, 0
1, 346080, Note_on_c, 0, 74, 49
1, 346319, Note_on_c, 0, 74, 0
1, 346320, Note_on_c, 0, 81, 49
1, 346799, Note_on_c, 0, 81, 0
1, 346800, Note_on_c, 0, 74, 49
1, 347039, Note_on_c, 0, 74, 0
1, 347040, Note_on_c, 0, 74, 49
1, 347519, Note_on_c, 0, 74, 0
1, 347520, Note_on_c, 0, 73, 49
1, 347759, Note_on_c, 0, 73, 0
1, 347760, Note_on_c, 0, 57, 49
1, 348239, Note_on_c, 0, 57, 0
1, 348240, Note_on_c, 0, 73, 49
1, 348479, Note_on_c, 0, 73, 0
1, 348480, Note_on_c, 0, 74, 49
1, 348839, Note_on_c, 0, 74, 0
1, 348840, Note_on_c, 0, 76, 49
1, 348959, Note_on_c, 0, 76, 0
1, 348960, Note_on_c, 0, 74, 49
1, 349199, Note_on_c, 0, 74, 0
1, 349200, Note_on_c, 0, 81, 49
1, 349679, Note_on_c, 0, 81, 0
1, 349680, Note_on_c, 0, 74, 49
1, 349919, Note_on_c, 0, 74, 0
1, 349920, Note_on_c, 0, 76, 49
1, 350279, Note_on_c, 0, 76, 0
1, 350280, Note_on_c, 0, 74, 49
1, 350399, Note_on_c, 0, 74, 0
1, 350400, Note_on_c, 0, 72, 49
1, 350639, Note_on_c, 0, 72, 0
1, 350640, Note_on_c, 0, 60, 49
1, 351119, Note_on_c, 0, 60, 0
1, 351120, Note_on_c, 0, 76, 49
1, 351359, Note_on_c, 0, 76, 0
1, 351360, Note_on_c, 0, 77, 49
1, 351719, Note_on_c, 0, 77, 0
1, 351720, Note_on_c, 0, 79, 49
1, 351839, Note_on_c, 0, 79, 0
1, 351840, Note_on_c, 0, 77, 49
1, 352079, Note_on_c, 0, 77, 0
1, 352080, Note_on_c, 0, 84, 49
1, 352559, Note_on_c, 0, 84, 0
1, 352560, Note_on_c, 0, 77, 49
1, 352799, Note_on_c, 0, 77, 0
1, 352800, Note_on_c, 0, 76, 49
1, 353159, Note_on_c, 0, 76, 0
1, 353160, Note_on_c, 0, 77, 49
1, 353279, Note_on_c, 0, 77, 0
1, 353280, Note_on_c, 0, 76, 49
1, 353519, Note_on_c, 0, 76, 0
1, 353520, Note_on_c, 0, 81, 49
1, 353999, Note_on_c, 0, 81, 0
1, 354000, Note_on_c, 0, 73, 49
1, 354239, Note_on_c, 0, 73, 0
1, 354240, Note_on_c, 0, 74, 49
1, 354599, Note_on_c, 0, 74, 0
1, 354600, Note_on_c, 0, 76, 49
1, 354719, Note_on_c, 0, 76, 0
1, 354720, Note_on_c, 0, 74, 49
1, 354959, Note_on_c, 0, 74, 0
1, 354960, Note_on_c, 0, 82, 49
1, 355439, Note_on_c, 0, 82, 0
1, 355440, Note_on_c, 0, 74, 49
1, 355679, Note_on_c, 0, 74, 0
1, 355680, Note_on_c, 0, 74, 49
1, 356399, Note_on_c, 0, 74, 0
1, 356400, Note_on_c, 0, 73, 49
1, 357119, Note_on_c, 0, 73, 0
1, 357120, Note_on_c, 0, 74, 49
1, 357479, Note_on_c, 0, 74, 0
1, 357480, Note_on_c, 0, 76, 49
1, 357599, Note_on_c, 0, 76, 0
1, 357600, Note_on_c, 0, 74, 49
1, 357839, Note_on_c, 0, 74, 0
1, 357840, Note_on_c, 0, 81, 49
1, 358319, Note_on_c, 0, 81, 0
1, 358320, Note_on_c, 0, 74, 49
1, 358559, Note_on_c, 0, 74, 0
1, 358560, Note_on_c, 0, 74, 49
1, 359039, Note_on_c, 0, 74, 0
1, 359040, Note_on_c, 0, 73, 49
1, 359279, Note_on_c, 0, 73, 0
1, 359280, Note_on_c, 0, 57, 49
1, 359759, Note_on_c, 0, 57, 0
1, 359760, Note_on_c, 0, 73, 49
1, 359999, Note_on_c, 0, 73, 0
1, 360000, Note_on_c, 0, 74, 49
1, 360359, Note_on_c, 0, 74, 0
1, 360360, Note_on_c, 0, 76, 49
1, 360479, Note_on_c, 0, 76, 0
1, 360480, Note_on_c, 0, 74, 49
1, 360719, Note_on_c, 0, 74, 0
1, 360720, Note_on_c, 0, 81, 49
1, 361199, Note_on_c, 0, 81, 0
1, 361200, Note_on_c, 0, 74, 49
1, 361439, Note_on_c, 0, 74, 0
1, 361440, Note_on_c, 0, 76, 49
1, 361799, Note_on_c, 0, 76, 0
1, 361800, Note_on_c, 0, 74, 49
1, 361919, Note_on_c, 0, 74, 0
1, 361920, Note_on_c, 0, 72, 49
1, 362159, Note_on_c, 0, 72, 0
1, 362160, Note_on_c, 0, 60, 49
1, 362639, Note_on_c, 0, 60, 0
1, 362640, Note_on_c, 0, 76, 49
1, 362879, Note_on_c, 0, 76, 0
1, 362880, Note_on_c, 0, 77, 49
1, 363239, Note_on_c, 0, 77, 0
1, 363240, Note_on_c, 0, 79, 49
1, 363359, Note_on_c, 0, 79, 0
1, 363360, Note_on_c, 0, 77, 49
1, 363599, Note_on_c, 0, 77, 0
1, 363600, Note_on_c, 0, 84, 49
1, 364079, Note_on_c, 0, 84, 0
1, 364080, Note_on_c, 0, 77, 49
1, 364319, Note_on_c, 0, 77, 0
1, 364320, Note_on_c, 0, 77, 49
1, 364799, Note_on_c, 0, 77, 0
1, 364800, Note_on_c, 0, 76, 49
1, 365039, Note_on_c, 0, 76, 0
1, 365040, Note_on_c, 0, 82, 49
1, 365399, Note_on_c, 0, 82, 0
1, 365400, Note_on_c, 0, 81, 49
1, 365519, Note_on_c, 0, 81, 0
1, 365520, Note_on_c, 0, 79, 49
1, 365759, Note_on_c, 0, 79, 0
1, 365760, Note_on_c, 0, 81, 49
1, 366119, Note_on_c, 0, 81, 0
1, 366120, Note_on_c, 0, 79, 49
1, 366239, Note_on_c, 0, 79, 0
1, 366240, Note_on_c, 0, 77, 49
1, 366479, Note_on_c, 0, 77, 0
1, 366480, Note_on_c, 0, 77, 49
1, 366959, Note_on_c, 0, 77, 0
1, 366960, Note_on_c, 0, 76, 49
1, 367199, Note_on_c, 0, 76, 0
1, 367200, Note_on_c, 0, 74, 49
1, 368639, Note_on_c, 0, 74, 0
1, 368640, Time_signature, 3, 2, 24, 8
1, 368640, Note_on_c, 0, 74, 49
1, 368879, Note_on_c, 0, 74, 0
1, 368880, Note_on_c, 0, 65, 49
1, 369119, Note_on_c, 0, 65, 0
1, 369120, Note_on_c, 0, 62, 49
1, 369359, Note_on_c, 0, 62, 0
1, 369360, Note_on_c, 0, 74, 49
1, 369599, Note_on_c, 0, 74, 0
1, 369600, Note_on_c, 0, 62, 49
1, 369839, Note_on_c, 0, 62, 0
1, 369840, Note_on_c, 0, 74, 49
1, 370079, Note_on_c, 0, 74, 0
1, 370080, Note_on_c, 0, 73, 49
1, 370319, Note_on_c, 0, 73, 0
1, 370320, Note_on_c, 0, 64, 49
1, 370559, Note_on_c, 0, 64, 0
1, 370560, Note_on_c, 0, 57, 49
1, 370799, Note_on_c, 0, 57, 0
1, 370800, Note_on_c, 0, 73, 49
1, 371039, Note_on_c, 0, 73, 0
1, 371040, Note_on_c, 0, 57, 49
1, 371279, Note_on_c, 0, 57, 0
1, 371280, Note_on_c, 0, 73, 49
1, 371519, Note_on_c, 0, 73, 0
1, 371520, Note_on_c, 0, 74, 49
1, 371759, Note_on_c, 0, 74, 0
1, 371760, Note_on_c, 0, 65, 49
1, 371999, Note_on_c, 0, 65, 0
1, 372000, Note_on_c, 0, 62, 49
1, 372239, Note_on_c, 0, 62, 0
1, 372240, Note_on_c, 0, 74, 49
1, 372479, Note_on_c, 0, 74, 0
1, 372480, Note_on_c, 0, 62, 49
1, 372719, Note_on_c, 0, 62, 0
1, 372720, Note_on_c, 0, 74, 49
1, 372959, Note_on_c, 0, 74, 0
1, 372960, Note_on_c, 0, 76, 49
1, 373199, Note_on_c, 0, 76, 0
1, 373200, Note_on_c, 0, 67, 49
1, 373439, Note_on_c, 0, 67, 0
1, 373440, Note_on_c, 0, 60, 49
1, 373679, Note_on_c, 0, 60, 0
1, 373680, Note_on_c, 0, 76, 49
1, 373919, Note_on_c, 0, 76, 0
1, 373920, Note_on_c, 0, 60, 49
1, 374159, Note_on_c, 0, 60, 0
1, 374160, Note_on_c, 0, 76, 49
1, 374399, Note_on_c, 0, 76, 0
1, 374400, Note_on_c, 0, 77, 49
1, 374639, Note_on_c, 0, 77, 0
1, 374640, Note_on_c, 0, 72, 49
1, 374879, Note_on_c, 0, 72, 0
1, 374880, Note_on_c, 0, 65, 49
1, 375119, Note_on_c, 0, 65, 0
1, 375120, Note_on_c, 0, 77, 49
1, 375359, Note_on_c, 0, 77, 0
1, 375360, Note_on_c, 0, 65, 49
1, 375599, Note_on_c, 0, 65, 0
1, 375600, Note_on_c, 0, 77, 49
1, 375839, Note_on_c, 0, 77, 0
1, 375840, Note_on_c, 0, 76, 49
1, 376079, Note_on_c, 0, 76, 0
1, 376080, Note_on_c, 0, 67, 49
1, 376319, Note_on_c, 0, 67, 0
1, 376320, Note_on_c, 0, 60, 49
1, 376559, Note_on_c, 0, 60, 0
1, 376560, Note_on_c, 0, 76, 49
1, 376799, Note_on_c, 0, 76, 0
1, 376800, Note_on_c, 0, 61, 49
1, 377039, Note_on_c, 0, 61, 0
1, 377040, Note_on_c, 0, 76, 49
1, 377279, Note_on_c, 0, 76, 0
1, 377280, Note_on_c, 0, 74, 49
1, 377519, Note_on_c, 0, 74, 0
1, 377520, Note_on_c, 0, 65, 49
1, 377759, Note_on_c, 0, 65, 0
1, 377760, Note_on_c, 0, 58, 49
1, 377999, Note_on_c, 0, 58, 0
1, 378000, Note_on_c, 0, 74, 49
1, 378239, Note_on_c, 0, 74, 0
1, 378240, Note_on_c, 0, 55, 49
1, 378479, Note_on_c, 0, 55, 0
1, 378480, Note_on_c, 0, 74, 49
1, 378719, Note_on_c, 0, 74, 0
1, 378720, Note_on_c, 0, 73, 49
1, 378959, Note_on_c, 0, 73, 0
1, 378960, Note_on_c, 0, 64, 49
1, 379199, Note_on_c, 0, 64, 0
1, 379200, Note_on_c, 0, 57, 49
1, 379439, Note_on_c, 0, 57, 0
1, 379440, Note_on_c, 0, 73, 49
1, 379679, Note_on_c, 0, 73, 0
1, 379680, Note_on_c, 0, 57, 49
1, 379919, Note_on_c, 0, 57, 0
1, 379920, Note_on_c, 0, 73, 49
1, 380159, Note_on_c, 0, 73, 0
1, 380160, Note_on_c, 0, 74, 49
1, 380399, Note_on_c, 0, 74, 0
1, 380400, Note_on_c, 0, 65, 49
1, 380639, Note_on_c, 0, 65, 0
1, 380640, Note_on_c, 0, 62, 49
1, 380879, Note_on_c, 0, 62, 0
1, 380880, Note_on_c, 0, 74, 49
1, 381119, Note_on_c, 0, 74, 0
1, 381120, Note_on_c, 0, 62, 49
1, 381359, Note_on_c, 0, 62, 0
1, 381360, Note_on_c, 0, 74, 49
1, 381599, Note_on_c, 0, 74, 0
1, 381600, Note_on_c, 0, 73, 49
1, 381839, Note_on_c, 0, 73, 0
1, 381840, Note_on_c, 0, 64, 49
1, 382079, Note_on_c, 0, 64, 0
1, 382080, Note_on_c, 0, 57, 49
1, 382319, Note_on_c, 0, 57, 0
1, 382320, Note_on_c, 0, 73, 49
1, 382559, Note_on_c, 0, 73, 0
1, 382560, Note_on_c, 0, 57, 49
1, 382799, Note_on_c, 0, 57, 0
1, 382800, Note_on_c, 0, 73, 49
1, 383039, Note_on_c, 0, 73, 0
1, 383040, Note_on_c, 0, 74, 49
1, 383279, Note_on_c, 0, 74, 0
1, 383280, Note_on_c, 0, 65, 49
1, 383519, Note_on_c, 0, 65, 0
1, 383520, Note_on_c, 0, 62, 49
1, 383759, Note_on_c, 0, 62, 0
1, 383760, Note_on_c, 0, 74, 49
1, 383999, Note_on_c, 0, 74, 0
1, 384000, Note_on_c, 0, 62, 49
1, 384239, Note_on_c, 0, 62, 0
1, 384240, Note_on_c, 0, 74, 49
1, 384479, Note_on_c, 0, 74, 0
1, 384480, Note_on_c, 0, 76, 49
1, 384719, Note_on_c, 0, 76, 0
1, 384720, Note_on_c, 0, 67, 49
1, 384959, Note_on_c, 0, 67, 0
1, 384960, Note_on_c, 0, 60, 49
1, 385199, Note_on_c, 0, 60, 0
1, 385200, Note_on_c, 0, 76, 49
1, 385439, Note_on_c, 0, 76, 0
1, 385440, Note_on_c, 0, 60, 49
1, 385679, Note_on_c, 0, 60, 0
1, 385680, Note_on_c, 0, 76, 49
1, 385919, Note_on_c, 0, 76, 0
1, 385920, Note_on_c, 0, 77, 49
1, 386159, Note_on_c, 0, 77, 0
1, 386160, Note_on_c, 0, 72, 49
1, 386399, Note_on_c, 0, 72, 0
1, 386400, Note_on_c, 0, 65, 49
1, 386639, Note_on_c, 0, 65, 0
1, 386640, Note_on_c, 0, 77, 49
1, 386879, Note_on_c, 0, 77, 0
1, 386880, Note_on_c, 0, 65, 49
1, 387119, Note_on_c, 0, 65, 0
1, 387120, Note_on_c, 0, 77, 49
1, 387359, Note_on_c, 0, 77, 0
1, 387360, Note_on_c, 0, 76, 49
1, 387599, Note_on_c, 0, 76, 0
1, 387600, Note_on_c, 0, 67, 49
1, 387839, Note_on_c, 0, 67, 0
1, 387840, Note_on_c, 0, 60, 49
1, 388079, Note_on_c, 0, 60, 0
1, 388080, Note_on_c, 0, 76, 49
1, 388319, Note_on_c, 0, 76, 0
1, 388320, Note_on_c, 0, 61, 49
1, 388559, Note_on_c, 0, 61, 0
1, 388560, Note_on_c, 0, 76, 49
1, 388799, Note_on_c, 0, 76, 0
1, 388800, Note_on_c, 0, 74, 49
1, 389039, Note_on_c, 0, 74, 0
1, 389040, Note_on_c, 0, 65, 49
1, 389279, Note_on_c, 0, 65, 0
1, 389280, Note_on_c, 0, 57, 49
1, 389519, Note_on_c, 0, 57, 0
1, 389520, Note_on_c, 0, 74, 49
1, 389759, Note_on_c, 0, 74, 0
1, 389760, Note_on_c, 0, 57, 49
1, 389999, Note_on_c, 0, 57, 0
1, 390000, Note_on_c, 0, 73, 49
1, 390239, Note_on_c, 0, 73, 0
1, 390240, Note_on_c, 0, 74, 49
1, 391679, Note_on_c, 0, 74, 0
1, 391920, Note_on_c, 0, 77, 49
1, 392039, Note_on_c, 0, 77, 0
1, 392040, Note_on_c, 0, 76, 49
1, 392159, Note_on_c, 0, 76, 0
1, 392160, Note_on_c, 0, 77, 49
1, 392399, Note_on_c, 0, 77, 0
1, 392400, Note_on_c, 0, 65, 49
1, 392639, Note_on_c, 0, 65, 0
1, 392640, Note_on_c, 0, 77, 49
1, 392879, Note_on_c, 0, 77, 0
1, 392880, Note_on_c, 0, 65, 49
1, 393119, Note_on_c, 0, 65, 0
1, 393120, Note_on_c, 0, 64, 49
1, 393359, Note_on_c, 0, 64, 0
1, 393360, Note_on_c, 0, 76, 49
1, 393479, Note_on_c, 0, 76, 0
1, 393480, Note_on_c, 0, 74, 49
1, 393599, Note_on_c, 0, 74, 0
1, 393600, Note_on_c, 0, 76, 49
1, 393839, Note_on_c, 0, 76, 0
1, 393840, Note_on_c, 0, 64, 49
1, 394079, Note_on_c, 0, 64, 0
1, 394080, Note_on_c, 0, 76, 49
1, 394319, Note_on_c, 0, 76, 0
1, 394320, Note_on_c, 0, 64, 49
1, 394559, Note_on_c, 0, 64, 0
1, 394560, Note_on_c, 0, 65, 49
1, 394799, Note_on_c, 0, 65, 0
1, 394800, Note_on_c, 0, 77, 49
1, 394919, Note_on_c, 0, 77, 0
1, 394920, Note_on_c, 0, 76, 49
1, 395039, Note_on_c, 0, 76, 0
1, 395040, Note_on_c, 0, 77, 49
1, 395279, Note_on_c, 0, 77, 0
1, 395280, Note_on_c, 0, 65, 49
1, 395519, Note_on_c, 0, 65, 0
1, 395520, Note_on_c, 0, 77, 49
1, 395759, Note_on_c, 0, 77, 0
1, 395760, Note_on_c, 0, 65, 49
1, 395999, Note_on_c, 0, 65, 0
1, 396000, Note_on_c, 0, 67, 49
1, 396239, Note_on_c, 0, 67, 0
1, 396240, Note_on_c, 0, 79, 49
1, 396359, Note_on_c, 0, 79, 0
1, 396360, Note_on_c, 0, 77, 49
1, 396479, Note_on_c, 0, 77, 0
1, 396480, Note_on_c, 0, 79, 49
1, 396719, Note_on_c, 0, 79, 0
1, 396720, Note_on_c, 0, 67, 49
1, 396959, Note_on_c, 0, 67, 0
1, 396960, Note_on_c, 0, 79, 49
1, 397199, Note_on_c, 0, 79, 0
1, 397200, Note_on_c, 0, 67, 49
1, 397439, Note_on_c, 0, 67, 0
1, 397440, Note_on_c, 0, 69, 49
1, 397679, Note_on_c, 0, 69, 0
1, 397680, Note_on_c, 0, 81, 49
1, 397799, Note_on_c, 0, 81, 0
1, 397800, Note_on_c, 0, 79, 49
1, 397919, Note_on_c, 0, 79, 0
1, 397920, Note_on_c, 0, 81, 49
1, 398159, Note_on_c, 0, 81, 0
1, 398160, Note_on_c, 0, 69, 49
1, 398399, Note_on_c, 0, 69, 0
1, 398400, Note_on_c, 0, 81, 49
1, 398639, Note_on_c, 0, 81, 0
1, 398640, Note_on_c, 0, 69, 49
1, 398879, Note_on_c, 0, 69, 0
1, 398880, Note_on_c, 0, 67, 49
1, 399119, Note_on_c, 0, 67, 0
1, 399120, Note_on_c, 0, 79, 49
1, 399239, Note_on_c, 0, 79, 0
1, 399240, Note_on_c, 0, 77, 49
1, 399359, Note_on_c, 0, 77, 0
1, 399360, Note_on_c, 0, 79, 49
1, 399599, Note_on_c, 0, 79, 0
1, 399600, Note_on_c, 0, 67, 49
1, 399839, Note_on_c, 0, 67, 0
1, 399840, Note_on_c, 0, 79, 49
1, 400079, Note_on_c, 0, 79, 0
1, 400080, Note_on_c, 0, 67, 49
1, 400319, Note_on_c, 0, 67, 0
1, 400320, Note_on_c, 0, 65, 49
1, 400559, Note_on_c, 0, 65, 0
1, 400560, Note_on_c, 0, 77, 49
1, 400679, Note_on_c, 0, 77, 0
1, 400680, Note_on_c, 0, 76, 49
1, 400799, Note_on_c, 0, 76, 0
1, 400800, Note_on_c, 0, 77, 49
1, 401039, Note_on_c, 0, 77, 0
1, 401040, Note_on_c, 0, 65, 49
1, 401279, Note_on_c, 0, 65, 0
1, 401280, Note_on_c, 0, 77, 49
1, 401519, Note_on_c, 0, 77, 0
1, 401520, Note_on_c, 0, 65, 49
1, 401759, Note_on_c, 0, 65, 0
1, 401760, Note_on_c, 0, 64, 49
1, 401999, Note_on_c, 0, 64, 0
1, 402000, Note_on_c, 0, 76, 49
1, 402119, Note_on_c, 0, 76, 0
1, 402120, Note_on_c, 0, 74, 49
1, 402239, Note_on_c, 0, 74, 0
1, 402240, Note_on_c, 0, 76, 49
1, 402479, Note_on_c, 0, 76, 0
1, 402480, Note_on_c, 0, 64, 49
1, 402719, Note_on_c, 0, 64, 0
1, 402720, Note_on_c, 0, 76, 49
1, 402959, Note_on_c, 0, 76, 0
1, 402960, Note_on_c, 0, 64, 49
1, 403199, Note_on_c, 0, 64, 0
1, 403200, Note_on_c, 0, 65, 49
1, 403439, Note_on_c, 0, 65, 0
1, 403440, Note_on_c, 0, 77, 49
1, 403559, Note_on_c, 0, 77, 0
1, 403560, Note_on_c, 0, 76, 49
1, 403679, Note_on_c, 0, 76, 0
1, 403680, Note_on_c, 0, 77, 49
1, 403919, Note_on_c, 0, 77, 0
1, 403920, Note_on_c, 0, 65, 49
1, 404159, Note_on_c, 0, 65, 0
1, 404160, Note_on_c, 0, 77, 49
1, 404399, Note_on_c, 0, 77, 0
1, 404400, Note_on_c, 0, 65, 49
1, 404639, Note_on_c, 0, 65, 0
1, 404640, Note_on_c, 0, 64, 49
1, 404879, Note_on_c, 0, 64, 0
1, 404880, Note_on_c, 0, 76, 49
1, 404999, Note_on_c, 0, 76, 0
1, 405000, Note_on_c, 0, 74, 49
1, 405119, Note_on_c, 0, 74, 0
1, 405120, Note_on_c, 0, 76, 49
1, 405359, Note_on_c, 0, 76, 0
1, 405360, Note_on_c, 0, 64, 49
1, 405599, Note_on_c, 0, 64, 0
1, 405600, Note_on_c, 0, 76, 49
1, 405839, Note_on_c, 0, 76, 0
1, 405840, Note_on_c, 0, 64, 49
1, 406079, Note_on_c, 0, 64, 0
1, 406080, Note_on_c, 0, 65, 49
1, 406319, Note_on_c, 0, 65, 0
1, 406320, Note_on_c, 0, 77, 49
1, 406439, Note_on_c, 0, 77, 0
1, 406440, Note_on_c, 0, 76, 49
1, 406559, Note_on_c, 0, 76, 0
1, 406560, Note_on_c, 0, 77, 49
1, 406799, Note_on_c, 0, 77, 0
1, 406800, Note_on_c, 0, 65, 49
1, 407039, Note_on_c, 0, 65, 0
1, 407040, Note_on_c, 0, 77, 49
1, 407279, Note_on_c, 0, 77, 0
1, 407280, Note_on_c, 0, 65, 49
1, 407519, Note_on_c, 0, 65, 0
1, 407520, Note_on_c, 0, 67, 49
1, 407759, Note_on_c, 0, 67, 0
1, 407760, Note_on_c, 0, 79, 49
1, 407879, Note_on_c, 0, 79, 0
1, 407880, Note_on_c, 0, 77, 49
1, 407999, Note_on_c, 0, 77, 0
1, 408000, Note_on_c, 0, 79, 49
1, 408239, Note_on_c, 0, 79, 0
1, 408240, Note_on_c, 0, 67, 49
1, 408479, Note_on_c, 0, 67, 0
1, 408480, Note_on_c, 0, 79, 49
1, 408719, Note_on_c, 0, 79, 0
1, 408720, Note_on_c, 0, 67, 49
1, 408959, Note_on_c, 0, 67, 0
1, 408960, Note_on_c, 0, 69, 49
1, 409199, Note_on_c, 0, 69, 0
1, 409200, Note_on_c, 0, 81, 49
1, 409319, Note_on_c, 0, 81, 0
1, 409320, Note_on_c, 0, 79, 49
1, 409439, Note_on_c, 0, 79, 0
1, 409440, Note_on_c, 0, 81, 49
1, 409679, Note_on_c, 0, 81, 0
1, 409680, Note_on_c, 0, 69, 49
1, 409919, Note_on_c, 0, 69, 0
1, 409920, Note_on_c, 0, 81, 49
1, 410159, Note_on_c, 0, 81, 0
1, 410160, Note_on_c, 0, 69, 49
1, 410399, Note_on_c, 0, 69, 0
1, 410400, Note_on_c, 0, 67, 49
1, 410639, Note_on_c, 0, 67, 0
1, 410640, Note_on_c, 0, 79, 49
1, 410759, Note_on_c, 0, 79, 0
1, 410760, Note_on_c, 0, 77, 49
1, 410879, Note_on_c, 0, 77, 0
1, 410880, Note_on_c, 0, 79, 49
1, 411119, Note_on_c, 0, 79, 0
1, 411120, Note_on_c, 0, 67, 49
1, 411359, Note_on_c, 0, 67, 0
1, 411360, Note_on_c, 0, 79, 49
1, 411599, Note_on_c, 0, 79, 0
1, 411600, Note_on_c, 0, 67, 49
1, 411839, Note_on_c, 0, 67, 0
1, 411840, Note_on_c, 0, 77, 49
1, 412079, Note_on_c, 0, 77, 0
1, 412080, Note_on_c, 0, 79, 49
1, 412199, Note_on_c, 0, 79, 0
1, 412200, Note_on_c, 0, 77, 49
1, 412319, Note_on_c, 0, 77, 0
1, 412320, Note_on_c, 0, 76, 49
1, 412559, Note_on_c, 0, 76, 0
1, 412560, Note_on_c, 0, 64, 49
1, 412799, Note_on_c, 0, 64, 0
1, 412800, Note_on_c, 0, 76, 49
1, 413039, Note_on_c, 0, 76, 0
1, 413040, Note_on_c, 0, 64, 49
1, 413279, Note_on_c, 0, 64, 0
1, 413280, Note_on_c, 0, 62, 49
1, 414719, Note_on_c, 0, 62, 0
1, 414720, Note_on_c, 0, 77, 49
1, 414839, Note_on_c, 0, 77, 0
1, 414840, Note_on_c, 0, 74, 49
1, 414959, Note_on_c, 0, 74, 0
1, 414960, Note_on_c, 0, 69, 49
1, 415079, Note_on_c, 0, 69, 0
1, 415080, Note_on_c, 0, 77, 49
1, 415199, Note_on_c, 0, 77, 0
1, 415200, Note_on_c, 0, 77, 49
1, 415319, Note_on_c, 0, 77, 0
1, 415320, Note_on_c, 0, 74, 49
1, 415439, Note_on_c, 0, 74, 0
1, 415440, Note_on_c, 0, 69, 49
1, 415559, Note_on_c, 0, 69, 0
1, 415560, Note_on_c, 0, 77, 49
1, 415679, Note_on_c, 0, 77, 0
1, 415680, Note_on_c, 0, 77, 49
1, 415799, Note_on_c, 0, 77, 0
1, 415800, Note_on_c, 0, 74, 49
1, 415919, Note_on_c, 0, 74, 0
1, 415920, Note_on_c, 0, 69, 49
1, 416039, Note_on_c, 0, 69, 0
1, 416040, Note_on_c, 0, 77, 49
1, 416159, Note_on_c, 0, 77, 0
1, 416160, Note_on_c, 0, 76, 49
1, 416279, Note_on_c, 0, 76, 0
1, 416280, Note_on_c, 0, 73, 49
1, 416399, Note_on_c, 0, 73, 0
1, 416400, Note_on_c, 0, 69, 49
1, 416519, Note_on_c, 0, 69, 0
1, 416520, Note_on_c, 0, 76, 49
1, 416639, Note_on_c, 0, 76, 0
1, 416640, Note_on_c, 0, 76, 49
1, 416759, Note_on_c, 0, 76, 0
1, 416760, Note_on_c, 0, 73, 49
1, 416879, Note_on_c, 0, 73, 0
1, 416880, Note_on_c, 0, 69, 49
1, 416999, Note_on_c, 0, 69, 0
1, 417000, Note_on_c, 0, 76, 49
1, 417119, Note_on_c, 0, 76, 0
1, 417120, Note_on_c, 0, 76, 49
1, 417239, Note_on_c, 0, 76, 0
1, 417240, Note_on_c, 0, 73, 49
1, 417359, Note_on_c, 0, 73, 0
1, 417360, Note_on_c, 0, 69, 49
1, 417479, Note_on_c, 0, 69, 0
1, 417480, Note_on_c, 0, 76, 49
1, 417599, Note_on_c, 0, 76, 0
1, 417600, Note_on_c, 0, 77, 49
1, 417719, Note_on_c, 0, 77, 0
1, 417720, Note_on_c, 0, 74, 49
1, 417839, Note_on_c, 0, 74, 0
1, 417840, Note_on_c, 0, 69, 49
1, 417959, Note_on_c, 0, 69, 0
1, 417960, Note_on_c, 0, 77, 49
1, 418079, Note_on_c, 0, 77, 0
1, 418080, Note_on_c, 0, 77, 49
1, 418199, Note_on_c, 0, 77, 0
1, 418200, Note_on_c, 0, 74, 49
1, 418319, Note_on_c, 0, 74, 0
1, 418320, Note_on_c, 0, 69, 49
1, 418439, Note_on_c, 0, 69, 0
1, 418440, Note_on_c, 0, 77, 49
1, 418559, Note_on_c, 0, 77, 0
1, 418560, Note_on_c, 0, 77, 49
1, 418679, Note_on_c, 0, 77, 0
1, 418680, Note_on_c, 0, 74, 49
1, 418799, Note_on_c, 0, 74, 0
1, 418800, Note_on_c, 0, 69, 49
1, 418919, Note_on_c, 0, 69, 0
1, 418920, Note_on_c, 0, 77, 49
1, 419039, Note_on_c, 0, 77, 0
1, 419040, Note_on_c, 0, 79, 49
1, 419159, Note_on_c, 0, 79, 0
1, 419160, Note_on_c, 0, 76, 49
1, 419279, Note_on_c, 0, 76, 0
1, 419280, Note_on_c, 0, 72, 49
1, 419399, Note_on_c, 0, 72, 0
1, 419400, Note_on_c, 0, 79, 49
1, 419519, Note_on_c, 0, 79, 0
1, 419520, Note_on_c, 0, 79, 49
1, 419639, Note_on_c, 0, 79, 0
1, 419640, Note_on_c, 0, 76, 49
1, 419759, Note_on_c, 0, 76, 0
1, 419760, Note_on_c, 0, 72, 49
1, 419879, Note_on_c, 0, 72, 0
1, 419880, Note_on_c, 0, 79, 49
1, 419999, Note_on_c, 0, 79, 0
1, 420000, Note_on_c, 0, 79, 49
1, 420119, Note_on_c, 0, 79, 0
1, 420120, Note_on_c, 0, 76, 49
1, 420239, Note_on_c, 0, 76, 0
1, 420240, Note_on_c, 0, 72, 49
1, 420359, Note_on_c, 0, 72, 0
1, 420360, Note_on_c, 0, 79, 49
1, 420479, Note_on_c, 0, 79, 0
1, 420480, Note_on_c, 0, 81, 49
1, 420599, Note_on_c, 0, 81, 0
1, 420600, Note_on_c, 0, 77, 49
1, 420719, Note_on_c, 0, 77, 0
1, 420720, Note_on_c, 0, 72, 49
1, 420839, Note_on_c, 0, 72, 0
1, 420840, Note_on_c, 0, 81, 49
1, 420959, Note_on_c, 0, 81, 0
1, 420960, Note_on_c, 0, 81, 49
1, 421079, Note_on_c, 0, 81, 0
1, 421080, Note_on_c, 0, 77, 49
1, 421199, Note_on_c, 0, 77, 0
1, 421200, Note_on_c, 0, 72, 49
1, 421319, Note_on_c, 0, 72, 0
1, 421320, Note_on_c, 0, 81, 49
1, 421439, Note_on_c, 0, 81, 0
1, 421440, Note_on_c, 0, 81, 49
1, 421559, Note_on_c, 0, 81, 0
1, 421560, Note_on_c, 0, 77, 49
1, 421679, Note_on_c, 0, 77, 0
1, 421680, Note_on_c, 0, 72, 49
1, 421799, Note_on_c, 0, 72, 0
1, 421800, Note_on_c, 0, 81, 49
1, 421919, Note_on_c, 0, 81, 0
1, 421920, Note_on_c, 0, 79, 49
1, 422039, Note_on_c, 0, 79, 0
1, 422040, Note_on_c, 0, 76, 49
1, 422159, Note_on_c, 0, 76, 0
1, 422160, Note_on_c, 0, 72, 49
1, 422279, Note_on_c, 0, 72, 0
1, 422280, Note_on_c, 0, 79, 49
1, 422399, Note_on_c, 0, 79, 0
1, 422400, Note_on_c, 0, 79, 49
1, 422519, Note_on_c, 0, 79, 0
1, 422520, Note_on_c, 0, 76, 49
1, 422639, Note_on_c, 0, 76, 0
1, 422640, Note_on_c, 0, 69, 49
1, 422759, Note_on_c, 0, 69, 0
1, 422760, Note_on_c, 0, 79, 49
1, 422879, Note_on_c, 0, 79, 0
1, 422880, Note_on_c, 0, 79, 49
1, 422999, Note_on_c, 0, 79, 0
1, 423000, Note_on_c, 0, 76, 49
1, 423119, Note_on_c, 0, 76, 0
1, 423120, Note_on_c, 0, 69, 49
1, 423239, Note_on_c, 0, 69, 0
1, 423240, Note_on_c, 0, 79, 49
1, 423359, Note_on_c, 0, 79, 0
1, 423360, Note_on_c, 0, 77, 49
1, 423479, Note_on_c, 0, 77, 0
1, 423480, Note_on_c, 0, 74, 49
1, 423599, Note_on_c, 0, 74, 0
1, 423600, Note_on_c, 0, 69, 49
1, 423719, Note_on_c, 0, 69, 0
1, 423720, Note_on_c, 0, 77, 49
1, 423839, Note_on_c, 0, 77, 0
1, 423840, Note_on_c, 0, 77, 49
1, 423959, Note_on_c, 0, 77, 0
1, 423960, Note_on_c, 0, 74, 49
1, 424079, Note_on_c, 0, 74, 0
1, 424080, Note_on_c, 0, 70, 49
1, 424199, Note_on_c, 0, 70, 0
1, 424200, Note_on_c, 0, 77, 49
1, 424319, Note_on_c, 0, 77, 0
1, 424320, Note_on_c, 0, 77, 49
1, 424439, Note_on_c, 0, 77, 0
1, 424440, Note_on_c, 0, 74, 49
1, 424559, Note_on_c, 0, 74, 0
1, 424560, Note_on_c, 0, 70, 49
1, 424679, Note_on_c, 0, 70, 0
1, 424680, Note_on_c, 0, 77, 49
1, 424799, Note_on_c, 0, 77, 0
1, 424800, Note_on_c, 0, 76, 49
1, 424919, Note_on_c, 0, 76, 0
1, 424920, Note_on_c, 0, 73, 49
1, 425039, Note_on_c, 0, 73, 0
1, 425040, Note_on_c, 0, 69, 49
1, 425159, Note_on_c, 0, 69, 0
1, 425160, Note_on_c, 0, 76, 49
1, 425279, Note_on_c, 0, 76, 0
1, 425280, Note_on_c, 0, 76, 49
1, 425399, Note_on_c, 0, 76, 0
1, 425400, Note_on_c, 0, 73, 49
1, 425519, Note_on_c, 0, 73, 0
1, 425520, Note_on_c, 0, 69, 49
1, 425639, Note_on_c, 0, 69, 0
1, 425640, Note_on_c, 0, 76, 49
1, 425759, Note_on_c, 0, 76, 0
1, 425760, Note_on_c, 0, 76, 49
1, 425879, Note_on_c, 0, 76, 0
1, 425880, Note_on_c, 0, 73, 49
1, 425999, Note_on_c, 0, 73, 0
1, 426000, Note_on_c, 0, 69, 49
1, 426119, Note_on_c, 0, 69, 0
1, 426120, Note_on_c, 0, 76, 49
1, 426239, Note_on_c, 0, 76, 0
1, 426240, Note_on_c, 0, 77, 49
1, 426359, Note_on_c, 0, 77, 0
1, 426360, Note_on_c, 0, 74, 49
1, 426479, Note_on_c, 0, 74, 0
1, 426480, Note_on_c, 0, 69, 49
1, 426599, Note_on_c, 0, 69, 0
1, 426600, Note_on_c, 0, 77, 49
1, 426719, Note_on_c, 0, 77, 0
1, 426720, Note_on_c, 0, 77, 49
1, 426839, Note_on_c, 0, 77, 0
1, 426840, Note_on_c, 0, 74, 49
1, 426959, Note_on_c, 0, 74, 0
1, 426960, Note_on_c, 0, 69, 49
1, 427079, Note_on_c, 0, 69, 0
1, 427080, Note_on_c, 0, 77, 49
1, 427199, Note_on_c, 0, 77, 0
1, 427200, Note_on_c, 0, 77, 49
1, 427319, Note_on_c, 0, 77, 0
1, 427320, Note_on_c, 0, 74, 49
1, 427439, Note_on_c, 0, 74, 0
1, 427440, Note_on_c, 0, 69, 49
1, 427559, Note_on_c, 0, 69, 0
1, 427560, Note_on_c, 0, 77, 49
1, 427679, Note_on_c, 0, 77, 0
1, 427680, Note_on_c, 0, 76, 49
1, 427799, Note_on_c, 0, 76, 0
1, 427800, Note_on_c, 0, 73, 49
1, 427919, Note_on_c, 0, 73, 0
1, 427920, Note_on_c, 0, 69, 49
1, 428039, Note_on_c, 0, 69, 0
1, 428040, Note_on_c, 0, 76, 49
1, 428159, Note_on_c, 0, 76, 0
1, 428160, Note_on_c, 0, 76, 49
1, 428279, Note_on_c, 0, 76, 0
1, 428280, Note_on_c, 0, 73, 49
1, 428399, Note_on_c, 0, 73, 0
1, 428400, Note_on_c, 0, 69, 49
1, 428519, Note_on_c, 0, 69, 0
1, 428520, Note_on_c, 0, 76, 49
1, 428639, Note_on_c, 0, 76, 0
1, 428640, Note_on_c, 0, 76, 49
1, 428759, Note_on_c, 0, 76, 0
1, 428760, Note_on_c, 0, 73, 49
1, 428879, Note_on_c, 0, 73, 0
1, 428880, Note_on_c, 0, 69, 49
1, 428999, Note_on_c, 0, 69, 0
1, 429000, Note_on_c, 0, 76, 49
1, 429119, Note_on_c, 0, 76, 0
1, 429120, Note_on_c, 0, 77, 49
1, 429239, Note_on_c, 0, 77, 0
1, 429240, Note_on_c, 0, 74, 49
1, 429359, Note_on_c, 0, 74, 0
1, 429360, Note_on_c, 0, 69, 49
1, 429479, Note_on_c, 0, 69, 0
1, 429480, Note_on_c, 0, 77, 49
1, 429599, Note_on_c, 0, 77, 0
1, 429600, Note_on_c, 0, 77, 49
1, 429719, Note_on_c, 0, 77, 0
1, 429720, Note_on_c, 0, 74, 49
1, 429839, Note_on_c, 0, 74, 0
1, 429840, Note_on_c, 0, 69, 49
1, 429959, Note_on_c, 0, 69, 0
1, 429960, Note_on_c, 0, 77, 49
1, 430079, Note_on_c, 0, 77, 0
1, 430080, Note_on_c, 0, 77, 49
1, 430199, Note_on_c, 0, 77, 0
1, 430200, Note_on_c, 0, 74, 49
1, 430319, Note_on_c, 0, 74, 0
1, 430320, Note_on_c, 0, 69, 49
1, 430439, Note_on_c, 0, 69, 0
1, 430440, Note_on_c, 0, 77, 49
1, 430559, Note_on_c, 0, 77, 0
1, 430560, Note_on_c, 0, 79, 49
1, 430679, Note_on_c, 0, 79, 0
1, 430680, Note_on_c, 0, 76, 49
1, 430799, Note_on_c, 0, 76, 0
1, 430800, Note_on_c, 0, 72, 49
1, 430919, Note_on_c, 0, 72, 0
1, 430920, Note_on_c, 0, 79, 49
1, 431039, Note_on_c, 0, 79, 0
1, 431040, Note_on_c, 0, 79, 49
1, 431159, Note_on_c, 0, 79, 0
1, 431160, Note_on_c, 0, 76, 49
1, 431279, Note_on_c, 0, 76, 0
1, 431280, Note_on_c, 0, 72, 49
1, 431399, Note_on_c, 0, 72, 0
1, 431400, Note_on_c, 0, 79, 49
1, 431519, Note_on_c, 0, 79, 0
1, 431520, Note_on_c, 0, 79, 49
1, 431639, Note_on_c, 0, 79, 0
1, 431640, Note_on_c, 0, 76, 49
1, 431759, Note_on_c, 0, 76, 0
1, 431760, Note_on_c, 0, 72, 49
1, 431879, Note_on_c, 0, 72, 0
1, 431880, Note_on_c, 0, 79, 49
1, 431999, Note_on_c, 0, 79, 0
1, 432000, Note_on_c, 0, 81, 49
1, 432119, Note_on_c, 0, 81, 0
1, 432120, Note_on_c, 0, 77, 49
1, 432239, Note_on_c, 0, 77, 0
1, 432240, Note_on_c, 0, 72, 49
1, 432359, Note_on_c, 0, 72, 0
1, 432360, Note_on_c, 0, 81, 49
1, 432479, Note_on_c, 0, 81, 0
1, 432480, Note_on_c, 0, 81, 49
1, 432599, Note_on_c, 0, 81, 0
1, 432600, Note_on_c, 0, 77, 49
1, 432719, Note_on_c, 0, 77, 0
1, 432720, Note_on_c, 0, 72, 49
1, 432839, Note_on_c, 0, 72, 0
1, 432840, Note_on_c, 0, 81, 49
1, 432959, Note_on_c, 0, 81, 0
1, 432960, Note_on_c, 0, 81, 49
1, 433079, Note_on_c, 0, 81, 0
1, 433080, Note_on_c, 0, 77, 49
1, 433199, Note_on_c, 0, 77, 0
1, 433200, Note_on_c, 0, 72, 49
1, 433319, Note_on_c, 0, 72, 0
1, 433320, Note_on_c, 0, 81, 49
1, 433439, Note_on_c, 0, 81, 0
1, 433440, Note_on_c, 0, 79, 49
1, 433559, Note_on_c, 0, 79, 0
1, 433560, Note_on_c, 0, 76, 49
1, 433679, Note_on_c, 0, 76, 0
1, 433680, Note_on_c, 0, 72, 49
1, 433799, Note_on_c, 0, 72, 0
1, 433800, Note_on_c, 0, 79, 49
1, 433919, Note_on_c, 0, 79, 0
1, 433920, Note_on_c, 0, 79, 49
1, 434039, Note_on_c, 0, 79, 0
1, 434040, Note_on_c, 0, 76, 49
1, 434159, Note_on_c, 0, 76, 0
1, 434160, Note_on_c, 0, 69, 49
1, 434279, Note_on_c, 0, 69, 0
1, 434280, Note_on_c, 0, 79, 49
1, 434399, Note_on_c, 0, 79, 0
1, 434400, Note_on_c, 0, 79, 49
1, 434519, Note_on_c, 0, 79, 0
1, 434520, Note_on_c, 0, 76, 49
1, 434639, Note_on_c, 0, 76, 0
1, 434640, Note_on_c, 0, 69, 49
1, 434759, Note_on_c, 0, 69, 0
1, 434760, Note_on_c, 0, 79, 49
1, 434879, Note_on_c, 0, 79, 0
1, 434880, Note_on_c, 0, 77, 49
1, 434999, Note_on_c, 0, 77, 0
1, 435000, Note_on_c, 0, 74, 49
1, 435119, Note_on_c, 0, 74, 0
1, 435120, Note_on_c, 0, 69, 49
1, 435239, Note_on_c, 0, 69, 0
1, 435240, Note_on_c, 0, 77, 49
1, 435359, Note_on_c, 0, 77, 0
1, 435360, Note_on_c, 0, 76, 49
1, 435479, Note_on_c, 0, 76, 0
1, 435480, Note_on_c, 0, 73, 49
1, 435599, Note_on_c, 0, 73, 0
1, 435600, Note_on_c, 0, 69, 49
1, 435719, Note_on_c, 0, 69, 0
1, 435720, Note_on_c, 0, 76, 49
1, 435839, Note_on_c, 0, 76, 0
1, 435840, Note_on_c, 0, 76, 49
1, 435959, Note_on_c, 0, 76, 0
1, 435960, Note_on_c, 0, 73, 49
1, 436079, Note_on_c, 0, 73, 0
1, 436080, Note_on_c, 0, 69, 49
1, 436199, Note_on_c, 0, 69, 0
1, 436200, Note_on_c, 0, 76, 49
1, 436319, Note_on_c, 0, 76, 0
1, 436320, Note_on_c, 0, 74, 49
1, 437759, Note_on_c, 0, 74, 0
1, 437760, Note_on_c, 0, 77, 49
1, 437879, Note_on_c, 0, 77, 0
1, 437880, Note_on_c, 0, 81, 49
1, 437999, Note_on_c, 0, 81, 0
1, 438000, Note_on_c, 0, 81, 49
1, 438119, Note_on_c, 0, 81, 0
1, 438120, Note_on_c, 0, 77, 49
1, 438239, Note_on_c, 0, 77, 0
1, 438240, Note_on_c, 0, 77, 49
1, 438359, Note_on_c, 0, 77, 0
1, 438360, Note_on_c, 0, 81, 49
1, 438479, Note_on_c, 0, 81, 0
1, 438480, Note_on_c, 0, 81, 49
1, 438599, Note_on_c, 0, 81, 0
1, 438600, Note_on_c, 0, 77, 49
1, 438719, Note_on_c, 0, 77, 0
1, 438720, Note_on_c, 0, 77, 49
1, 438839, Note_on_c, 0, 77, 0
1, 438840, Note_on_c, 0, 81, 49
1, 438959, Note_on_c, 0, 81, 0
1, 438960, Note_on_c, 0, 81, 49
1, 439079, Note_on_c, 0, 81, 0
1, 439080, Note_on_c, 0, 77, 49
1, 439199, Note_on_c, 0, 77, 0
1, 439200, Note_on_c, 0, 76, 49
1, 439319, Note_on_c, 0, 76, 0
1, 439320, Note_on_c, 0, 79, 49
1, 439439, Note_on_c, 0, 79, 0
1, 439440, Note_on_c, 0, 79, 49
1, 439559, Note_on_c, 0, 79, 0
1, 439560, Note_on_c, 0, 76, 49
1, 439679, Note_on_c, 0, 76, 0
1, 439680, Note_on_c, 0, 76, 49
1, 439799, Note_on_c, 0, 76, 0
1, 439800, Note_on_c, 0, 79, 49
1, 439919, Note_on_c, 0, 79, 0
1, 439920, Note_on_c, 0, 79, 49
1, 440039, Note_on_c, 0, 79, 0
1, 440040, Note_on_c, 0, 76, 49
1, 440159, Note_on_c, 0, 76, 0
1, 440160, Note_on_c, 0, 76, 49
1, 440279, Note_on_c, 0, 76, 0
1, 440280, Note_on_c, 0, 79, 49
1, 440399, Note_on_c, 0, 79, 0
1, 440400, Note_on_c, 0, 79, 49
1, 440519, Note_on_c, 0, 79, 0
1, 440520, Note_on_c, 0, 76, 49
1, 440639, Note_on_c, 0, 76, 0
1, 440640, Note_on_c, 0, 77, 49
1, 440759, Note_on_c, 0, 77, 0
1, 440760, Note_on_c, 0, 81, 49
1, 440879, Note_on_c, 0, 81, 0
1, 440880, Note_on_c, 0, 81, 49
1, 440999, Note_on_c, 0, 81, 0
1, 441000, Note_on_c, 0, 77, 49
1, 441119, Note_on_c, 0, 77, 0
1, 441120, Note_on_c, 0, 77, 49
1, 441239, Note_on_c, 0, 77, 0
1, 441240, Note_on_c, 0, 81, 49
1, 441359, Note_on_c, 0, 81, 0
1, 441360, Note_on_c, 0, 81, 49
1, 441479, Note_on_c, 0, 81, 0
1, 441480, Note_on_c, 0, 77, 49
1, 441599, Note_on_c, 0, 77, 0
1, 441600, Note_on_c, 0, 77, 49
1, 441719, Note_on_c, 0, 77, 0
1, 441720, Note_on_c, 0, 82, 49
1, 441839, Note_on_c, 0, 82, 0
1, 441840, Note_on_c, 0, 82, 49
1, 441959, Note_on_c, 0, 82, 0
1, 441960, Note_on_c, 0, 77, 49
1, 442079, Note_on_c, 0, 77, 0
1, 442080, Note_on_c, 0, 79, 49
1, 442199, Note_on_c, 0, 79, 0
1, 442200, Note_on_c, 0, 82, 49
1, 442319, Note_on_c, 0, 82, 0
1, 442320, Note_on_c, 0, 82, 49
1, 442439, Note_on_c, 0, 82, 0
1, 442440, Note_on_c, 0, 79, 49
1, 442559, Note_on_c, 0, 79, 0
1, 442560, Note_on_c, 0, 79, 49
1, 442679, Note_on_c, 0, 79, 0
1, 442680, Note_on_c, 0, 82, 49
1, 442799, Note_on_c, 0, 82, 0
1, 442800, Note_on_c, 0, 82, 49
1, 442919, Note_on_c, 0, 82, 0
1, 442920, Note_on_c, 0, 79, 49
1, 443039, Note_on_c, 0, 79, 0
1, 443040, Note_on_c, 0, 79, 49
1, 443159, Note_on_c, 0, 79, 0
1, 443160, Note_on_c, 0, 82, 49
1, 443279, Note_on_c, 0, 82, 0
1, 443280, Note_on_c, 0, 82, 49
1, 443399, Note_on_c, 0, 82, 0
1, 443400, Note_on_c, 0, 79, 49
1, 443519, Note_on_c, 0, 79, 0
1, 443520, Note_on_c, 0, 81, 49
1, 443639, Note_on_c, 0, 81, 0
1, 443640, Note_on_c, 0, 84, 49
1, 443759, Note_on_c, 0, 84, 0
1, 443760, Note_on_c, 0, 84, 49
1, 443879, Note_on_c, 0, 84, 0
1, 443880, Note_on_c, 0, 81, 49
1, 443999, Note_on_c, 0, 81, 0
1, 444000, Note_on_c, 0, 81, 49
1, 444119, Note_on_c, 0, 81, 0
1, 444120, Note_on_c, 0, 84, 49
1, 444239, Note_on_c, 0, 84, 0
1, 444240, Note_on_c, 0, 84, 49
1, 444359, Note_on_c, 0, 84, 0
1, 444360, Note_on_c, 0, 81, 49
1, 444479, Note_on_c, 0, 81, 0
1, 444480, Note_on_c, 0, 81, 49
1, 444599, Note_on_c, 0, 81, 0
1, 444600, Note_on_c, 0, 84, 49
1, 444719, Note_on_c, 0, 84, 0
1, 444720, Note_on_c, 0, 84, 49
1, 444839, Note_on_c, 0, 84, 0
1, 444840, Note_on_c, 0, 81, 49
1, 444959, Note_on_c, 0, 81, 0
1, 444960, Note_on_c, 0, 79, 49
1, 445079, Note_on_c, 0, 79, 0
1, 445080, Note_on_c, 0, 82, 49
1, 445199, Note_on_c, 0, 82, 0
1, 445200, Note_on_c, 0, 82, 49
1, 445319, Note_on_c, 0, 82, 0
1, 445320, Note_on_c, 0, 79, 49
1, 445439, Note_on_c, 0, 79, 0
1, 445440, Note_on_c, 0, 79, 49
1, 445559, Note_on_c, 0, 79, 0
1, 445560, Note_on_c, 0, 82, 49
1, 445679, Note_on_c, 0, 82, 0
1, 445680, Note_on_c, 0, 82, 49
1, 445799, Note_on_c, 0, 82, 0
1, 445800, Note_on_c, 0, 79, 49
1, 445919, Note_on_c, 0, 79, 0
1, 445920, Note_on_c, 0, 79, 49
1, 446039, Note_on_c, 0, 79, 0
1, 446040, Note_on_c, 0, 82, 49
1, 446159, Note_on_c, 0, 82, 0
1, 446160, Note_on_c, 0, 82, 49
1, 446279, Note_on_c, 0, 82, 0
1, 446280, Note_on_c, 0, 79, 49
1, 446399, Note_on_c, 0, 79, 0
1, 446400, Note_on_c, 0, 77, 49
1, 446519, Note_on_c, 0, 77, 0
1, 446520, Note_on_c, 0, 81, 49
1, 446639, Note_on_c, 0, 81, 0
1, 446640, Note_on_c, 0, 81, 49
1, 446759, Note_on_c, 0, 81, 0
1, 446760, Note_on_c, 0, 77, 49
1, 446879, Note_on_c, 0, 77, 0
1, 446880, Note_on_c, 0, 77, 49
1, 446999, Note_on_c, 0, 77, 0
1, 447000, Note_on_c, 0, 81, 49
1, 447119, Note_on_c, 0, 81, 0
1, 447120, Note_on_c, 0, 81, 49
1, 447239, Note_on_c, 0, 81, 0
1, 447240, Note_on_c, 0, 77, 49
1, 447359, Note_on_c, 0, 77, 0
1, 447360, Note_on_c, 0, 77, 49
1, 447479, Note_on_c, 0, 77, 0
1, 447480, Note_on_c, 0, 81, 49
1, 447599, Note_on_c, 0, 81, 0
1, 447600, Note_on_c, 0, 81, 49
1, 447719, Note_on_c, 0, 81, 0
1, 447720, Note_on_c, 0, 77, 49
1, 447839, Note_on_c, 0, 77, 0
1, 447840, Note_on_c, 0, 76, 49
1, 447959, Note_on_c, 0, 76, 0
1, 447960, Note_on_c, 0, 79, 49
1, 448079, Note_on_c, 0, 79, 0
1, 448080, Note_on_c, 0, 79, 49
1, 448199, Note_on_c, 0, 79, 0
1, 448200, Note_on_c, 0, 76, 49
1, 448319, Note_on_c, 0, 76, 0
1, 448320, Note_on_c, 0, 76, 49
1, 448439, Note_on_c, 0, 76, 0
1, 448440, Note_on_c, 0, 79, 49
1, 448559, Note_on_c, 0, 79, 0
1, 448560, Note_on_c, 0, 79, 49
1, 448679, Note_on_c, 0, 79, 0
1, 448680, Note_on_c, 0, 76, 49
1, 448799, Note_on_c, 0, 76, 0
1, 448800, Note_on_c, 0, 76, 49
1, 448919, Note_on_c, 0, 76, 0
1, 448920, Note_on_c, 0, 79, 49
1, 449039, Note_on_c, 0, 79, 0
1, 449040, Note_on_c, 0, 79, 49
1, 449159, Note_on_c, 0, 79, 0
1, 449160, Note_on_c, 0, 76, 49
1, 449279, Note_on_c, 0, 76, 0
1, 449280, Note_on_c, 0, 77, 49
1, 449399, Note_on_c, 0, 77, 0
1, 449400, Note_on_c, 0, 81, 49
1, 449519, Note_on_c, 0, 81, 0
1, 449520, Note_on_c, 0, 81, 49
1, 449639, Note_on_c, 0, 81, 0
1, 449640, Note_on_c, 0, 77, 49
1, 449759, Note_on_c, 0, 77, 0
1, 449760, Note_on_c, 0, 77, 49
1, 449879, Note_on_c, 0, 77, 0
1, 449880, Note_on_c, 0, 81, 49
1, 449999, Note_on_c, 0, 81, 0
1, 450000, Note_on_c, 0, 81, 49
1, 450119, Note_on_c, 0, 81, 0
1, 450120, Note_on_c, 0, 77, 49
1, 450239, Note_on_c, 0, 77, 0
1, 450240, Note_on_c, 0, 77, 49
1, 450359, Note_on_c, 0, 77, 0
1, 450360, Note_on_c, 0, 81, 49
1, 450479, Note_on_c, 0, 81, 0
1, 450480, Note_on_c, 0, 81, 49
1, 450599, Note_on_c, 0, 81, 0
1, 450600, Note_on_c, 0, 77, 49
1, 450719, Note_on_c, 0, 77, 0
1, 450720, Note_on_c, 0, 76, 49
1, 450839, Note_on_c, 0, 76, 0
1, 450840, Note_on_c, 0, 79, 49
1, 450959, Note_on_c, 0, 79, 0
1, 450960, Note_on_c, 0, 79, 49
1, 451079, Note_on_c, 0, 79, 0
1, 451080, Note_on_c, 0, 76, 49
1, 451199, Note_on_c, 0, 76, 0
1, 451200, Note_on_c, 0, 76, 49
1, 451319, Note_on_c, 0, 76, 0
1, 451320, Note_on_c, 0, 79, 49
1, 451439, Note_on_c, 0, 79, 0
1, 451440, Note_on_c, 0, 79, 49
1, 451559, Note_on_c, 0, 79, 0
1, 451560, Note_on_c, 0, 76, 49
1, 451679, Note_on_c, 0, 76, 0
1, 451680, Note_on_c, 0, 76, 49
1, 451799, Note_on_c, 0, 76, 0
1, 451800, Note_on_c, 0, 79, 49
1, 451919, Note_on_c, 0, 79, 0
1, 451920, Note_on_c, 0, 79, 49
1, 452039, Note_on_c, 0, 79, 0
1, 452040, Note_on_c, 0, 76, 49
1, 452159, Note_on_c, 0, 76, 0
1, 452160, Note_on_c, 0, 77, 49
1, 452279, Note_on_c, 0, 77, 0
1, 452280, Note_on_c, 0, 81, 49
1, 452399, Note_on_c, 0, 81, 0
1, 452400, Note_on_c, 0, 81, 49
1, 452519, Note_on_c, 0, 81, 0
1, 452520, Note_on_c, 0, 77, 49
1, 452639, Note_on_c, 0, 77, 0
1, 452640, Note_on_c, 0, 77, 49
1, 452759, Note_on_c, 0, 77, 0
1, 452760, Note_on_c, 0, 81, 49
1, 452879, Note_on_c, 0, 81, 0
1, 452880, Note_on_c, 0, 81, 49
1, 452999, Note_on_c, 0, 81, 0
1, 453000, Note_on_c, 0, 77, 49
1, 453119, Note_on_c, 0, 77, 0
1, 453120, Note_on_c, 0, 77, 49
1, 453239, Note_on_c, 0, 77, 0
1, 453240, Note_on_c, 0, 82, 49
1, 453359, Note_on_c, 0, 82, 0
1, 453360, Note_on_c, 0, 82, 49
1, 453479, Note_on_c, 0, 82, 0
1, 453480, Note_on_c, 0, 77, 49
1, 453599, Note_on_c, 0, 77, 0
1, 453600, Note_on_c, 0, 79, 49
1, 453719, Note_on_c, 0, 79, 0
1, 453720, Note_on_c, 0, 82, 49
1, 453839, Note_on_c, 0, 82, 0
1, 453840, Note_on_c, 0, 82, 49
1, 453959, Note_on_c, 0, 82, 0
1, 453960, Note_on_c, 0, 79, 49
1, 454079, Note_on_c, 0, 79, 0
1, 454080, Note_on_c, 0, 79, 49
1, 454199, Note_on_c, 0, 79, 0
1, 454200, Note_on_c, 0, 82, 49
1, 454319, Note_on_c, 0, 82, 0
1, 454320, Note_on_c, 0, 82, 49
1, 454439, Note_on_c, 0, 82, 0
1, 454440, Note_on_c, 0, 79, 49
1, 454559, Note_on_c, 0, 79, 0
1, 454560, Note_on_c, 0, 79, 49
1, 454679, Note_on_c, 0, 79, 0
1, 454680, Note_on_c, 0, 82, 49
1, 454799, Note_on_c, 0, 82, 0
1, 454800, Note_on_c, 0, 82, 49
1, 454919, Note_on_c, 0, 82, 0
1, 454920, Note_on_c, 0, 79, 49
1, 455039, Note_on_c, 0, 79, 0
1, 455040, Note_on_c, 0, 81, 49
1, 455159, Note_on_c, 0, 81, 0
1, 455160, Note_on_c, 0, 84, 49
1, 455279, Note_on_c, 0, 84, 0
1, 455280, Note_on_c, 0, 84, 49
1, 455399, Note_on_c, 0, 84, 0
1, 455400, Note_on_c, 0, 81, 49
1, 455519, Note_on_c, 0, 81, 0
1, 455520, Note_on_c, 0, 81, 49
1, 455639, Note_on_c, 0, 81, 0
1, 455640, Note_on_c, 0, 84, 49
1, 455759, Note_on_c, 0, 84, 0
1, 455760, Note_on_c, 0, 84, 49
1, 455879, Note_on_c, 0, 84, 0
1, 455880, Note_on_c, 0, 81, 49
1, 455999, Note_on_c, 0, 81, 0
1, 456000, Note_on_c, 0, 81, 49
1, 456119, Note_on_c, 0, 81, 0
1, 456120, Note_on_c, 0, 84, 49
1, 456239, Note_on_c, 0, 84, 0
1, 456240, Note_on_c, 0, 84, 49
1, 456359, Note_on_c, 0, 84, 0
1, 456360, Note_on_c, 0, 81, 49
1, 456479, Note_on_c, 0, 81, 0
1, 456480, Note_on_c, 0, 79, 49
1, 456599, Note_on_c, 0, 79, 0
1, 456600, Note_on_c, 0, 82, 49
1, 456719, Note_on_c, 0, 82, 0
1, 456720, Note_on_c, 0, 82, 49
1, 456839, Note_on_c, 0, 82, 0
1, 456840, Note_on_c, 0, 79, 49
1, 456959, Note_on_c, 0, 79, 0
1, 456960, Note_on_c, 0, 79, 49
1, 457079, Note_on_c, 0, 79, 0
1, 457080, Note_on_c, 0, 82, 49
1, 457199, Note_on_c, 0, 82, 0
1, 457200, Note_on_c, 0, 82, 49
1, 457319, Note_on_c, 0, 82, 0
1, 457320, Note_on_c, 0, 79, 49
1, 457439, Note_on_c, 0, 79, 0
1, 457440, Note_on_c, 0, 79, 49
1, 457559, Note_on_c, 0, 79, 0
1, 457560, Note_on_c, 0, 82, 49
1, 457679, Note_on_c, 0, 82, 0
1, 457680, Note_on_c, 0, 82, 49
1, 457799, Note_on_c, 0, 82, 0
1, 457800, Note_on_c, 0, 79, 49
1, 457919, Note_on_c, 0, 79, 0
1, 457920, Note_on_c, 0, 77, 49
1, 458039, Note_on_c, 0, 77, 0
1, 458040, Note_on_c, 0, 86, 49
1, 458159, Note_on_c, 0, 86, 0
1, 458160, Note_on_c, 0, 77, 49
1, 458279, Note_on_c, 0, 77, 0
1, 458280, Note_on_c, 0, 86, 49
1, 458399, Note_on_c, 0, 86, 0
1, 458400, Note_on_c, 0, 76, 49
1, 458519, Note_on_c, 0, 76, 0
1, 458520, Note_on_c, 0, 86, 49
1, 458639, Note_on_c, 0, 86, 0
1, 458640, Note_on_c, 0, 76, 49
1, 458759, Note_on_c, 0, 76, 0
1, 458760, Note_on_c, 0, 86, 49
1, 458879, Note_on_c, 0, 86, 0
1, 458880, Note_on_c, 0, 76, 49
1, 458999, Note_on_c, 0, 76, 0
1, 459000, Note_on_c, 0, 85, 49
1, 459119, Note_on_c, 0, 85, 0
1, 459120, Note_on_c, 0, 76, 49
1, 459239, Note_on_c, 0, 76, 0
1, 459240, Note_on_c, 0, 85, 49
1, 459359, Note_on_c, 0, 85, 0
1, 459360, Note_on_c, 0, 86, 49
1, 460799, Note_on_c, 0, 86, 0
1, 460800, Note_on_c, 0, 77, 49
1, 461279, Note_on_c, 0, 77, 0
1, 461280, Note_on_c, 0, 65, 49
1, 461759, Note_on_c, 0, 65, 0
1, 461760, Note_on_c, 0, 77, 49
1, 462239, Note_on_c, 0, 77, 0
1, 462240, Note_on_c, 0, 76, 49
1, 462359, Note_on_c, 0, 76, 0
1, 462360, Note_on_c, 0, 79, 49
1, 462479, Note_on_c, 0, 79, 0
1, 462480, Note_on_c, 0, 79, 49
1, 462599, Note_on_c, 0, 79, 0
1, 462600, Note_on_c, 0, 76, 49
1, 462719, Note_on_c, 0, 76, 0
1, 462720, Note_on_c, 0, 76, 49
1, 462839, Note_on_c, 0, 76, 0
1, 462840, Note_on_c, 0, 79, 49
1, 462959, Note_on_c, 0, 79, 0
1, 462960, Note_on_c, 0, 79, 49
1, 463079, Note_on_c, 0, 79, 0
1, 463080, Note_on_c, 0, 76, 49
1, 463199, Note_on_c, 0, 76, 0
1, 463200, Note_on_c, 0, 76, 49
1, 463319, Note_on_c, 0, 76, 0
1, 463320, Note_on_c, 0, 79, 49
1, 463439, Note_on_c, 0, 79, 0
1, 463440, Note_on_c, 0, 79, 49
1, 463559, Note_on_c, 0, 79, 0
1, 463560, Note_on_c, 0, 76, 49
1, 463679, Note_on_c, 0, 76, 0
1, 463680, Note_on_c, 0, 77, 49
1, 464159, Note_on_c, 0, 77, 0
1, 464160, Note_on_c, 0, 65, 49
1, 464639, Note_on_c, 0, 65, 0
1, 464640, Note_on_c, 0, 77, 49
1, 465119, Note_on_c, 0, 77, 0
1, 465120, Note_on_c, 0, 79, 49
1, 465239, Note_on_c, 0, 79, 0
1, 465240, Note_on_c, 0, 82, 49
1, 465359, Note_on_c, 0, 82, 0
1, 465360, Note_on_c, 0, 82, 49
1, 465479, Note_on_c, 0, 82, 0
1, 465480, Note_on_c, 0, 79, 49
1, 465599, Note_on_c, 0, 79, 0
1, 465600, Note_on_c, 0, 79, 49
1, 465719, Note_on_c, 0, 79, 0
1, 465720, Note_on_c, 0, 82, 49
1, 465839, Note_on_c, 0, 82, 0
1, 465840, Note_on_c, 0, 82, 49
1, 465959, Note_on_c, 0, 82, 0
1, 465960, Note_on_c, 0, 79, 49
1, 466079, Note_on_c, 0, 79, 0
1, 466080, Note_on_c, 0, 79, 49
1, 466199, Note_on_c, 0, 79, 0
1, 466200, Note_on_c, 0, 82, 49
1, 466319, Note_on_c, 0, 82, 0
1, 466320, Note_on_c, 0, 82, 49
1, 466439, Note_on_c, 0, 82, 0
1, 466440, Note_on_c, 0, 79, 49
1, 466559, Note_on_c, 0, 79, 0
1, 466560, Note_on_c, 0, 81, 49
1, 467039, Note_on_c, 0, 81, 0
1, 467040, Note_on_c, 0, 69, 49
1, 467519, Note_on_c, 0, 69, 0
1, 467520, Note_on_c, 0, 81, 49
1, 467999, Note_on_c, 0, 81, 0
1, 468000, Note_on_c, 0, 79, 49
1, 468119, Note_on_c, 0, 79, 0
1, 468120, Note_on_c, 0, 82, 49
1, 468239, Note_on_c, 0, 82, 0
1, 468240, Note_on_c, 0, 82, 49
1, 468359, Note_on_c, 0, 82, 0
1, 468360, Note_on_c, 0, 79, 49
1, 468479, Note_on_c, 0, 79, 0
1, 468480, Note_on_c, 0, 79, 49
1, 468599, Note_on_c, 0, 79, 0
1, 468600, Note_on_c, 0, 82, 49
1, 468719, Note_on_c, 0, 82, 0
1, 468720, Note_on_c, 0, 82, 49
1, 468839, Note_on_c, 0, 82, 0
1, 468840, Note_on_c, 0, 79, 49
1, 468959, Note_on_c, 0, 79, 0
1, 468960, Note_on_c, 0, 79, 49
1, 469079, Note_on_c, 0, 79, 0
1, 469080, Note_on_c, 0, 82, 49
1, 469199, Note_on_c, 0, 82, 0
1, 469200, Note_on_c, 0, 82, 49
1, 469319, Note_on_c, 0, 82, 0
1, 469320, Note_on_c, 0, 79, 49
1, 469439, Note_on_c, 0, 79, 0
1, 469440, Note_on_c, 0, 77, 49
1, 469919, Note_on_c, 0, 77, 0
1, 469920, Note_on_c, 0, 65, 49
1, 470399, Note_on_c, 0, 65, 0
1, 470400, Note_on_c, 0, 77, 49
1, 470879, Note_on_c, 0, 77, 0
1, 470880, Note_on_c, 0, 76, 49
1, 470999, Note_on_c, 0, 76, 0
1, 471000, Note_on_c, 0, 79, 49
1, 471119, Note_on_c, 0, 79, 0
1, 471120, Note_on_c, 0, 79, 49
1, 471239, Note_on_c, 0, 79, 0
1, 471240, Note_on_c, 0, 76, 49
1, 471359, Note_on_c, 0, 76, 0
1, 471360, Note_on_c, 0, 76, 49
1, 471479, Note_on_c, 0, 76, 0
1, 471480, Note_on_c, 0, 79, 49
1, 471599, Note_on_c, 0, 79, 0
1, 471600, Note_on_c, 0, 79, 49
1, 471719, Note_on_c, 0, 79, 0
1, 471720, Note_on_c, 0, 76, 49
1, 471839, Note_on_c, 0, 76, 0
1, 471840, Note_on_c, 0, 76, 49
1, 471959, Note_on_c, 0, 76, 0
1, 471960, Note_on_c, 0, 79, 49
1, 472079, Note_on_c, 0, 79, 0
1, 472080, Note_on_c, 0, 79, 49
1, 472199, Note_on_c, 0, 79, 0
1, 472200, Note_on_c, 0, 76, 49
1, 472319, Note_on_c, 0, 76, 0
1, 472320, Note_on_c, 0, 77, 49
1, 472799, Note_on_c, 0, 77, 0
1, 472800, Note_on_c, 0, 65, 49
1, 473279, Note_on_c, 0, 65, 0
1, 473280, Note_on_c, 0, 77, 49
1, 473759, Note_on_c, 0, 77, 0
1, 473760, Note_on_c, 0, 76, 49
1, 473879, Note_on_c, 0, 76, 0
1, 473880, Note_on_c, 0, 79, 49
1, 473999, Note_on_c, 0, 79, 0
1, 474000, Note_on_c, 0, 79, 49
1, 474119, Note_on_c, 0, 79, 0
1, 474120, Note_on_c, 0, 76, 49
1, 474239, Note_on_c, 0, 76, 0
1, 474240, Note_on_c, 0, 76, 49
1, 474359, Note_on_c, 0, 76, 0
1, 474360, Note_on_c, 0, 79, 49
1, 474479, Note_on_c, 0, 79, 0
1, 474480, Note_on_c, 0, 79, 49
1, 474599, Note_on_c, 0, 79, 0
1, 474600, Note_on_c, 0, 76, 49
1, 474719, Note_on_c, 0, 76, 0
1, 474720, Note_on_c, 0, 76, 49
1, 474839, Note_on_c, 0, 76, 0
1, 474840, Note_on_c, 0, 79, 49
1, 474959, Note_on_c, 0, 79, 0
1, 474960, Note_on_c, 0, 79, 49
1, 475079, Note_on_c, 0, 79, 0
1, 475080, Note_on_c, 0, 76, 49
1, 475199, Note_on_c, 0, 76, 0
1, 475200, Note_on_c, 0, 77, 49
1, 475679, Note_on_c, 0, 77, 0
1, 475680, Note_on_c, 0, 65, 49
1, 476159, Note_on_c, 0, 65, 0
1, 476160, Note_on_c, 0, 77, 49
1, 476639, Note_on_c, 0, 77, 0
1, 476640, Note_on_c, 0, 79, 49
1, 476759, Note_on_c, 0, 79, 0
1, 476760, Note_on_c, 0, 82, 49
1, 476879, Note_on_c, 0, 82, 0
1, 476880, Note_on_c, 0, 82, 49
1, 476999, Note_on_c, 0, 82, 0
1, 477000, Note_on_c, 0, 79, 49
1, 477119, Note_on_c, 0, 79, 0
1, 477120, Note_on_c, 0, 79, 49
1, 477239, Note_on_c, 0, 79, 0
1, 477240, Note_on_c, 0, 82, 49
1, 477359, Note_on_c, 0, 82, 0
1, 477360, Note_on_c, 0, 82, 49
1, 477479, Note_on_c, 0, 82, 0
1, 477480, Note_on_c, 0, 79, 49
1, 477599, Note_on_c, 0, 79, 0
1, 477600, Note_on_c, 0, 79, 49
1, 477719, Note_on_c, 0, 79, 0
1, 477720, Note_on_c, 0, 82, 49
1, 477839, Note_on_c, 0, 82, 0
1, 477840, Note_on_c, 0, 82, 49
1, 477959, Note_on_c, 0, 82, 0
1, 477960, Note_on_c, 0, 79, 49
1, 478079, Note_on_c, 0, 79, 0
1, 478080, Note_on_c, 0, 81, 49
1, 478559, Note_on_c, 0, 81, 0
1, 478560, Note_on_c, 0, 69, 49
1, 479039, Note_on_c, 0, 69, 0
1, 479040, Note_on_c, 0, 81, 49
1, 479519, Note_on_c, 0, 81, 0
1, 479520, Note_on_c, 0, 79, 49
1, 479639, Note_on_c, 0, 79, 0
1, 479640, Note_on_c, 0, 82, 49
1, 479759, Note_on_c, 0, 82, 0
1, 479760, Note_on_c, 0, 82, 49
1, 479879, Note_on_c, 0, 82, 0
1, 479880, Note_on_c, 0, 79, 49
1, 479999, Note_on_c, 0, 79, 0
1, 480000, Note_on_c, 0, 79, 49
1, 480119, Note_on_c, 0, 79, 0
1, 480120, Note_on_c, 0, 82, 49
1, 480239, Note_on_c, 0, 82, 0
1, 480240, Note_on_c, 0, 82, 49
1, 480359, Note_on_c, 0, 82, 0
1, 480360, Note_on_c, 0, 79, 49
1, 480479, Note_on_c, 0, 79, 0
1, 480480, Note_on_c, 0, 79, 49
1, 480599, Note_on_c, 0, 79, 0
1, 480600, Note_on_c, 0, 82, 49
1, 480719, Note_on_c, 0, 82, 0
1, 480720, Note_on_c, 0, 82, 49
1, 480839, Note_on_c, 0, 82, 0
1, 480840, Note_on_c, 0, 79, 49
1, 480959, Note_on_c, 0, 79, 0
1, 480960, Note_on_c, 0, 77, 49
1, 481079, Note_on_c, 0, 77, 0
1, 481080, Note_on_c, 0, 86, 49
1, 481199, Note_on_c, 0, 86, 0
1, 481200, Note_on_c, 0, 77, 49
1, 481319, Note_on_c, 0, 77, 0
1, 481320, Note_on_c, 0, 86, 49
1, 481439, Note_on_c, 0, 86, 0
1, 481440, Note_on_c, 0, 76, 49
1, 481559, Note_on_c, 0, 76, 0
1, 481560, Note_on_c, 0, 86, 49
1, 481679, Note_on_c, 0, 86, 0
1, 481680, Note_on_c, 0, 76, 49
1, 481799, Note_on_c, 0, 76, 0
1, 481800, Note_on_c, 0, 86, 49
1, 481919, Note_on_c, 0, 86, 0
1, 481920, Note_on_c, 0, 76, 49
1, 482039, Note_on_c, 0, 76, 0
1, 482040, Note_on_c, 0, 85, 49
1, 482159, Note_on_c, 0, 85, 0
1, 482160, Note_on_c, 0, 76, 49
1, 482279, Note_on_c, 0, 76, 0
1, 482280, Note_on_c, 0, 85, 49
1, 482399, Note_on_c, 0, 85, 0
1, 482400, Note_on_c, 0, 86, 49
1, 483839, Note_on_c, 0, 86, 0
1, 483840, Note_on_c, 0, 77, 49
1, 484319, Note_on_c, 0, 77, 0
1, 484320, Note_on_c, 0, 77, 49
1, 485039, Note_on_c, 0, 77, 0
1, 485040, Note_on_c, 0, 77, 49
1, 485279, Note_on_c, 0, 77, 0
1, 485280, Note_on_c, 0, 76, 49
1, 485759, Note_on_c, 0, 76, 0
1, 485760, Note_on_c, 0, 76, 49
1, 486479, Note_on_c, 0, 76, 0
1, 486480, Note_on_c, 0, 76, 49
1, 486719, Note_on_c, 0, 76, 0
1, 486720, Note_on_c, 0, 76, 49
1, 487199, Note_on_c, 0, 76, 0
1, 487200, Note_on_c, 0, 76, 49
1, 487919, Note_on_c, 0, 76, 0
1, 487920, Note_on_c, 0, 76, 49
1, 488159, Note_on_c, 0, 76, 0
1, 488160, Note_on_c, 0, 74, 49
1, 488639, Note_on_c, 0, 74, 0
1, 489600, Note_on_c, 0, 65, 49
1, 490079, Note_on_c, 0, 65, 0
1, 490080, Note_on_c, 0, 65, 49
1, 490799, Note_on_c, 0, 65, 0
1, 490800, Note_on_c, 0, 65, 49
1, 491039, Note_on_c, 0, 65, 0
1, 491040, Note_on_c, 0, 64, 49
1, 491519, Note_on_c, 0, 64, 0
1, 491520, Note_on_c, 0, 64, 49
1, 492239, Note_on_c, 0, 64, 0
1, 492240, Note_on_c, 0, 64, 49
1, 492479, Note_on_c, 0, 64, 0
1, 492480, Note_on_c, 0, 64, 49
1, 492959, Note_on_c, 0, 64, 0
1, 492960, Note_on_c, 0, 64, 49
1, 493679, Note_on_c, 0, 64, 0
1, 493680, Note_on_c, 0, 64, 49
1, 493919, Note_on_c, 0, 64, 0
1, 493920, Note_on_c, 0, 62, 49
1, 495359, Note_on_c, 0, 62, 0
1, 495360, End_track
2, 0, Start_track
2, 0, Key_signature, -1, "major"
2, 0, Control_c, 1, 121, 0
2, 0, Program_c, 1, 40
2, 0, Control_c, 1, 7, 100
2, 0, Control_c, 1, 10, 64
2, 0, Control_c, 1, 91, 0
2, 0, Control_c, 1, 93, 0
2, 0, MIDI_port, 1
2, 0, Note_on_c, 1, 65, 64
2, 0, Control_c, 3, 121, 0
2, 0, Program_c, 3, 45
2, 0, Control_c, 3, 7, 100
2, 0, Control_c, 3, 10, 64
2, 0, Control_c, 3, 91, 0
2, 0, Control_c, 3, 93, 0
2, 0, MIDI_port, 1
2, 0, Control_c, 4, 121, 0
2, 0, Program_c, 4, 44
2, 0, Control_c, 4, 7, 100
2, 0, Control_c, 4, 10, 64
2, 0, Control_c, 4, 91, 0
2, 0, Control_c, 4, 93, 0
2, 0, MIDI_port, 1
2, 479, Note_on_c, 1, 65, 0
2, 480, Note_on_c, 1, 65, 64
2, 1199, Note_on_c, 1, 65, 0
2, 1200, Note_on_c, 1, 65, 64
2, 1439, Note_on_c, 1, 65, 0
2, 1440, Note_on_c, 1, 64, 64
2, 1919, Note_on_c, 1, 64, 0
2, 1920, Note_on_c, 1, 64, 64
2, 2639, Note_on_c, 1, 64, 0
2, 2640, Note_on_c, 1, 64, 64
2, 2879, Note_on_c, 1, 64, 0
2, 2880, Note_on_c, 1, 65, 64
2, 3359, Note_on_c, 1, 65, 0
2, 3360, Note_on_c, 1, 65, 64
2, 4079, Note_on_c, 1, 65, 0
2, 4080, Note_on_c, 1, 65, 64
2, 4319, Note_on_c, 1, 65, 0
2, 4320, Note_on_c, 1, 67, 64
2, 4799, Note_on_c, 1, 67, 0
2, 4800, Note_on_c, 1, 67, 64
2, 5519, Note_on_c, 1, 67, 0
2, 5520, Note_on_c, 1, 67, 64
2, 5759, Note_on_c, 1, 67, 0
2, 5760, Note_on_c, 1, 69, 64
2, 6239, Note_on_c, 1, 69, 0
2, 6240, Note_on_c, 1, 69, 64
2, 6959, Note_on_c, 1, 69, 0
2, 6960, Note_on_c, 1, 69, 64
2, 7199, Note_on_c, 1, 69, 0
2, 7200, Note_on_c, 1, 67, 64
2, 7679, Note_on_c, 1, 67, 0
2, 7680, Note_on_c, 1, 67, 64
2, 8399, Note_on_c, 1, 67, 0
2, 8400, Note_on_c, 1, 67, 64
2, 8639, Note_on_c, 1, 67, 0
2, 8640, Note_on_c, 1, 65, 64
2, 9119, Note_on_c, 1, 65, 0
2, 9120, Note_on_c, 1, 65, 64
2, 9839, Note_on_c, 1, 65, 0
2, 9840, Note_on_c, 1, 65, 64
2, 10079, Note_on_c, 1, 65, 0
2, 10080, Note_on_c, 1, 64, 64
2, 11519, Note_on_c, 1, 64, 0
2, 11520, Note_on_c, 1, 65, 49
2, 11999, Note_on_c, 1, 65, 0
2, 12000, Note_on_c, 1, 65, 49
2, 12719, Note_on_c, 1, 65, 0
2, 12720, Note_on_c, 1, 65, 49
2, 12959, Note_on_c, 1, 65, 0
2, 12960, Note_on_c, 1, 64, 49
2, 13439, Note_on_c, 1, 64, 0
2, 13440, Note_on_c, 1, 64, 49
2, 14159, Note_on_c, 1, 64, 0
2, 14160, Note_on_c, 1, 64, 49
2, 14399, Note_on_c, 1, 64, 0
2, 14400, Note_on_c, 1, 65, 49
2, 14879, Note_on_c, 1, 65, 0
2, 14880, Note_on_c, 1, 65, 49
2, 15599, Note_on_c, 1, 65, 0
2, 15600, Note_on_c, 1, 65, 49
2, 15839, Note_on_c, 1, 65, 0
2, 15840, Note_on_c, 1, 67, 49
2, 16319, Note_on_c, 1, 67, 0
2, 16320, Note_on_c, 1, 67, 49
2, 17039, Note_on_c, 1, 67, 0
2, 17040, Note_on_c, 1, 67, 49
2, 17279, Note_on_c, 1, 67, 0
2, 17280, Note_on_c, 1, 69, 49
2, 17759, Note_on_c, 1, 69, 0
2, 17760, Note_on_c, 1, 69, 49
2, 18479, Note_on_c, 1, 69, 0
2, 18480, Note_on_c, 1, 69, 49
2, 18719, Note_on_c, 1, 69, 0
2, 18720, Note_on_c, 1, 67, 49
2, 19199, Note_on_c, 1, 67, 0
2, 19200, Note_on_c, 1, 67, 49
2, 19439, Note_on_c, 1, 67, 0
2, 19440, Note_on_c, 1, 69, 49
2, 19679, Note_on_c, 1, 69, 0
2, 19680, Note_on_c, 1, 70, 49
2, 20159, Note_on_c, 1, 70, 0
2, 20160, Note_on_c, 1, 69, 49
2, 20399, Note_on_c, 1, 69, 0
2, 20400, Note_on_c, 1, 67, 49
2, 20519, Note_on_c, 1, 67, 0
2, 20520, Note_on_c, 1, 65, 49
2, 20639, Note_on_c, 1, 65, 0
2, 20640, Note_on_c, 1, 64, 49
2, 21359, Note_on_c, 1, 64, 0
2, 21360, Note_on_c, 1, 62, 49
2, 21599, Note_on_c, 1, 62, 0
2, 21600, Note_on_c, 1, 62, 49
2, 23039, Note_on_c, 1, 62, 0
2, 23040, Note_on_c, 1, 74, 49
2, 23519, Note_on_c, 1, 74, 0
2, 23520, Note_on_c, 1, 74, 49
2, 23879, Note_on_c, 1, 74, 0
2, 23880, Note_on_c, 1, 76, 49
2, 23999, Note_on_c, 1, 76, 0
2, 24000, Note_on_c, 1, 77, 49
2, 24359, Note_on_c, 1, 77, 0
2, 24360, Note_on_c, 1, 74, 49
2, 24479, Note_on_c, 1, 74, 0
2, 24480, Note_on_c, 1, 73, 49
2, 24959, Note_on_c, 1, 73, 0
2, 24960, Note_on_c, 1, 73, 49
2, 25679, Note_on_c, 1, 73, 0
2, 25680, Note_on_c, 1, 73, 49
2, 25919, Note_on_c, 1, 73, 0
2, 25920, Note_on_c, 1, 74, 49
2, 26399, Note_on_c, 1, 74, 0
2, 26400, Note_on_c, 1, 74, 49
2, 26759, Note_on_c, 1, 74, 0
2, 26760, Note_on_c, 1, 76, 49
2, 26879, Note_on_c, 1, 76, 0
2, 26880, Note_on_c, 1, 77, 49
2, 27239, Note_on_c, 1, 77, 0
2, 27240, Note_on_c, 1, 74, 49
2, 27359, Note_on_c, 1, 74, 0
2, 27360, Note_on_c, 1, 76, 49
2, 27839, Note_on_c, 1, 76, 0
2, 27840, Note_on_c, 1, 76, 49
2, 28559, Note_on_c, 1, 76, 0
2, 28560, Note_on_c, 1, 76, 49
2, 28799, Note_on_c, 1, 76, 0
2, 28800, Note_on_c, 1, 77, 49
2, 29279, Note_on_c, 1, 77, 0
2, 29280, Note_on_c, 1, 77, 49
2, 29639, Note_on_c, 1, 77, 0
2, 29640, Note_on_c, 1, 79, 49
2, 29759, Note_on_c, 1, 79, 0
2, 29760, Note_on_c, 1, 81, 49
2, 30119, Note_on_c, 1, 81, 0
2, 30120, Note_on_c, 1, 77, 49
2, 30239, Note_on_c, 1, 77, 0
2, 30240, Note_on_c, 1, 76, 49
2, 30719, Note_on_c, 1, 76, 0
2, 30720, Note_on_c, 1, 76, 49
2, 31079, Note_on_c, 1, 76, 0
2, 31080, Note_on_c, 1, 77, 49
2, 31199, Note_on_c, 1, 77, 0
2, 31200, Note_on_c, 1, 79, 49
2, 31559, Note_on_c, 1, 79, 0
2, 31560, Note_on_c, 1, 76, 49
2, 31679, Note_on_c, 1, 76, 0
2, 31680, Note_on_c, 1, 74, 49
2, 32159, Note_on_c, 1, 74, 0
2, 32160, Note_on_c, 1, 74, 49
2, 32519, Note_on_c, 1, 74, 0
2, 32520, Note_on_c, 1, 76, 49
2, 32639, Note_on_c, 1, 76, 0
2, 32640, Note_on_c, 1, 77, 49
2, 32999, Note_on_c, 1, 77, 0
2, 33000, Note_on_c, 1, 74, 49
2, 33119, Note_on_c, 1, 74, 0
2, 33120, Note_on_c, 1, 73, 49
2, 34559, Note_on_c, 1, 73, 0
2, 34560, Note_on_c, 1, 74, 49
2, 35039, Note_on_c, 1, 74, 0
2, 35040, Note_on_c, 1, 74, 49
2, 35399, Note_on_c, 1, 74, 0
2, 35400, Note_on_c, 1, 76, 49
2, 35519, Note_on_c, 1, 76, 0
2, 35520, Note_on_c, 1, 77, 49
2, 35879, Note_on_c, 1, 77, 0
2, 35880, Note_on_c, 1, 74, 49
2, 35999, Note_on_c, 1, 74, 0
2, 36000, Note_on_c, 1, 73, 49
2, 36479, Note_on_c, 1, 73, 0
2, 36480, Note_on_c, 1, 73, 49
2, 37199, Note_on_c, 1, 73, 0
2, 37200, Note_on_c, 1, 73, 49
2, 37439, Note_on_c, 1, 73, 0
2, 37440, Note_on_c, 1, 74, 49
2, 37919, Note_on_c, 1, 74, 0
2, 37920, Note_on_c, 1, 74, 49
2, 38279, Note_on_c, 1, 74, 0
2, 38280, Note_on_c, 1, 76, 49
2, 38399, Note_on_c, 1, 76, 0
2, 38400, Note_on_c, 1, 77, 49
2, 38759, Note_on_c, 1, 77, 0
2, 38760, Note_on_c, 1, 74, 49
2, 38879, Note_on_c, 1, 74, 0
2, 38880, Note_on_c, 1, 76, 49
2, 39359, Note_on_c, 1, 76, 0
2, 39360, Note_on_c, 1, 76, 49
2, 40079, Note_on_c, 1, 76, 0
2, 40080, Note_on_c, 1, 76, 49
2, 40319, Note_on_c, 1, 76, 0
2, 40320, Note_on_c, 1, 77, 49
2, 40799, Note_on_c, 1, 77, 0
2, 40800, Note_on_c, 1, 77, 49
2, 41159, Note_on_c, 1, 77, 0
2, 41160, Note_on_c, 1, 79, 49
2, 41279, Note_on_c, 1, 79, 0
2, 41280, Note_on_c, 1, 81, 49
2, 41639, Note_on_c, 1, 81, 0
2, 41640, Note_on_c, 1, 77, 49
2, 41759, Note_on_c, 1, 77, 0
2, 41760, Note_on_c, 1, 76, 49
2, 42239, Note_on_c, 1, 76, 0
2, 42240, Note_on_c, 1, 76, 49
2, 42599, Note_on_c, 1, 76, 0
2, 42600, Note_on_c, 1, 77, 49
2, 42719, Note_on_c, 1, 77, 0
2, 42720, Note_on_c, 1, 79, 49
2, 43079, Note_on_c, 1, 79, 0
2, 43080, Note_on_c, 1, 76, 49
2, 43199, Note_on_c, 1, 76, 0
2, 43200, Note_on_c, 1, 77, 49
2, 43439, Note_on_c, 1, 77, 0
2, 43440, Note_on_c, 1, 76, 49
2, 43559, Note_on_c, 1, 76, 0
2, 43560, Note_on_c, 1, 74, 49
2, 43679, Note_on_c, 1, 74, 0
2, 43680, Note_on_c, 1, 73, 49
2, 44399, Note_on_c, 1, 73, 0
2, 44400, Note_on_c, 1, 74, 49
2, 44639, Note_on_c, 1, 74, 0
2, 44640, Note_on_c, 1, 74, 49
2, 46079, Note_on_c, 1, 74, 0
2, 46560, Note_on_c, 1, 74, 49
2, 47039, Note_on_c, 1, 74, 0
2, 47040, Note_on_c, 1, 62, 49
2, 47519, Note_on_c, 1, 62, 0
2, 48000, Note_on_c, 1, 73, 49
2, 48479, Note_on_c, 1, 73, 0
2, 48480, Note_on_c, 1, 61, 49
2, 48959, Note_on_c, 1, 61, 0
2, 49440, Note_on_c, 1, 74, 49
2, 49919, Note_on_c, 1, 74, 0
2, 49920, Note_on_c, 1, 62, 49
2, 50399, Note_on_c, 1, 62, 0
2, 50880, Note_on_c, 1, 76, 49
2, 51359, Note_on_c, 1, 76, 0
2, 51360, Note_on_c, 1, 64, 49
2, 51839, Note_on_c, 1, 64, 0
2, 52320, Note_on_c, 1, 77, 49
2, 52799, Note_on_c, 1, 77, 0
2, 52800, Note_on_c, 1, 65, 49
2, 53279, Note_on_c, 1, 65, 0
2, 53760, Note_on_c, 1, 76, 49
2, 54239, Note_on_c, 1, 76, 0
2, 54240, Note_on_c, 1, 64, 49
2, 54719, Note_on_c, 1, 64, 0
2, 55200, Note_on_c, 1, 74, 49
2, 55679, Note_on_c, 1, 74, 0
2, 55680, Note_on_c, 1, 62, 49
2, 56159, Note_on_c, 1, 62, 0
2, 56160, Note_on_c, 1, 61, 49
2, 56639, Note_on_c, 1, 61, 0
2, 56640, Note_on_c, 1, 76, 49
2, 57119, Note_on_c, 1, 76, 0
2, 57600, Note_on_c, 1, 62, 49
2, 58079, Note_on_c, 1, 62, 0
2, 58080, Note_on_c, 1, 77, 49
2, 58559, Note_on_c, 1, 77, 0
2, 59040, Note_on_c, 1, 61, 49
2, 59519, Note_on_c, 1, 61, 0
2, 59520, Note_on_c, 1, 76, 49
2, 59999, Note_on_c, 1, 76, 0
2, 60480, Note_on_c, 1, 65, 49
2, 60959, Note_on_c, 1, 65, 0
2, 60960, Note_on_c, 1, 77, 49
2, 61439, Note_on_c, 1, 77, 0
2, 61920, Note_on_c, 1, 64, 49
2, 62399, Note_on_c, 1, 64, 0
2, 62400, Note_on_c, 1, 79, 49
2, 62879, Note_on_c, 1, 79, 0
2, 63360, Note_on_c, 1, 65, 49
2, 63839, Note_on_c, 1, 65, 0
2, 63840, Note_on_c, 1, 81, 49
2, 64319, Note_on_c, 1, 81, 0
2, 64800, Note_on_c, 1, 64, 49
2, 65279, Note_on_c, 1, 64, 0
2, 65280, Note_on_c, 1, 76, 49
2, 65759, Note_on_c, 1, 76, 0
2, 65760, Note_on_c, 1, 69, 49
2, 66239, Note_on_c, 1, 69, 0
2, 66240, Note_on_c, 1, 77, 49
2, 66479, Note_on_c, 1, 77, 0
2, 66480, Note_on_c, 1, 74, 49
2, 66719, Note_on_c, 1, 74, 0
2, 66720, Note_on_c, 1, 73, 49
2, 67439, Note_on_c, 1, 73, 0
2, 67440, Note_on_c, 1, 74, 49
2, 67679, Note_on_c, 1, 74, 0
2, 67680, Note_on_c, 1, 74, 49
2, 69119, Note_on_c, 1, 74, 0
2, 69360, Note_on_c, 1, 69, 49
2, 69599, Note_on_c, 1, 69, 0
2, 69600, Note_on_c, 1, 65, 49
2, 69839, Note_on_c, 1, 65, 0
2, 69840, Note_on_c, 1, 62, 49
2, 70079, Note_on_c, 1, 62, 0
2, 70080, Note_on_c, 1, 77, 49
2, 70559, Note_on_c, 1, 77, 0
2, 70800, Note_on_c, 1, 69, 49
2, 71039, Note_on_c, 1, 69, 0
2, 71040, Note_on_c, 1, 64, 49
2, 71279, Note_on_c, 1, 64, 0
2, 71280, Note_on_c, 1, 61, 49
2, 71519, Note_on_c, 1, 61, 0
2, 71520, Note_on_c, 1, 76, 49
2, 71999, Note_on_c, 1, 76, 0
2, 72240, Note_on_c, 1, 69, 49
2, 72479, Note_on_c, 1, 69, 0
2, 72480, Note_on_c, 1, 65, 49
2, 72719, Note_on_c, 1, 65, 0
2, 72720, Note_on_c, 1, 62, 49
2, 72959, Note_on_c, 1, 62, 0
2, 72960, Note_on_c, 1, 77, 49
2, 73439, Note_on_c, 1, 77, 0
2, 73680, Note_on_c, 1, 72, 49
2, 73919, Note_on_c, 1, 72, 0
2, 73920, Note_on_c, 1, 67, 49
2, 74159, Note_on_c, 1, 67, 0
2, 74160, Note_on_c, 1, 64, 49
2, 74399, Note_on_c, 1, 64, 0
2, 74400, Note_on_c, 1, 79, 49
2, 74879, Note_on_c, 1, 79, 0
2, 75120, Note_on_c, 1, 72, 49
2, 75359, Note_on_c, 1, 72, 0
2, 75360, Note_on_c, 1, 69, 49
2, 75599, Note_on_c, 1, 69, 0
2, 75600, Note_on_c, 1, 65, 49
2, 75839, Note_on_c, 1, 65, 0
2, 75840, Note_on_c, 1, 81, 49
2, 76319, Note_on_c, 1, 81, 0
2, 76560, Note_on_c, 1, 72, 49
2, 76799, Note_on_c, 1, 72, 0
2, 76800, Note_on_c, 1, 67, 49
2, 77039, Note_on_c, 1, 67, 0
2, 77040, Note_on_c, 1, 64, 49
2, 77279, Note_on_c, 1, 64, 0
2, 77280, Note_on_c, 1, 79, 49
2, 77759, Note_on_c, 1, 79, 0
2, 78000, Note_on_c, 1, 69, 49
2, 78239, Note_on_c, 1, 69, 0
2, 78240, Note_on_c, 1, 65, 49
2, 78479, Note_on_c, 1, 65, 0
2, 78480, Note_on_c, 1, 62, 49
2, 78719, Note_on_c, 1, 62, 0
2, 78720, Note_on_c, 1, 74, 49
2, 79199, Note_on_c, 1, 74, 0
2, 79440, Note_on_c, 1, 76, 49
2, 79679, Note_on_c, 1, 76, 0
2, 79680, Note_on_c, 1, 73, 49
2, 80159, Note_on_c, 1, 73, 0
2, 80400, Note_on_c, 1, 73, 49
2, 80639, Note_on_c, 1, 73, 0
2, 80640, Note_on_c, 1, 74, 49
2, 81119, Note_on_c, 1, 74, 0
2, 81360, Note_on_c, 1, 65, 49
2, 81599, Note_on_c, 1, 65, 0
2, 81600, Note_on_c, 1, 69, 49
2, 81839, Note_on_c, 1, 69, 0
2, 81840, Note_on_c, 1, 74, 49
2, 82079, Note_on_c, 1, 74, 0
2, 82080, Note_on_c, 1, 73, 49
2, 82559, Note_on_c, 1, 73, 0
2, 82800, Note_on_c, 1, 64, 49
2, 83039, Note_on_c, 1, 64, 0
2, 83040, Note_on_c, 1, 69, 49
2, 83279, Note_on_c, 1, 69, 0
2, 83280, Note_on_c, 1, 73, 49
2, 83519, Note_on_c, 1, 73, 0
2, 83520, Note_on_c, 1, 74, 49
2, 83999, Note_on_c, 1, 74, 0
2, 84240, Note_on_c, 1, 65, 49
2, 84479, Note_on_c, 1, 65, 0
2, 84480, Note_on_c, 1, 69, 49
2, 84719, Note_on_c, 1, 69, 0
2, 84720, Note_on_c, 1, 74, 49
2, 84959, Note_on_c, 1, 74, 0
2, 84960, Note_on_c, 1, 76, 49
2, 85439, Note_on_c, 1, 76, 0
2, 85680, Note_on_c, 1, 72, 49
2, 85919, Note_on_c, 1, 72, 0
2, 85920, Note_on_c, 1, 76, 49
2, 86159, Note_on_c, 1, 76, 0
2, 86160, Note_on_c, 1, 79, 49
2, 86399, Note_on_c, 1, 79, 0
2, 86400, Note_on_c, 1, 77, 49
2, 86879, Note_on_c, 1, 77, 0
2, 87120, Note_on_c, 1, 69, 49
2, 87359, Note_on_c, 1, 69, 0
2, 87360, Note_on_c, 1, 74, 49
2, 87599, Note_on_c, 1, 74, 0
2, 87600, Note_on_c, 1, 77, 49
2, 87839, Note_on_c, 1, 77, 0
2, 87840, Note_on_c, 1, 75, 49
2, 88079, Note_on_c, 1, 75, 0
2, 88080, Note_on_c, 1, 73, 49
2, 88319, Note_on_c, 1, 73, 0
2, 88320, Note_on_c, 1, 74, 49
2, 89519, Note_on_c, 1, 74, 0
2, 89520, Note_on_c, 1, 76, 49
2, 89759, Note_on_c, 1, 76, 0
2, 89760, Note_on_c, 1, 73, 49
2, 90479, Note_on_c, 1, 73, 0
2, 90480, Note_on_c, 1, 74, 49
2, 90719, Note_on_c, 1, 74, 0
2, 90720, Note_on_c, 1, 74, 49
2, 92159, Note_on_c, 1, 74, 0
2, 92280, Note_on_c, 1, 74, 49
2, 92399, Note_on_c, 1, 74, 0
2, 92400, Note_on_c, 1, 72, 49
2, 92519, Note_on_c, 1, 72, 0
2, 92520, Note_on_c, 1, 70, 49
2, 92639, Note_on_c, 1, 70, 0
2, 92640, Note_on_c, 1, 69, 49
2, 92759, Note_on_c, 1, 69, 0
2, 92760, Note_on_c, 1, 67, 49
2, 92879, Note_on_c, 1, 67, 0
2, 92880, Note_on_c, 1, 65, 49
2, 92999, Note_on_c, 1, 65, 0
2, 93000, Note_on_c, 1, 64, 49
2, 93119, Note_on_c, 1, 64, 0
2, 93120, Note_on_c, 1, 62, 49
2, 93359, Note_on_c, 1, 62, 0
2, 93360, Note_on_c, 1, 74, 49
2, 93599, Note_on_c, 1, 74, 0
2, 93600, Note_on_c, 1, 73, 49
2, 94079, Note_on_c, 1, 73, 0
2, 95160, Note_on_c, 1, 74, 49
2, 95279, Note_on_c, 1, 74, 0
2, 95280, Note_on_c, 1, 72, 49
2, 95399, Note_on_c, 1, 72, 0
2, 95400, Note_on_c, 1, 70, 49
2, 95519, Note_on_c, 1, 70, 0
2, 95520, Note_on_c, 1, 69, 49
2, 95639, Note_on_c, 1, 69, 0
2, 95640, Note_on_c, 1, 67, 49
2, 95759, Note_on_c, 1, 67, 0
2, 95760, Note_on_c, 1, 65, 49
2, 95879, Note_on_c, 1, 65, 0
2, 95880, Note_on_c, 1, 64, 49
2, 95999, Note_on_c, 1, 64, 0
2, 96000, Note_on_c, 1, 62, 49
2, 96239, Note_on_c, 1, 62, 0
2, 96240, Note_on_c, 1, 74, 49
2, 96479, Note_on_c, 1, 74, 0
2, 96480, Note_on_c, 1, 76, 49
2, 96959, Note_on_c, 1, 76, 0
2, 98040, Note_on_c, 1, 77, 49
2, 98159, Note_on_c, 1, 77, 0
2, 98160, Note_on_c, 1, 76, 49
2, 98279, Note_on_c, 1, 76, 0
2, 98280, Note_on_c, 1, 74, 49
2, 98399, Note_on_c, 1, 74, 0
2, 98400, Note_on_c, 1, 72, 49
2, 98519, Note_on_c, 1, 72, 0
2, 98520, Note_on_c, 1, 70, 49
2, 98639, Note_on_c, 1, 70, 0
2, 98640, Note_on_c, 1, 69, 49
2, 98759, Note_on_c, 1, 69, 0
2, 98760, Note_on_c, 1, 67, 49
2, 98879, Note_on_c, 1, 67, 0
2, 98880, Note_on_c, 1, 65, 49
2, 99119, Note_on_c, 1, 65, 0
2, 99120, Note_on_c, 1, 77, 49
2, 99359, Note_on_c, 1, 77, 0
2, 99360, Note_on_c, 1, 76, 49
2, 99839, Note_on_c, 1, 76, 0
2, 100920, Note_on_c, 1, 74, 49
2, 101039, Note_on_c, 1, 74, 0
2, 101040, Note_on_c, 1, 72, 49
2, 101159, Note_on_c, 1, 72, 0
2, 101160, Note_on_c, 1, 70, 49
2, 101279, Note_on_c, 1, 70, 0
2, 101280, Note_on_c, 1, 69, 49
2, 101399, Note_on_c, 1, 69, 0
2, 101400, Note_on_c, 1, 67, 49
2, 101519, Note_on_c, 1, 67, 0
2, 101520, Note_on_c, 1, 65, 49
2, 101639, Note_on_c, 1, 65, 0
2, 101640, Note_on_c, 1, 64, 49
2, 101759, Note_on_c, 1, 64, 0
2, 101760, Note_on_c, 1, 62, 49
2, 101999, Note_on_c, 1, 62, 0
2, 102000, Note_on_c, 1, 74, 49
2, 102239, Note_on_c, 1, 74, 0
2, 102240, Note_on_c, 1, 73, 49
2, 102719, Note_on_c, 1, 73, 0
2, 102720, Note_on_c, 1, 76, 49
2, 103439, Note_on_c, 1, 76, 0
2, 103440, Note_on_c, 1, 76, 49
2, 103679, Note_on_c, 1, 76, 0
2, 103680, Note_on_c, 1, 69, 49
2, 103799, Note_on_c, 1, 69, 0
2, 103800, Note_on_c, 1, 74, 49
2, 103919, Note_on_c, 1, 74, 0
2, 103920, Note_on_c, 1, 72, 49
2, 104039, Note_on_c, 1, 72, 0
2, 104040, Note_on_c, 1, 70, 49
2, 104159, Note_on_c, 1, 70, 0
2, 104160, Note_on_c, 1, 69, 49
2, 104279, Note_on_c, 1, 69, 0
2, 104280, Note_on_c, 1, 67, 49
2, 104399, Note_on_c, 1, 67, 0
2, 104400, Note_on_c, 1, 65, 49
2, 104519, Note_on_c, 1, 65, 0
2, 104520, Note_on_c, 1, 64, 49
2, 104639, Note_on_c, 1, 64, 0
2, 104640, Note_on_c, 1, 62, 49
2, 104879, Note_on_c, 1, 62, 0
2, 104880, Note_on_c, 1, 74, 49
2, 105119, Note_on_c, 1, 74, 0
2, 105120, Note_on_c, 1, 73, 49
2, 105599, Note_on_c, 1, 73, 0
2, 106680, Note_on_c, 1, 74, 49
2, 106799, Note_on_c, 1, 74, 0
2, 106800, Note_on_c, 1, 72, 49
2, 106919, Note_on_c, 1, 72, 0
2, 106920, Note_on_c, 1, 70, 49
2, 107039, Note_on_c, 1, 70, 0
2, 107040, Note_on_c, 1, 69, 49
2, 107159, Note_on_c, 1, 69, 0
2, 107160, Note_on_c, 1, 67, 49
2, 107279, Note_on_c, 1, 67, 0
2, 107280, Note_on_c, 1, 65, 49
2, 107399, Note_on_c, 1, 65, 0
2, 107400, Note_on_c, 1, 64, 49
2, 107519, Note_on_c, 1, 64, 0
2, 107520, Note_on_c, 1, 62, 49
2, 107759, Note_on_c, 1, 62, 0
2, 107760, Note_on_c, 1, 74, 49
2, 107999, Note_on_c, 1, 74, 0
2, 108000, Note_on_c, 1, 76, 49
2, 108479, Note_on_c, 1, 76, 0
2, 109560, Note_on_c, 1, 77, 49
2, 109679, Note_on_c, 1, 77, 0
2, 109680, Note_on_c, 1, 76, 49
2, 109799, Note_on_c, 1, 76, 0
2, 109800, Note_on_c, 1, 74, 49
2, 109919, Note_on_c, 1, 74, 0
2, 109920, Note_on_c, 1, 72, 49
2, 110039, Note_on_c, 1, 72, 0
2, 110040, Note_on_c, 1, 70, 49
2, 110159, Note_on_c, 1, 70, 0
2, 110160, Note_on_c, 1, 69, 49
2, 110279, Note_on_c, 1, 69, 0
2, 110280, Note_on_c, 1, 67, 49
2, 110399, Note_on_c, 1, 67, 0
2, 110400, Note_on_c, 1, 65, 49
2, 110639, Note_on_c, 1, 65, 0
2, 110640, Note_on_c, 1, 77, 49
2, 110879, Note_on_c, 1, 77, 0
2, 110880, Note_on_c, 1, 76, 49
2, 111359, Note_on_c, 1, 76, 0
2, 111360, Note_on_c, 1, 76, 49
2, 112079, Note_on_c, 1, 76, 0
2, 112080, Note_on_c, 1, 76, 49
2, 112319, Note_on_c, 1, 76, 0
2, 112320, Note_on_c, 1, 69, 49
2, 112559, Note_on_c, 1, 69, 0
2, 112560, Note_on_c, 1, 70, 49
2, 112799, Note_on_c, 1, 70, 0
2, 112800, Note_on_c, 1, 64, 49
2, 113519, Note_on_c, 1, 64, 0
2, 113520, Note_on_c, 1, 69, 49
2, 113759, Note_on_c, 1, 69, 0
2, 113760, Note_on_c, 1, 65, 49
2, 115199, Note_on_c, 1, 65, 0
2, 115200, Note_on_c, 1, 74, 49
2, 115439, Note_on_c, 1, 74, 0
2, 115440, Note_on_c, 1, 69, 49
2, 115679, Note_on_c, 1, 69, 0
2, 115680, Note_on_c, 1, 65, 49
2, 115919, Note_on_c, 1, 65, 0
2, 115920, Note_on_c, 1, 62, 49
2, 116159, Note_on_c, 1, 62, 0
2, 116160, Note_on_c, 1, 69, 49
2, 116399, Note_on_c, 1, 69, 0
2, 116400, Note_on_c, 1, 74, 49
2, 116639, Note_on_c, 1, 74, 0
2, 116640, Note_on_c, 1, 73, 49
2, 117119, Note_on_c, 1, 73, 0
2, 117120, Note_on_c, 1, 73, 49
2, 117839, Note_on_c, 1, 73, 0
2, 117840, Note_on_c, 1, 73, 49
2, 118079, Note_on_c, 1, 73, 0
2, 118080, Note_on_c, 1, 74, 49
2, 118319, Note_on_c, 1, 74, 0
2, 118320, Note_on_c, 1, 69, 49
2, 118559, Note_on_c, 1, 69, 0
2, 118560, Note_on_c, 1, 65, 49
2, 118799, Note_on_c, 1, 65, 0
2, 118800, Note_on_c, 1, 62, 49
2, 119039, Note_on_c, 1, 62, 0
2, 119040, Note_on_c, 1, 69, 49
2, 119279, Note_on_c, 1, 69, 0
2, 119280, Note_on_c, 1, 74, 49
2, 119519, Note_on_c, 1, 74, 0
2, 119520, Note_on_c, 1, 76, 49
2, 119999, Note_on_c, 1, 76, 0
2, 120000, Note_on_c, 1, 76, 49
2, 120719, Note_on_c, 1, 76, 0
2, 120720, Note_on_c, 1, 76, 49
2, 120959, Note_on_c, 1, 76, 0
2, 120960, Note_on_c, 1, 77, 49
2, 121199, Note_on_c, 1, 77, 0
2, 121200, Note_on_c, 1, 72, 49
2, 121439, Note_on_c, 1, 72, 0
2, 121440, Note_on_c, 1, 69, 49
2, 121679, Note_on_c, 1, 69, 0
2, 121680, Note_on_c, 1, 65, 49
2, 121919, Note_on_c, 1, 65, 0
2, 121920, Note_on_c, 1, 77, 49
2, 122399, Note_on_c, 1, 77, 0
2, 122400, Note_on_c, 1, 76, 49
2, 122639, Note_on_c, 1, 76, 0
2, 122640, Note_on_c, 1, 72, 49
2, 122879, Note_on_c, 1, 72, 0
2, 122880, Note_on_c, 1, 67, 49
2, 123119, Note_on_c, 1, 67, 0
2, 123120, Note_on_c, 1, 64, 49
2, 123359, Note_on_c, 1, 64, 0
2, 123360, Note_on_c, 1, 76, 49
2, 123839, Note_on_c, 1, 76, 0
2, 123840, Note_on_c, 1, 74, 49
2, 124079, Note_on_c, 1, 74, 0
2, 124080, Note_on_c, 1, 69, 49
2, 124319, Note_on_c, 1, 69, 0
2, 124320, Note_on_c, 1, 77, 49
2, 125039, Note_on_c, 1, 77, 0
2, 125040, Note_on_c, 1, 79, 49
2, 125279, Note_on_c, 1, 79, 0
2, 125280, Note_on_c, 1, 76, 49
2, 125759, Note_on_c, 1, 76, 0
2, 125760, Note_on_c, 1, 73, 49
2, 126479, Note_on_c, 1, 73, 0
2, 126480, Note_on_c, 1, 73, 49
2, 126719, Note_on_c, 1, 73, 0
2, 126720, Note_on_c, 1, 74, 49
2, 126959, Note_on_c, 1, 74, 0
2, 126960, Note_on_c, 1, 69, 49
2, 127199, Note_on_c, 1, 69, 0
2, 127200, Note_on_c, 1, 65, 49
2, 127439, Note_on_c, 1, 65, 0
2, 127440, Note_on_c, 1, 62, 49
2, 127679, Note_on_c, 1, 62, 0
2, 127680, Note_on_c, 1, 69, 49
2, 127919, Note_on_c, 1, 69, 0
2, 127920, Note_on_c, 1, 74, 49
2, 128159, Note_on_c, 1, 74, 0
2, 128160, Note_on_c, 1, 73, 49
2, 128639, Note_on_c, 1, 73, 0
2, 128640, Note_on_c, 1, 73, 49
2, 129359, Note_on_c, 1, 73, 0
2, 129360, Note_on_c, 1, 73, 49
2, 129599, Note_on_c, 1, 73, 0
2, 129600, Note_on_c, 1, 74, 49
2, 129839, Note_on_c, 1, 74, 0
2, 129840, Note_on_c, 1, 69, 49
2, 130079, Note_on_c, 1, 69, 0
2, 130080, Note_on_c, 1, 65, 49
2, 130319, Note_on_c, 1, 65, 0
2, 130320, Note_on_c, 1, 62, 49
2, 130559, Note_on_c, 1, 62, 0
2, 130560, Note_on_c, 1, 69, 49
2, 130799, Note_on_c, 1, 69, 0
2, 130800, Note_on_c, 1, 74, 49
2, 131039, Note_on_c, 1, 74, 0
2, 131040, Note_on_c, 1, 76, 49
2, 131519, Note_on_c, 1, 76, 0
2, 131520, Note_on_c, 1, 76, 49
2, 132239, Note_on_c, 1, 76, 0
2, 132240, Note_on_c, 1, 76, 49
2, 132479, Note_on_c, 1, 76, 0
2, 132480, Note_on_c, 1, 77, 49
2, 132719, Note_on_c, 1, 77, 0
2, 132720, Note_on_c, 1, 72, 49
2, 132959, Note_on_c, 1, 72, 0
2, 132960, Note_on_c, 1, 69, 49
2, 133199, Note_on_c, 1, 69, 0
2, 133200, Note_on_c, 1, 65, 49
2, 133439, Note_on_c, 1, 65, 0
2, 133440, Note_on_c, 1, 77, 49
2, 133919, Note_on_c, 1, 77, 0
2, 133920, Note_on_c, 1, 76, 49
2, 134159, Note_on_c, 1, 76, 0
2, 134160, Note_on_c, 1, 72, 49
2, 134399, Note_on_c, 1, 72, 0
2, 134400, Note_on_c, 1, 67, 49
2, 134639, Note_on_c, 1, 67, 0
2, 134640, Note_on_c, 1, 64, 49
2, 134879, Note_on_c, 1, 64, 0
2, 134880, Note_on_c, 1, 76, 49
2, 135359, Note_on_c, 1, 76, 0
2, 135360, Note_on_c, 1, 74, 49
2, 135599, Note_on_c, 1, 74, 0
2, 135600, Note_on_c, 1, 79, 49
2, 135839, Note_on_c, 1, 79, 0
2, 135840, Note_on_c, 1, 77, 49
2, 136319, Note_on_c, 1, 77, 0
2, 136320, Note_on_c, 1, 76, 49
2, 136799, Note_on_c, 1, 76, 0
2, 136800, Note_on_c, 1, 74, 49
2, 138239, Note_on_c, 1, 74, 0
2, 138240, Note_on_c, 1, 74, 49
2, 138359, Note_on_c, 1, 74, 0
2, 138360, Note_on_c, 1, 69, 49
2, 138479, Note_on_c, 1, 69, 0
2, 138480, Note_on_c, 1, 65, 49
2, 138599, Note_on_c, 1, 65, 0
2, 138600, Note_on_c, 1, 69, 49
2, 138719, Note_on_c, 1, 69, 0
2, 138720, Note_on_c, 1, 62, 49
2, 139199, Note_on_c, 1, 62, 0
2, 139680, Note_on_c, 1, 73, 49
2, 139799, Note_on_c, 1, 73, 0
2, 139800, Note_on_c, 1, 69, 49
2, 139919, Note_on_c, 1, 69, 0
2, 139920, Note_on_c, 1, 64, 49
2, 140039, Note_on_c, 1, 64, 0
2, 140040, Note_on_c, 1, 69, 49
2, 140159, Note_on_c, 1, 69, 0
2, 140160, Note_on_c, 1, 61, 49
2, 140639, Note_on_c, 1, 61, 0
2, 141120, Note_on_c, 1, 74, 49
2, 141239, Note_on_c, 1, 74, 0
2, 141240, Note_on_c, 1, 69, 49
2, 141359, Note_on_c, 1, 69, 0
2, 141360, Note_on_c, 1, 65, 49
2, 141479, Note_on_c, 1, 65, 0
2, 141480, Note_on_c, 1, 69, 49
2, 141599, Note_on_c, 1, 69, 0
2, 141600, Note_on_c, 1, 62, 49
2, 142079, Note_on_c, 1, 62, 0
2, 142560, Note_on_c, 1, 76, 49
2, 142679, Note_on_c, 1, 76, 0
2, 142680, Note_on_c, 1, 72, 49
2, 142799, Note_on_c, 1, 72, 0
2, 142800, Note_on_c, 1, 67, 49
2, 142919, Note_on_c, 1, 67, 0
2, 142920, Note_on_c, 1, 72, 49
2, 143039, Note_on_c, 1, 72, 0
2, 143040, Note_on_c, 1, 64, 49
2, 143519, Note_on_c, 1, 64, 0
2, 144000, Note_on_c, 1, 77, 49
2, 144119, Note_on_c, 1, 77, 0
2, 144120, Note_on_c, 1, 72, 49
2, 144239, Note_on_c, 1, 72, 0
2, 144240, Note_on_c, 1, 69, 49
2, 144359, Note_on_c, 1, 69, 0
2, 144360, Note_on_c, 1, 72, 49
2, 144479, Note_on_c, 1, 72, 0
2, 144480, Note_on_c, 1, 65, 49
2, 144959, Note_on_c, 1, 65, 0
2, 145440, Note_on_c, 1, 76, 49
2, 145559, Note_on_c, 1, 76, 0
2, 145560, Note_on_c, 1, 72, 49
2, 145679, Note_on_c, 1, 72, 0
2, 145680, Note_on_c, 1, 67, 49
2, 145799, Note_on_c, 1, 67, 0
2, 145800, Note_on_c, 1, 72, 49
2, 145919, Note_on_c, 1, 72, 0
2, 145920, Note_on_c, 1, 64, 49
2, 146399, Note_on_c, 1, 64, 0
2, 146880, Note_on_c, 1, 74, 49
2, 146999, Note_on_c, 1, 74, 0
2, 147000, Note_on_c, 1, 69, 49
2, 147119, Note_on_c, 1, 69, 0
2, 147120, Note_on_c, 1, 65, 49
2, 147239, Note_on_c, 1, 65, 0
2, 147240, Note_on_c, 1, 69, 49
2, 147359, Note_on_c, 1, 69, 0
2, 147360, Note_on_c, 1, 62, 49
2, 147839, Note_on_c, 1, 62, 0
2, 148320, Note_on_c, 1, 76, 49
2, 148439, Note_on_c, 1, 76, 0
2, 148440, Note_on_c, 1, 81, 49
2, 148559, Note_on_c, 1, 81, 0
2, 148560, Note_on_c, 1, 76, 49
2, 148679, Note_on_c, 1, 76, 0
2, 148680, Note_on_c, 1, 73, 49
2, 148799, Note_on_c, 1, 73, 0
2, 148800, Note_on_c, 1, 69, 49
2, 149519, Note_on_c, 1, 69, 0
2, 149520, Note_on_c, 1, 73, 49
2, 149759, Note_on_c, 1, 73, 0
2, 149760, Note_on_c, 1, 74, 49
2, 149879, Note_on_c, 1, 74, 0
2, 149880, Note_on_c, 1, 69, 49
2, 149999, Note_on_c, 1, 69, 0
2, 150000, Note_on_c, 1, 65, 49
2, 150119, Note_on_c, 1, 65, 0
2, 150120, Note_on_c, 1, 69, 49
2, 150239, Note_on_c, 1, 69, 0
2, 150240, Note_on_c, 1, 62, 49
2, 150719, Note_on_c, 1, 62, 0
2, 151200, Note_on_c, 1, 73, 49
2, 151319, Note_on_c, 1, 73, 0
2, 151320, Note_on_c, 1, 69, 49
2, 151439, Note_on_c, 1, 69, 0
2, 151440, Note_on_c, 1, 64, 49
2, 151559, Note_on_c, 1, 64, 0
2, 151560, Note_on_c, 1, 69, 49
2, 151679, Note_on_c, 1, 69, 0
2, 151680, Note_on_c, 1, 61, 49
2, 152159, Note_on_c, 1, 61, 0
2, 152640, Note_on_c, 1, 74, 49
2, 152759, Note_on_c, 1, 74, 0
2, 152760, Note_on_c, 1, 69, 49
2, 152879, Note_on_c, 1, 69, 0
2, 152880, Note_on_c, 1, 65, 49
2, 152999, Note_on_c, 1, 65, 0
2, 153000, Note_on_c, 1, 69, 49
2, 153119, Note_on_c, 1, 69, 0
2, 153120, Note_on_c, 1, 62, 49
2, 153599, Note_on_c, 1, 62, 0
2, 154080, Note_on_c, 1, 76, 49
2, 154199, Note_on_c, 1, 76, 0
2, 154200, Note_on_c, 1, 72, 49
2, 154319, Note_on_c, 1, 72, 0
2, 154320, Note_on_c, 1, 67, 49
2, 154439, Note_on_c, 1, 67, 0
2, 154440, Note_on_c, 1, 72, 49
2, 154559, Note_on_c, 1, 72, 0
2, 154560, Note_on_c, 1, 76, 49
2, 155039, Note_on_c, 1, 76, 0
2, 155520, Note_on_c, 1, 77, 49
2, 155639, Note_on_c, 1, 77, 0
2, 155640, Note_on_c, 1, 72, 49
2, 155759, Note_on_c, 1, 72, 0
2, 155760, Note_on_c, 1, 69, 49
2, 155879, Note_on_c, 1, 69, 0
2, 155880, Note_on_c, 1, 72, 49
2, 155999, Note_on_c, 1, 72, 0
2, 156000, Note_on_c, 1, 65, 49
2, 156479, Note_on_c, 1, 65, 0
2, 156960, Note_on_c, 1, 76, 49
2, 157079, Note_on_c, 1, 76, 0
2, 157080, Note_on_c, 1, 72, 49
2, 157199, Note_on_c, 1, 72, 0
2, 157200, Note_on_c, 1, 67, 49
2, 157319, Note_on_c, 1, 67, 0
2, 157320, Note_on_c, 1, 72, 49
2, 157439, Note_on_c, 1, 72, 0
2, 157440, Note_on_c, 1, 64, 49
2, 157919, Note_on_c, 1, 64, 0
2, 158160, Note_on_c, 1, 76, 49
2, 158399, Note_on_c, 1, 76, 0
2, 158400, Note_on_c, 1, 69, 49
2, 158639, Note_on_c, 1, 69, 0
2, 158640, Note_on_c, 1, 70, 49
2, 158879, Note_on_c, 1, 70, 0
2, 158880, Note_on_c, 1, 64, 49
2, 159119, Note_on_c, 1, 64, 0
2, 159120, Note_on_c, 1, 69, 49
2, 159599, Note_on_c, 1, 69, 0
2, 159600, Note_on_c, 1, 67, 49
2, 159839, Note_on_c, 1, 67, 0
2, 159840, Note_on_c, 1, 65, 49
2, 161279, Note_on_c, 1, 65, 0
2, 161280, Note_on_c, 1, 65, 49
2, 161759, Note_on_c, 1, 65, 0
2, 162000, Note_on_c, 1, 65, 49
2, 162239, Note_on_c, 1, 65, 0
2, 162240, Note_on_c, 1, 77, 49
2, 162479, Note_on_c, 1, 77, 0
2, 162480, Note_on_c, 1, 65, 49
2, 162719, Note_on_c, 1, 65, 0
2, 162720, Note_on_c, 1, 64, 49
2, 163199, Note_on_c, 1, 64, 0
2, 163440, Note_on_c, 1, 64, 49
2, 163679, Note_on_c, 1, 64, 0
2, 163680, Note_on_c, 1, 76, 49
2, 163919, Note_on_c, 1, 76, 0
2, 163920, Note_on_c, 1, 64, 49
2, 164159, Note_on_c, 1, 64, 0
2, 164160, Note_on_c, 1, 65, 49
2, 164639, Note_on_c, 1, 65, 0
2, 164880, Note_on_c, 1, 65, 49
2, 165119, Note_on_c, 1, 65, 0
2, 165120, Note_on_c, 1, 77, 49
2, 165359, Note_on_c, 1, 77, 0
2, 165360, Note_on_c, 1, 65, 49
2, 165599, Note_on_c, 1, 65, 0
2, 165600, Note_on_c, 1, 67, 49
2, 166079, Note_on_c, 1, 67, 0
2, 166320, Note_on_c, 1, 67, 49
2, 166559, Note_on_c, 1, 67, 0
2, 166560, Note_on_c, 1, 79, 49
2, 166799, Note_on_c, 1, 79, 0
2, 166800, Note_on_c, 1, 67, 49
2, 167039, Note_on_c, 1, 67, 0
2, 167040, Note_on_c, 1, 69, 49
2, 167519, Note_on_c, 1, 69, 0
2, 167760, Note_on_c, 1, 69, 49
2, 167999, Note_on_c, 1, 69, 0
2, 168000, Note_on_c, 1, 81, 49
2, 168239, Note_on_c, 1, 81, 0
2, 168240, Note_on_c, 1, 69, 49
2, 168479, Note_on_c, 1, 69, 0
2, 168480, Note_on_c, 1, 67, 49
2, 168959, Note_on_c, 1, 67, 0
2, 169200, Note_on_c, 1, 67, 49
2, 169439, Note_on_c, 1, 67, 0
2, 169440, Note_on_c, 1, 79, 49
2, 169679, Note_on_c, 1, 79, 0
2, 169680, Note_on_c, 1, 67, 49
2, 169919, Note_on_c, 1, 67, 0
2, 169920, Note_on_c, 1, 65, 49
2, 170399, Note_on_c, 1, 65, 0
2, 170640, Note_on_c, 1, 74, 49
2, 170879, Note_on_c, 1, 74, 0
2, 170880, Note_on_c, 1, 79, 49
2, 171119, Note_on_c, 1, 79, 0
2, 171120, Note_on_c, 1, 77, 49
2, 171359, Note_on_c, 1, 77, 0
2, 171360, Note_on_c, 1, 76, 49
2, 171839, Note_on_c, 1, 76, 0
2, 172080, Note_on_c, 1, 64, 49
2, 172319, Note_on_c, 1, 64, 0
2, 172320, Note_on_c, 1, 76, 49
2, 172559, Note_on_c, 1, 76, 0
2, 172560, Note_on_c, 1, 64, 49
2, 172799, Note_on_c, 1, 64, 0
2, 172800, Note_on_c, 1, 65, 49
2, 173279, Note_on_c, 1, 65, 0
2, 173520, Note_on_c, 1, 65, 49
2, 173759, Note_on_c, 1, 65, 0
2, 173760, Note_on_c, 1, 77, 49
2, 173999, Note_on_c, 1, 77, 0
2, 174000, Note_on_c, 1, 65, 49
2, 174239, Note_on_c, 1, 65, 0
2, 174240, Note_on_c, 1, 64, 49
2, 174719, Note_on_c, 1, 64, 0
2, 174960, Note_on_c, 1, 64, 49
2, 175199, Note_on_c, 1, 64, 0
2, 175200, Note_on_c, 1, 76, 49
2, 175439, Note_on_c, 1, 76, 0
2, 175440, Note_on_c, 1, 64, 49
2, 175679, Note_on_c, 1, 64, 0
2, 175680, Note_on_c, 1, 65, 49
2, 176159, Note_on_c, 1, 65, 0
2, 176400, Note_on_c, 1, 65, 49
2, 176639, Note_on_c, 1, 65, 0
2, 176640, Note_on_c, 1, 77, 49
2, 176879, Note_on_c, 1, 77, 0
2, 176880, Note_on_c, 1, 65, 49
2, 177119, Note_on_c, 1, 65, 0
2, 177120, Note_on_c, 1, 67, 49
2, 177599, Note_on_c, 1, 67, 0
2, 177840, Note_on_c, 1, 67, 49
2, 178079, Note_on_c, 1, 67, 0
2, 178080, Note_on_c, 1, 79, 49
2, 178319, Note_on_c, 1, 79, 0
2, 178320, Note_on_c, 1, 67, 49
2, 178559, Note_on_c, 1, 67, 0
2, 178560, Note_on_c, 1, 69, 49
2, 179039, Note_on_c, 1, 69, 0
2, 179280, Note_on_c, 1, 69, 49
2, 179519, Note_on_c, 1, 69, 0
2, 179520, Note_on_c, 1, 81, 49
2, 179759, Note_on_c, 1, 81, 0
2, 179760, Note_on_c, 1, 69, 49
2, 179999, Note_on_c, 1, 69, 0
2, 180000, Note_on_c, 1, 67, 49
2, 180479, Note_on_c, 1, 67, 0
2, 180720, Note_on_c, 1, 67, 49
2, 180959, Note_on_c, 1, 67, 0
2, 180960, Note_on_c, 1, 76, 49
2, 181439, Note_on_c, 1, 76, 0
2, 181440, Note_on_c, 1, 69, 49
2, 181679, Note_on_c, 1, 69, 0
2, 181680, Note_on_c, 1, 65, 49
2, 181919, Note_on_c, 1, 65, 0
2, 181920, Note_on_c, 1, 64, 49
2, 182159, Note_on_c, 1, 64, 0
2, 182160, Note_on_c, 1, 69, 49
2, 182399, Note_on_c, 1, 69, 0
2, 182400, Note_on_c, 1, 67, 49
2, 182879, Note_on_c, 1, 67, 0
2, 182880, Note_on_c, 1, 65, 49
2, 184319, Note_on_c, 1, 65, 0
2, 185760, Note_on_c, 1, 69, 49
2, 186239, Note_on_c, 1, 69, 0
2, 186240, Note_on_c, 1, 79, 49
2, 187679, Note_on_c, 1, 79, 0
2, 187680, Note_on_c, 1, 77, 49
2, 187919, Note_on_c, 1, 77, 0
2, 187920, Note_on_c, 1, 76, 49
2, 188159, Note_on_c, 1, 76, 0
2, 188160, Note_on_c, 1, 77, 49
2, 189119, Note_on_c, 1, 77, 0
2, 189120, Note_on_c, 1, 76, 49
2, 189359, Note_on_c, 1, 76, 0
2, 189360, Note_on_c, 1, 74, 49
2, 189599, Note_on_c, 1, 74, 0
2, 189600, Note_on_c, 1, 76, 49
2, 190079, Note_on_c, 1, 76, 0
2, 190080, Note_on_c, 1, 77, 49
2, 190559, Note_on_c, 1, 77, 0
2, 190560, Note_on_c, 1, 72, 49
2, 191039, Note_on_c, 1, 72, 0
2, 191040, Note_on_c, 1, 77, 49
2, 191999, Note_on_c, 1, 77, 0
2, 192000, Note_on_c, 1, 76, 49
2, 192239, Note_on_c, 1, 76, 0
2, 192240, Note_on_c, 1, 74, 49
2, 192479, Note_on_c, 1, 74, 0
2, 192480, Note_on_c, 1, 76, 49
2, 192959, Note_on_c, 1, 76, 0
2, 192960, Note_on_c, 1, 69, 49
2, 193439, Note_on_c, 1, 69, 0
2, 193440, Note_on_c, 1, 74, 49
2, 193679, Note_on_c, 1, 74, 0
2, 193680, Note_on_c, 1, 73, 49
2, 193919, Note_on_c, 1, 73, 0
2, 193920, Note_on_c, 1, 74, 49
2, 194159, Note_on_c, 1, 74, 0
2, 194160, Note_on_c, 1, 76, 49
2, 194399, Note_on_c, 1, 76, 0
2, 194400, Note_on_c, 1, 73, 49
2, 194879, Note_on_c, 1, 73, 0
2, 194880, Note_on_c, 1, 69, 49
2, 195359, Note_on_c, 1, 69, 0
2, 195360, Note_on_c, 1, 73, 49
2, 195839, Note_on_c, 1, 73, 0
2, 195840, Note_on_c, 1, 74, 49
2, 197759, Note_on_c, 1, 74, 0
2, 197760, Note_on_c, 1, 73, 49
2, 197999, Note_on_c, 1, 73, 0
2, 198000, Note_on_c, 1, 71, 49
2, 198239, Note_on_c, 1, 71, 0
2, 198240, Note_on_c, 1, 73, 49
2, 198719, Note_on_c, 1, 73, 0
2, 198720, Note_on_c, 1, 74, 49
2, 199199, Note_on_c, 1, 74, 0
2, 199200, Note_on_c, 1, 69, 49
2, 199679, Note_on_c, 1, 69, 0
2, 199680, Note_on_c, 1, 81, 49
2, 199919, Note_on_c, 1, 81, 0
2, 199920, Note_on_c, 1, 83, 49
2, 200159, Note_on_c, 1, 83, 0
2, 200160, Note_on_c, 1, 84, 49
2, 200639, Note_on_c, 1, 84, 0
2, 200640, Note_on_c, 1, 72, 49
2, 201119, Note_on_c, 1, 72, 0
2, 201120, Note_on_c, 1, 82, 49
2, 202079, Note_on_c, 1, 82, 0
2, 202080, Note_on_c, 1, 81, 49
2, 202319, Note_on_c, 1, 81, 0
2, 202320, Note_on_c, 1, 79, 49
2, 202559, Note_on_c, 1, 79, 0
2, 202560, Note_on_c, 1, 81, 49
2, 203039, Note_on_c, 1, 81, 0
2, 203040, Note_on_c, 1, 79, 49
2, 203999, Note_on_c, 1, 79, 0
2, 204000, Note_on_c, 1, 77, 49
2, 204959, Note_on_c, 1, 77, 0
2, 204960, Note_on_c, 1, 76, 49
2, 205919, Note_on_c, 1, 76, 0
2, 205920, Note_on_c, 1, 74, 49
2, 207359, Note_on_c, 1, 74, 0
2, 207360, Note_on_c, 1, 65, 49
2, 207839, Note_on_c, 1, 65, 0
2, 208320, Note_on_c, 1, 65, 49
2, 208799, Note_on_c, 1, 65, 0
2, 208800, Note_on_c, 1, 64, 49
2, 209279, Note_on_c, 1, 64, 0
2, 209760, Note_on_c, 1, 64, 49
2, 210239, Note_on_c, 1, 64, 0
2, 210240, Note_on_c, 1, 65, 49
2, 210719, Note_on_c, 1, 65, 0
2, 211200, Note_on_c, 1, 65, 49
2, 211679, Note_on_c, 1, 65, 0
2, 211680, Note_on_c, 1, 67, 49
2, 212159, Note_on_c, 1, 67, 0
2, 212640, Note_on_c, 1, 67, 49
2, 213119, Note_on_c, 1, 67, 0
2, 213120, Note_on_c, 1, 69, 49
2, 213599, Note_on_c, 1, 69, 0
2, 214080, Note_on_c, 1, 69, 49
2, 214559, Note_on_c, 1, 69, 0
2, 214560, Note_on_c, 1, 67, 49
2, 215039, Note_on_c, 1, 67, 0
2, 215520, Note_on_c, 1, 67, 49
2, 215999, Note_on_c, 1, 67, 0
2, 216000, Note_on_c, 1, 65, 49
2, 216479, Note_on_c, 1, 65, 0
2, 216960, Note_on_c, 1, 65, 49
2, 217439, Note_on_c, 1, 65, 0
2, 217440, Note_on_c, 1, 64, 49
2, 218879, Note_on_c, 1, 64, 0
2, 218880, Note_on_c, 1, 65, 49
2, 219359, Note_on_c, 1, 65, 0
2, 219840, Note_on_c, 1, 65, 49
2, 220319, Note_on_c, 1, 65, 0
2, 220320, Note_on_c, 1, 64, 49
2, 220799, Note_on_c, 1, 64, 0
2, 221280, Note_on_c, 1, 64, 49
2, 221759, Note_on_c, 1, 64, 0
2, 221760, Note_on_c, 1, 65, 49
2, 222239, Note_on_c, 1, 65, 0
2, 222720, Note_on_c, 1, 65, 49
2, 223199, Note_on_c, 1, 65, 0
2, 223200, Note_on_c, 1, 67, 49
2, 223679, Note_on_c, 1, 67, 0
2, 224160, Note_on_c, 1, 67, 49
2, 224639, Note_on_c, 1, 67, 0
2, 224640, Note_on_c, 1, 69, 49
2, 225119, Note_on_c, 1, 69, 0
2, 225600, Note_on_c, 1, 69, 49
2, 226079, Note_on_c, 1, 69, 0
2, 226080, Note_on_c, 1, 67, 49
2, 226319, Note_on_c, 1, 67, 0
2, 226320, Note_on_c, 1, 69, 49
2, 226559, Note_on_c, 1, 69, 0
2, 226560, Note_on_c, 1, 70, 49
2, 227279, Note_on_c, 1, 70, 0
2, 227280, Note_on_c, 1, 70, 49
2, 227519, Note_on_c, 1, 70, 0
2, 227520, Note_on_c, 1, 69, 49
2, 227759, Note_on_c, 1, 69, 0
2, 227760, Note_on_c, 1, 67, 49
2, 227879, Note_on_c, 1, 67, 0
2, 227880, Note_on_c, 1, 65, 49
2, 227999, Note_on_c, 1, 65, 0
2, 228000, Note_on_c, 1, 64, 49
2, 228719, Note_on_c, 1, 64, 0
2, 228720, Note_on_c, 1, 62, 49
2, 228959, Note_on_c, 1, 62, 0
2, 228960, Note_on_c, 1, 62, 49
2, 230399, Note_on_c, 1, 62, 0
2, 231000, Note_on_c, 1, 81, 49
2, 231119, Note_on_c, 1, 81, 0
2, 231120, Note_on_c, 1, 77, 49
2, 231239, Note_on_c, 1, 77, 0
2, 231240, Note_on_c, 1, 81, 49
2, 231359, Note_on_c, 1, 81, 0
2, 231360, Note_on_c, 1, 74, 49
2, 231839, Note_on_c, 1, 74, 0
2, 231960, Note_on_c, 1, 81, 49
2, 232079, Note_on_c, 1, 81, 0
2, 232080, Note_on_c, 1, 76, 49
2, 232199, Note_on_c, 1, 76, 0
2, 232200, Note_on_c, 1, 81, 49
2, 232319, Note_on_c, 1, 81, 0
2, 232320, Note_on_c, 1, 73, 49
2, 232799, Note_on_c, 1, 73, 0
2, 232920, Note_on_c, 1, 81, 49
2, 233039, Note_on_c, 1, 81, 0
2, 233040, Note_on_c, 1, 76, 49
2, 233159, Note_on_c, 1, 76, 0
2, 233160, Note_on_c, 1, 81, 49
2, 233279, Note_on_c, 1, 81, 0
2, 233280, Note_on_c, 1, 77, 49
2, 233759, Note_on_c, 1, 77, 0
2, 233880, Note_on_c, 1, 81, 49
2, 233999, Note_on_c, 1, 81, 0
2, 234000, Note_on_c, 1, 77, 49
2, 234119, Note_on_c, 1, 77, 0
2, 234120, Note_on_c, 1, 81, 49
2, 234239, Note_on_c, 1, 81, 0
2, 234240, Note_on_c, 1, 74, 49
2, 234719, Note_on_c, 1, 74, 0
2, 234840, Note_on_c, 1, 84, 49
2, 234959, Note_on_c, 1, 84, 0
2, 234960, Note_on_c, 1, 79, 49
2, 235079, Note_on_c, 1, 79, 0
2, 235080, Note_on_c, 1, 84, 49
2, 235199, Note_on_c, 1, 84, 0
2, 235200, Note_on_c, 1, 76, 49
2, 235679, Note_on_c, 1, 76, 0
2, 235800, Note_on_c, 1, 84, 49
2, 235919, Note_on_c, 1, 84, 0
2, 235920, Note_on_c, 1, 79, 49
2, 236039, Note_on_c, 1, 79, 0
2, 236040, Note_on_c, 1, 84, 49
2, 236159, Note_on_c, 1, 84, 0
2, 236160, Note_on_c, 1, 81, 49
2, 236639, Note_on_c, 1, 81, 0
2, 236760, Note_on_c, 1, 84, 49
2, 236879, Note_on_c, 1, 84, 0
2, 236880, Note_on_c, 1, 81, 49
2, 236999, Note_on_c, 1, 81, 0
2, 237000, Note_on_c, 1, 84, 49
2, 237119, Note_on_c, 1, 84, 0
2, 237120, Note_on_c, 1, 77, 49
2, 237599, Note_on_c, 1, 77, 0
2, 237720, Note_on_c, 1, 84, 49
2, 237839, Note_on_c, 1, 84, 0
2, 237840, Note_on_c, 1, 79, 49
2, 237959, Note_on_c, 1, 79, 0
2, 237960, Note_on_c, 1, 84, 49
2, 238079, Note_on_c, 1, 84, 0
2, 238080, Note_on_c, 1, 76, 49
2, 238559, Note_on_c, 1, 76, 0
2, 238680, Note_on_c, 1, 79, 49
2, 238799, Note_on_c, 1, 79, 0
2, 238800, Note_on_c, 1, 76, 49
2, 238919, Note_on_c, 1, 76, 0
2, 238920, Note_on_c, 1, 79, 49
2, 239039, Note_on_c, 1, 79, 0
2, 239040, Note_on_c, 1, 77, 49
2, 239519, Note_on_c, 1, 77, 0
2, 239640, Note_on_c, 1, 77, 49
2, 239759, Note_on_c, 1, 77, 0
2, 239760, Note_on_c, 1, 74, 49
2, 239879, Note_on_c, 1, 74, 0
2, 239880, Note_on_c, 1, 77, 49
2, 239999, Note_on_c, 1, 77, 0
2, 240000, Note_on_c, 1, 70, 49
2, 240119, Note_on_c, 1, 70, 0
2, 240120, Note_on_c, 1, 77, 49
2, 240239, Note_on_c, 1, 77, 0
2, 240240, Note_on_c, 1, 74, 49
2, 240359, Note_on_c, 1, 74, 0
2, 240360, Note_on_c, 1, 77, 49
2, 240479, Note_on_c, 1, 77, 0
2, 240480, Note_on_c, 1, 76, 49
2, 240599, Note_on_c, 1, 76, 0
2, 240600, Note_on_c, 1, 81, 49
2, 240719, Note_on_c, 1, 81, 0
2, 240720, Note_on_c, 1, 76, 49
2, 240839, Note_on_c, 1, 76, 0
2, 240840, Note_on_c, 1, 81, 49
2, 240959, Note_on_c, 1, 81, 0
2, 240960, Note_on_c, 1, 73, 49
2, 241439, Note_on_c, 1, 73, 0
2, 241560, Note_on_c, 1, 81, 49
2, 241679, Note_on_c, 1, 81, 0
2, 241680, Note_on_c, 1, 76, 49
2, 241799, Note_on_c, 1, 76, 0
2, 241800, Note_on_c, 1, 81, 49
2, 241919, Note_on_c, 1, 81, 0
2, 241920, Note_on_c, 1, 77, 49
2, 242399, Note_on_c, 1, 77, 0
2, 242520, Note_on_c, 1, 81, 49
2, 242639, Note_on_c, 1, 81, 0
2, 242640, Note_on_c, 1, 77, 49
2, 242759, Note_on_c, 1, 77, 0
2, 242760, Note_on_c, 1, 81, 49
2, 242879, Note_on_c, 1, 81, 0
2, 242880, Note_on_c, 1, 74, 49
2, 243359, Note_on_c, 1, 74, 0
2, 243480, Note_on_c, 1, 81, 49
2, 243599, Note_on_c, 1, 81, 0
2, 243600, Note_on_c, 1, 76, 49
2, 243719, Note_on_c, 1, 76, 0
2, 243720, Note_on_c, 1, 81, 49
2, 243839, Note_on_c, 1, 81, 0
2, 243840, Note_on_c, 1, 73, 49
2, 244319, Note_on_c, 1, 73, 0
2, 244440, Note_on_c, 1, 81, 49
2, 244559, Note_on_c, 1, 81, 0
2, 244560, Note_on_c, 1, 76, 49
2, 244679, Note_on_c, 1, 76, 0
2, 244680, Note_on_c, 1, 81, 49
2, 244799, Note_on_c, 1, 81, 0
2, 244800, Note_on_c, 1, 77, 49
2, 245279, Note_on_c, 1, 77, 0
2, 245400, Note_on_c, 1, 81, 49
2, 245519, Note_on_c, 1, 81, 0
2, 245520, Note_on_c, 1, 77, 49
2, 245639, Note_on_c, 1, 77, 0
2, 245640, Note_on_c, 1, 81, 49
2, 245759, Note_on_c, 1, 81, 0
2, 245760, Note_on_c, 1, 74, 49
2, 246239, Note_on_c, 1, 74, 0
2, 246360, Note_on_c, 1, 84, 49
2, 246479, Note_on_c, 1, 84, 0
2, 246480, Note_on_c, 1, 79, 49
2, 246599, Note_on_c, 1, 79, 0
2, 246600, Note_on_c, 1, 84, 49
2, 246719, Note_on_c, 1, 84, 0
2, 246720, Note_on_c, 1, 76, 49
2, 247199, Note_on_c, 1, 76, 0
2, 247320, Note_on_c, 1, 84, 49
2, 247439, Note_on_c, 1, 84, 0
2, 247440, Note_on_c, 1, 79, 49
2, 247559, Note_on_c, 1, 79, 0
2, 247560, Note_on_c, 1, 84, 49
2, 247679, Note_on_c, 1, 84, 0
2, 247680, Note_on_c, 1, 81, 49
2, 248159, Note_on_c, 1, 81, 0
2, 248280, Note_on_c, 1, 84, 49
2, 248399, Note_on_c, 1, 84, 0
2, 248400, Note_on_c, 1, 81, 49
2, 248519, Note_on_c, 1, 81, 0
2, 248520, Note_on_c, 1, 84, 49
2, 248639, Note_on_c, 1, 84, 0
2, 248640, Note_on_c, 1, 77, 49
2, 249119, Note_on_c, 1, 77, 0
2, 249240, Note_on_c, 1, 84, 49
2, 249359, Note_on_c, 1, 84, 0
2, 249360, Note_on_c, 1, 81, 49
2, 249479, Note_on_c, 1, 81, 0
2, 249480, Note_on_c, 1, 84, 49
2, 249599, Note_on_c, 1, 84, 0
2, 249600, Note_on_c, 1, 76, 49
2, 250079, Note_on_c, 1, 76, 0
2, 250200, Note_on_c, 1, 79, 49
2, 250319, Note_on_c, 1, 79, 0
2, 250320, Note_on_c, 1, 76, 49
2, 250439, Note_on_c, 1, 76, 0
2, 250440, Note_on_c, 1, 79, 49
2, 250559, Note_on_c, 1, 79, 0
2, 250560, Note_on_c, 1, 77, 49
2, 250679, Note_on_c, 1, 77, 0
2, 250680, Note_on_c, 1, 74, 49
2, 250799, Note_on_c, 1, 74, 0
2, 250800, Note_on_c, 1, 69, 49
2, 250919, Note_on_c, 1, 69, 0
2, 250920, Note_on_c, 1, 74, 49
2, 251039, Note_on_c, 1, 74, 0
2, 251040, Note_on_c, 1, 64, 49
2, 251159, Note_on_c, 1, 64, 0
2, 251160, Note_on_c, 1, 74, 49
2, 251279, Note_on_c, 1, 74, 0
2, 251280, Note_on_c, 1, 69, 49
2, 251399, Note_on_c, 1, 69, 0
2, 251400, Note_on_c, 1, 74, 49
2, 251519, Note_on_c, 1, 74, 0
2, 251520, Note_on_c, 1, 64, 49
2, 251639, Note_on_c, 1, 64, 0
2, 251640, Note_on_c, 1, 73, 49
2, 251759, Note_on_c, 1, 73, 0
2, 251760, Note_on_c, 1, 69, 49
2, 251879, Note_on_c, 1, 69, 0
2, 251880, Note_on_c, 1, 73, 49
2, 251999, Note_on_c, 1, 73, 0
2, 252000, Note_on_c, 1, 74, 49
2, 253439, Note_on_c, 1, 74, 0
2, 253440, Note_on_c, 1, 65, 49
2, 254399, Note_on_c, 1, 65, 0
2, 254400, Note_on_c, 1, 70, 49
2, 254879, Note_on_c, 1, 70, 0
2, 254880, Note_on_c, 1, 64, 49
2, 255839, Note_on_c, 1, 64, 0
2, 255840, Note_on_c, 1, 64, 49
2, 256319, Note_on_c, 1, 64, 0
2, 256320, Note_on_c, 1, 65, 49
2, 257279, Note_on_c, 1, 65, 0
2, 257280, Note_on_c, 1, 65, 49
2, 257759, Note_on_c, 1, 65, 0
2, 257760, Note_on_c, 1, 67, 49
2, 258719, Note_on_c, 1, 67, 0
2, 258720, Note_on_c, 1, 67, 49
2, 259199, Note_on_c, 1, 67, 0
2, 259200, Note_on_c, 1, 69, 49
2, 259679, Note_on_c, 1, 69, 0
2, 259680, Note_on_c, 1, 70, 49
2, 260399, Note_on_c, 1, 70, 0
2, 260400, Note_on_c, 1, 69, 49
2, 260639, Note_on_c, 1, 69, 0
2, 260640, Note_on_c, 1, 67, 49
2, 261119, Note_on_c, 1, 67, 0
2, 261120, Note_on_c, 1, 69, 49
2, 261839, Note_on_c, 1, 69, 0
2, 261840, Note_on_c, 1, 67, 49
2, 262079, Note_on_c, 1, 67, 0
2, 262080, Note_on_c, 1, 65, 49
2, 262559, Note_on_c, 1, 65, 0
2, 262560, Note_on_c, 1, 67, 49
2, 263279, Note_on_c, 1, 67, 0
2, 263280, Note_on_c, 1, 65, 49
2, 263519, Note_on_c, 1, 65, 0
2, 263520, Note_on_c, 1, 64, 49
2, 264959, Note_on_c, 1, 64, 0
2, 264960, Note_on_c, 1, 65, 49
2, 265919, Note_on_c, 1, 65, 0
2, 265920, Note_on_c, 1, 70, 49
2, 266399, Note_on_c, 1, 70, 0
2, 266400, Note_on_c, 1, 64, 49
2, 267359, Note_on_c, 1, 64, 0
2, 267360, Note_on_c, 1, 64, 49
2, 267839, Note_on_c, 1, 64, 0
2, 267840, Note_on_c, 1, 65, 49
2, 268799, Note_on_c, 1, 65, 0
2, 268800, Note_on_c, 1, 65, 49
2, 269279, Note_on_c, 1, 65, 0
2, 269280, Note_on_c, 1, 67, 49
2, 270239, Note_on_c, 1, 67, 0
2, 270240, Note_on_c, 1, 67, 49
2, 270719, Note_on_c, 1, 67, 0
2, 270720, Note_on_c, 1, 65, 49
2, 271199, Note_on_c, 1, 65, 0
2, 271200, Note_on_c, 1, 70, 49
2, 271679, Note_on_c, 1, 70, 0
2, 271680, Note_on_c, 1, 67, 49
2, 272159, Note_on_c, 1, 67, 0
2, 272160, Note_on_c, 1, 64, 49
2, 272639, Note_on_c, 1, 64, 0
2, 272640, Note_on_c, 1, 76, 49
2, 273119, Note_on_c, 1, 76, 0
2, 273120, Note_on_c, 1, 69, 49
2, 273599, Note_on_c, 1, 69, 0
2, 273600, Note_on_c, 1, 77, 49
2, 273839, Note_on_c, 1, 77, 0
2, 273840, Note_on_c, 1, 74, 49
2, 274079, Note_on_c, 1, 74, 0
2, 274080, Note_on_c, 1, 73, 49
2, 274799, Note_on_c, 1, 73, 0
2, 274800, Note_on_c, 1, 74, 49
2, 275039, Note_on_c, 1, 74, 0
2, 275040, Note_on_c, 1, 74, 49
2, 276479, Note_on_c, 1, 74, 0
2, 276480, Note_on_c, 1, 74, 49
2, 276719, Note_on_c, 1, 74, 0
2, 276720, Note_on_c, 1, 73, 49
2, 276959, Note_on_c, 1, 73, 0
2, 276960, Note_on_c, 1, 74, 49
2, 277199, Note_on_c, 1, 74, 0
2, 277200, Note_on_c, 1, 74, 49
2, 277439, Note_on_c, 1, 74, 0
2, 277440, Note_on_c, 1, 73, 49
2, 277679, Note_on_c, 1, 73, 0
2, 277680, Note_on_c, 1, 74, 49
2, 277919, Note_on_c, 1, 74, 0
2, 277920, Note_on_c, 1, 74, 49
2, 278159, Note_on_c, 1, 74, 0
2, 278160, Note_on_c, 1, 76, 49
2, 278399, Note_on_c, 1, 76, 0
2, 278400, Note_on_c, 1, 74, 49
2, 278639, Note_on_c, 1, 74, 0
2, 278640, Note_on_c, 1, 73, 49
2, 278879, Note_on_c, 1, 73, 0
2, 278880, Note_on_c, 1, 71, 49
2, 279119, Note_on_c, 1, 71, 0
2, 279120, Note_on_c, 1, 73, 49
2, 279359, Note_on_c, 1, 73, 0
2, 279360, Note_on_c, 1, 73, 49
2, 279599, Note_on_c, 1, 73, 0
2, 279600, Note_on_c, 1, 71, 49
2, 279839, Note_on_c, 1, 71, 0
2, 279840, Note_on_c, 1, 73, 49
2, 280079, Note_on_c, 1, 73, 0
2, 280080, Note_on_c, 1, 73, 49
2, 280319, Note_on_c, 1, 73, 0
2, 280320, Note_on_c, 1, 71, 49
2, 280559, Note_on_c, 1, 71, 0
2, 280560, Note_on_c, 1, 73, 49
2, 280799, Note_on_c, 1, 73, 0
2, 280800, Note_on_c, 1, 74, 49
2, 281039, Note_on_c, 1, 74, 0
2, 281040, Note_on_c, 1, 73, 49
2, 281279, Note_on_c, 1, 73, 0
2, 281280, Note_on_c, 1, 74, 49
2, 281519, Note_on_c, 1, 74, 0
2, 281520, Note_on_c, 1, 74, 49
2, 281759, Note_on_c, 1, 74, 0
2, 281760, Note_on_c, 1, 73, 49
2, 281999, Note_on_c, 1, 73, 0
2, 282000, Note_on_c, 1, 74, 49
2, 282239, Note_on_c, 1, 74, 0
2, 282240, Note_on_c, 1, 74, 49
2, 282479, Note_on_c, 1, 74, 0
2, 282480, Note_on_c, 1, 76, 49
2, 282719, Note_on_c, 1, 76, 0
2, 282720, Note_on_c, 1, 74, 49
2, 282959, Note_on_c, 1, 74, 0
2, 282960, Note_on_c, 1, 74, 49
2, 283199, Note_on_c, 1, 74, 0
2, 283200, Note_on_c, 1, 73, 49
2, 283439, Note_on_c, 1, 73, 0
2, 283440, Note_on_c, 1, 74, 49
2, 283679, Note_on_c, 1, 74, 0
2, 283680, Note_on_c, 1, 74, 49
2, 283919, Note_on_c, 1, 74, 0
2, 283920, Note_on_c, 1, 73, 49
2, 284159, Note_on_c, 1, 73, 0
2, 284160, Note_on_c, 1, 74, 49
2, 284399, Note_on_c, 1, 74, 0
2, 284400, Note_on_c, 1, 74, 49
2, 284639, Note_on_c, 1, 74, 0
2, 284640, Note_on_c, 1, 76, 49
2, 284879, Note_on_c, 1, 76, 0
2, 284880, Note_on_c, 1, 74, 49
2, 285119, Note_on_c, 1, 74, 0
2, 285120, Note_on_c, 1, 77, 49
2, 285359, Note_on_c, 1, 77, 0
2, 285360, Note_on_c, 1, 76, 49
2, 285599, Note_on_c, 1, 76, 0
2, 285600, Note_on_c, 1, 77, 49
2, 285839, Note_on_c, 1, 77, 0
2, 285840, Note_on_c, 1, 77, 49
2, 286079, Note_on_c, 1, 77, 0
2, 286080, Note_on_c, 1, 76, 49
2, 286319, Note_on_c, 1, 76, 0
2, 286320, Note_on_c, 1, 77, 49
2, 286559, Note_on_c, 1, 77, 0
2, 286560, Note_on_c, 1, 77, 49
2, 286799, Note_on_c, 1, 77, 0
2, 286800, Note_on_c, 1, 79, 49
2, 287039, Note_on_c, 1, 79, 0
2, 287040, Note_on_c, 1, 77, 49
2, 287279, Note_on_c, 1, 77, 0
2, 287280, Note_on_c, 1, 76, 49
2, 287519, Note_on_c, 1, 76, 0
2, 287520, Note_on_c, 1, 74, 49
2, 287759, Note_on_c, 1, 74, 0
2, 287760, Note_on_c, 1, 76, 49
2, 287999, Note_on_c, 1, 76, 0
2, 288000, Note_on_c, 1, 76, 49
2, 288239, Note_on_c, 1, 76, 0
2, 288240, Note_on_c, 1, 74, 49
2, 288479, Note_on_c, 1, 74, 0
2, 288480, Note_on_c, 1, 76, 49
2, 288719, Note_on_c, 1, 76, 0
2, 288720, Note_on_c, 1, 76, 49
2, 288959, Note_on_c, 1, 76, 0
2, 288960, Note_on_c, 1, 77, 49
2, 289199, Note_on_c, 1, 77, 0
2, 289200, Note_on_c, 1, 76, 49
2, 289439, Note_on_c, 1, 76, 0
2, 289440, Note_on_c, 1, 74, 49
2, 289679, Note_on_c, 1, 74, 0
2, 289680, Note_on_c, 1, 73, 49
2, 289919, Note_on_c, 1, 73, 0
2, 289920, Note_on_c, 1, 74, 49
2, 290159, Note_on_c, 1, 74, 0
2, 290160, Note_on_c, 1, 74, 49
2, 290399, Note_on_c, 1, 74, 0
2, 290400, Note_on_c, 1, 73, 49
2, 290639, Note_on_c, 1, 73, 0
2, 290640, Note_on_c, 1, 74, 49
2, 290879, Note_on_c, 1, 74, 0
2, 290880, Note_on_c, 1, 74, 49
2, 291119, Note_on_c, 1, 74, 0
2, 291120, Note_on_c, 1, 76, 49
2, 291359, Note_on_c, 1, 76, 0
2, 291360, Note_on_c, 1, 74, 49
2, 291599, Note_on_c, 1, 74, 0
2, 291600, Note_on_c, 1, 73, 49
2, 291839, Note_on_c, 1, 73, 0
2, 291840, Note_on_c, 1, 71, 49
2, 292079, Note_on_c, 1, 71, 0
2, 292080, Note_on_c, 1, 73, 49
2, 292319, Note_on_c, 1, 73, 0
2, 292320, Note_on_c, 1, 73, 49
2, 292559, Note_on_c, 1, 73, 0
2, 292560, Note_on_c, 1, 71, 49
2, 292799, Note_on_c, 1, 71, 0
2, 292800, Note_on_c, 1, 73, 49
2, 293039, Note_on_c, 1, 73, 0
2, 293040, Note_on_c, 1, 73, 49
2, 293279, Note_on_c, 1, 73, 0
2, 293280, Note_on_c, 1, 71, 49
2, 293519, Note_on_c, 1, 71, 0
2, 293520, Note_on_c, 1, 73, 49
2, 293759, Note_on_c, 1, 73, 0
2, 293760, Note_on_c, 1, 74, 49
2, 293999, Note_on_c, 1, 74, 0
2, 294000, Note_on_c, 1, 73, 49
2, 294239, Note_on_c, 1, 73, 0
2, 294240, Note_on_c, 1, 74, 49
2, 294479, Note_on_c, 1, 74, 0
2, 294480, Note_on_c, 1, 74, 49
2, 294719, Note_on_c, 1, 74, 0
2, 294720, Note_on_c, 1, 73, 49
2, 294959, Note_on_c, 1, 73, 0
2, 294960, Note_on_c, 1, 74, 49
2, 295199, Note_on_c, 1, 74, 0
2, 295200, Note_on_c, 1, 74, 49
2, 295439, Note_on_c, 1, 74, 0
2, 295440, Note_on_c, 1, 76, 49
2, 295679, Note_on_c, 1, 76, 0
2, 295680, Note_on_c, 1, 74, 49
2, 295919, Note_on_c, 1, 74, 0
2, 295920, Note_on_c, 1, 73, 49
2, 296159, Note_on_c, 1, 73, 0
2, 296160, Note_on_c, 1, 71, 49
2, 296399, Note_on_c, 1, 71, 0
2, 296400, Note_on_c, 1, 73, 49
2, 296639, Note_on_c, 1, 73, 0
2, 296640, Note_on_c, 1, 73, 49
2, 296879, Note_on_c, 1, 73, 0
2, 296880, Note_on_c, 1, 71, 49
2, 297119, Note_on_c, 1, 71, 0
2, 297120, Note_on_c, 1, 73, 49
2, 297359, Note_on_c, 1, 73, 0
2, 297360, Note_on_c, 1, 73, 49
2, 297599, Note_on_c, 1, 73, 0
2, 297600, Note_on_c, 1, 71, 49
2, 297839, Note_on_c, 1, 71, 0
2, 297840, Note_on_c, 1, 73, 49
2, 298079, Note_on_c, 1, 73, 0
2, 298080, Note_on_c, 1, 74, 49
2, 298319, Note_on_c, 1, 74, 0
2, 298320, Note_on_c, 1, 73, 49
2, 298559, Note_on_c, 1, 73, 0
2, 298560, Note_on_c, 1, 74, 49
2, 298799, Note_on_c, 1, 74, 0
2, 298800, Note_on_c, 1, 74, 49
2, 299039, Note_on_c, 1, 74, 0
2, 299040, Note_on_c, 1, 73, 49
2, 299279, Note_on_c, 1, 73, 0
2, 299280, Note_on_c, 1, 74, 49
2, 299519, Note_on_c, 1, 74, 0
2, 299520, Note_on_c, 1, 74, 49
2, 299759, Note_on_c, 1, 74, 0
2, 299760, Note_on_c, 1, 73, 49
2, 299999, Note_on_c, 1, 73, 0
2, 300000, Note_on_c, 1, 74, 49
2, 300239, Note_on_c, 1, 74, 0
2, 300240, Note_on_c, 1, 76, 49
2, 300479, Note_on_c, 1, 76, 0
2, 300480, Note_on_c, 1, 74, 49
2, 300719, Note_on_c, 1, 74, 0
2, 300720, Note_on_c, 1, 76, 49
2, 300959, Note_on_c, 1, 76, 0
2, 300960, Note_on_c, 1, 76, 49
2, 301199, Note_on_c, 1, 76, 0
2, 301200, Note_on_c, 1, 74, 49
2, 301439, Note_on_c, 1, 74, 0
2, 301440, Note_on_c, 1, 76, 49
2, 301679, Note_on_c, 1, 76, 0
2, 301680, Note_on_c, 1, 76, 49
2, 301919, Note_on_c, 1, 76, 0
2, 301920, Note_on_c, 1, 74, 49
2, 302159, Note_on_c, 1, 74, 0
2, 302160, Note_on_c, 1, 76, 49
2, 302399, Note_on_c, 1, 76, 0
2, 302400, Note_on_c, 1, 77, 49
2, 302639, Note_on_c, 1, 77, 0
2, 302640, Note_on_c, 1, 76, 49
2, 302879, Note_on_c, 1, 76, 0
2, 302880, Note_on_c, 1, 77, 49
2, 303119, Note_on_c, 1, 77, 0
2, 303120, Note_on_c, 1, 77, 49
2, 303359, Note_on_c, 1, 77, 0
2, 303360, Note_on_c, 1, 76, 49
2, 303599, Note_on_c, 1, 76, 0
2, 303600, Note_on_c, 1, 77, 49
2, 303839, Note_on_c, 1, 77, 0
2, 303840, Note_on_c, 1, 77, 49
2, 304079, Note_on_c, 1, 77, 0
2, 304080, Note_on_c, 1, 79, 49
2, 304319, Note_on_c, 1, 79, 0
2, 304320, Note_on_c, 1, 77, 49
2, 304559, Note_on_c, 1, 77, 0
2, 304560, Note_on_c, 1, 76, 49
2, 304799, Note_on_c, 1, 76, 0
2, 304800, Note_on_c, 1, 74, 49
2, 305039, Note_on_c, 1, 74, 0
2, 305040, Note_on_c, 1, 76, 49
2, 305279, Note_on_c, 1, 76, 0
2, 305280, Note_on_c, 1, 76, 49
2, 305519, Note_on_c, 1, 76, 0
2, 305520, Note_on_c, 1, 74, 49
2, 305759, Note_on_c, 1, 74, 0
2, 305760, Note_on_c, 1, 76, 49
2, 305999, Note_on_c, 1, 76, 0
2, 306000, Note_on_c, 1, 76, 49
2, 306239, Note_on_c, 1, 76, 0
2, 306240, Note_on_c, 1, 77, 49
2, 306479, Note_on_c, 1, 77, 0
2, 306480, Note_on_c, 1, 76, 49
2, 306719, Note_on_c, 1, 76, 0
2, 306720, Note_on_c, 1, 77, 49
2, 306959, Note_on_c, 1, 77, 0
2, 306960, Note_on_c, 1, 76, 49
2, 307199, Note_on_c, 1, 76, 0
2, 307200, Note_on_c, 1, 74, 49
2, 307439, Note_on_c, 1, 74, 0
2, 307440, Note_on_c, 1, 73, 49
2, 308639, Note_on_c, 1, 73, 0
2, 308640, Note_on_c, 1, 74, 49
2, 308879, Note_on_c, 1, 74, 0
2, 308880, Note_on_c, 1, 74, 49
2, 311039, Note_on_c, 1, 74, 0
2, 311040, Note_on_c, 1, 74, 49
2, 311759, Note_on_c, 1, 74, 0
2, 313200, Note_on_c, 1, 73, 49
2, 313919, Note_on_c, 1, 73, 0
2, 315360, Note_on_c, 1, 74, 49
2, 316079, Note_on_c, 1, 74, 0
2, 317520, Note_on_c, 1, 76, 49
2, 318239, Note_on_c, 1, 76, 0
2, 319680, Note_on_c, 1, 77, 49
2, 320399, Note_on_c, 1, 77, 0
2, 321840, Note_on_c, 1, 76, 49
2, 322559, Note_on_c, 1, 76, 0
2, 324000, Note_on_c, 1, 74, 49
2, 324719, Note_on_c, 1, 74, 0
2, 326160, Note_on_c, 1, 73, 49
2, 326879, Note_on_c, 1, 73, 0
2, 328320, Note_on_c, 1, 74, 49
2, 329039, Note_on_c, 1, 74, 0
2, 330480, Note_on_c, 1, 73, 49
2, 331199, Note_on_c, 1, 73, 0
2, 332640, Note_on_c, 1, 74, 49
2, 333359, Note_on_c, 1, 74, 0
2, 334800, Note_on_c, 1, 76, 49
2, 335519, Note_on_c, 1, 76, 0
2, 336960, Note_on_c, 1, 77, 49
2, 337679, Note_on_c, 1, 77, 0
2, 339120, Note_on_c, 1, 76, 49
2, 339839, Note_on_c, 1, 76, 0
2, 341280, Note_on_c, 1, 74, 49
2, 341999, Note_on_c, 1, 74, 0
2, 342000, Note_on_c, 1, 74, 49
2, 343199, Note_on_c, 1, 74, 0
2, 343200, Note_on_c, 1, 73, 49
2, 343439, Note_on_c, 1, 73, 0
2, 343440, Note_on_c, 1, 74, 49
2, 345599, Note_on_c, 1, 74, 0
2, 345600, Note_on_c, 1, 65, 49
2, 346079, Note_on_c, 1, 65, 0
2, 346080, Note_on_c, 1, 65, 49
2, 346319, Note_on_c, 1, 65, 0
2, 346320, Note_on_c, 1, 65, 49
2, 346799, Note_on_c, 1, 65, 0
2, 346800, Note_on_c, 1, 65, 49
2, 347039, Note_on_c, 1, 65, 0
2, 347040, Note_on_c, 1, 64, 49
2, 347519, Note_on_c, 1, 64, 0
2, 347520, Note_on_c, 1, 64, 49
2, 347759, Note_on_c, 1, 64, 0
2, 347760, Note_on_c, 1, 64, 49
2, 348239, Note_on_c, 1, 64, 0
2, 348240, Note_on_c, 1, 64, 49
2, 348479, Note_on_c, 1, 64, 0
2, 348480, Note_on_c, 1, 65, 49
2, 348959, Note_on_c, 1, 65, 0
2, 348960, Note_on_c, 1, 65, 49
2, 349199, Note_on_c, 1, 65, 0
2, 349200, Note_on_c, 1, 65, 49
2, 349679, Note_on_c, 1, 65, 0
2, 349680, Note_on_c, 1, 65, 49
2, 349919, Note_on_c, 1, 65, 0
2, 349920, Note_on_c, 1, 67, 49
2, 350399, Note_on_c, 1, 67, 0
2, 350400, Note_on_c, 1, 67, 49
2, 350639, Note_on_c, 1, 67, 0
2, 350640, Note_on_c, 1, 67, 49
2, 351119, Note_on_c, 1, 67, 0
2, 351120, Note_on_c, 1, 67, 49
2, 351359, Note_on_c, 1, 67, 0
2, 351360, Note_on_c, 1, 69, 49
2, 351839, Note_on_c, 1, 69, 0
2, 351840, Note_on_c, 1, 69, 49
2, 352079, Note_on_c, 1, 69, 0
2, 352080, Note_on_c, 1, 69, 49
2, 352559, Note_on_c, 1, 69, 0
2, 352560, Note_on_c, 1, 69, 49
2, 352799, Note_on_c, 1, 69, 0
2, 352800, Note_on_c, 1, 67, 49
2, 353279, Note_on_c, 1, 67, 0
2, 353280, Note_on_c, 1, 67, 49
2, 353519, Note_on_c, 1, 67, 0
2, 353520, Note_on_c, 1, 67, 49
2, 353999, Note_on_c, 1, 67, 0
2, 354000, Note_on_c, 1, 67, 49
2, 354239, Note_on_c, 1, 67, 0
2, 354240, Note_on_c, 1, 65, 49
2, 354719, Note_on_c, 1, 65, 0
2, 354720, Note_on_c, 1, 65, 49
2, 354959, Note_on_c, 1, 65, 0
2, 354960, Note_on_c, 1, 65, 49
2, 355439, Note_on_c, 1, 65, 0
2, 355440, Note_on_c, 1, 65, 49
2, 355679, Note_on_c, 1, 65, 0
2, 355680, Note_on_c, 1, 64, 49
2, 356159, Note_on_c, 1, 64, 0
2, 356160, Note_on_c, 1, 64, 49
2, 356399, Note_on_c, 1, 64, 0
2, 356400, Note_on_c, 1, 64, 49
2, 356879, Note_on_c, 1, 64, 0
2, 356880, Note_on_c, 1, 64, 49
2, 357119, Note_on_c, 1, 64, 0
2, 357120, Note_on_c, 1, 65, 49
2, 357599, Note_on_c, 1, 65, 0
2, 357600, Note_on_c, 1, 65, 49
2, 357839, Note_on_c, 1, 65, 0
2, 357840, Note_on_c, 1, 65, 49
2, 358319, Note_on_c, 1, 65, 0
2, 358320, Note_on_c, 1, 65, 49
2, 358559, Note_on_c, 1, 65, 0
2, 358560, Note_on_c, 1, 64, 49
2, 359039, Note_on_c, 1, 64, 0
2, 359040, Note_on_c, 1, 64, 49
2, 359279, Note_on_c, 1, 64, 0
2, 359280, Note_on_c, 1, 64, 49
2, 359759, Note_on_c, 1, 64, 0
2, 359760, Note_on_c, 1, 64, 49
2, 359999, Note_on_c, 1, 64, 0
2, 360000, Note_on_c, 1, 65, 49
2, 360479, Note_on_c, 1, 65, 0
2, 360480, Note_on_c, 1, 65, 49
2, 360719, Note_on_c, 1, 65, 0
2, 360720, Note_on_c, 1, 65, 49
2, 361199, Note_on_c, 1, 65, 0
2, 361200, Note_on_c, 1, 65, 49
2, 361439, Note_on_c, 1, 65, 0
2, 361440, Note_on_c, 1, 67, 49
2, 361919, Note_on_c, 1, 67, 0
2, 361920, Note_on_c, 1, 67, 49
2, 362159, Note_on_c, 1, 67, 0
2, 362160, Note_on_c, 1, 67, 49
2, 362639, Note_on_c, 1, 67, 0
2, 362640, Note_on_c, 1, 67, 49
2, 362879, Note_on_c, 1, 67, 0
2, 362880, Note_on_c, 1, 69, 49
2, 363359, Note_on_c, 1, 69, 0
2, 363360, Note_on_c, 1, 69, 49
2, 363599, Note_on_c, 1, 69, 0
2, 363600, Note_on_c, 1, 69, 49
2, 364079, Note_on_c, 1, 69, 0
2, 364080, Note_on_c, 1, 69, 49
2, 364319, Note_on_c, 1, 69, 0
2, 364320, Note_on_c, 1, 67, 49
2, 365039, Note_on_c, 1, 67, 0
2, 365040, Note_on_c, 1, 79, 49
2, 365399, Note_on_c, 1, 79, 0
2, 365400, Note_on_c, 1, 77, 49
2, 365519, Note_on_c, 1, 77, 0
2, 365520, Note_on_c, 1, 76, 49
2, 365759, Note_on_c, 1, 76, 0
2, 365760, Note_on_c, 1, 77, 49
2, 366119, Note_on_c, 1, 77, 0
2, 366120, Note_on_c, 1, 76, 49
2, 366239, Note_on_c, 1, 76, 0
2, 366240, Note_on_c, 1, 74, 49
2, 366479, Note_on_c, 1, 74, 0
2, 366480, Note_on_c, 1, 74, 49
2, 366959, Note_on_c, 1, 74, 0
2, 366960, Note_on_c, 1, 73, 49
2, 367199, Note_on_c, 1, 73, 0
2, 367200, Note_on_c, 1, 74, 49
2, 368639, Note_on_c, 1, 74, 0
2, 368640, Note_on_c, 1, 65, 49
2, 369119, Note_on_c, 1, 65, 0
2, 369120, Note_on_c, 1, 65, 49
2, 369599, Note_on_c, 1, 65, 0
2, 369600, Note_on_c, 1, 65, 49
2, 370079, Note_on_c, 1, 65, 0
2, 370080, Note_on_c, 1, 64, 49
2, 370559, Note_on_c, 1, 64, 0
2, 370560, Note_on_c, 1, 64, 49
2, 371039, Note_on_c, 1, 64, 0
2, 371040, Note_on_c, 1, 64, 49
2, 371519, Note_on_c, 1, 64, 0
2, 371520, Note_on_c, 1, 65, 49
2, 371999, Note_on_c, 1, 65, 0
2, 372000, Note_on_c, 1, 65, 49
2, 372479, Note_on_c, 1, 65, 0
2, 372480, Note_on_c, 1, 65, 49
2, 372959, Note_on_c, 1, 65, 0
2, 372960, Note_on_c, 1, 67, 49
2, 373439, Note_on_c, 1, 67, 0
2, 373440, Note_on_c, 1, 67, 49
2, 373919, Note_on_c, 1, 67, 0
2, 373920, Note_on_c, 1, 67, 49
2, 374399, Note_on_c, 1, 67, 0
2, 374400, Note_on_c, 1, 69, 49
2, 374879, Note_on_c, 1, 69, 0
2, 374880, Note_on_c, 1, 69, 49
2, 375359, Note_on_c, 1, 69, 0
2, 375360, Note_on_c, 1, 69, 49
2, 375839, Note_on_c, 1, 69, 0
2, 375840, Note_on_c, 1, 67, 49
2, 376319, Note_on_c, 1, 67, 0
2, 376320, Note_on_c, 1, 67, 49
2, 376799, Note_on_c, 1, 67, 0
2, 376800, Note_on_c, 1, 67, 49
2, 377279, Note_on_c, 1, 67, 0
2, 377280, Note_on_c, 1, 65, 49
2, 377759, Note_on_c, 1, 65, 0
2, 377760, Note_on_c, 1, 65, 49
2, 378239, Note_on_c, 1, 65, 0
2, 378240, Note_on_c, 1, 65, 49
2, 378719, Note_on_c, 1, 65, 0
2, 378720, Note_on_c, 1, 64, 49
2, 379199, Note_on_c, 1, 64, 0
2, 379200, Note_on_c, 1, 64, 49
2, 379679, Note_on_c, 1, 64, 0
2, 379680, Note_on_c, 1, 64, 49
2, 380159, Note_on_c, 1, 64, 0
2, 380160, Note_on_c, 1, 65, 49
2, 380639, Note_on_c, 1, 65, 0
2, 380640, Note_on_c, 1, 65, 49
2, 381119, Note_on_c, 1, 65, 0
2, 381120, Note_on_c, 1, 65, 49
2, 381599, Note_on_c, 1, 65, 0
2, 381600, Note_on_c, 1, 64, 49
2, 382079, Note_on_c, 1, 64, 0
2, 382080, Note_on_c, 1, 64, 49
2, 382559, Note_on_c, 1, 64, 0
2, 382560, Note_on_c, 1, 64, 49
2, 383039, Note_on_c, 1, 64, 0
2, 383040, Note_on_c, 1, 65, 49
2, 383519, Note_on_c, 1, 65, 0
2, 383520, Note_on_c, 1, 65, 49
2, 383999, Note_on_c, 1, 65, 0
2, 384000, Note_on_c, 1, 65, 49
2, 384479, Note_on_c, 1, 65, 0
2, 384480, Note_on_c, 1, 67, 49
2, 384959, Note_on_c, 1, 67, 0
2, 384960, Note_on_c, 1, 67, 49
2, 385439, Note_on_c, 1, 67, 0
2, 385440, Note_on_c, 1, 67, 49
2, 385919, Note_on_c, 1, 67, 0
2, 385920, Note_on_c, 1, 69, 49
2, 386399, Note_on_c, 1, 69, 0
2, 386400, Note_on_c, 1, 69, 49
2, 386879, Note_on_c, 1, 69, 0
2, 386880, Note_on_c, 1, 69, 49
2, 387359, Note_on_c, 1, 69, 0
2, 387360, Note_on_c, 1, 67, 49
2, 387839, Note_on_c, 1, 67, 0
2, 387840, Note_on_c, 1, 67, 49
2, 388319, Note_on_c, 1, 67, 0
2, 388320, Note_on_c, 1, 67, 49
2, 388799, Note_on_c, 1, 67, 0
2, 388800, Note_on_c, 1, 65, 49
2, 389279, Note_on_c, 1, 65, 0
2, 389280, Note_on_c, 1, 64, 49
2, 389759, Note_on_c, 1, 64, 0
2, 389760, Note_on_c, 1, 64, 49
2, 390239, Note_on_c, 1, 64, 0
2, 390240, Note_on_c, 1, 62, 49
2, 391679, Note_on_c, 1, 62, 0
2, 391920, Note_on_c, 1, 74, 49
2, 392039, Note_on_c, 1, 74, 0
2, 392040, Note_on_c, 1, 73, 49
2, 392159, Note_on_c, 1, 73, 0
2, 392160, Note_on_c, 1, 74, 49
2, 392399, Note_on_c, 1, 74, 0
2, 392400, Note_on_c, 1, 62, 49
2, 392639, Note_on_c, 1, 62, 0
2, 392640, Note_on_c, 1, 74, 49
2, 392879, Note_on_c, 1, 74, 0
2, 392880, Note_on_c, 1, 62, 49
2, 393119, Note_on_c, 1, 62, 0
2, 393120, Note_on_c, 1, 61, 49
2, 393359, Note_on_c, 1, 61, 0
2, 393360, Note_on_c, 1, 73, 49
2, 393479, Note_on_c, 1, 73, 0
2, 393480, Note_on_c, 1, 70, 49
2, 393599, Note_on_c, 1, 70, 0
2, 393600, Note_on_c, 1, 73, 49
2, 393839, Note_on_c, 1, 73, 0
2, 393840, Note_on_c, 1, 61, 49
2, 394079, Note_on_c, 1, 61, 0
2, 394080, Note_on_c, 1, 73, 49
2, 394319, Note_on_c, 1, 73, 0
2, 394320, Note_on_c, 1, 61, 49
2, 394559, Note_on_c, 1, 61, 0
2, 394560, Note_on_c, 1, 62, 49
2, 394799, Note_on_c, 1, 62, 0
2, 394800, Note_on_c, 1, 74, 49
2, 394919, Note_on_c, 1, 74, 0
2, 394920, Note_on_c, 1, 73, 49
2, 395039, Note_on_c, 1, 73, 0
2, 395040, Note_on_c, 1, 74, 49
2, 395279, Note_on_c, 1, 74, 0
2, 395280, Note_on_c, 1, 62, 49
2, 395519, Note_on_c, 1, 62, 0
2, 395520, Note_on_c, 1, 74, 49
2, 395759, Note_on_c, 1, 74, 0
2, 395760, Note_on_c, 1, 62, 49
2, 395999, Note_on_c, 1, 62, 0
2, 396000, Note_on_c, 1, 64, 49
2, 396239, Note_on_c, 1, 64, 0
2, 396240, Note_on_c, 1, 76, 49
2, 396359, Note_on_c, 1, 76, 0
2, 396360, Note_on_c, 1, 74, 49
2, 396479, Note_on_c, 1, 74, 0
2, 396480, Note_on_c, 1, 76, 49
2, 396719, Note_on_c, 1, 76, 0
2, 396720, Note_on_c, 1, 64, 49
2, 396959, Note_on_c, 1, 64, 0
2, 396960, Note_on_c, 1, 76, 49
2, 397199, Note_on_c, 1, 76, 0
2, 397200, Note_on_c, 1, 64, 49
2, 397439, Note_on_c, 1, 64, 0
2, 397440, Note_on_c, 1, 65, 49
2, 397679, Note_on_c, 1, 65, 0
2, 397680, Note_on_c, 1, 77, 49
2, 397799, Note_on_c, 1, 77, 0
2, 397800, Note_on_c, 1, 76, 49
2, 397919, Note_on_c, 1, 76, 0
2, 397920, Note_on_c, 1, 77, 49
2, 398159, Note_on_c, 1, 77, 0
2, 398160, Note_on_c, 1, 65, 49
2, 398399, Note_on_c, 1, 65, 0
2, 398400, Note_on_c, 1, 77, 49
2, 398639, Note_on_c, 1, 77, 0
2, 398640, Note_on_c, 1, 65, 49
2, 398879, Note_on_c, 1, 65, 0
2, 398880, Note_on_c, 1, 64, 49
2, 399119, Note_on_c, 1, 64, 0
2, 399120, Note_on_c, 1, 76, 49
2, 399239, Note_on_c, 1, 76, 0
2, 399240, Note_on_c, 1, 74, 49
2, 399359, Note_on_c, 1, 74, 0
2, 399360, Note_on_c, 1, 76, 49
2, 399599, Note_on_c, 1, 76, 0
2, 399600, Note_on_c, 1, 64, 49
2, 399839, Note_on_c, 1, 64, 0
2, 399840, Note_on_c, 1, 76, 49
2, 400079, Note_on_c, 1, 76, 0
2, 400080, Note_on_c, 1, 64, 49
2, 400319, Note_on_c, 1, 64, 0
2, 400320, Note_on_c, 1, 62, 49
2, 400559, Note_on_c, 1, 62, 0
2, 400560, Note_on_c, 1, 74, 49
2, 400679, Note_on_c, 1, 74, 0
2, 400680, Note_on_c, 1, 73, 49
2, 400799, Note_on_c, 1, 73, 0
2, 400800, Note_on_c, 1, 74, 49
2, 401039, Note_on_c, 1, 74, 0
2, 401040, Note_on_c, 1, 62, 49
2, 401279, Note_on_c, 1, 62, 0
2, 401280, Note_on_c, 1, 74, 49
2, 401519, Note_on_c, 1, 74, 0
2, 401520, Note_on_c, 1, 62, 49
2, 401759, Note_on_c, 1, 62, 0
2, 401760, Note_on_c, 1, 61, 49
2, 401999, Note_on_c, 1, 61, 0
2, 402000, Note_on_c, 1, 73, 49
2, 402119, Note_on_c, 1, 73, 0
2, 402120, Note_on_c, 1, 70, 49
2, 402239, Note_on_c, 1, 70, 0
2, 402240, Note_on_c, 1, 73, 49
2, 402479, Note_on_c, 1, 73, 0
2, 402480, Note_on_c, 1, 61, 49
2, 402719, Note_on_c, 1, 61, 0
2, 402720, Note_on_c, 1, 73, 49
2, 402959, Note_on_c, 1, 73, 0
2, 402960, Note_on_c, 1, 61, 49
2, 403199, Note_on_c, 1, 61, 0
2, 403200, Note_on_c, 1, 62, 49
2, 403439, Note_on_c, 1, 62, 0
2, 403440, Note_on_c, 1, 74, 49
2, 403559, Note_on_c, 1, 74, 0
2, 403560, Note_on_c, 1, 73, 49
2, 403679, Note_on_c, 1, 73, 0
2, 403680, Note_on_c, 1, 74, 49
2, 403919, Note_on_c, 1, 74, 0
2, 403920, Note_on_c, 1, 62, 49
2, 404159, Note_on_c, 1, 62, 0
2, 404160, Note_on_c, 1, 74, 49
2, 404399, Note_on_c, 1, 74, 0
2, 404400, Note_on_c, 1, 62, 49
2, 404639, Note_on_c, 1, 62, 0
2, 404640, Note_on_c, 1, 61, 49
2, 404879, Note_on_c, 1, 61, 0
2, 404880, Note_on_c, 1, 73, 49
2, 404999, Note_on_c, 1, 73, 0
2, 405000, Note_on_c, 1, 70, 49
2, 405119, Note_on_c, 1, 70, 0
2, 405120, Note_on_c, 1, 73, 49
2, 405359, Note_on_c, 1, 73, 0
2, 405360, Note_on_c, 1, 61, 49
2, 405599, Note_on_c, 1, 61, 0
2, 405600, Note_on_c, 1, 73, 49
2, 405839, Note_on_c, 1, 73, 0
2, 405840, Note_on_c, 1, 61, 49
2, 406079, Note_on_c, 1, 61, 0
2, 406080, Note_on_c, 1, 62, 49
2, 406319, Note_on_c, 1, 62, 0
2, 406320, Note_on_c, 1, 74, 49
2, 406439, Note_on_c, 1, 74, 0
2, 406440, Note_on_c, 1, 73, 49
2, 406559, Note_on_c, 1, 73, 0
2, 406560, Note_on_c, 1, 74, 49
2, 406799, Note_on_c, 1, 74, 0
2, 406800, Note_on_c, 1, 62, 49
2, 407039, Note_on_c, 1, 62, 0
2, 407040, Note_on_c, 1, 74, 49
2, 407279, Note_on_c, 1, 74, 0
2, 407280, Note_on_c, 1, 62, 49
2, 407519, Note_on_c, 1, 62, 0
2, 407520, Note_on_c, 1, 64, 49
2, 407759, Note_on_c, 1, 64, 0
2, 407760, Note_on_c, 1, 76, 49
2, 407879, Note_on_c, 1, 76, 0
2, 407880, Note_on_c, 1, 74, 49
2, 407999, Note_on_c, 1, 74, 0
2, 408000, Note_on_c, 1, 76, 49
2, 408239, Note_on_c, 1, 76, 0
2, 408240, Note_on_c, 1, 64, 49
2, 408479, Note_on_c, 1, 64, 0
2, 408480, Note_on_c, 1, 76, 49
2, 408719, Note_on_c, 1, 76, 0
2, 408720, Note_on_c, 1, 64, 49
2, 408959, Note_on_c, 1, 64, 0
2, 408960, Note_on_c, 1, 65, 49
2, 409199, Note_on_c, 1, 65, 0
2, 409200, Note_on_c, 1, 77, 49
2, 409319, Note_on_c, 1, 77, 0
2, 409320, Note_on_c, 1, 76, 49
2, 409439, Note_on_c, 1, 76, 0
2, 409440, Note_on_c, 1, 77, 49
2, 409679, Note_on_c, 1, 77, 0
2, 409680, Note_on_c, 1, 65, 49
2, 409919, Note_on_c, 1, 65, 0
2, 409920, Note_on_c, 1, 77, 49
2, 410159, Note_on_c, 1, 77, 0
2, 410160, Note_on_c, 1, 65, 49
2, 410399, Note_on_c, 1, 65, 0
2, 410400, Note_on_c, 1, 64, 49
2, 410639, Note_on_c, 1, 64, 0
2, 410640, Note_on_c, 1, 76, 49
2, 410759, Note_on_c, 1, 76, 0
2, 410760, Note_on_c, 1, 74, 49
2, 410879, Note_on_c, 1, 74, 0
2, 410880, Note_on_c, 1, 76, 49
2, 411119, Note_on_c, 1, 76, 0
2, 411120, Note_on_c, 1, 64, 49
2, 411359, Note_on_c, 1, 64, 0
2, 411360, Note_on_c, 1, 76, 49
2, 411599, Note_on_c, 1, 76, 0
2, 411600, Note_on_c, 1, 64, 49
2, 411839, Note_on_c, 1, 64, 0
2, 411840, Note_on_c, 1, 74, 49
2, 412079, Note_on_c, 1, 74, 0
2, 412080, Note_on_c, 1, 76, 49
2, 412199, Note_on_c, 1, 76, 0
2, 412200, Note_on_c, 1, 74, 49
2, 412319, Note_on_c, 1, 74, 0
2, 412320, Note_on_c, 1, 73, 49
2, 412559, Note_on_c, 1, 73, 0
2, 412560, Note_on_c, 1, 61, 49
2, 412799, Note_on_c, 1, 61, 0
2, 412800, Note_on_c, 1, 73, 49
2, 413039, Note_on_c, 1, 73, 0
2, 413040, Note_on_c, 1, 61, 49
2, 413279, Note_on_c, 1, 61, 0
2, 413280, Note_on_c, 1, 62, 49
2, 414719, Note_on_c, 1, 62, 0
2, 414720, Note_on_c, 1, 74, 49
2, 415199, Note_on_c, 1, 74, 0
2, 415200, Note_on_c, 1, 74, 49
2, 415919, Note_on_c, 1, 74, 0
2, 415920, Note_on_c, 1, 74, 49
2, 416159, Note_on_c, 1, 74, 0
2, 416160, Note_on_c, 1, 73, 49
2, 416639, Note_on_c, 1, 73, 0
2, 416640, Note_on_c, 1, 73, 49
2, 417359, Note_on_c, 1, 73, 0
2, 417360, Note_on_c, 1, 73, 49
2, 417599, Note_on_c, 1, 73, 0
2, 417600, Note_on_c, 1, 74, 49
2, 418079, Note_on_c, 1, 74, 0
2, 418080, Note_on_c, 1, 74, 49
2, 418799, Note_on_c, 1, 74, 0
2, 418800, Note_on_c, 1, 74, 49
2, 419039, Note_on_c, 1, 74, 0
2, 419040, Note_on_c, 1, 74, 49
2, 419519, Note_on_c, 1, 74, 0
2, 419520, Note_on_c, 1, 74, 49
2, 420239, Note_on_c, 1, 74, 0
2, 420240, Note_on_c, 1, 74, 49
2, 420479, Note_on_c, 1, 74, 0
2, 420480, Note_on_c, 1, 77, 49
2, 420959, Note_on_c, 1, 77, 0
2, 420960, Note_on_c, 1, 77, 49
2, 421679, Note_on_c, 1, 77, 0
2, 421680, Note_on_c, 1, 77, 49
2, 421919, Note_on_c, 1, 77, 0
2, 421920, Note_on_c, 1, 76, 49
2, 422399, Note_on_c, 1, 76, 0
2, 422400, Note_on_c, 1, 76, 49
2, 423119, Note_on_c, 1, 76, 0
2, 423120, Note_on_c, 1, 76, 49
2, 423359, Note_on_c, 1, 76, 0
2, 423360, Note_on_c, 1, 74, 49
2, 423839, Note_on_c, 1, 74, 0
2, 423840, Note_on_c, 1, 74, 49
2, 424559, Note_on_c, 1, 74, 0
2, 424560, Note_on_c, 1, 74, 49
2, 424799, Note_on_c, 1, 74, 0
2, 424800, Note_on_c, 1, 73, 49
2, 425279, Note_on_c, 1, 73, 0
2, 425280, Note_on_c, 1, 73, 49
2, 425999, Note_on_c, 1, 73, 0
2, 426000, Note_on_c, 1, 73, 49
2, 426239, Note_on_c, 1, 73, 0
2, 426240, Note_on_c, 1, 74, 49
2, 426719, Note_on_c, 1, 74, 0
2, 426720, Note_on_c, 1, 74, 49
2, 427439, Note_on_c, 1, 74, 0
2, 427440, Note_on_c, 1, 74, 49
2, 427679, Note_on_c, 1, 74, 0
2, 427680, Note_on_c, 1, 73, 49
2, 428159, Note_on_c, 1, 73, 0
2, 428160, Note_on_c, 1, 73, 49
2, 428879, Note_on_c, 1, 73, 0
2, 428880, Note_on_c, 1, 73, 49
2, 429119, Note_on_c, 1, 73, 0
2, 429120, Note_on_c, 1, 74, 49
2, 429599, Note_on_c, 1, 74, 0
2, 429600, Note_on_c, 1, 74, 49
2, 430319, Note_on_c, 1, 74, 0
2, 430320, Note_on_c, 1, 74, 49
2, 430559, Note_on_c, 1, 74, 0
2, 430560, Note_on_c, 1, 76, 49
2, 431039, Note_on_c, 1, 76, 0
2, 431040, Note_on_c, 1, 76, 49
2, 431759, Note_on_c, 1, 76, 0
2, 431760, Note_on_c, 1, 76, 49
2, 431999, Note_on_c, 1, 76, 0
2, 432000, Note_on_c, 1, 77, 49
2, 432479, Note_on_c, 1, 77, 0
2, 432480, Note_on_c, 1, 77, 49
2, 433199, Note_on_c, 1, 77, 0
2, 433200, Note_on_c, 1, 77, 49
2, 433439, Note_on_c, 1, 77, 0
2, 433440, Note_on_c, 1, 76, 49
2, 433919, Note_on_c, 1, 76, 0
2, 433920, Note_on_c, 1, 76, 49
2, 434639, Note_on_c, 1, 76, 0
2, 434640, Note_on_c, 1, 76, 49
2, 434879, Note_on_c, 1, 76, 0
2, 434880, Note_on_c, 1, 74, 49
2, 435359, Note_on_c, 1, 74, 0
2, 435360, Note_on_c, 1, 73, 49
2, 436079, Note_on_c, 1, 73, 0
2, 436080, Note_on_c, 1, 73, 49
2, 436319, Note_on_c, 1, 73, 0
2, 436320, Note_on_c, 1, 74, 49
2, 437759, Note_on_c, 1, 74, 0
2, 437760, Note_on_c, 1, 74, 49
2, 437879, Note_on_c, 1, 74, 0
2, 437880, Note_on_c, 1, 77, 49
2, 437999, Note_on_c, 1, 77, 0
2, 438000, Note_on_c, 1, 77, 49
2, 438119, Note_on_c, 1, 77, 0
2, 438120, Note_on_c, 1, 74, 49
2, 438239, Note_on_c, 1, 74, 0
2, 438240, Note_on_c, 1, 74, 49
2, 438359, Note_on_c, 1, 74, 0
2, 438360, Note_on_c, 1, 77, 49
2, 438479, Note_on_c, 1, 77, 0
2, 438480, Note_on_c, 1, 77, 49
2, 438599, Note_on_c, 1, 77, 0
2, 438600, Note_on_c, 1, 74, 49
2, 438719, Note_on_c, 1, 74, 0
2, 438720, Note_on_c, 1, 74, 49
2, 438839, Note_on_c, 1, 74, 0
2, 438840, Note_on_c, 1, 77, 49
2, 438959, Note_on_c, 1, 77, 0
2, 438960, Note_on_c, 1, 77, 49
2, 439079, Note_on_c, 1, 77, 0
2, 439080, Note_on_c, 1, 74, 49
2, 439199, Note_on_c, 1, 74, 0
2, 439200, Note_on_c, 1, 73, 49
2, 439319, Note_on_c, 1, 73, 0
2, 439320, Note_on_c, 1, 76, 49
2, 439439, Note_on_c, 1, 76, 0
2, 439440, Note_on_c, 1, 76, 49
2, 439559, Note_on_c, 1, 76, 0
2, 439560, Note_on_c, 1, 73, 49
2, 439679, Note_on_c, 1, 73, 0
2, 439680, Note_on_c, 1, 73, 49
2, 439799, Note_on_c, 1, 73, 0
2, 439800, Note_on_c, 1, 76, 49
2, 439919, Note_on_c, 1, 76, 0
2, 439920, Note_on_c, 1, 76, 49
2, 440039, Note_on_c, 1, 76, 0
2, 440040, Note_on_c, 1, 73, 49
2, 440159, Note_on_c, 1, 73, 0
2, 440160, Note_on_c, 1, 73, 49
2, 440279, Note_on_c, 1, 73, 0
2, 440280, Note_on_c, 1, 76, 49
2, 440399, Note_on_c, 1, 76, 0
2, 440400, Note_on_c, 1, 76, 49
2, 440519, Note_on_c, 1, 76, 0
2, 440520, Note_on_c, 1, 73, 49
2, 440639, Note_on_c, 1, 73, 0
2, 440640, Note_on_c, 1, 74, 49
2, 440759, Note_on_c, 1, 74, 0
2, 440760, Note_on_c, 1, 77, 49
2, 440879, Note_on_c, 1, 77, 0
2, 440880, Note_on_c, 1, 77, 49
2, 440999, Note_on_c, 1, 77, 0
2, 441000, Note_on_c, 1, 74, 49
2, 441119, Note_on_c, 1, 74, 0
2, 441120, Note_on_c, 1, 74, 49
2, 441239, Note_on_c, 1, 74, 0
2, 441240, Note_on_c, 1, 77, 49
2, 441359, Note_on_c, 1, 77, 0
2, 441360, Note_on_c, 1, 77, 49
2, 441479, Note_on_c, 1, 77, 0
2, 441480, Note_on_c, 1, 74, 49
2, 441599, Note_on_c, 1, 74, 0
2, 441600, Note_on_c, 1, 74, 49
2, 441719, Note_on_c, 1, 74, 0
2, 441720, Note_on_c, 1, 77, 49
2, 441839, Note_on_c, 1, 77, 0
2, 441840, Note_on_c, 1, 77, 49
2, 441959, Note_on_c, 1, 77, 0
2, 441960, Note_on_c, 1, 74, 49
2, 442079, Note_on_c, 1, 74, 0
2, 442080, Note_on_c, 1, 76, 49
2, 442199, Note_on_c, 1, 76, 0
2, 442200, Note_on_c, 1, 79, 49
2, 442319, Note_on_c, 1, 79, 0
2, 442320, Note_on_c, 1, 79, 49
2, 442439, Note_on_c, 1, 79, 0
2, 442440, Note_on_c, 1, 76, 49
2, 442559, Note_on_c, 1, 76, 0
2, 442560, Note_on_c, 1, 76, 49
2, 442679, Note_on_c, 1, 76, 0
2, 442680, Note_on_c, 1, 79, 49
2, 442799, Note_on_c, 1, 79, 0
2, 442800, Note_on_c, 1, 79, 49
2, 442919, Note_on_c, 1, 79, 0
2, 442920, Note_on_c, 1, 76, 49
2, 443039, Note_on_c, 1, 76, 0
2, 443040, Note_on_c, 1, 76, 49
2, 443159, Note_on_c, 1, 76, 0
2, 443160, Note_on_c, 1, 79, 49
2, 443279, Note_on_c, 1, 79, 0
2, 443280, Note_on_c, 1, 79, 49
2, 443399, Note_on_c, 1, 79, 0
2, 443400, Note_on_c, 1, 76, 49
2, 443519, Note_on_c, 1, 76, 0
2, 443520, Note_on_c, 1, 77, 49
2, 443639, Note_on_c, 1, 77, 0
2, 443640, Note_on_c, 1, 81, 49
2, 443759, Note_on_c, 1, 81, 0
2, 443760, Note_on_c, 1, 81, 49
2, 443879, Note_on_c, 1, 81, 0
2, 443880, Note_on_c, 1, 77, 49
2, 443999, Note_on_c, 1, 77, 0
2, 444000, Note_on_c, 1, 77, 49
2, 444119, Note_on_c, 1, 77, 0
2, 444120, Note_on_c, 1, 81, 49
2, 444239, Note_on_c, 1, 81, 0
2, 444240, Note_on_c, 1, 81, 49
2, 444359, Note_on_c, 1, 81, 0
2, 444360, Note_on_c, 1, 77, 49
2, 444479, Note_on_c, 1, 77, 0
2, 444480, Note_on_c, 1, 77, 49
2, 444599, Note_on_c, 1, 77, 0
2, 444600, Note_on_c, 1, 81, 49
2, 444719, Note_on_c, 1, 81, 0
2, 444720, Note_on_c, 1, 81, 49
2, 444839, Note_on_c, 1, 81, 0
2, 444840, Note_on_c, 1, 77, 49
2, 444959, Note_on_c, 1, 77, 0
2, 444960, Note_on_c, 1, 76, 49
2, 445079, Note_on_c, 1, 76, 0
2, 445080, Note_on_c, 1, 79, 49
2, 445199, Note_on_c, 1, 79, 0
2, 445200, Note_on_c, 1, 79, 49
2, 445319, Note_on_c, 1, 79, 0
2, 445320, Note_on_c, 1, 76, 49
2, 445439, Note_on_c, 1, 76, 0
2, 445440, Note_on_c, 1, 76, 49
2, 445559, Note_on_c, 1, 76, 0
2, 445560, Note_on_c, 1, 79, 49
2, 445679, Note_on_c, 1, 79, 0
2, 445680, Note_on_c, 1, 79, 49
2, 445799, Note_on_c, 1, 79, 0
2, 445800, Note_on_c, 1, 76, 49
2, 445919, Note_on_c, 1, 76, 0
2, 445920, Note_on_c, 1, 76, 49
2, 446039, Note_on_c, 1, 76, 0
2, 446040, Note_on_c, 1, 79, 49
2, 446159, Note_on_c, 1, 79, 0
2, 446160, Note_on_c, 1, 79, 49
2, 446279, Note_on_c, 1, 79, 0
2, 446280, Note_on_c, 1, 76, 49
2, 446399, Note_on_c, 1, 76, 0
2, 446400, Note_on_c, 1, 74, 49
2, 446519, Note_on_c, 1, 74, 0
2, 446520, Note_on_c, 1, 77, 49
2, 446639, Note_on_c, 1, 77, 0
2, 446640, Note_on_c, 1, 77, 49
2, 446759, Note_on_c, 1, 77, 0
2, 446760, Note_on_c, 1, 74, 49
2, 446879, Note_on_c, 1, 74, 0
2, 446880, Note_on_c, 1, 74, 49
2, 446999, Note_on_c, 1, 74, 0
2, 447000, Note_on_c, 1, 77, 49
2, 447119, Note_on_c, 1, 77, 0
2, 447120, Note_on_c, 1, 77, 49
2, 447239, Note_on_c, 1, 77, 0
2, 447240, Note_on_c, 1, 74, 49
2, 447359, Note_on_c, 1, 74, 0
2, 447360, Note_on_c, 1, 74, 49
2, 447479, Note_on_c, 1, 74, 0
2, 447480, Note_on_c, 1, 77, 49
2, 447599, Note_on_c, 1, 77, 0
2, 447600, Note_on_c, 1, 77, 49
2, 447719, Note_on_c, 1, 77, 0
2, 447720, Note_on_c, 1, 74, 49
2, 447839, Note_on_c, 1, 74, 0
2, 447840, Note_on_c, 1, 73, 49
2, 447959, Note_on_c, 1, 73, 0
2, 447960, Note_on_c, 1, 76, 49
2, 448079, Note_on_c, 1, 76, 0
2, 448080, Note_on_c, 1, 76, 49
2, 448199, Note_on_c, 1, 76, 0
2, 448200, Note_on_c, 1, 73, 49
2, 448319, Note_on_c, 1, 73, 0
2, 448320, Note_on_c, 1, 73, 49
2, 448439, Note_on_c, 1, 73, 0
2, 448440, Note_on_c, 1, 76, 49
2, 448559, Note_on_c, 1, 76, 0
2, 448560, Note_on_c, 1, 76, 49
2, 448679, Note_on_c, 1, 76, 0
2, 448680, Note_on_c, 1, 73, 49
2, 448799, Note_on_c, 1, 73, 0
2, 448800, Note_on_c, 1, 73, 49
2, 448919, Note_on_c, 1, 73, 0
2, 448920, Note_on_c, 1, 76, 49
2, 449039, Note_on_c, 1, 76, 0
2, 449040, Note_on_c, 1, 76, 49
2, 449159, Note_on_c, 1, 76, 0
2, 449160, Note_on_c, 1, 73, 49
2, 449279, Note_on_c, 1, 73, 0
2, 449280, Note_on_c, 1, 74, 49
2, 449399, Note_on_c, 1, 74, 0
2, 449400, Note_on_c, 1, 77, 49
2, 449519, Note_on_c, 1, 77, 0
2, 449520, Note_on_c, 1, 77, 49
2, 449639, Note_on_c, 1, 77, 0
2, 449640, Note_on_c, 1, 74, 49
2, 449759, Note_on_c, 1, 74, 0
2, 449760, Note_on_c, 1, 74, 49
2, 449879, Note_on_c, 1, 74, 0
2, 449880, Note_on_c, 1, 77, 49
2, 449999, Note_on_c, 1, 77, 0
2, 450000, Note_on_c, 1, 77, 49
2, 450119, Note_on_c, 1, 77, 0
2, 450120, Note_on_c, 1, 74, 49
2, 450239, Note_on_c, 1, 74, 0
2, 450240, Note_on_c, 1, 74, 49
2, 450359, Note_on_c, 1, 74, 0
2, 450360, Note_on_c, 1, 77, 49
2, 450479, Note_on_c, 1, 77, 0
2, 450480, Note_on_c, 1, 77, 49
2, 450599, Note_on_c, 1, 77, 0
2, 450600, Note_on_c, 1, 74, 49
2, 450719, Note_on_c, 1, 74, 0
2, 450720, Note_on_c, 1, 73, 49
2, 450839, Note_on_c, 1, 73, 0
2, 450840, Note_on_c, 1, 76, 49
2, 450959, Note_on_c, 1, 76, 0
2, 450960, Note_on_c, 1, 76, 49
2, 451079, Note_on_c, 1, 76, 0
2, 451080, Note_on_c, 1, 73, 49
2, 451199, Note_on_c, 1, 73, 0
2, 451200, Note_on_c, 1, 73, 49
2, 451319, Note_on_c, 1, 73, 0
2, 451320, Note_on_c, 1, 76, 49
2, 451439, Note_on_c, 1, 76, 0
2, 451440, Note_on_c, 1, 76, 49
2, 451559, Note_on_c, 1, 76, 0
2, 451560, Note_on_c, 1, 73, 49
2, 451679, Note_on_c, 1, 73, 0
2, 451680, Note_on_c, 1, 73, 49
2, 451799, Note_on_c, 1, 73, 0
2, 451800, Note_on_c, 1, 76, 49
2, 451919, Note_on_c, 1, 76, 0
2, 451920, Note_on_c, 1, 76, 49
2, 452039, Note_on_c, 1, 76, 0
2, 452040, Note_on_c, 1, 73, 49
2, 452159, Note_on_c, 1, 73, 0
2, 452160, Note_on_c, 1, 74, 49
2, 452279, Note_on_c, 1, 74, 0
2, 452280, Note_on_c, 1, 77, 49
2, 452399, Note_on_c, 1, 77, 0
2, 452400, Note_on_c, 1, 77, 49
2, 452519, Note_on_c, 1, 77, 0
2, 452520, Note_on_c, 1, 74, 49
2, 452639, Note_on_c, 1, 74, 0
2, 452640, Note_on_c, 1, 74, 49
2, 452759, Note_on_c, 1, 74, 0
2, 452760, Note_on_c, 1, 77, 49
2, 452879, Note_on_c, 1, 77, 0
2, 452880, Note_on_c, 1, 77, 49
2, 452999, Note_on_c, 1, 77, 0
2, 453000, Note_on_c, 1, 74, 49
2, 453119, Note_on_c, 1, 74, 0
2, 453120, Note_on_c, 1, 74, 49
2, 453239, Note_on_c, 1, 74, 0
2, 453240, Note_on_c, 1, 77, 49
2, 453359, Note_on_c, 1, 77, 0
2, 453360, Note_on_c, 1, 77, 49
2, 453479, Note_on_c, 1, 77, 0
2, 453480, Note_on_c, 1, 74, 49
2, 453599, Note_on_c, 1, 74, 0
2, 453600, Note_on_c, 1, 76, 49
2, 453719, Note_on_c, 1, 76, 0
2, 453720, Note_on_c, 1, 79, 49
2, 453839, Note_on_c, 1, 79, 0
2, 453840, Note_on_c, 1, 79, 49
2, 453959, Note_on_c, 1, 79, 0
2, 453960, Note_on_c, 1, 76, 49
2, 454079, Note_on_c, 1, 76, 0
2, 454080, Note_on_c, 1, 76, 49
2, 454199, Note_on_c, 1, 76, 0
2, 454200, Note_on_c, 1, 79, 49
2, 454319, Note_on_c, 1, 79, 0
2, 454320, Note_on_c, 1, 79, 49
2, 454439, Note_on_c, 1, 79, 0
2, 454440, Note_on_c, 1, 76, 49
2, 454559, Note_on_c, 1, 76, 0
2, 454560, Note_on_c, 1, 76, 49
2, 454679, Note_on_c, 1, 76, 0
2, 454680, Note_on_c, 1, 79, 49
2, 454799, Note_on_c, 1, 79, 0
2, 454800, Note_on_c, 1, 79, 49
2, 454919, Note_on_c, 1, 79, 0
2, 454920, Note_on_c, 1, 76, 49
2, 455039, Note_on_c, 1, 76, 0
2, 455040, Note_on_c, 1, 77, 49
2, 455159, Note_on_c, 1, 77, 0
2, 455160, Note_on_c, 1, 81, 49
2, 455279, Note_on_c, 1, 81, 0
2, 455280, Note_on_c, 1, 81, 49
2, 455399, Note_on_c, 1, 81, 0
2, 455400, Note_on_c, 1, 77, 49
2, 455519, Note_on_c, 1, 77, 0
2, 455520, Note_on_c, 1, 77, 49
2, 455639, Note_on_c, 1, 77, 0
2, 455640, Note_on_c, 1, 81, 49
2, 455759, Note_on_c, 1, 81, 0
2, 455760, Note_on_c, 1, 81, 49
2, 455879, Note_on_c, 1, 81, 0
2, 455880, Note_on_c, 1, 77, 49
2, 455999, Note_on_c, 1, 77, 0
2, 456000, Note_on_c, 1, 77, 49
2, 456119, Note_on_c, 1, 77, 0
2, 456120, Note_on_c, 1, 81, 49
2, 456239, Note_on_c, 1, 81, 0
2, 456240, Note_on_c, 1, 81, 49
2, 456359, Note_on_c, 1, 81, 0
2, 456360, Note_on_c, 1, 77, 49
2, 456479, Note_on_c, 1, 77, 0
2, 456480, Note_on_c, 1, 76, 49
2, 456599, Note_on_c, 1, 76, 0
2, 456600, Note_on_c, 1, 79, 49
2, 456719, Note_on_c, 1, 79, 0
2, 456720, Note_on_c, 1, 79, 49
2, 456839, Note_on_c, 1, 79, 0
2, 456840, Note_on_c, 1, 76, 49
2, 456959, Note_on_c, 1, 76, 0
2, 456960, Note_on_c, 1, 76, 49
2, 457079, Note_on_c, 1, 76, 0
2, 457080, Note_on_c, 1, 79, 49
2, 457199, Note_on_c, 1, 79, 0
2, 457200, Note_on_c, 1, 79, 49
2, 457319, Note_on_c, 1, 79, 0
2, 457320, Note_on_c, 1, 76, 49
2, 457439, Note_on_c, 1, 76, 0
2, 457440, Note_on_c, 1, 76, 49
2, 457559, Note_on_c, 1, 76, 0
2, 457560, Note_on_c, 1, 79, 49
2, 457679, Note_on_c, 1, 79, 0
2, 457680, Note_on_c, 1, 79, 49
2, 457799, Note_on_c, 1, 79, 0
2, 457800, Note_on_c, 1, 76, 49
2, 457919, Note_on_c, 1, 76, 0
2, 457920, Note_on_c, 1, 69, 49
2, 458039, Note_on_c, 1, 69, 0
2, 458040, Note_on_c, 1, 77, 49
2, 458159, Note_on_c, 1, 77, 0
2, 458160, Note_on_c, 1, 81, 49
2, 458279, Note_on_c, 1, 81, 0
2, 458280, Note_on_c, 1, 77, 49
2, 458399, Note_on_c, 1, 77, 0
2, 458400, Note_on_c, 1, 79, 49
2, 458519, Note_on_c, 1, 79, 0
2, 458520, Note_on_c, 1, 76, 49
2, 458639, Note_on_c, 1, 76, 0
2, 458640, Note_on_c, 1, 79, 49
2, 458759, Note_on_c, 1, 79, 0
2, 458760, Note_on_c, 1, 76, 49
2, 458879, Note_on_c, 1, 76, 0
2, 458880, Note_on_c, 1, 73, 49
2, 458999, Note_on_c, 1, 73, 0
2, 459000, Note_on_c, 1, 76, 49
2, 459119, Note_on_c, 1, 76, 0
2, 459120, Note_on_c, 1, 73, 49
2, 459239, Note_on_c, 1, 73, 0
2, 459240, Note_on_c, 1, 76, 49
2, 459359, Note_on_c, 1, 76, 0
2, 459360, Note_on_c, 1, 74, 49
2, 460799, Note_on_c, 1, 74, 0
2, 460800, Note_on_c, 1, 74, 49
2, 461279, Note_on_c, 1, 74, 0
2, 461280, Note_on_c, 1, 62, 49
2, 461759, Note_on_c, 1, 62, 0
2, 461760, Note_on_c, 1, 74, 49
2, 462239, Note_on_c, 1, 74, 0
2, 462240, Note_on_c, 1, 73, 49
2, 462359, Note_on_c, 1, 73, 0
2, 462360, Note_on_c, 1, 76, 49
2, 462479, Note_on_c, 1, 76, 0
2, 462480, Note_on_c, 1, 76, 49
2, 462599, Note_on_c, 1, 76, 0
2, 462600, Note_on_c, 1, 73, 49
2, 462719, Note_on_c, 1, 73, 0
2, 462720, Note_on_c, 1, 73, 49
2, 462839, Note_on_c, 1, 73, 0
2, 462840, Note_on_c, 1, 76, 49
2, 462959, Note_on_c, 1, 76, 0
2, 462960, Note_on_c, 1, 76, 49
2, 463079, Note_on_c, 1, 76, 0
2, 463080, Note_on_c, 1, 73, 49
2, 463199, Note_on_c, 1, 73, 0
2, 463200, Note_on_c, 1, 73, 49
2, 463319, Note_on_c, 1, 73, 0
2, 463320, Note_on_c, 1, 76, 49
2, 463439, Note_on_c, 1, 76, 0
2, 463440, Note_on_c, 1, 76, 49
2, 463559, Note_on_c, 1, 76, 0
2, 463560, Note_on_c, 1, 73, 49
2, 463679, Note_on_c, 1, 73, 0
2, 463680, Note_on_c, 1, 74, 49
2, 464159, Note_on_c, 1, 74, 0
2, 464160, Note_on_c, 1, 62, 49
2, 464639, Note_on_c, 1, 62, 0
2, 464640, Note_on_c, 1, 74, 49
2, 465119, Note_on_c, 1, 74, 0
2, 465120, Note_on_c, 1, 76, 49
2, 465239, Note_on_c, 1, 76, 0
2, 465240, Note_on_c, 1, 79, 49
2, 465359, Note_on_c, 1, 79, 0
2, 465360, Note_on_c, 1, 79, 49
2, 465479, Note_on_c, 1, 79, 0
2, 465480, Note_on_c, 1, 76, 49
2, 465599, Note_on_c, 1, 76, 0
2, 465600, Note_on_c, 1, 76, 49
2, 465719, Note_on_c, 1, 76, 0
2, 465720, Note_on_c, 1, 79, 49
2, 465839, Note_on_c, 1, 79, 0
2, 465840, Note_on_c, 1, 79, 49
2, 465959, Note_on_c, 1, 79, 0
2, 465960, Note_on_c, 1, 76, 49
2, 466079, Note_on_c, 1, 76, 0
2, 466080, Note_on_c, 1, 76, 49
2, 466199, Note_on_c, 1, 76, 0
2, 466200, Note_on_c, 1, 79, 49
2, 466319, Note_on_c, 1, 79, 0
2, 466320, Note_on_c, 1, 79, 49
2, 466439, Note_on_c, 1, 79, 0
2, 466440, Note_on_c, 1, 76, 49
2, 466559, Note_on_c, 1, 76, 0
2, 466560, Note_on_c, 1, 77, 49
2, 467039, Note_on_c, 1, 77, 0
2, 467040, Note_on_c, 1, 65, 49
2, 467519, Note_on_c, 1, 65, 0
2, 467520, Note_on_c, 1, 77, 49
2, 467999, Note_on_c, 1, 77, 0
2, 468000, Note_on_c, 1, 76, 49
2, 468119, Note_on_c, 1, 76, 0
2, 468120, Note_on_c, 1, 79, 49
2, 468239, Note_on_c, 1, 79, 0
2, 468240, Note_on_c, 1, 79, 49
2, 468359, Note_on_c, 1, 79, 0
2, 468360, Note_on_c, 1, 76, 49
2, 468479, Note_on_c, 1, 76, 0
2, 468480, Note_on_c, 1, 76, 49
2, 468599, Note_on_c, 1, 76, 0
2, 468600, Note_on_c, 1, 79, 49
2, 468719, Note_on_c, 1, 79, 0
2, 468720, Note_on_c, 1, 79, 49
2, 468839, Note_on_c, 1, 79, 0
2, 468840, Note_on_c, 1, 76, 49
2, 468959, Note_on_c, 1, 76, 0
2, 468960, Note_on_c, 1, 76, 49
2, 469079, Note_on_c, 1, 76, 0
2, 469080, Note_on_c, 1, 79, 49
2, 469199, Note_on_c, 1, 79, 0
2, 469200, Note_on_c, 1, 79, 49
2, 469319, Note_on_c, 1, 79, 0
2, 469320, Note_on_c, 1, 76, 49
2, 469439, Note_on_c, 1, 76, 0
2, 469440, Note_on_c, 1, 74, 49
2, 469919, Note_on_c, 1, 74, 0
2, 469920, Note_on_c, 1, 62, 49
2, 470399, Note_on_c, 1, 62, 0
2, 470400, Note_on_c, 1, 74, 49
2, 470879, Note_on_c, 1, 74, 0
2, 470880, Note_on_c, 1, 73, 49
2, 470999, Note_on_c, 1, 73, 0
2, 471000, Note_on_c, 1, 76, 49
2, 471119, Note_on_c, 1, 76, 0
2, 471120, Note_on_c, 1, 76, 49
2, 471239, Note_on_c, 1, 76, 0
2, 471240, Note_on_c, 1, 73, 49
2, 471359, Note_on_c, 1, 73, 0
2, 471360, Note_on_c, 1, 73, 49
2, 471479, Note_on_c, 1, 73, 0
2, 471480, Note_on_c, 1, 76, 49
2, 471599, Note_on_c, 1, 76, 0
2, 471600, Note_on_c, 1, 76, 49
2, 471719, Note_on_c, 1, 76, 0
2, 471720, Note_on_c, 1, 73, 49
2, 471839, Note_on_c, 1, 73, 0
2, 471840, Note_on_c, 1, 73, 49
2, 471959, Note_on_c, 1, 73, 0
2, 471960, Note_on_c, 1, 76, 49
2, 472079, Note_on_c, 1, 76, 0
2, 472080, Note_on_c, 1, 76, 49
2, 472199, Note_on_c, 1, 76, 0
2, 472200, Note_on_c, 1, 73, 49
2, 472319, Note_on_c, 1, 73, 0
2, 472320, Note_on_c, 1, 74, 49
2, 472799, Note_on_c, 1, 74, 0
2, 472800, Note_on_c, 1, 62, 49
2, 473279, Note_on_c, 1, 62, 0
2, 473280, Note_on_c, 1, 74, 49
2, 473759, Note_on_c, 1, 74, 0
2, 473760, Note_on_c, 1, 73, 49
2, 473879, Note_on_c, 1, 73, 0
2, 473880, Note_on_c, 1, 76, 49
2, 473999, Note_on_c, 1, 76, 0
2, 474000, Note_on_c, 1, 76, 49
2, 474119, Note_on_c, 1, 76, 0
2, 474120, Note_on_c, 1, 73, 49
2, 474239, Note_on_c, 1, 73, 0
2, 474240, Note_on_c, 1, 73, 49
2, 474359, Note_on_c, 1, 73, 0
2, 474360, Note_on_c, 1, 76, 49
2, 474479, Note_on_c, 1, 76, 0
2, 474480, Note_on_c, 1, 76, 49
2, 474599, Note_on_c, 1, 76, 0
2, 474600, Note_on_c, 1, 73, 49
2, 474719, Note_on_c, 1, 73, 0
2, 474720, Note_on_c, 1, 73, 49
2, 474839, Note_on_c, 1, 73, 0
2, 474840, Note_on_c, 1, 76, 49
2, 474959, Note_on_c, 1, 76, 0
2, 474960, Note_on_c, 1, 76, 49
2, 475079, Note_on_c, 1, 76, 0
2, 475080, Note_on_c, 1, 73, 49
2, 475199, Note_on_c, 1, 73, 0
2, 475200, Note_on_c, 1, 74, 49
2, 475679, Note_on_c, 1, 74, 0
2, 475680, Note_on_c, 1, 62, 49
2, 476159, Note_on_c, 1, 62, 0
2, 476160, Note_on_c, 1, 74, 49
2, 476639, Note_on_c, 1, 74, 0
2, 476640, Note_on_c, 1, 76, 49
2, 476759, Note_on_c, 1, 76, 0
2, 476760, Note_on_c, 1, 79, 49
2, 476879, Note_on_c, 1, 79, 0
2, 476880, Note_on_c, 1, 79, 49
2, 476999, Note_on_c, 1, 79, 0
2, 477000, Note_on_c, 1, 76, 49
2, 477119, Note_on_c, 1, 76, 0
2, 477120, Note_on_c, 1, 76, 49
2, 477239, Note_on_c, 1, 76, 0
2, 477240, Note_on_c, 1, 79, 49
2, 477359, Note_on_c, 1, 79, 0
2, 477360, Note_on_c, 1, 79, 49
2, 477479, Note_on_c, 1, 79, 0
2, 477480, Note_on_c, 1, 76, 49
2, 477599, Note_on_c, 1, 76, 0
2, 477600, Note_on_c, 1, 76, 49
2, 477719, Note_on_c, 1, 76, 0
2, 477720, Note_on_c, 1, 79, 49
2, 477839, Note_on_c, 1, 79, 0
2, 477840, Note_on_c, 1, 79, 49
2, 477959, Note_on_c, 1, 79, 0
2, 477960, Note_on_c, 1, 76, 49
2, 478079, Note_on_c, 1, 76, 0
2, 478080, Note_on_c, 1, 77, 49
2, 478559, Note_on_c, 1, 77, 0
2, 478560, Note_on_c, 1, 65, 49
2, 479039, Note_on_c, 1, 65, 0
2, 479040, Note_on_c, 1, 77, 49
2, 479519, Note_on_c, 1, 77, 0
2, 479520, Note_on_c, 1, 76, 49
2, 479639, Note_on_c, 1, 76, 0
2, 479640, Note_on_c, 1, 79, 49
2, 479759, Note_on_c, 1, 79, 0
2, 479760, Note_on_c, 1, 79, 49
2, 479879, Note_on_c, 1, 79, 0
2, 479880, Note_on_c, 1, 76, 49
2, 479999, Note_on_c, 1, 76, 0
2, 480000, Note_on_c, 1, 76, 49
2, 480119, Note_on_c, 1, 76, 0
2, 480120, Note_on_c, 1, 79, 49
2, 480239, Note_on_c, 1, 79, 0
2, 480240, Note_on_c, 1, 79, 49
2, 480359, Note_on_c, 1, 79, 0
2, 480360, Note_on_c, 1, 76, 49
2, 480479, Note_on_c, 1, 76, 0
2, 480480, Note_on_c, 1, 76, 49
2, 480599, Note_on_c, 1, 76, 0
2, 480600, Note_on_c, 1, 79, 49
2, 480719, Note_on_c, 1, 79, 0
2, 480720, Note_on_c, 1, 79, 49
2, 480839, Note_on_c, 1, 79, 0
2, 480840, Note_on_c, 1, 76, 49
2, 480959, Note_on_c, 1, 76, 0
2, 480960, Note_on_c, 1, 69, 49
2, 481079, Note_on_c, 1, 69, 0
2, 481080, Note_on_c, 1, 77, 49
2, 481199, Note_on_c, 1, 77, 0
2, 481200, Note_on_c, 1, 81, 49
2, 481319, Note_on_c, 1, 81, 0
2, 481320, Note_on_c, 1, 77, 49
2, 481439, Note_on_c, 1, 77, 0
2, 481440, Note_on_c, 1, 76, 49
2, 481559, Note_on_c, 1, 76, 0
2, 481560, Note_on_c, 1, 79, 49
2, 481679, Note_on_c, 1, 79, 0
2, 481680, Note_on_c, 1, 76, 49
2, 481799, Note_on_c, 1, 76, 0
2, 481800, Note_on_c, 1, 79, 49
2, 481919, Note_on_c, 1, 79, 0
2, 481920, Note_on_c, 1, 73, 49
2, 482039, Note_on_c, 1, 73, 0
2, 482040, Note_on_c, 1, 76, 49
2, 482159, Note_on_c, 1, 76, 0
2, 482160, Note_on_c, 1, 73, 49
2, 482279, Note_on_c, 1, 73, 0
2, 482280, Note_on_c, 1, 76, 49
2, 482399, Note_on_c, 1, 76, 0
2, 482400, Note_on_c, 1, 74, 49
2, 483839, Note_on_c, 1, 74, 0
2, 483840, Note_on_c, 1, 74, 49
2, 484319, Note_on_c, 1, 74, 0
2, 484320, Note_on_c, 1, 74, 49
2, 485039, Note_on_c, 1, 74, 0
2, 485040, Note_on_c, 1, 74, 49
2, 485279, Note_on_c, 1, 74, 0
2, 485280, Note_on_c, 1, 74, 49
2, 485759, Note_on_c, 1, 74, 0
2, 485760, Note_on_c, 1, 74, 49
2, 486479, Note_on_c, 1, 74, 0
2, 486480, Note_on_c, 1, 74, 49
2, 486719, Note_on_c, 1, 74, 0
2, 486720, Note_on_c, 1, 73, 49
2, 487199, Note_on_c, 1, 73, 0
2, 487200, Note_on_c, 1, 73, 49
2, 487919, Note_on_c, 1, 73, 0
2, 487920, Note_on_c, 1, 73, 49
2, 488159, Note_on_c, 1, 73, 0
2, 488160, Note_on_c, 1, 74, 49
2, 488639, Note_on_c, 1, 74, 0
2, 489600, Note_on_c, 1, 62, 49
2, 490079, Note_on_c, 1, 62, 0
2, 490080, Note_on_c, 1, 62, 49
2, 490799, Note_on_c, 1, 62, 0
2, 490800, Note_on_c, 1, 62, 49
2, 491039, Note_on_c, 1, 62, 0
2, 491040, Note_on_c, 1, 62, 49
2, 491519, Note_on_c, 1, 62, 0
2, 491520, Note_on_c, 1, 62, 49
2, 492239, Note_on_c, 1, 62, 0
2, 492240, Note_on_c, 1, 62, 49
2, 492479, Note_on_c, 1, 62, 0
2, 492480, Note_on_c, 1, 61, 49
2, 492959, Note_on_c, 1, 61, 0
2, 492960, Note_on_c, 1, 61, 49
2, 493679, Note_on_c, 1, 61, 0
2, 493680, Note_on_c, 1, 61, 49
2, 493919, Note_on_c, 1, 61, 0
2, 493920, Note_on_c, 1, 62, 49
2, 495359, Note_on_c, 1, 62, 0
2, 495360, End_track
3, 0, Start_track
3, 0, Key_signature, -1, "major"
3, 0, Control_c, 2, 121, 0
3, 0, Program_c, 2, 42
3, 0, Control_c, 2, 7, 100
3, 0, Control_c, 2, 10, 64
3, 0, Control_c, 2, 91, 0
3, 0, Control_c, 2, 93, 0
3, 0, MIDI_port, 1
3, 0, Note_on_c, 2, 50, 64
3, 0, Control_c, 5, 121, 0
3, 0, Program_c, 5, 45
3, 0, Control_c, 5, 7, 100
3, 0, Control_c, 5, 10, 64
3, 0, Control_c, 5, 91, 0
3, 0, Control_c, 5, 93, 0
3, 0, MIDI_port, 1
3, 0, Control_c, 6, 121, 0
3, 0, Program_c, 6, 44
3, 0, Control_c, 6, 7, 100
3, 0, Control_c, 6, 10, 64
3, 0, Control_c, 6, 91, 0
3, 0, Control_c, 6, 93, 0
3, 0, MIDI_port, 1
3, 479, Note_on_c, 2, 50, 0
3, 480, Note_on_c, 2, 50, 64
3, 1199, Note_on_c, 2, 50, 0
3, 1200, Note_on_c, 2, 50, 64
3, 1439, Note_on_c, 2, 50, 0
3, 1440, Note_on_c, 2, 45, 64
3, 1919, Note_on_c, 2, 45, 0
3, 1920, Note_on_c, 2, 45, 64
3, 2639, Note_on_c, 2, 45, 0
3, 2640, Note_on_c, 2, 45, 64
3, 2879, Note_on_c, 2, 45, 0
3, 2880, Note_on_c, 2, 50, 64
3, 3359, Note_on_c, 2, 50, 0
3, 3360, Note_on_c, 2, 50, 64
3, 4079, Note_on_c, 2, 50, 0
3, 4080, Note_on_c, 2, 50, 64
3, 4319, Note_on_c, 2, 50, 0
3, 4320, Note_on_c, 2, 48, 64
3, 4799, Note_on_c, 2, 48, 0
3, 4800, Note_on_c, 2, 48, 64
3, 5519, Note_on_c, 2, 48, 0
3, 5520, Note_on_c, 2, 48, 64
3, 5759, Note_on_c, 2, 48, 0
3, 5760, Note_on_c, 2, 53, 64
3, 6239, Note_on_c, 2, 53, 0
3, 6240, Note_on_c, 2, 53, 64
3, 6959, Note_on_c, 2, 53, 0
3, 6960, Note_on_c, 2, 53, 64
3, 7199, Note_on_c, 2, 53, 0
3, 7200, Note_on_c, 2, 48, 64
3, 7679, Note_on_c, 2, 48, 0
3, 7680, Note_on_c, 2, 49, 64
3, 8399, Note_on_c, 2, 49, 0
3, 8400, Note_on_c, 2, 49, 64
3, 8639, Note_on_c, 2, 49, 0
3, 8640, Note_on_c, 2, 50, 64
3, 9119, Note_on_c, 2, 50, 0
3, 9120, Note_on_c, 2, 46, 64
3, 9839, Note_on_c, 2, 46, 0
3, 9840, Note_on_c, 2, 43, 64
3, 10079, Note_on_c, 2, 43, 0
3, 10080, Note_on_c, 2, 45, 64
3, 10559, Note_on_c, 2, 45, 0
3, 10560, Note_on_c, 2, 57, 64
3, 10799, Note_on_c, 2, 57, 0
3, 10800, Note_on_c, 2, 55, 64
3, 11039, Note_on_c, 2, 55, 0
3, 11040, Note_on_c, 2, 53, 64
3, 11279, Note_on_c, 2, 53, 0
3, 11280, Note_on_c, 2, 52, 64
3, 11519, Note_on_c, 2, 52, 0
3, 11520, Note_on_c, 2, 50, 49
3, 11999, Note_on_c, 2, 50, 0
3, 12000, Note_on_c, 2, 50, 49
3, 12719, Note_on_c, 2, 50, 0
3, 12720, Note_on_c, 2, 50, 49
3, 12959, Note_on_c, 2, 50, 0
3, 12960, Note_on_c, 2, 45, 49
3, 13439, Note_on_c, 2, 45, 0
3, 13440, Note_on_c, 2, 45, 49
3, 14159, Note_on_c, 2, 45, 0
3, 14160, Note_on_c, 2, 45, 49
3, 14399, Note_on_c, 2, 45, 0
3, 14400, Note_on_c, 2, 50, 49
3, 14879, Note_on_c, 2, 50, 0
3, 14880, Note_on_c, 2, 50, 49
3, 15599, Note_on_c, 2, 50, 0
3, 15600, Note_on_c, 2, 50, 49
3, 15839, Note_on_c, 2, 50, 0
3, 15840, Note_on_c, 2, 48, 49
3, 16319, Note_on_c, 2, 48, 0
3, 16320, Note_on_c, 2, 48, 49
3, 17039, Note_on_c, 2, 48, 0
3, 17040, Note_on_c, 2, 48, 49
3, 17279, Note_on_c, 2, 48, 0
3, 17280, Note_on_c, 2, 53, 49
3, 17759, Note_on_c, 2, 53, 0
3, 17760, Note_on_c, 2, 53, 49
3, 18479, Note_on_c, 2, 53, 0
3, 18480, Note_on_c, 2, 53, 49
3, 18719, Note_on_c, 2, 53, 0
3, 18720, Note_on_c, 2, 48, 49
3, 19199, Note_on_c, 2, 48, 0
3, 19200, Note_on_c, 2, 49, 49
3, 19919, Note_on_c, 2, 49, 0
3, 19920, Note_on_c, 2, 49, 49
3, 20159, Note_on_c, 2, 49, 0
3, 20160, Note_on_c, 2, 50, 49
3, 20399, Note_on_c, 2, 50, 0
3, 20400, Note_on_c, 2, 55, 49
3, 20639, Note_on_c, 2, 55, 0
3, 20640, Note_on_c, 2, 57, 49
3, 21119, Note_on_c, 2, 57, 0
3, 21120, Note_on_c, 2, 45, 49
3, 21599, Note_on_c, 2, 45, 0
3, 21600, Note_on_c, 2, 50, 49
3, 23039, Note_on_c, 2, 50, 0
3, 23040, Note_on_c, 2, 50, 49
3, 23519, Note_on_c, 2, 50, 0
3, 23520, Note_on_c, 2, 62, 49
3, 23999, Note_on_c, 2, 62, 0
3, 24480, Note_on_c, 2, 57, 49
3, 24839, Note_on_c, 2, 57, 0
3, 24840, Note_on_c, 2, 58, 49
3, 24959, Note_on_c, 2, 58, 0
3, 24960, Note_on_c, 2, 57, 49
3, 25319, Note_on_c, 2, 57, 0
3, 25320, Note_on_c, 2, 55, 49
3, 25439, Note_on_c, 2, 55, 0
3, 25440, Note_on_c, 2, 53, 49
3, 25799, Note_on_c, 2, 53, 0
3, 25800, Note_on_c, 2, 52, 49
3, 25919, Note_on_c, 2, 52, 0
3, 25920, Note_on_c, 2, 50, 49
3, 26399, Note_on_c, 2, 50, 0
3, 26400, Note_on_c, 2, 62, 49
3, 26879, Note_on_c, 2, 62, 0
3, 27360, Note_on_c, 2, 60, 49
3, 27719, Note_on_c, 2, 60, 0
3, 27720, Note_on_c, 2, 62, 49
3, 27839, Note_on_c, 2, 62, 0
3, 27840, Note_on_c, 2, 60, 49
3, 28199, Note_on_c, 2, 60, 0
3, 28200, Note_on_c, 2, 58, 49
3, 28319, Note_on_c, 2, 58, 0
3, 28320, Note_on_c, 2, 57, 49
3, 28679, Note_on_c, 2, 57, 0
3, 28680, Note_on_c, 2, 55, 49
3, 28799, Note_on_c, 2, 55, 0
3, 28800, Note_on_c, 2, 53, 49
3, 29279, Note_on_c, 2, 53, 0
3, 29280, Note_on_c, 2, 65, 49
3, 29759, Note_on_c, 2, 65, 0
3, 30240, Note_on_c, 2, 60, 49
3, 30719, Note_on_c, 2, 60, 0
3, 30720, Note_on_c, 2, 61, 49
3, 31679, Note_on_c, 2, 61, 0
3, 31680, Note_on_c, 2, 62, 49
3, 32159, Note_on_c, 2, 62, 0
3, 32160, Note_on_c, 2, 50, 49
3, 33119, Note_on_c, 2, 50, 0
3, 33120, Note_on_c, 2, 57, 49
3, 33479, Note_on_c, 2, 57, 0
3, 33480, Note_on_c, 2, 58, 49
3, 33599, Note_on_c, 2, 58, 0
3, 33600, Note_on_c, 2, 57, 49
3, 33959, Note_on_c, 2, 57, 0
3, 33960, Note_on_c, 2, 55, 49
3, 34079, Note_on_c, 2, 55, 0
3, 34080, Note_on_c, 2, 53, 49
3, 34439, Note_on_c, 2, 53, 0
3, 34440, Note_on_c, 2, 52, 49
3, 34559, Note_on_c, 2, 52, 0
3, 34560, Note_on_c, 2, 50, 49
3, 35039, Note_on_c, 2, 50, 0
3, 35040, Note_on_c, 2, 62, 49
3, 35519, Note_on_c, 2, 62, 0
3, 36000, Note_on_c, 2, 57, 49
3, 36359, Note_on_c, 2, 57, 0
3, 36360, Note_on_c, 2, 58, 49
3, 36479, Note_on_c, 2, 58, 0
3, 36480, Note_on_c, 2, 57, 49
3, 36839, Note_on_c, 2, 57, 0
3, 36840, Note_on_c, 2, 55, 49
3, 36959, Note_on_c, 2, 55, 0
3, 36960, Note_on_c, 2, 53, 49
3, 37319, Note_on_c, 2, 53, 0
3, 37320, Note_on_c, 2, 52, 49
3, 37439, Note_on_c, 2, 52, 0
3, 37440, Note_on_c, 2, 50, 49
3, 37919, Note_on_c, 2, 50, 0
3, 37920, Note_on_c, 2, 62, 49
3, 38399, Note_on_c, 2, 62, 0
3, 38880, Note_on_c, 2, 60, 49
3, 39239, Note_on_c, 2, 60, 0
3, 39240, Note_on_c, 2, 62, 49
3, 39359, Note_on_c, 2, 62, 0
3, 39360, Note_on_c, 2, 60, 49
3, 39719, Note_on_c, 2, 60, 0
3, 39720, Note_on_c, 2, 58, 49
3, 39839, Note_on_c, 2, 58, 0
3, 39840, Note_on_c, 2, 57, 49
3, 40199, Note_on_c, 2, 57, 0
3, 40200, Note_on_c, 2, 55, 49
3, 40319, Note_on_c, 2, 55, 0
3, 40320, Note_on_c, 2, 53, 49
3, 40799, Note_on_c, 2, 53, 0
3, 40800, Note_on_c, 2, 65, 49
3, 41279, Note_on_c, 2, 65, 0
3, 41760, Note_on_c, 2, 60, 49
3, 42239, Note_on_c, 2, 60, 0
3, 42240, Note_on_c, 2, 61, 49
3, 42599, Note_on_c, 2, 61, 0
3, 42600, Note_on_c, 2, 62, 49
3, 42719, Note_on_c, 2, 62, 0
3, 42720, Note_on_c, 2, 64, 49
3, 43079, Note_on_c, 2, 64, 0
3, 43080, Note_on_c, 2, 61, 49
3, 43199, Note_on_c, 2, 61, 0
3, 43200, Note_on_c, 2, 62, 49
3, 43439, Note_on_c, 2, 62, 0
3, 43440, Note_on_c, 2, 55, 49
3, 43679, Note_on_c, 2, 55, 0
3, 43680, Note_on_c, 2, 57, 49
3, 44159, Note_on_c, 2, 57, 0
3, 44160, Note_on_c, 2, 45, 49
3, 44639, Note_on_c, 2, 45, 0
3, 44640, Note_on_c, 2, 50, 49
3, 46079, Note_on_c, 2, 50, 0
3, 46080, Note_on_c, 2, 62, 49
3, 46559, Note_on_c, 2, 62, 0
3, 47040, Note_on_c, 2, 50, 49
3, 47519, Note_on_c, 2, 50, 0
3, 47520, Note_on_c, 2, 57, 49
3, 47999, Note_on_c, 2, 57, 0
3, 48480, Note_on_c, 2, 45, 49
3, 48959, Note_on_c, 2, 45, 0
3, 48960, Note_on_c, 2, 50, 49
3, 49439, Note_on_c, 2, 50, 0
3, 49920, Note_on_c, 2, 62, 49
3, 50399, Note_on_c, 2, 62, 0
3, 50400, Note_on_c, 2, 60, 49
3, 50879, Note_on_c, 2, 60, 0
3, 51360, Note_on_c, 2, 48, 49
3, 51839, Note_on_c, 2, 48, 0
3, 51840, Note_on_c, 2, 53, 49
3, 52319, Note_on_c, 2, 53, 0
3, 52800, Note_on_c, 2, 53, 49
3, 53279, Note_on_c, 2, 53, 0
3, 53280, Note_on_c, 2, 60, 49
3, 53759, Note_on_c, 2, 60, 0
3, 54240, Note_on_c, 2, 61, 49
3, 54719, Note_on_c, 2, 61, 0
3, 54720, Note_on_c, 2, 62, 49
3, 55199, Note_on_c, 2, 62, 0
3, 55680, Note_on_c, 2, 43, 49
3, 56159, Note_on_c, 2, 43, 0
3, 56160, Note_on_c, 2, 45, 49
3, 56639, Note_on_c, 2, 45, 0
3, 56640, Note_on_c, 2, 57, 49
3, 57119, Note_on_c, 2, 57, 0
3, 57120, Note_on_c, 2, 45, 49
3, 57599, Note_on_c, 2, 45, 0
3, 57600, Note_on_c, 2, 50, 49
3, 58079, Note_on_c, 2, 50, 0
3, 58560, Note_on_c, 2, 50, 49
3, 59039, Note_on_c, 2, 50, 0
3, 59040, Note_on_c, 2, 57, 49
3, 59519, Note_on_c, 2, 57, 0
3, 60000, Note_on_c, 2, 45, 49
3, 60479, Note_on_c, 2, 45, 0
3, 60480, Note_on_c, 2, 50, 49
3, 60959, Note_on_c, 2, 50, 0
3, 61440, Note_on_c, 2, 62, 49
3, 61919, Note_on_c, 2, 62, 0
3, 61920, Note_on_c, 2, 60, 49
3, 62399, Note_on_c, 2, 60, 0
3, 62880, Note_on_c, 2, 48, 49
3, 63359, Note_on_c, 2, 48, 0
3, 63360, Note_on_c, 2, 53, 49
3, 63839, Note_on_c, 2, 53, 0
3, 64320, Note_on_c, 2, 53, 49
3, 64799, Note_on_c, 2, 53, 0
3, 64800, Note_on_c, 2, 48, 49
3, 65519, Note_on_c, 2, 48, 0
3, 65520, Note_on_c, 2, 49, 49
3, 65759, Note_on_c, 2, 49, 0
3, 65760, Note_on_c, 2, 50, 49
3, 66239, Note_on_c, 2, 50, 0
3, 66240, Note_on_c, 2, 43, 49
3, 66719, Note_on_c, 2, 43, 0
3, 66720, Note_on_c, 2, 45, 49
3, 67679, Note_on_c, 2, 45, 0
3, 67680, Note_on_c, 2, 50, 49
3, 69119, Note_on_c, 2, 50, 0
3, 69120, Note_on_c, 2, 50, 49
3, 69599, Note_on_c, 2, 50, 0
3, 69600, Note_on_c, 2, 62, 49
3, 70079, Note_on_c, 2, 62, 0
3, 70080, Note_on_c, 2, 50, 49
3, 70559, Note_on_c, 2, 50, 0
3, 70560, Note_on_c, 2, 45, 49
3, 71039, Note_on_c, 2, 45, 0
3, 71040, Note_on_c, 2, 57, 49
3, 71519, Note_on_c, 2, 57, 0
3, 71520, Note_on_c, 2, 45, 49
3, 71999, Note_on_c, 2, 45, 0
3, 72000, Note_on_c, 2, 50, 49
3, 72479, Note_on_c, 2, 50, 0
3, 72480, Note_on_c, 2, 62, 49
3, 72959, Note_on_c, 2, 62, 0
3, 72960, Note_on_c, 2, 50, 49
3, 73439, Note_on_c, 2, 50, 0
3, 73440, Note_on_c, 2, 48, 49
3, 73919, Note_on_c, 2, 48, 0
3, 73920, Note_on_c, 2, 60, 49
3, 74399, Note_on_c, 2, 60, 0
3, 74400, Note_on_c, 2, 48, 49
3, 74879, Note_on_c, 2, 48, 0
3, 74880, Note_on_c, 2, 53, 49
3, 75359, Note_on_c, 2, 53, 0
3, 75360, Note_on_c, 2, 65, 49
3, 75839, Note_on_c, 2, 65, 0
3, 75840, Note_on_c, 2, 53, 49
3, 76319, Note_on_c, 2, 53, 0
3, 76320, Note_on_c, 2, 48, 49
3, 76799, Note_on_c, 2, 48, 0
3, 76800, Note_on_c, 2, 52, 49
3, 77279, Note_on_c, 2, 52, 0
3, 77280, Note_on_c, 2, 49, 49
3, 77759, Note_on_c, 2, 49, 0
3, 77760, Note_on_c, 2, 50, 49
3, 78239, Note_on_c, 2, 50, 0
3, 78240, Note_on_c, 2, 58, 49
3, 78719, Note_on_c, 2, 58, 0
3, 78720, Note_on_c, 2, 46, 49
3, 79199, Note_on_c, 2, 46, 0
3, 79200, Note_on_c, 2, 45, 49
3, 79679, Note_on_c, 2, 45, 0
3, 79680, Note_on_c, 2, 57, 49
3, 80159, Note_on_c, 2, 57, 0
3, 80160, Note_on_c, 2, 45, 49
3, 80639, Note_on_c, 2, 45, 0
3, 80640, Note_on_c, 2, 50, 49
3, 81119, Note_on_c, 2, 50, 0
3, 81120, Note_on_c, 2, 62, 49
3, 81599, Note_on_c, 2, 62, 0
3, 81600, Note_on_c, 2, 50, 49
3, 82079, Note_on_c, 2, 50, 0
3, 82080, Note_on_c, 2, 45, 49
3, 82559, Note_on_c, 2, 45, 0
3, 82560, Note_on_c, 2, 57, 49
3, 83039, Note_on_c, 2, 57, 0
3, 83040, Note_on_c, 2, 45, 49
3, 83519, Note_on_c, 2, 45, 0
3, 83520, Note_on_c, 2, 50, 49
3, 83999, Note_on_c, 2, 50, 0
3, 84000, Note_on_c, 2, 62, 49
3, 84479, Note_on_c, 2, 62, 0
3, 84480, Note_on_c, 2, 50, 49
3, 84959, Note_on_c, 2, 50, 0
3, 84960, Note_on_c, 2, 48, 49
3, 85439, Note_on_c, 2, 48, 0
3, 85440, Note_on_c, 2, 60, 49
3, 85919, Note_on_c, 2, 60, 0
3, 85920, Note_on_c, 2, 48, 49
3, 86399, Note_on_c, 2, 48, 0
3, 86400, Note_on_c, 2, 53, 49
3, 86879, Note_on_c, 2, 53, 0
3, 86880, Note_on_c, 2, 65, 49
3, 87359, Note_on_c, 2, 65, 0
3, 87360, Note_on_c, 2, 53, 49
3, 87839, Note_on_c, 2, 53, 0
3, 87840, Note_on_c, 2, 55, 49
3, 88079, Note_on_c, 2, 55, 0
3, 88080, Note_on_c, 2, 57, 49
3, 88319, Note_on_c, 2, 57, 0
3, 88320, Note_on_c, 2, 58, 49
3, 88559, Note_on_c, 2, 58, 0
3, 88560, Note_on_c, 2, 57, 49
3, 88799, Note_on_c, 2, 57, 0
3, 88800, Note_on_c, 2, 55, 49
3, 89039, Note_on_c, 2, 55, 0
3, 89040, Note_on_c, 2, 58, 49
3, 89279, Note_on_c, 2, 58, 0
3, 89280, Note_on_c, 2, 57, 49
3, 89759, Note_on_c, 2, 57, 0
3, 89760, Note_on_c, 2, 45, 49
3, 90719, Note_on_c, 2, 45, 0
3, 90720, Note_on_c, 2, 50, 49
3, 92159, Note_on_c, 2, 50, 0
3, 92160, Note_on_c, 2, 50, 49
3, 92399, Note_on_c, 2, 50, 0
3, 92400, Note_on_c, 2, 52, 49
3, 92639, Note_on_c, 2, 52, 0
3, 92640, Note_on_c, 2, 53, 49
3, 92879, Note_on_c, 2, 53, 0
3, 92880, Note_on_c, 2, 50, 49
3, 93119, Note_on_c, 2, 50, 0
3, 93120, Note_on_c, 2, 53, 49
3, 93359, Note_on_c, 2, 53, 0
3, 93360, Note_on_c, 2, 55, 49
3, 93599, Note_on_c, 2, 55, 0
3, 93600, Note_on_c, 2, 45, 49
3, 93839, Note_on_c, 2, 45, 0
3, 93840, Note_on_c, 2, 47, 49
3, 94079, Note_on_c, 2, 47, 0
3, 94080, Note_on_c, 2, 49, 49
3, 94319, Note_on_c, 2, 49, 0
3, 94320, Note_on_c, 2, 47, 49
3, 94559, Note_on_c, 2, 47, 0
3, 94560, Note_on_c, 2, 49, 49
3, 94799, Note_on_c, 2, 49, 0
3, 94800, Note_on_c, 2, 45, 49
3, 95039, Note_on_c, 2, 45, 0
3, 95040, Note_on_c, 2, 50, 49
3, 95279, Note_on_c, 2, 50, 0
3, 95280, Note_on_c, 2, 52, 49
3, 95519, Note_on_c, 2, 52, 0
3, 95520, Note_on_c, 2, 53, 49
3, 95759, Note_on_c, 2, 53, 0
3, 95760, Note_on_c, 2, 50, 49
3, 95999, Note_on_c, 2, 50, 0
3, 96000, Note_on_c, 2, 53, 49
3, 96239, Note_on_c, 2, 53, 0
3, 96240, Note_on_c, 2, 55, 49
3, 96479, Note_on_c, 2, 55, 0
3, 96480, Note_on_c, 2, 48, 49
3, 96719, Note_on_c, 2, 48, 0
3, 96720, Note_on_c, 2, 50, 49
3, 96959, Note_on_c, 2, 50, 0
3, 96960, Note_on_c, 2, 52, 49
3, 97199, Note_on_c, 2, 52, 0
3, 97200, Note_on_c, 2, 50, 49
3, 97439, Note_on_c, 2, 50, 0
3, 97440, Note_on_c, 2, 52, 49
3, 97679, Note_on_c, 2, 52, 0
3, 97680, Note_on_c, 2, 48, 49
3, 97919, Note_on_c, 2, 48, 0
3, 97920, Note_on_c, 2, 53, 49
3, 98159, Note_on_c, 2, 53, 0
3, 98160, Note_on_c, 2, 55, 49
3, 98399, Note_on_c, 2, 55, 0
3, 98400, Note_on_c, 2, 57, 49
3, 98639, Note_on_c, 2, 57, 0
3, 98640, Note_on_c, 2, 53, 49
3, 98879, Note_on_c, 2, 53, 0
3, 98880, Note_on_c, 2, 57, 49
3, 99119, Note_on_c, 2, 57, 0
3, 99120, Note_on_c, 2, 59, 49
3, 99359, Note_on_c, 2, 59, 0
3, 99360, Note_on_c, 2, 60, 49
3, 99839, Note_on_c, 2, 60, 0
3, 99840, Note_on_c, 2, 61, 49
3, 100559, Note_on_c, 2, 61, 0
3, 100560, Note_on_c, 2, 61, 49
3, 100799, Note_on_c, 2, 61, 0
3, 100800, Note_on_c, 2, 62, 49
3, 101039, Note_on_c, 2, 62, 0
3, 101040, Note_on_c, 2, 50, 49
3, 101279, Note_on_c, 2, 50, 0
3, 101280, Note_on_c, 2, 53, 49
3, 101519, Note_on_c, 2, 53, 0
3, 101520, Note_on_c, 2, 50, 49
3, 101759, Note_on_c, 2, 50, 0
3, 101760, Note_on_c, 2, 53, 49
3, 101999, Note_on_c, 2, 53, 0
3, 102000, Note_on_c, 2, 55, 49
3, 102239, Note_on_c, 2, 55, 0
3, 102240, Note_on_c, 2, 57, 49
3, 102359, Note_on_c, 2, 57, 0
3, 102360, Note_on_c, 2, 57, 49
3, 102479, Note_on_c, 2, 57, 0
3, 102480, Note_on_c, 2, 55, 49
3, 102599, Note_on_c, 2, 55, 0
3, 102600, Note_on_c, 2, 53, 49
3, 102719, Note_on_c, 2, 53, 0
3, 102720, Note_on_c, 2, 52, 49
3, 102839, Note_on_c, 2, 52, 0
3, 102840, Note_on_c, 2, 50, 49
3, 102959, Note_on_c, 2, 50, 0
3, 102960, Note_on_c, 2, 49, 49
3, 103079, Note_on_c, 2, 49, 0
3, 103080, Note_on_c, 2, 47, 49
3, 103199, Note_on_c, 2, 47, 0
3, 103200, Note_on_c, 2, 45, 49
3, 103439, Note_on_c, 2, 45, 0
3, 103440, Note_on_c, 2, 49, 49
3, 103679, Note_on_c, 2, 49, 0
3, 103680, Note_on_c, 2, 50, 49
3, 103919, Note_on_c, 2, 50, 0
3, 103920, Note_on_c, 2, 52, 49
3, 104159, Note_on_c, 2, 52, 0
3, 104160, Note_on_c, 2, 53, 49
3, 104399, Note_on_c, 2, 53, 0
3, 104400, Note_on_c, 2, 50, 49
3, 104639, Note_on_c, 2, 50, 0
3, 104640, Note_on_c, 2, 53, 49
3, 104879, Note_on_c, 2, 53, 0
3, 104880, Note_on_c, 2, 55, 49
3, 105119, Note_on_c, 2, 55, 0
3, 105120, Note_on_c, 2, 45, 49
3, 105359, Note_on_c, 2, 45, 0
3, 105360, Note_on_c, 2, 47, 49
3, 105599, Note_on_c, 2, 47, 0
3, 105600, Note_on_c, 2, 49, 49
3, 105839, Note_on_c, 2, 49, 0
3, 105840, Note_on_c, 2, 47, 49
3, 106079, Note_on_c, 2, 47, 0
3, 106080, Note_on_c, 2, 49, 49
3, 106319, Note_on_c, 2, 49, 0
3, 106320, Note_on_c, 2, 45, 49
3, 106559, Note_on_c, 2, 45, 0
3, 106560, Note_on_c, 2, 50, 49
3, 106799, Note_on_c, 2, 50, 0
3, 106800, Note_on_c, 2, 52, 49
3, 107039, Note_on_c, 2, 52, 0
3, 107040, Note_on_c, 2, 53, 49
3, 107279, Note_on_c, 2, 53, 0
3, 107280, Note_on_c, 2, 50, 49
3, 107519, Note_on_c, 2, 50, 0
3, 107520, Note_on_c, 2, 53, 49
3, 107759, Note_on_c, 2, 53, 0
3, 107760, Note_on_c, 2, 55, 49
3, 107999, Note_on_c, 2, 55, 0
3, 108000, Note_on_c, 2, 48, 49
3, 108239, Note_on_c, 2, 48, 0
3, 108240, Note_on_c, 2, 50, 49
3, 108479, Note_on_c, 2, 50, 0
3, 108480, Note_on_c, 2, 52, 49
3, 108719, Note_on_c, 2, 52, 0
3, 108720, Note_on_c, 2, 50, 49
3, 108959, Note_on_c, 2, 50, 0
3, 108960, Note_on_c, 2, 52, 49
3, 109199, Note_on_c, 2, 52, 0
3, 109200, Note_on_c, 2, 48, 49
3, 109439, Note_on_c, 2, 48, 0
3, 109440, Note_on_c, 2, 53, 49
3, 109679, Note_on_c, 2, 53, 0
3, 109680, Note_on_c, 2, 55, 49
3, 109919, Note_on_c, 2, 55, 0
3, 109920, Note_on_c, 2, 57, 49
3, 110159, Note_on_c, 2, 57, 0
3, 110160, Note_on_c, 2, 53, 49
3, 110399, Note_on_c, 2, 53, 0
3, 110400, Note_on_c, 2, 57, 49
3, 110639, Note_on_c, 2, 57, 0
3, 110640, Note_on_c, 2, 59, 49
3, 110879, Note_on_c, 2, 59, 0
3, 110880, Note_on_c, 2, 60, 49
3, 111359, Note_on_c, 2, 60, 0
3, 111360, Note_on_c, 2, 61, 49
3, 112079, Note_on_c, 2, 61, 0
3, 112080, Note_on_c, 2, 61, 49
3, 112319, Note_on_c, 2, 61, 0
3, 112320, Note_on_c, 2, 62, 49
3, 112559, Note_on_c, 2, 62, 0
3, 112560, Note_on_c, 2, 55, 49
3, 112799, Note_on_c, 2, 55, 0
3, 112800, Note_on_c, 2, 57, 49
3, 113279, Note_on_c, 2, 57, 0
3, 113280, Note_on_c, 2, 45, 49
3, 113759, Note_on_c, 2, 45, 0
3, 113760, Note_on_c, 2, 50, 49
3, 115199, Note_on_c, 2, 50, 0
3, 115200, Note_on_c, 2, 50, 49
3, 115319, Note_on_c, 2, 50, 0
3, 115320, Note_on_c, 2, 53, 49
3, 115439, Note_on_c, 2, 53, 0
3, 115440, Note_on_c, 2, 55, 49
3, 115559, Note_on_c, 2, 55, 0
3, 115560, Note_on_c, 2, 57, 49
3, 115679, Note_on_c, 2, 57, 0
3, 115680, Note_on_c, 2, 50, 49
3, 115799, Note_on_c, 2, 50, 0
3, 115800, Note_on_c, 2, 53, 49
3, 115919, Note_on_c, 2, 53, 0
3, 115920, Note_on_c, 2, 55, 49
3, 116039, Note_on_c, 2, 55, 0
3, 116040, Note_on_c, 2, 57, 49
3, 116159, Note_on_c, 2, 57, 0
3, 116160, Note_on_c, 2, 50, 49
3, 116279, Note_on_c, 2, 50, 0
3, 116280, Note_on_c, 2, 53, 49
3, 116399, Note_on_c, 2, 53, 0
3, 116400, Note_on_c, 2, 52, 49
3, 116519, Note_on_c, 2, 52, 0
3, 116520, Note_on_c, 2, 50, 49
3, 116639, Note_on_c, 2, 50, 0
3, 116640, Note_on_c, 2, 57, 49
3, 116759, Note_on_c, 2, 57, 0
3, 116760, Note_on_c, 2, 61, 49
3, 116879, Note_on_c, 2, 61, 0
3, 116880, Note_on_c, 2, 62, 49
3, 116999, Note_on_c, 2, 62, 0
3, 117000, Note_on_c, 2, 64, 49
3, 117119, Note_on_c, 2, 64, 0
3, 117120, Note_on_c, 2, 57, 49
3, 117239, Note_on_c, 2, 57, 0
3, 117240, Note_on_c, 2, 61, 49
3, 117359, Note_on_c, 2, 61, 0
3, 117360, Note_on_c, 2, 62, 49
3, 117479, Note_on_c, 2, 62, 0
3, 117480, Note_on_c, 2, 64, 49
3, 117599, Note_on_c, 2, 64, 0
3, 117600, Note_on_c, 2, 57, 49
3, 117719, Note_on_c, 2, 57, 0
3, 117720, Note_on_c, 2, 61, 49
3, 117839, Note_on_c, 2, 61, 0
3, 117840, Note_on_c, 2, 59, 49
3, 117959, Note_on_c, 2, 59, 0
3, 117960, Note_on_c, 2, 57, 49
3, 118079, Note_on_c, 2, 57, 0
3, 118080, Note_on_c, 2, 50, 49
3, 118199, Note_on_c, 2, 50, 0
3, 118200, Note_on_c, 2, 53, 49
3, 118319, Note_on_c, 2, 53, 0
3, 118320, Note_on_c, 2, 55, 49
3, 118439, Note_on_c, 2, 55, 0
3, 118440, Note_on_c, 2, 57, 49
3, 118559, Note_on_c, 2, 57, 0
3, 118560, Note_on_c, 2, 50, 49
3, 118679, Note_on_c, 2, 50, 0
3, 118680, Note_on_c, 2, 53, 49
3, 118799, Note_on_c, 2, 53, 0
3, 118800, Note_on_c, 2, 55, 49
3, 118919, Note_on_c, 2, 55, 0
3, 118920, Note_on_c, 2, 57, 49
3, 119039, Note_on_c, 2, 57, 0
3, 119040, Note_on_c, 2, 50, 49
3, 119159, Note_on_c, 2, 50, 0
3, 119160, Note_on_c, 2, 53, 49
3, 119279, Note_on_c, 2, 53, 0
3, 119280, Note_on_c, 2, 52, 49
3, 119399, Note_on_c, 2, 52, 0
3, 119400, Note_on_c, 2, 50, 49
3, 119519, Note_on_c, 2, 50, 0
3, 119520, Note_on_c, 2, 48, 49
3, 119639, Note_on_c, 2, 48, 0
3, 119640, Note_on_c, 2, 52, 49
3, 119759, Note_on_c, 2, 52, 0
3, 119760, Note_on_c, 2, 53, 49
3, 119879, Note_on_c, 2, 53, 0
3, 119880, Note_on_c, 2, 55, 49
3, 119999, Note_on_c, 2, 55, 0
3, 120000, Note_on_c, 2, 48, 49
3, 120119, Note_on_c, 2, 48, 0
3, 120120, Note_on_c, 2, 52, 49
3, 120239, Note_on_c, 2, 52, 0
3, 120240, Note_on_c, 2, 53, 49
3, 120359, Note_on_c, 2, 53, 0
3, 120360, Note_on_c, 2, 55, 49
3, 120479, Note_on_c, 2, 55, 0
3, 120480, Note_on_c, 2, 48, 49
3, 120599, Note_on_c, 2, 48, 0
3, 120600, Note_on_c, 2, 52, 49
3, 120719, Note_on_c, 2, 52, 0
3, 120720, Note_on_c, 2, 50, 49
3, 120839, Note_on_c, 2, 50, 0
3, 120840, Note_on_c, 2, 48, 49
3, 120959, Note_on_c, 2, 48, 0
3, 120960, Note_on_c, 2, 53, 49
3, 121079, Note_on_c, 2, 53, 0
3, 121080, Note_on_c, 2, 57, 49
3, 121199, Note_on_c, 2, 57, 0
3, 121200, Note_on_c, 2, 58, 49
3, 121319, Note_on_c, 2, 58, 0
3, 121320, Note_on_c, 2, 60, 49
3, 121439, Note_on_c, 2, 60, 0
3, 121440, Note_on_c, 2, 53, 49
3, 121559, Note_on_c, 2, 53, 0
3, 121560, Note_on_c, 2, 57, 49
3, 121679, Note_on_c, 2, 57, 0
3, 121680, Note_on_c, 2, 58, 49
3, 121799, Note_on_c, 2, 58, 0
3, 121800, Note_on_c, 2, 60, 49
3, 121919, Note_on_c, 2, 60, 0
3, 121920, Note_on_c, 2, 53, 49
3, 122039, Note_on_c, 2, 53, 0
3, 122040, Note_on_c, 2, 57, 49
3, 122159, Note_on_c, 2, 57, 0
3, 122160, Note_on_c, 2, 55, 49
3, 122279, Note_on_c, 2, 55, 0
3, 122280, Note_on_c, 2, 53, 49
3, 122399, Note_on_c, 2, 53, 0
3, 122400, Note_on_c, 2, 60, 49
3, 122519, Note_on_c, 2, 60, 0
3, 122520, Note_on_c, 2, 60, 49
3, 122639, Note_on_c, 2, 60, 0
3, 122640, Note_on_c, 2, 62, 49
3, 122759, Note_on_c, 2, 62, 0
3, 122760, Note_on_c, 2, 64, 49
3, 122879, Note_on_c, 2, 64, 0
3, 122880, Note_on_c, 2, 61, 49
3, 122999, Note_on_c, 2, 61, 0
3, 123000, Note_on_c, 2, 61, 49
3, 123119, Note_on_c, 2, 61, 0
3, 123120, Note_on_c, 2, 62, 49
3, 123239, Note_on_c, 2, 62, 0
3, 123240, Note_on_c, 2, 64, 49
3, 123359, Note_on_c, 2, 64, 0
3, 123360, Note_on_c, 2, 57, 49
3, 123479, Note_on_c, 2, 57, 0
3, 123480, Note_on_c, 2, 61, 49
3, 123599, Note_on_c, 2, 61, 0
3, 123600, Note_on_c, 2, 59, 49
3, 123719, Note_on_c, 2, 59, 0
3, 123720, Note_on_c, 2, 57, 49
3, 123839, Note_on_c, 2, 57, 0
3, 123840, Note_on_c, 2, 62, 49
3, 123959, Note_on_c, 2, 62, 0
3, 123960, Note_on_c, 2, 53, 49
3, 124079, Note_on_c, 2, 53, 0
3, 124080, Note_on_c, 2, 55, 49
3, 124199, Note_on_c, 2, 55, 0
3, 124200, Note_on_c, 2, 57, 49
3, 124319, Note_on_c, 2, 57, 0
3, 124320, Note_on_c, 2, 50, 49
3, 124439, Note_on_c, 2, 50, 0
3, 124440, Note_on_c, 2, 53, 49
3, 124559, Note_on_c, 2, 53, 0
3, 124560, Note_on_c, 2, 55, 49
3, 124679, Note_on_c, 2, 55, 0
3, 124680, Note_on_c, 2, 57, 49
3, 124799, Note_on_c, 2, 57, 0
3, 124800, Note_on_c, 2, 50, 49
3, 124919, Note_on_c, 2, 50, 0
3, 124920, Note_on_c, 2, 53, 49
3, 125039, Note_on_c, 2, 53, 0
3, 125040, Note_on_c, 2, 52, 49
3, 125159, Note_on_c, 2, 52, 0
3, 125160, Note_on_c, 2, 50, 49
3, 125279, Note_on_c, 2, 50, 0
3, 125280, Note_on_c, 2, 57, 49
3, 125399, Note_on_c, 2, 57, 0
3, 125400, Note_on_c, 2, 49, 49
3, 125519, Note_on_c, 2, 49, 0
3, 125520, Note_on_c, 2, 50, 49
3, 125639, Note_on_c, 2, 50, 0
3, 125640, Note_on_c, 2, 52, 49
3, 125759, Note_on_c, 2, 52, 0
3, 125760, Note_on_c, 2, 45, 49
3, 125879, Note_on_c, 2, 45, 0
3, 125880, Note_on_c, 2, 49, 49
3, 125999, Note_on_c, 2, 49, 0
3, 126000, Note_on_c, 2, 50, 49
3, 126119, Note_on_c, 2, 50, 0
3, 126120, Note_on_c, 2, 52, 49
3, 126239, Note_on_c, 2, 52, 0
3, 126240, Note_on_c, 2, 45, 49
3, 126359, Note_on_c, 2, 45, 0
3, 126360, Note_on_c, 2, 49, 49
3, 126479, Note_on_c, 2, 49, 0
3, 126480, Note_on_c, 2, 47, 49
3, 126599, Note_on_c, 2, 47, 0
3, 126600, Note_on_c, 2, 45, 49
3, 126719, Note_on_c, 2, 45, 0
3, 126720, Note_on_c, 2, 50, 49
3, 126839, Note_on_c, 2, 50, 0
3, 126840, Note_on_c, 2, 53, 49
3, 126959, Note_on_c, 2, 53, 0
3, 126960, Note_on_c, 2, 55, 49
3, 127079, Note_on_c, 2, 55, 0
3, 127080, Note_on_c, 2, 57, 49
3, 127199, Note_on_c, 2, 57, 0
3, 127200, Note_on_c, 2, 50, 49
3, 127319, Note_on_c, 2, 50, 0
3, 127320, Note_on_c, 2, 53, 49
3, 127439, Note_on_c, 2, 53, 0
3, 127440, Note_on_c, 2, 55, 49
3, 127559, Note_on_c, 2, 55, 0
3, 127560, Note_on_c, 2, 57, 49
3, 127679, Note_on_c, 2, 57, 0
3, 127680, Note_on_c, 2, 50, 49
3, 127799, Note_on_c, 2, 50, 0
3, 127800, Note_on_c, 2, 53, 49
3, 127919, Note_on_c, 2, 53, 0
3, 127920, Note_on_c, 2, 52, 49
3, 128039, Note_on_c, 2, 52, 0
3, 128040, Note_on_c, 2, 50, 49
3, 128159, Note_on_c, 2, 50, 0
3, 128160, Note_on_c, 2, 57, 49
3, 128279, Note_on_c, 2, 57, 0
3, 128280, Note_on_c, 2, 61, 49
3, 128399, Note_on_c, 2, 61, 0
3, 128400, Note_on_c, 2, 62, 49
3, 128519, Note_on_c, 2, 62, 0
3, 128520, Note_on_c, 2, 64, 49
3, 128639, Note_on_c, 2, 64, 0
3, 128640, Note_on_c, 2, 57, 49
3, 128759, Note_on_c, 2, 57, 0
3, 128760, Note_on_c, 2, 61, 49
3, 128879, Note_on_c, 2, 61, 0
3, 128880, Note_on_c, 2, 62, 49
3, 128999, Note_on_c, 2, 62, 0
3, 129000, Note_on_c, 2, 64, 49
3, 129119, Note_on_c, 2, 64, 0
3, 129120, Note_on_c, 2, 57, 49
3, 129239, Note_on_c, 2, 57, 0
3, 129240, Note_on_c, 2, 61, 49
3, 129359, Note_on_c, 2, 61, 0
3, 129360, Note_on_c, 2, 59, 49
3, 129479, Note_on_c, 2, 59, 0
3, 129480, Note_on_c, 2, 57, 49
3, 129599, Note_on_c, 2, 57, 0
3, 129600, Note_on_c, 2, 50, 49
3, 129719, Note_on_c, 2, 50, 0
3, 129720, Note_on_c, 2, 53, 49
3, 129839, Note_on_c, 2, 53, 0
3, 129840, Note_on_c, 2, 55, 49
3, 129959, Note_on_c, 2, 55, 0
3, 129960, Note_on_c, 2, 57, 49
3, 130079, Note_on_c, 2, 57, 0
3, 130080, Note_on_c, 2, 50, 49
3, 130199, Note_on_c, 2, 50, 0
3, 130200, Note_on_c, 2, 53, 49
3, 130319, Note_on_c, 2, 53, 0
3, 130320, Note_on_c, 2, 55, 49
3, 130439, Note_on_c, 2, 55, 0
3, 130440, Note_on_c, 2, 57, 49
3, 130559, Note_on_c, 2, 57, 0
3, 130560, Note_on_c, 2, 50, 49
3, 130679, Note_on_c, 2, 50, 0
3, 130680, Note_on_c, 2, 53, 49
3, 130799, Note_on_c, 2, 53, 0
3, 130800, Note_on_c, 2, 52, 49
3, 130919, Note_on_c, 2, 52, 0
3, 130920, Note_on_c, 2, 50, 49
3, 131039, Note_on_c, 2, 50, 0
3, 131040, Note_on_c, 2, 48, 49
3, 131159, Note_on_c, 2, 48, 0
3, 131160, Note_on_c, 2, 52, 49
3, 131279, Note_on_c, 2, 52, 0
3, 131280, Note_on_c, 2, 53, 49
3, 131399, Note_on_c, 2, 53, 0
3, 131400, Note_on_c, 2, 55, 49
3, 131519, Note_on_c, 2, 55, 0
3, 131520, Note_on_c, 2, 48, 49
3, 131639, Note_on_c, 2, 48, 0
3, 131640, Note_on_c, 2, 52, 49
3, 131759, Note_on_c, 2, 52, 0
3, 131760, Note_on_c, 2, 53, 49
3, 131879, Note_on_c, 2, 53, 0
3, 131880, Note_on_c, 2, 55, 49
3, 131999, Note_on_c, 2, 55, 0
3, 132000, Note_on_c, 2, 48, 49
3, 132119, Note_on_c, 2, 48, 0
3, 132120, Note_on_c, 2, 52, 49
3, 132239, Note_on_c, 2, 52, 0
3, 132240, Note_on_c, 2, 50, 49
3, 132359, Note_on_c, 2, 50, 0
3, 132360, Note_on_c, 2, 48, 49
3, 132479, Note_on_c, 2, 48, 0
3, 132480, Note_on_c, 2, 53, 49
3, 132599, Note_on_c, 2, 53, 0
3, 132600, Note_on_c, 2, 57, 49
3, 132719, Note_on_c, 2, 57, 0
3, 132720, Note_on_c, 2, 58, 49
3, 132839, Note_on_c, 2, 58, 0
3, 132840, Note_on_c, 2, 60, 49
3, 132959, Note_on_c, 2, 60, 0
3, 132960, Note_on_c, 2, 53, 49
3, 133079, Note_on_c, 2, 53, 0
3, 133080, Note_on_c, 2, 57, 49
3, 133199, Note_on_c, 2, 57, 0
3, 133200, Note_on_c, 2, 58, 49
3, 133319, Note_on_c, 2, 58, 0
3, 133320, Note_on_c, 2, 60, 49
3, 133439, Note_on_c, 2, 60, 0
3, 133440, Note_on_c, 2, 53, 49
3, 133559, Note_on_c, 2, 53, 0
3, 133560, Note_on_c, 2, 57, 49
3, 133679, Note_on_c, 2, 57, 0
3, 133680, Note_on_c, 2, 55, 49
3, 133799, Note_on_c, 2, 55, 0
3, 133800, Note_on_c, 2, 53, 49
3, 133919, Note_on_c, 2, 53, 0
3, 133920, Note_on_c, 2, 60, 49
3, 134039, Note_on_c, 2, 60, 0
3, 134040, Note_on_c, 2, 60, 49
3, 134159, Note_on_c, 2, 60, 0
3, 134160, Note_on_c, 2, 62, 49
3, 134279, Note_on_c, 2, 62, 0
3, 134280, Note_on_c, 2, 64, 49
3, 134399, Note_on_c, 2, 64, 0
3, 134400, Note_on_c, 2, 61, 49
3, 134519, Note_on_c, 2, 61, 0
3, 134520, Note_on_c, 2, 61, 49
3, 134639, Note_on_c, 2, 61, 0
3, 134640, Note_on_c, 2, 62, 49
3, 134759, Note_on_c, 2, 62, 0
3, 134760, Note_on_c, 2, 64, 49
3, 134879, Note_on_c, 2, 64, 0
3, 134880, Note_on_c, 2, 57, 49
3, 134999, Note_on_c, 2, 57, 0
3, 135000, Note_on_c, 2, 61, 49
3, 135119, Note_on_c, 2, 61, 0
3, 135120, Note_on_c, 2, 59, 49
3, 135239, Note_on_c, 2, 59, 0
3, 135240, Note_on_c, 2, 57, 49
3, 135359, Note_on_c, 2, 57, 0
3, 135360, Note_on_c, 2, 62, 49
3, 135599, Note_on_c, 2, 62, 0
3, 135600, Note_on_c, 2, 57, 49
3, 135839, Note_on_c, 2, 57, 0
3, 135840, Note_on_c, 2, 58, 49
3, 136079, Note_on_c, 2, 58, 0
3, 136080, Note_on_c, 2, 55, 49
3, 136319, Note_on_c, 2, 55, 0
3, 136320, Note_on_c, 2, 57, 49
3, 136559, Note_on_c, 2, 57, 0
3, 136560, Note_on_c, 2, 45, 49
3, 136799, Note_on_c, 2, 45, 0
3, 136800, Note_on_c, 2, 50, 49
3, 138239, Note_on_c, 2, 50, 0
3, 138240, Note_on_c, 2, 62, 49
3, 138479, Note_on_c, 2, 62, 0
3, 138480, Note_on_c, 2, 50, 49
3, 138959, Note_on_c, 2, 50, 0
3, 138960, Note_on_c, 2, 53, 49
3, 139439, Note_on_c, 2, 53, 0
3, 139440, Note_on_c, 2, 50, 49
3, 139679, Note_on_c, 2, 50, 0
3, 139680, Note_on_c, 2, 57, 49
3, 139919, Note_on_c, 2, 57, 0
3, 139920, Note_on_c, 2, 45, 49
3, 140399, Note_on_c, 2, 45, 0
3, 140400, Note_on_c, 2, 49, 49
3, 140879, Note_on_c, 2, 49, 0
3, 140880, Note_on_c, 2, 45, 49
3, 141119, Note_on_c, 2, 45, 0
3, 141120, Note_on_c, 2, 62, 49
3, 141359, Note_on_c, 2, 62, 0
3, 141360, Note_on_c, 2, 50, 49
3, 141839, Note_on_c, 2, 50, 0
3, 141840, Note_on_c, 2, 53, 49
3, 142319, Note_on_c, 2, 53, 0
3, 142320, Note_on_c, 2, 50, 49
3, 142559, Note_on_c, 2, 50, 0
3, 142560, Note_on_c, 2, 60, 49
3, 142799, Note_on_c, 2, 60, 0
3, 142800, Note_on_c, 2, 48, 49
3, 143279, Note_on_c, 2, 48, 0
3, 143280, Note_on_c, 2, 52, 49
3, 143759, Note_on_c, 2, 52, 0
3, 143760, Note_on_c, 2, 48, 49
3, 143999, Note_on_c, 2, 48, 0
3, 144000, Note_on_c, 2, 41, 49
3, 144239, Note_on_c, 2, 41, 0
3, 144240, Note_on_c, 2, 53, 49
3, 144719, Note_on_c, 2, 53, 0
3, 144720, Note_on_c, 2, 57, 49
3, 145199, Note_on_c, 2, 57, 0
3, 145200, Note_on_c, 2, 53, 49
3, 145439, Note_on_c, 2, 53, 0
3, 145440, Note_on_c, 2, 60, 49
3, 145679, Note_on_c, 2, 60, 0
3, 145680, Note_on_c, 2, 48, 49
3, 146159, Note_on_c, 2, 48, 0
3, 146160, Note_on_c, 2, 52, 49
3, 146639, Note_on_c, 2, 52, 0
3, 146640, Note_on_c, 2, 49, 49
3, 146879, Note_on_c, 2, 49, 0
3, 146880, Note_on_c, 2, 50, 49
3, 147119, Note_on_c, 2, 50, 0
3, 147120, Note_on_c, 2, 62, 49
3, 147599, Note_on_c, 2, 62, 0
3, 147600, Note_on_c, 2, 65, 49
3, 148079, Note_on_c, 2, 65, 0
3, 148080, Note_on_c, 2, 62, 49
3, 148319, Note_on_c, 2, 62, 0
3, 148320, Note_on_c, 2, 57, 49
3, 148559, Note_on_c, 2, 57, 0
3, 148560, Note_on_c, 2, 45, 49
3, 149039, Note_on_c, 2, 45, 0
3, 149040, Note_on_c, 2, 49, 49
3, 149519, Note_on_c, 2, 49, 0
3, 149520, Note_on_c, 2, 45, 49
3, 149759, Note_on_c, 2, 45, 0
3, 149760, Note_on_c, 2, 62, 49
3, 149999, Note_on_c, 2, 62, 0
3, 150000, Note_on_c, 2, 50, 49
3, 150479, Note_on_c, 2, 50, 0
3, 150480, Note_on_c, 2, 53, 49
3, 150959, Note_on_c, 2, 53, 0
3, 150960, Note_on_c, 2, 50, 49
3, 151199, Note_on_c, 2, 50, 0
3, 151200, Note_on_c, 2, 57, 49
3, 151439, Note_on_c, 2, 57, 0
3, 151440, Note_on_c, 2, 45, 49
3, 151919, Note_on_c, 2, 45, 0
3, 151920, Note_on_c, 2, 49, 49
3, 152399, Note_on_c, 2, 49, 0
3, 152400, Note_on_c, 2, 45, 49
3, 152639, Note_on_c, 2, 45, 0
3, 152640, Note_on_c, 2, 62, 49
3, 152879, Note_on_c, 2, 62, 0
3, 152880, Note_on_c, 2, 50, 49
3, 153359, Note_on_c, 2, 50, 0
3, 153360, Note_on_c, 2, 53, 49
3, 153839, Note_on_c, 2, 53, 0
3, 153840, Note_on_c, 2, 50, 49
3, 154079, Note_on_c, 2, 50, 0
3, 154080, Note_on_c, 2, 60, 49
3, 154319, Note_on_c, 2, 60, 0
3, 154320, Note_on_c, 2, 48, 49
3, 154799, Note_on_c, 2, 48, 0
3, 154800, Note_on_c, 2, 52, 49
3, 155279, Note_on_c, 2, 52, 0
3, 155280, Note_on_c, 2, 48, 49
3, 155519, Note_on_c, 2, 48, 0
3, 155520, Note_on_c, 2, 41, 49
3, 155759, Note_on_c, 2, 41, 0
3, 155760, Note_on_c, 2, 53, 49
3, 156239, Note_on_c, 2, 53, 0
3, 156240, Note_on_c, 2, 57, 49
3, 156719, Note_on_c, 2, 57, 0
3, 156720, Note_on_c, 2, 53, 49
3, 156959, Note_on_c, 2, 53, 0
3, 156960, Note_on_c, 2, 60, 49
3, 157199, Note_on_c, 2, 60, 0
3, 157200, Note_on_c, 2, 48, 49
3, 157679, Note_on_c, 2, 48, 0
3, 157680, Note_on_c, 2, 52, 49
3, 158159, Note_on_c, 2, 52, 0
3, 158160, Note_on_c, 2, 49, 49
3, 158399, Note_on_c, 2, 49, 0
3, 158400, Note_on_c, 2, 50, 49
3, 158639, Note_on_c, 2, 50, 0
3, 158640, Note_on_c, 2, 55, 49
3, 159119, Note_on_c, 2, 55, 0
3, 159120, Note_on_c, 2, 53, 49
3, 159239, Note_on_c, 2, 53, 0
3, 159240, Note_on_c, 2, 55, 49
3, 159359, Note_on_c, 2, 55, 0
3, 159360, Note_on_c, 2, 57, 49
3, 159599, Note_on_c, 2, 57, 0
3, 159600, Note_on_c, 2, 45, 49
3, 159839, Note_on_c, 2, 45, 0
3, 159840, Note_on_c, 2, 50, 49
3, 161279, Note_on_c, 2, 50, 0
3, 161280, Note_on_c, 2, 50, 49
3, 161759, Note_on_c, 2, 50, 0
3, 161760, Note_on_c, 2, 50, 49
3, 162479, Note_on_c, 2, 50, 0
3, 162480, Note_on_c, 2, 50, 49
3, 162719, Note_on_c, 2, 50, 0
3, 162720, Note_on_c, 2, 45, 49
3, 163199, Note_on_c, 2, 45, 0
3, 163200, Note_on_c, 2, 45, 49
3, 163919, Note_on_c, 2, 45, 0
3, 163920, Note_on_c, 2, 45, 49
3, 164159, Note_on_c, 2, 45, 0
3, 164160, Note_on_c, 2, 50, 49
3, 164639, Note_on_c, 2, 50, 0
3, 164640, Note_on_c, 2, 50, 49
3, 165359, Note_on_c, 2, 50, 0
3, 165360, Note_on_c, 2, 50, 49
3, 165599, Note_on_c, 2, 50, 0
3, 165600, Note_on_c, 2, 48, 49
3, 166079, Note_on_c, 2, 48, 0
3, 166080, Note_on_c, 2, 48, 49
3, 166799, Note_on_c, 2, 48, 0
3, 166800, Note_on_c, 2, 48, 49
3, 167039, Note_on_c, 2, 48, 0
3, 167040, Note_on_c, 2, 53, 49
3, 167519, Note_on_c, 2, 53, 0
3, 167520, Note_on_c, 2, 53, 49
3, 168239, Note_on_c, 2, 53, 0
3, 168240, Note_on_c, 2, 53, 49
3, 168479, Note_on_c, 2, 53, 0
3, 168480, Note_on_c, 2, 48, 49
3, 168959, Note_on_c, 2, 48, 0
3, 168960, Note_on_c, 2, 49, 49
3, 169679, Note_on_c, 2, 49, 0
3, 169680, Note_on_c, 2, 49, 49
3, 169919, Note_on_c, 2, 49, 0
3, 169920, Note_on_c, 2, 50, 49
3, 170399, Note_on_c, 2, 50, 0
3, 170400, Note_on_c, 2, 46, 49
3, 170879, Note_on_c, 2, 46, 0
3, 170880, Note_on_c, 2, 43, 49
3, 171359, Note_on_c, 2, 43, 0
3, 171360, Note_on_c, 2, 45, 49
3, 171839, Note_on_c, 2, 45, 0
3, 171840, Note_on_c, 2, 45, 49
3, 172559, Note_on_c, 2, 45, 0
3, 172560, Note_on_c, 2, 45, 49
3, 172799, Note_on_c, 2, 45, 0
3, 172800, Note_on_c, 2, 50, 49
3, 173279, Note_on_c, 2, 50, 0
3, 173280, Note_on_c, 2, 50, 49
3, 173999, Note_on_c, 2, 50, 0
3, 174000, Note_on_c, 2, 50, 49
3, 174239, Note_on_c, 2, 50, 0
3, 174240, Note_on_c, 2, 45, 49
3, 174719, Note_on_c, 2, 45, 0
3, 174720, Note_on_c, 2, 45, 49
3, 175439, Note_on_c, 2, 45, 0
3, 175440, Note_on_c, 2, 45, 49
3, 175679, Note_on_c, 2, 45, 0
3, 175680, Note_on_c, 2, 50, 49
3, 176159, Note_on_c, 2, 50, 0
3, 176160, Note_on_c, 2, 50, 49
3, 176879, Note_on_c, 2, 50, 0
3, 176880, Note_on_c, 2, 50, 49
3, 177119, Note_on_c, 2, 50, 0
3, 177120, Note_on_c, 2, 48, 49
3, 177599, Note_on_c, 2, 48, 0
3, 177600, Note_on_c, 2, 48, 49
3, 178319, Note_on_c, 2, 48, 0
3, 178320, Note_on_c, 2, 48, 49
3, 178559, Note_on_c, 2, 48, 0
3, 178560, Note_on_c, 2, 53, 49
3, 179039, Note_on_c, 2, 53, 0
3, 179040, Note_on_c, 2, 53, 49
3, 179759, Note_on_c, 2, 53, 0
3, 179760, Note_on_c, 2, 53, 49
3, 179999, Note_on_c, 2, 53, 0
3, 180000, Note_on_c, 2, 48, 49
3, 180479, Note_on_c, 2, 48, 0
3, 180480, Note_on_c, 2, 49, 49
3, 181199, Note_on_c, 2, 49, 0
3, 181200, Note_on_c, 2, 49, 49
3, 181439, Note_on_c, 2, 49, 0
3, 181440, Note_on_c, 2, 50, 49
3, 181679, Note_on_c, 2, 50, 0
3, 181680, Note_on_c, 2, 55, 49
3, 181919, Note_on_c, 2, 55, 0
3, 181920, Note_on_c, 2, 57, 49
3, 182399, Note_on_c, 2, 57, 0
3, 182400, Note_on_c, 2, 45, 49
3, 182879, Note_on_c, 2, 45, 0
3, 182880, Note_on_c, 2, 50, 49
3, 184319, Note_on_c, 2, 50, 0
3, 184320, Note_on_c, 2, 50, 49
3, 184559, Note_on_c, 2, 50, 0
3, 184560, Note_on_c, 2, 62, 49
3, 184799, Note_on_c, 2, 62, 0
3, 184800, Note_on_c, 2, 62, 49
3, 185039, Note_on_c, 2, 62, 0
3, 185040, Note_on_c, 2, 50, 49
3, 185279, Note_on_c, 2, 50, 0
3, 185280, Note_on_c, 2, 50, 49
3, 185519, Note_on_c, 2, 50, 0
3, 185520, Note_on_c, 2, 62, 49
3, 185759, Note_on_c, 2, 62, 0
3, 185760, Note_on_c, 2, 45, 49
3, 185999, Note_on_c, 2, 45, 0
3, 186000, Note_on_c, 2, 57, 49
3, 186239, Note_on_c, 2, 57, 0
3, 186240, Note_on_c, 2, 57, 49
3, 186479, Note_on_c, 2, 57, 0
3, 186480, Note_on_c, 2, 45, 49
3, 186719, Note_on_c, 2, 45, 0
3, 186720, Note_on_c, 2, 45, 49
3, 186959, Note_on_c, 2, 45, 0
3, 186960, Note_on_c, 2, 57, 49
3, 187199, Note_on_c, 2, 57, 0
3, 187200, Note_on_c, 2, 50, 49
3, 187439, Note_on_c, 2, 50, 0
3, 187440, Note_on_c, 2, 62, 49
3, 187679, Note_on_c, 2, 62, 0
3, 187680, Note_on_c, 2, 62, 49
3, 187919, Note_on_c, 2, 62, 0
3, 187920, Note_on_c, 2, 50, 49
3, 188159, Note_on_c, 2, 50, 0
3, 188160, Note_on_c, 2, 50, 49
3, 188399, Note_on_c, 2, 50, 0
3, 188400, Note_on_c, 2, 62, 49
3, 188639, Note_on_c, 2, 62, 0
3, 188640, Note_on_c, 2, 48, 49
3, 188879, Note_on_c, 2, 48, 0
3, 188880, Note_on_c, 2, 60, 49
3, 189119, Note_on_c, 2, 60, 0
3, 189120, Note_on_c, 2, 60, 49
3, 189359, Note_on_c, 2, 60, 0
3, 189360, Note_on_c, 2, 48, 49
3, 189599, Note_on_c, 2, 48, 0
3, 189600, Note_on_c, 2, 48, 49
3, 189839, Note_on_c, 2, 48, 0
3, 189840, Note_on_c, 2, 60, 49
3, 190079, Note_on_c, 2, 60, 0
3, 190080, Note_on_c, 2, 53, 49
3, 190319, Note_on_c, 2, 53, 0
3, 190320, Note_on_c, 2, 65, 49
3, 190559, Note_on_c, 2, 65, 0
3, 190560, Note_on_c, 2, 65, 49
3, 190799, Note_on_c, 2, 65, 0
3, 190800, Note_on_c, 2, 53, 49
3, 191039, Note_on_c, 2, 53, 0
3, 191040, Note_on_c, 2, 53, 49
3, 191279, Note_on_c, 2, 53, 0
3, 191280, Note_on_c, 2, 65, 49
3, 191519, Note_on_c, 2, 65, 0
3, 191520, Note_on_c, 2, 48, 49
3, 191759, Note_on_c, 2, 48, 0
3, 191760, Note_on_c, 2, 60, 49
3, 191999, Note_on_c, 2, 60, 0
3, 192000, Note_on_c, 2, 60, 49
3, 192239, Note_on_c, 2, 60, 0
3, 192240, Note_on_c, 2, 48, 49
3, 192479, Note_on_c, 2, 48, 0
3, 192480, Note_on_c, 2, 45, 49
3, 192719, Note_on_c, 2, 45, 0
3, 192720, Note_on_c, 2, 49, 49
3, 192959, Note_on_c, 2, 49, 0
3, 192960, Note_on_c, 2, 50, 49
3, 193199, Note_on_c, 2, 50, 0
3, 193200, Note_on_c, 2, 62, 49
3, 193439, Note_on_c, 2, 62, 0
3, 193440, Note_on_c, 2, 62, 49
3, 193679, Note_on_c, 2, 62, 0
3, 193680, Note_on_c, 2, 50, 49
3, 193919, Note_on_c, 2, 50, 0
3, 193920, Note_on_c, 2, 55, 49
3, 194159, Note_on_c, 2, 55, 0
3, 194160, Note_on_c, 2, 43, 49
3, 194399, Note_on_c, 2, 43, 0
3, 194400, Note_on_c, 2, 45, 49
3, 194639, Note_on_c, 2, 45, 0
3, 194640, Note_on_c, 2, 57, 49
3, 194879, Note_on_c, 2, 57, 0
3, 194880, Note_on_c, 2, 57, 49
3, 195119, Note_on_c, 2, 57, 0
3, 195120, Note_on_c, 2, 45, 49
3, 195359, Note_on_c, 2, 45, 0
3, 195360, Note_on_c, 2, 45, 49
3, 195599, Note_on_c, 2, 45, 0
3, 195600, Note_on_c, 2, 57, 49
3, 195839, Note_on_c, 2, 57, 0
3, 195840, Note_on_c, 2, 50, 49
3, 196079, Note_on_c, 2, 50, 0
3, 196080, Note_on_c, 2, 62, 49
3, 196319, Note_on_c, 2, 62, 0
3, 196320, Note_on_c, 2, 62, 49
3, 196559, Note_on_c, 2, 62, 0
3, 196560, Note_on_c, 2, 50, 49
3, 196799, Note_on_c, 2, 50, 0
3, 196800, Note_on_c, 2, 50, 49
3, 197039, Note_on_c, 2, 50, 0
3, 197040, Note_on_c, 2, 62, 49
3, 197279, Note_on_c, 2, 62, 0
3, 197280, Note_on_c, 2, 45, 49
3, 197519, Note_on_c, 2, 45, 0
3, 197520, Note_on_c, 2, 57, 49
3, 197759, Note_on_c, 2, 57, 0
3, 197760, Note_on_c, 2, 57, 49
3, 197999, Note_on_c, 2, 57, 0
3, 198000, Note_on_c, 2, 45, 49
3, 198239, Note_on_c, 2, 45, 0
3, 198240, Note_on_c, 2, 45, 49
3, 198479, Note_on_c, 2, 45, 0
3, 198480, Note_on_c, 2, 57, 49
3, 198719, Note_on_c, 2, 57, 0
3, 198720, Note_on_c, 2, 50, 49
3, 198959, Note_on_c, 2, 50, 0
3, 198960, Note_on_c, 2, 62, 49
3, 199199, Note_on_c, 2, 62, 0
3, 199200, Note_on_c, 2, 62, 49
3, 199439, Note_on_c, 2, 62, 0
3, 199440, Note_on_c, 2, 50, 49
3, 199679, Note_on_c, 2, 50, 0
3, 199680, Note_on_c, 2, 50, 49
3, 199919, Note_on_c, 2, 50, 0
3, 199920, Note_on_c, 2, 62, 49
3, 200159, Note_on_c, 2, 62, 0
3, 200160, Note_on_c, 2, 48, 49
3, 200399, Note_on_c, 2, 48, 0
3, 200400, Note_on_c, 2, 60, 49
3, 200639, Note_on_c, 2, 60, 0
3, 200640, Note_on_c, 2, 60, 49
3, 200879, Note_on_c, 2, 60, 0
3, 200880, Note_on_c, 2, 48, 49
3, 201119, Note_on_c, 2, 48, 0
3, 201120, Note_on_c, 2, 48, 49
3, 201359, Note_on_c, 2, 48, 0
3, 201360, Note_on_c, 2, 60, 49
3, 201599, Note_on_c, 2, 60, 0
3, 201600, Note_on_c, 2, 53, 49
3, 201839, Note_on_c, 2, 53, 0
3, 201840, Note_on_c, 2, 65, 49
3, 202079, Note_on_c, 2, 65, 0
3, 202080, Note_on_c, 2, 65, 49
3, 202319, Note_on_c, 2, 65, 0
3, 202320, Note_on_c, 2, 53, 49
3, 202559, Note_on_c, 2, 53, 0
3, 202560, Note_on_c, 2, 53, 49
3, 202799, Note_on_c, 2, 53, 0
3, 202800, Note_on_c, 2, 65, 49
3, 203039, Note_on_c, 2, 65, 0
3, 203040, Note_on_c, 2, 67, 49
3, 203279, Note_on_c, 2, 67, 0
3, 203280, Note_on_c, 2, 55, 49
3, 203519, Note_on_c, 2, 55, 0
3, 203520, Note_on_c, 2, 55, 49
3, 203759, Note_on_c, 2, 55, 0
3, 203760, Note_on_c, 2, 57, 49
3, 203999, Note_on_c, 2, 57, 0
3, 204000, Note_on_c, 2, 58, 49
3, 204239, Note_on_c, 2, 58, 0
3, 204240, Note_on_c, 2, 55, 49
3, 204479, Note_on_c, 2, 55, 0
3, 204480, Note_on_c, 2, 57, 49
3, 204719, Note_on_c, 2, 57, 0
3, 204720, Note_on_c, 2, 50, 49
3, 204959, Note_on_c, 2, 50, 0
3, 204960, Note_on_c, 2, 57, 49
3, 205199, Note_on_c, 2, 57, 0
3, 205200, Note_on_c, 2, 45, 49
3, 205439, Note_on_c, 2, 45, 0
3, 205440, Note_on_c, 2, 45, 49
3, 205679, Note_on_c, 2, 45, 0
3, 205680, Note_on_c, 2, 57, 49
3, 205919, Note_on_c, 2, 57, 0
3, 205920, Note_on_c, 2, 50, 49
3, 207359, Note_on_c, 2, 50, 0
3, 207360, Note_on_c, 2, 50, 49
3, 207839, Note_on_c, 2, 50, 0
3, 208320, Note_on_c, 2, 50, 49
3, 208799, Note_on_c, 2, 50, 0
3, 208800, Note_on_c, 2, 57, 49
3, 209279, Note_on_c, 2, 57, 0
3, 209760, Note_on_c, 2, 57, 49
3, 210239, Note_on_c, 2, 57, 0
3, 210240, Note_on_c, 2, 50, 49
3, 210719, Note_on_c, 2, 50, 0
3, 211200, Note_on_c, 2, 50, 49
3, 211679, Note_on_c, 2, 50, 0
3, 211680, Note_on_c, 2, 48, 49
3, 212159, Note_on_c, 2, 48, 0
3, 212640, Note_on_c, 2, 48, 49
3, 213119, Note_on_c, 2, 48, 0
3, 213120, Note_on_c, 2, 41, 49
3, 213599, Note_on_c, 2, 41, 0
3, 214080, Note_on_c, 2, 41, 49
3, 214559, Note_on_c, 2, 41, 0
3, 214560, Note_on_c, 2, 48, 49
3, 215039, Note_on_c, 2, 48, 0
3, 215520, Note_on_c, 2, 45, 49
3, 215999, Note_on_c, 2, 45, 0
3, 216000, Note_on_c, 2, 50, 49
3, 216479, Note_on_c, 2, 50, 0
3, 216960, Note_on_c, 2, 43, 49
3, 217439, Note_on_c, 2, 43, 0
3, 217440, Note_on_c, 2, 45, 49
3, 218879, Note_on_c, 2, 45, 0
3, 218880, Note_on_c, 2, 50, 49
3, 219359, Note_on_c, 2, 50, 0
3, 219840, Note_on_c, 2, 50, 49
3, 220319, Note_on_c, 2, 50, 0
3, 220320, Note_on_c, 2, 57, 49
3, 220799, Note_on_c, 2, 57, 0
3, 221280, Note_on_c, 2, 57, 49
3, 221759, Note_on_c, 2, 57, 0
3, 221760, Note_on_c, 2, 50, 49
3, 222239, Note_on_c, 2, 50, 0
3, 222720, Note_on_c, 2, 50, 49
3, 223199, Note_on_c, 2, 50, 0
3, 223200, Note_on_c, 2, 48, 49
3, 223679, Note_on_c, 2, 48, 0
3, 224160, Note_on_c, 2, 48, 49
3, 224639, Note_on_c, 2, 48, 0
3, 224640, Note_on_c, 2, 41, 49
3, 225119, Note_on_c, 2, 41, 0
3, 225600, Note_on_c, 2, 41, 49
3, 226079, Note_on_c, 2, 41, 0
3, 226080, Note_on_c, 2, 48, 49
3, 226559, Note_on_c, 2, 48, 0
3, 226560, Note_on_c, 2, 49, 49
3, 227519, Note_on_c, 2, 49, 0
3, 227520, Note_on_c, 2, 50, 49
3, 227759, Note_on_c, 2, 50, 0
3, 227760, Note_on_c, 2, 55, 49
3, 227999, Note_on_c, 2, 55, 0
3, 228000, Note_on_c, 2, 57, 49
3, 228479, Note_on_c, 2, 57, 0
3, 228480, Note_on_c, 2, 45, 49
3, 228959, Note_on_c, 2, 45, 0
3, 228960, Note_on_c, 2, 50, 49
3, 230399, Note_on_c, 2, 50, 0
3, 230400, Note_on_c, 2, 50, 49
3, 230639, Note_on_c, 2, 50, 0
3, 230640, Note_on_c, 2, 62, 49
3, 230879, Note_on_c, 2, 62, 0
3, 230880, Note_on_c, 2, 62, 49
3, 231119, Note_on_c, 2, 62, 0
3, 231120, Note_on_c, 2, 50, 49
3, 231359, Note_on_c, 2, 50, 0
3, 231360, Note_on_c, 2, 50, 49
3, 231839, Note_on_c, 2, 50, 0
3, 232080, Note_on_c, 2, 57, 49
3, 232319, Note_on_c, 2, 57, 0
3, 232320, Note_on_c, 2, 57, 49
3, 232559, Note_on_c, 2, 57, 0
3, 232560, Note_on_c, 2, 45, 49
3, 232799, Note_on_c, 2, 45, 0
3, 232800, Note_on_c, 2, 45, 49
3, 233039, Note_on_c, 2, 45, 0
3, 233040, Note_on_c, 2, 49, 49
3, 233279, Note_on_c, 2, 49, 0
3, 233280, Note_on_c, 2, 50, 49
3, 233519, Note_on_c, 2, 50, 0
3, 233520, Note_on_c, 2, 62, 49
3, 233759, Note_on_c, 2, 62, 0
3, 233760, Note_on_c, 2, 62, 49
3, 233999, Note_on_c, 2, 62, 0
3, 234000, Note_on_c, 2, 50, 49
3, 234239, Note_on_c, 2, 50, 0
3, 234240, Note_on_c, 2, 50, 49
3, 234719, Note_on_c, 2, 50, 0
3, 234960, Note_on_c, 2, 60, 49
3, 235199, Note_on_c, 2, 60, 0
3, 235200, Note_on_c, 2, 60, 49
3, 235439, Note_on_c, 2, 60, 0
3, 235440, Note_on_c, 2, 48, 49
3, 235679, Note_on_c, 2, 48, 0
3, 235680, Note_on_c, 2, 48, 49
3, 235919, Note_on_c, 2, 48, 0
3, 235920, Note_on_c, 2, 52, 49
3, 236159, Note_on_c, 2, 52, 0
3, 236160, Note_on_c, 2, 53, 49
3, 236399, Note_on_c, 2, 53, 0
3, 236400, Note_on_c, 2, 65, 49
3, 236639, Note_on_c, 2, 65, 0
3, 236640, Note_on_c, 2, 65, 49
3, 236879, Note_on_c, 2, 65, 0
3, 236880, Note_on_c, 2, 53, 49
3, 237119, Note_on_c, 2, 53, 0
3, 237120, Note_on_c, 2, 53, 49
3, 237599, Note_on_c, 2, 53, 0
3, 237840, Note_on_c, 2, 60, 49
3, 238079, Note_on_c, 2, 60, 0
3, 238080, Note_on_c, 2, 60, 49
3, 238319, Note_on_c, 2, 60, 0
3, 238320, Note_on_c, 2, 48, 49
3, 238559, Note_on_c, 2, 48, 0
3, 238560, Note_on_c, 2, 45, 49
3, 238799, Note_on_c, 2, 45, 0
3, 238800, Note_on_c, 2, 49, 49
3, 239039, Note_on_c, 2, 49, 0
3, 239040, Note_on_c, 2, 50, 49
3, 239279, Note_on_c, 2, 50, 0
3, 239280, Note_on_c, 2, 62, 49
3, 239519, Note_on_c, 2, 62, 0
3, 239520, Note_on_c, 2, 62, 49
3, 239759, Note_on_c, 2, 62, 0
3, 239760, Note_on_c, 2, 50, 49
3, 239999, Note_on_c, 2, 50, 0
3, 240000, Note_on_c, 2, 55, 49
3, 240239, Note_on_c, 2, 55, 0
3, 240240, Note_on_c, 2, 43, 49
3, 240479, Note_on_c, 2, 43, 0
3, 240480, Note_on_c, 2, 45, 49
3, 240719, Note_on_c, 2, 45, 0
3, 240720, Note_on_c, 2, 57, 49
3, 240959, Note_on_c, 2, 57, 0
3, 240960, Note_on_c, 2, 57, 49
3, 241199, Note_on_c, 2, 57, 0
3, 241200, Note_on_c, 2, 45, 49
3, 241439, Note_on_c, 2, 45, 0
3, 241440, Note_on_c, 2, 45, 49
3, 241679, Note_on_c, 2, 45, 0
3, 241680, Note_on_c, 2, 49, 49
3, 241919, Note_on_c, 2, 49, 0
3, 241920, Note_on_c, 2, 50, 49
3, 242159, Note_on_c, 2, 50, 0
3, 242160, Note_on_c, 2, 62, 49
3, 242399, Note_on_c, 2, 62, 0
3, 242400, Note_on_c, 2, 62, 49
3, 242639, Note_on_c, 2, 62, 0
3, 242640, Note_on_c, 2, 50, 49
3, 242879, Note_on_c, 2, 50, 0
3, 242880, Note_on_c, 2, 50, 49
3, 243359, Note_on_c, 2, 50, 0
3, 243600, Note_on_c, 2, 57, 49
3, 243839, Note_on_c, 2, 57, 0
3, 243840, Note_on_c, 2, 57, 49
3, 244079, Note_on_c, 2, 57, 0
3, 244080, Note_on_c, 2, 45, 49
3, 244319, Note_on_c, 2, 45, 0
3, 244320, Note_on_c, 2, 45, 49
3, 244559, Note_on_c, 2, 45, 0
3, 244560, Note_on_c, 2, 49, 49
3, 244799, Note_on_c, 2, 49, 0
3, 244800, Note_on_c, 2, 50, 49
3, 245039, Note_on_c, 2, 50, 0
3, 245040, Note_on_c, 2, 62, 49
3, 245279, Note_on_c, 2, 62, 0
3, 245280, Note_on_c, 2, 62, 49
3, 245519, Note_on_c, 2, 62, 0
3, 245520, Note_on_c, 2, 50, 49
3, 245759, Note_on_c, 2, 50, 0
3, 245760, Note_on_c, 2, 50, 49
3, 246239, Note_on_c, 2, 50, 0
3, 246480, Note_on_c, 2, 60, 49
3, 246719, Note_on_c, 2, 60, 0
3, 246720, Note_on_c, 2, 60, 49
3, 246959, Note_on_c, 2, 60, 0
3, 246960, Note_on_c, 2, 48, 49
3, 247199, Note_on_c, 2, 48, 0
3, 247200, Note_on_c, 2, 48, 49
3, 247439, Note_on_c, 2, 48, 0
3, 247440, Note_on_c, 2, 52, 49
3, 247679, Note_on_c, 2, 52, 0
3, 247680, Note_on_c, 2, 53, 49
3, 247919, Note_on_c, 2, 53, 0
3, 247920, Note_on_c, 2, 65, 49
3, 248159, Note_on_c, 2, 65, 0
3, 248160, Note_on_c, 2, 65, 49
3, 248399, Note_on_c, 2, 65, 0
3, 248400, Note_on_c, 2, 53, 49
3, 248639, Note_on_c, 2, 53, 0
3, 248640, Note_on_c, 2, 53, 49
3, 249119, Note_on_c, 2, 53, 0
3, 249360, Note_on_c, 2, 60, 49
3, 249599, Note_on_c, 2, 60, 0
3, 249600, Note_on_c, 2, 60, 49
3, 249839, Note_on_c, 2, 60, 0
3, 249840, Note_on_c, 2, 48, 49
3, 250079, Note_on_c, 2, 48, 0
3, 250080, Note_on_c, 2, 45, 49
3, 250319, Note_on_c, 2, 45, 0
3, 250320, Note_on_c, 2, 49, 49
3, 250559, Note_on_c, 2, 49, 0
3, 250560, Note_on_c, 2, 50, 49
3, 251039, Note_on_c, 2, 50, 0
3, 251040, Note_on_c, 2, 57, 49
3, 251519, Note_on_c, 2, 57, 0
3, 251520, Note_on_c, 2, 45, 49
3, 251999, Note_on_c, 2, 45, 0
3, 252000, Note_on_c, 2, 50, 49
3, 253439, Note_on_c, 2, 50, 0
3, 253440, Note_on_c, 2, 50, 49
3, 254399, Note_on_c, 2, 50, 0
3, 254400, Note_on_c, 2, 43, 49
3, 254879, Note_on_c, 2, 43, 0
3, 254880, Note_on_c, 2, 45, 49
3, 255839, Note_on_c, 2, 45, 0
3, 255840, Note_on_c, 2, 45, 49
3, 256319, Note_on_c, 2, 45, 0
3, 256320, Note_on_c, 2, 50, 49
3, 257279, Note_on_c, 2, 50, 0
3, 257280, Note_on_c, 2, 50, 49
3, 257759, Note_on_c, 2, 50, 0
3, 257760, Note_on_c, 2, 48, 49
3, 258719, Note_on_c, 2, 48, 0
3, 258720, Note_on_c, 2, 48, 49
3, 259199, Note_on_c, 2, 48, 0
3, 259200, Note_on_c, 2, 53, 49
3, 259679, Note_on_c, 2, 53, 0
3, 259680, Note_on_c, 2, 46, 49
3, 260639, Note_on_c, 2, 46, 0
3, 260640, Note_on_c, 2, 48, 49
3, 261119, Note_on_c, 2, 48, 0
3, 261120, Note_on_c, 2, 45, 49
3, 262079, Note_on_c, 2, 45, 0
3, 262080, Note_on_c, 2, 46, 49
3, 262559, Note_on_c, 2, 46, 0
3, 262560, Note_on_c, 2, 43, 49
3, 263519, Note_on_c, 2, 43, 0
3, 263520, Note_on_c, 2, 45, 49
3, 264959, Note_on_c, 2, 45, 0
3, 264960, Note_on_c, 2, 50, 49
3, 265919, Note_on_c, 2, 50, 0
3, 265920, Note_on_c, 2, 43, 49
3, 266399, Note_on_c, 2, 43, 0
3, 266400, Note_on_c, 2, 45, 49
3, 267359, Note_on_c, 2, 45, 0
3, 267360, Note_on_c, 2, 45, 49
3, 267839, Note_on_c, 2, 45, 0
3, 267840, Note_on_c, 2, 50, 49
3, 268799, Note_on_c, 2, 50, 0
3, 268800, Note_on_c, 2, 50, 49
3, 269279, Note_on_c, 2, 50, 0
3, 269280, Note_on_c, 2, 48, 49
3, 270239, Note_on_c, 2, 48, 0
3, 270240, Note_on_c, 2, 48, 49
3, 270719, Note_on_c, 2, 48, 0
3, 270720, Note_on_c, 2, 53, 49
3, 271199, Note_on_c, 2, 53, 0
3, 271200, Note_on_c, 2, 55, 49
3, 272159, Note_on_c, 2, 55, 0
3, 272160, Note_on_c, 2, 57, 49
3, 272879, Note_on_c, 2, 57, 0
3, 272880, Note_on_c, 2, 55, 49
3, 273119, Note_on_c, 2, 55, 0
3, 273120, Note_on_c, 2, 53, 49
3, 273359, Note_on_c, 2, 53, 0
3, 273360, Note_on_c, 2, 52, 49
3, 273599, Note_on_c, 2, 52, 0
3, 273600, Note_on_c, 2, 50, 49
3, 273839, Note_on_c, 2, 50, 0
3, 273840, Note_on_c, 2, 55, 49
3, 274079, Note_on_c, 2, 55, 0
3, 274080, Note_on_c, 2, 57, 49
3, 274559, Note_on_c, 2, 57, 0
3, 274560, Note_on_c, 2, 45, 49
3, 275039, Note_on_c, 2, 45, 0
3, 275040, Note_on_c, 2, 50, 49
3, 276479, Note_on_c, 2, 50, 0
3, 276480, Note_on_c, 2, 62, 49
3, 277199, Note_on_c, 2, 62, 0
3, 277200, Note_on_c, 2, 50, 49
3, 277919, Note_on_c, 2, 50, 0
3, 278640, Note_on_c, 2, 57, 49
3, 279359, Note_on_c, 2, 57, 0
3, 279360, Note_on_c, 2, 45, 49
3, 280079, Note_on_c, 2, 45, 0
3, 280800, Note_on_c, 2, 62, 49
3, 281519, Note_on_c, 2, 62, 0
3, 281520, Note_on_c, 2, 50, 49
3, 282239, Note_on_c, 2, 50, 0
3, 282960, Note_on_c, 2, 60, 49
3, 283679, Note_on_c, 2, 60, 0
3, 283680, Note_on_c, 2, 48, 49
3, 284399, Note_on_c, 2, 48, 0
3, 285120, Note_on_c, 2, 53, 49
3, 285839, Note_on_c, 2, 53, 0
3, 285840, Note_on_c, 2, 41, 49
3, 286559, Note_on_c, 2, 41, 0
3, 287280, Note_on_c, 2, 48, 49
3, 287999, Note_on_c, 2, 48, 0
3, 288000, Note_on_c, 2, 49, 49
3, 288719, Note_on_c, 2, 49, 0
3, 288720, Note_on_c, 2, 45, 49
3, 289439, Note_on_c, 2, 45, 0
3, 289440, Note_on_c, 2, 50, 49
3, 290159, Note_on_c, 2, 50, 0
3, 290160, Note_on_c, 2, 46, 49
3, 290879, Note_on_c, 2, 46, 0
3, 290880, Note_on_c, 2, 43, 49
3, 291599, Note_on_c, 2, 43, 0
3, 291600, Note_on_c, 2, 45, 49
3, 292319, Note_on_c, 2, 45, 0
3, 292320, Note_on_c, 2, 57, 49
3, 293039, Note_on_c, 2, 57, 0
3, 293760, Note_on_c, 2, 50, 49
3, 294479, Note_on_c, 2, 50, 0
3, 294480, Note_on_c, 2, 62, 49
3, 295199, Note_on_c, 2, 62, 0
3, 295920, Note_on_c, 2, 45, 49
3, 296639, Note_on_c, 2, 45, 0
3, 296640, Note_on_c, 2, 57, 49
3, 297359, Note_on_c, 2, 57, 0
3, 298080, Note_on_c, 2, 50, 49
3, 298799, Note_on_c, 2, 50, 0
3, 298800, Note_on_c, 2, 62, 49
3, 299519, Note_on_c, 2, 62, 0
3, 300240, Note_on_c, 2, 48, 49
3, 300959, Note_on_c, 2, 48, 0
3, 300960, Note_on_c, 2, 60, 49
3, 301679, Note_on_c, 2, 60, 0
3, 302400, Note_on_c, 2, 41, 49
3, 303119, Note_on_c, 2, 41, 0
3, 303120, Note_on_c, 2, 53, 49
3, 303839, Note_on_c, 2, 53, 0
3, 304560, Note_on_c, 2, 48, 49
3, 305279, Note_on_c, 2, 48, 0
3, 305280, Note_on_c, 2, 49, 49
3, 305999, Note_on_c, 2, 49, 0
3, 306000, Note_on_c, 2, 45, 49
3, 306719, Note_on_c, 2, 45, 0
3, 306720, Note_on_c, 2, 50, 49
3, 307199, Note_on_c, 2, 50, 0
3, 307200, Note_on_c, 2, 55, 49
3, 307439, Note_on_c, 2, 55, 0
3, 307440, Note_on_c, 2, 57, 49
3, 308159, Note_on_c, 2, 57, 0
3, 308160, Note_on_c, 2, 45, 49
3, 308879, Note_on_c, 2, 45, 0
3, 308880, Note_on_c, 2, 50, 49
3, 311039, Note_on_c, 2, 50, 0
3, 311040, Note_on_c, 2, 62, 49
3, 311279, Note_on_c, 2, 62, 0
3, 311280, Note_on_c, 2, 50, 49
3, 311519, Note_on_c, 2, 50, 0
3, 311520, Note_on_c, 2, 52, 49
3, 311759, Note_on_c, 2, 52, 0
3, 311760, Note_on_c, 2, 53, 49
3, 311999, Note_on_c, 2, 53, 0
3, 312000, Note_on_c, 2, 55, 49
3, 312239, Note_on_c, 2, 55, 0
3, 312240, Note_on_c, 2, 57, 49
3, 312479, Note_on_c, 2, 57, 0
3, 312480, Note_on_c, 2, 53, 49
3, 312719, Note_on_c, 2, 53, 0
3, 312720, Note_on_c, 2, 52, 49
3, 312959, Note_on_c, 2, 52, 0
3, 312960, Note_on_c, 2, 50, 49
3, 313199, Note_on_c, 2, 50, 0
3, 313200, Note_on_c, 2, 57, 49
3, 313439, Note_on_c, 2, 57, 0
3, 313440, Note_on_c, 2, 45, 49
3, 313679, Note_on_c, 2, 45, 0
3, 313680, Note_on_c, 2, 47, 49
3, 313919, Note_on_c, 2, 47, 0
3, 313920, Note_on_c, 2, 49, 49
3, 314159, Note_on_c, 2, 49, 0
3, 314160, Note_on_c, 2, 50, 49
3, 314399, Note_on_c, 2, 50, 0
3, 314400, Note_on_c, 2, 52, 49
3, 314639, Note_on_c, 2, 52, 0
3, 314640, Note_on_c, 2, 49, 49
3, 314879, Note_on_c, 2, 49, 0
3, 314880, Note_on_c, 2, 47, 49
3, 315119, Note_on_c, 2, 47, 0
3, 315120, Note_on_c, 2, 45, 49
3, 315359, Note_on_c, 2, 45, 0
3, 315360, Note_on_c, 2, 62, 49
3, 315599, Note_on_c, 2, 62, 0
3, 315600, Note_on_c, 2, 50, 49
3, 315839, Note_on_c, 2, 50, 0
3, 315840, Note_on_c, 2, 52, 49
3, 316079, Note_on_c, 2, 52, 0
3, 316080, Note_on_c, 2, 53, 49
3, 316319, Note_on_c, 2, 53, 0
3, 316320, Note_on_c, 2, 55, 49
3, 316559, Note_on_c, 2, 55, 0
3, 316560, Note_on_c, 2, 57, 49
3, 316799, Note_on_c, 2, 57, 0
3, 316800, Note_on_c, 2, 53, 49
3, 317039, Note_on_c, 2, 53, 0
3, 317040, Note_on_c, 2, 52, 49
3, 317279, Note_on_c, 2, 52, 0
3, 317280, Note_on_c, 2, 50, 49
3, 317519, Note_on_c, 2, 50, 0
3, 317520, Note_on_c, 2, 60, 49
3, 317759, Note_on_c, 2, 60, 0
3, 317760, Note_on_c, 2, 48, 49
3, 317999, Note_on_c, 2, 48, 0
3, 318000, Note_on_c, 2, 50, 49
3, 318239, Note_on_c, 2, 50, 0
3, 318240, Note_on_c, 2, 52, 49
3, 318479, Note_on_c, 2, 52, 0
3, 318480, Note_on_c, 2, 53, 49
3, 318719, Note_on_c, 2, 53, 0
3, 318720, Note_on_c, 2, 55, 49
3, 318959, Note_on_c, 2, 55, 0
3, 318960, Note_on_c, 2, 52, 49
3, 319199, Note_on_c, 2, 52, 0
3, 319200, Note_on_c, 2, 50, 49
3, 319439, Note_on_c, 2, 50, 0
3, 319440, Note_on_c, 2, 48, 49
3, 319679, Note_on_c, 2, 48, 0
3, 319680, Note_on_c, 2, 65, 49
3, 319919, Note_on_c, 2, 65, 0
3, 319920, Note_on_c, 2, 53, 49
3, 320159, Note_on_c, 2, 53, 0
3, 320160, Note_on_c, 2, 55, 49
3, 320399, Note_on_c, 2, 55, 0
3, 320400, Note_on_c, 2, 57, 49
3, 320639, Note_on_c, 2, 57, 0
3, 320640, Note_on_c, 2, 58, 49
3, 320879, Note_on_c, 2, 58, 0
3, 320880, Note_on_c, 2, 60, 49
3, 321119, Note_on_c, 2, 60, 0
3, 321120, Note_on_c, 2, 57, 49
3, 321359, Note_on_c, 2, 57, 0
3, 321360, Note_on_c, 2, 55, 49
3, 321599, Note_on_c, 2, 55, 0
3, 321600, Note_on_c, 2, 53, 49
3, 321839, Note_on_c, 2, 53, 0
3, 321840, Note_on_c, 2, 60, 49
3, 322079, Note_on_c, 2, 60, 0
3, 322080, Note_on_c, 2, 48, 49
3, 322319, Note_on_c, 2, 48, 0
3, 322320, Note_on_c, 2, 50, 49
3, 322559, Note_on_c, 2, 50, 0
3, 322560, Note_on_c, 2, 52, 49
3, 322799, Note_on_c, 2, 52, 0
3, 322800, Note_on_c, 2, 53, 49
3, 323039, Note_on_c, 2, 53, 0
3, 323040, Note_on_c, 2, 55, 49
3, 323279, Note_on_c, 2, 55, 0
3, 323280, Note_on_c, 2, 52, 49
3, 323519, Note_on_c, 2, 52, 0
3, 323520, Note_on_c, 2, 50, 49
3, 323759, Note_on_c, 2, 50, 0
3, 323760, Note_on_c, 2, 48, 49
3, 323999, Note_on_c, 2, 48, 0
3, 324000, Note_on_c, 2, 62, 49
3, 324239, Note_on_c, 2, 62, 0
3, 324240, Note_on_c, 2, 50, 49
3, 324479, Note_on_c, 2, 50, 0
3, 324480, Note_on_c, 2, 52, 49
3, 324719, Note_on_c, 2, 52, 0
3, 324720, Note_on_c, 2, 53, 49
3, 324959, Note_on_c, 2, 53, 0
3, 324960, Note_on_c, 2, 55, 49
3, 325199, Note_on_c, 2, 55, 0
3, 325200, Note_on_c, 2, 57, 49
3, 325439, Note_on_c, 2, 57, 0
3, 325440, Note_on_c, 2, 53, 49
3, 325679, Note_on_c, 2, 53, 0
3, 325680, Note_on_c, 2, 52, 49
3, 325919, Note_on_c, 2, 52, 0
3, 325920, Note_on_c, 2, 50, 49
3, 326159, Note_on_c, 2, 50, 0
3, 326160, Note_on_c, 2, 57, 49
3, 326399, Note_on_c, 2, 57, 0
3, 326400, Note_on_c, 2, 45, 49
3, 326639, Note_on_c, 2, 45, 0
3, 326640, Note_on_c, 2, 47, 49
3, 326879, Note_on_c, 2, 47, 0
3, 326880, Note_on_c, 2, 49, 49
3, 327119, Note_on_c, 2, 49, 0
3, 327120, Note_on_c, 2, 50, 49
3, 327359, Note_on_c, 2, 50, 0
3, 327360, Note_on_c, 2, 52, 49
3, 327599, Note_on_c, 2, 52, 0
3, 327600, Note_on_c, 2, 49, 49
3, 327839, Note_on_c, 2, 49, 0
3, 327840, Note_on_c, 2, 47, 49
3, 328079, Note_on_c, 2, 47, 0
3, 328080, Note_on_c, 2, 45, 49
3, 328319, Note_on_c, 2, 45, 0
3, 328320, Note_on_c, 2, 62, 49
3, 328559, Note_on_c, 2, 62, 0
3, 328560, Note_on_c, 2, 50, 49
3, 328799, Note_on_c, 2, 50, 0
3, 328800, Note_on_c, 2, 52, 49
3, 329039, Note_on_c, 2, 52, 0
3, 329040, Note_on_c, 2, 53, 49
3, 329279, Note_on_c, 2, 53, 0
3, 329280, Note_on_c, 2, 55, 49
3, 329519, Note_on_c, 2, 55, 0
3, 329520, Note_on_c, 2, 57, 49
3, 329759, Note_on_c, 2, 57, 0
3, 329760, Note_on_c, 2, 53, 49
3, 329999, Note_on_c, 2, 53, 0
3, 330000, Note_on_c, 2, 52, 49
3, 330239, Note_on_c, 2, 52, 0
3, 330240, Note_on_c, 2, 50, 49
3, 330479, Note_on_c, 2, 50, 0
3, 330480, Note_on_c, 2, 57, 49
3, 330719, Note_on_c, 2, 57, 0
3, 330720, Note_on_c, 2, 45, 49
3, 330959, Note_on_c, 2, 45, 0
3, 330960, Note_on_c, 2, 47, 49
3, 331199, Note_on_c, 2, 47, 0
3, 331200, Note_on_c, 2, 49, 49
3, 331439, Note_on_c, 2, 49, 0
3, 331440, Note_on_c, 2, 50, 49
3, 331679, Note_on_c, 2, 50, 0
3, 331680, Note_on_c, 2, 52, 49
3, 331919, Note_on_c, 2, 52, 0
3, 331920, Note_on_c, 2, 49, 49
3, 332159, Note_on_c, 2, 49, 0
3, 332160, Note_on_c, 2, 47, 49
3, 332399, Note_on_c, 2, 47, 0
3, 332400, Note_on_c, 2, 45, 49
3, 332639, Note_on_c, 2, 45, 0
3, 332640, Note_on_c, 2, 62, 49
3, 332879, Note_on_c, 2, 62, 0
3, 332880, Note_on_c, 2, 50, 49
3, 333119, Note_on_c, 2, 50, 0
3, 333120, Note_on_c, 2, 52, 49
3, 333359, Note_on_c, 2, 52, 0
3, 333360, Note_on_c, 2, 53, 49
3, 333599, Note_on_c, 2, 53, 0
3, 333600, Note_on_c, 2, 55, 49
3, 333839, Note_on_c, 2, 55, 0
3, 333840, Note_on_c, 2, 57, 49
3, 334079, Note_on_c, 2, 57, 0
3, 334080, Note_on_c, 2, 53, 49
3, 334319, Note_on_c, 2, 53, 0
3, 334320, Note_on_c, 2, 52, 49
3, 334559, Note_on_c, 2, 52, 0
3, 334560, Note_on_c, 2, 50, 49
3, 334799, Note_on_c, 2, 50, 0
3, 334800, Note_on_c, 2, 60, 49
3, 335039, Note_on_c, 2, 60, 0
3, 335040, Note_on_c, 2, 48, 49
3, 335279, Note_on_c, 2, 48, 0
3, 335280, Note_on_c, 2, 50, 49
3, 335519, Note_on_c, 2, 50, 0
3, 335520, Note_on_c, 2, 52, 49
3, 335759, Note_on_c, 2, 52, 0
3, 335760, Note_on_c, 2, 53, 49
3, 335999, Note_on_c, 2, 53, 0
3, 336000, Note_on_c, 2, 55, 49
3, 336239, Note_on_c, 2, 55, 0
3, 336240, Note_on_c, 2, 52, 49
3, 336479, Note_on_c, 2, 52, 0
3, 336480, Note_on_c, 2, 50, 49
3, 336719, Note_on_c, 2, 50, 0
3, 336720, Note_on_c, 2, 48, 49
3, 336959, Note_on_c, 2, 48, 0
3, 336960, Note_on_c, 2, 65, 49
3, 337199, Note_on_c, 2, 65, 0
3, 337200, Note_on_c, 2, 53, 49
3, 337439, Note_on_c, 2, 53, 0
3, 337440, Note_on_c, 2, 55, 49
3, 337679, Note_on_c, 2, 55, 0
3, 337680, Note_on_c, 2, 57, 49
3, 337919, Note_on_c, 2, 57, 0
3, 337920, Note_on_c, 2, 58, 49
3, 338159, Note_on_c, 2, 58, 0
3, 338160, Note_on_c, 2, 60, 49
3, 338399, Note_on_c, 2, 60, 0
3, 338400, Note_on_c, 2, 57, 49
3, 338639, Note_on_c, 2, 57, 0
3, 338640, Note_on_c, 2, 55, 49
3, 338879, Note_on_c, 2, 55, 0
3, 338880, Note_on_c, 2, 53, 49
3, 339119, Note_on_c, 2, 53, 0
3, 339120, Note_on_c, 2, 60, 49
3, 339359, Note_on_c, 2, 60, 0
3, 339360, Note_on_c, 2, 48, 49
3, 339599, Note_on_c, 2, 48, 0
3, 339600, Note_on_c, 2, 50, 49
3, 339839, Note_on_c, 2, 50, 0
3, 339840, Note_on_c, 2, 52, 49
3, 340079, Note_on_c, 2, 52, 0
3, 340080, Note_on_c, 2, 53, 49
3, 340319, Note_on_c, 2, 53, 0
3, 340320, Note_on_c, 2, 55, 49
3, 340559, Note_on_c, 2, 55, 0
3, 340560, Note_on_c, 2, 45, 49
3, 340799, Note_on_c, 2, 45, 0
3, 340800, Note_on_c, 2, 47, 49
3, 341039, Note_on_c, 2, 47, 0
3, 341040, Note_on_c, 2, 49, 49
3, 341279, Note_on_c, 2, 49, 0
3, 341280, Note_on_c, 2, 50, 49
3, 341519, Note_on_c, 2, 50, 0
3, 341520, Note_on_c, 2, 52, 49
3, 341759, Note_on_c, 2, 52, 0
3, 341760, Note_on_c, 2, 53, 49
3, 341999, Note_on_c, 2, 53, 0
3, 342000, Note_on_c, 2, 55, 49
3, 342239, Note_on_c, 2, 55, 0
3, 342240, Note_on_c, 2, 57, 49
3, 342479, Note_on_c, 2, 57, 0
3, 342480, Note_on_c, 2, 58, 49
3, 342719, Note_on_c, 2, 58, 0
3, 342720, Note_on_c, 2, 57, 49
3, 343199, Note_on_c, 2, 57, 0
3, 343200, Note_on_c, 2, 45, 49
3, 343439, Note_on_c, 2, 45, 0
3, 343440, Note_on_c, 2, 50, 49
3, 345599, Note_on_c, 2, 50, 0
3, 345600, Note_on_c, 2, 50, 49
3, 346079, Note_on_c, 2, 50, 0
3, 346080, Note_on_c, 2, 50, 49
3, 346319, Note_on_c, 2, 50, 0
3, 346320, Note_on_c, 2, 50, 49
3, 346799, Note_on_c, 2, 50, 0
3, 346800, Note_on_c, 2, 50, 49
3, 347039, Note_on_c, 2, 50, 0
3, 347040, Note_on_c, 2, 45, 49
3, 347519, Note_on_c, 2, 45, 0
3, 347520, Note_on_c, 2, 45, 49
3, 347759, Note_on_c, 2, 45, 0
3, 347760, Note_on_c, 2, 45, 49
3, 348239, Note_on_c, 2, 45, 0
3, 348240, Note_on_c, 2, 45, 49
3, 348479, Note_on_c, 2, 45, 0
3, 348480, Note_on_c, 2, 50, 49
3, 348959, Note_on_c, 2, 50, 0
3, 348960, Note_on_c, 2, 50, 49
3, 349199, Note_on_c, 2, 50, 0
3, 349200, Note_on_c, 2, 50, 49
3, 349679, Note_on_c, 2, 50, 0
3, 349680, Note_on_c, 2, 50, 49
3, 349919, Note_on_c, 2, 50, 0
3, 349920, Note_on_c, 2, 48, 49
3, 350399, Note_on_c, 2, 48, 0
3, 350400, Note_on_c, 2, 48, 49
3, 350639, Note_on_c, 2, 48, 0
3, 350640, Note_on_c, 2, 48, 49
3, 351119, Note_on_c, 2, 48, 0
3, 351120, Note_on_c, 2, 48, 49
3, 351359, Note_on_c, 2, 48, 0
3, 351360, Note_on_c, 2, 53, 49
3, 351839, Note_on_c, 2, 53, 0
3, 351840, Note_on_c, 2, 53, 49
3, 352079, Note_on_c, 2, 53, 0
3, 352080, Note_on_c, 2, 53, 49
3, 352559, Note_on_c, 2, 53, 0
3, 352560, Note_on_c, 2, 53, 49
3, 352799, Note_on_c, 2, 53, 0
3, 352800, Note_on_c, 2, 48, 49
3, 353279, Note_on_c, 2, 48, 0
3, 353280, Note_on_c, 2, 49, 49
3, 353519, Note_on_c, 2, 49, 0
3, 353520, Note_on_c, 2, 49, 49
3, 353999, Note_on_c, 2, 49, 0
3, 354000, Note_on_c, 2, 45, 49
3, 354239, Note_on_c, 2, 45, 0
3, 354240, Note_on_c, 2, 50, 49
3, 354719, Note_on_c, 2, 50, 0
3, 354720, Note_on_c, 2, 50, 49
3, 354959, Note_on_c, 2, 50, 0
3, 354960, Note_on_c, 2, 43, 49
3, 355439, Note_on_c, 2, 43, 0
3, 355440, Note_on_c, 2, 43, 49
3, 355679, Note_on_c, 2, 43, 0
3, 355680, Note_on_c, 2, 45, 49
3, 356159, Note_on_c, 2, 45, 0
3, 356160, Note_on_c, 2, 45, 49
3, 356399, Note_on_c, 2, 45, 0
3, 356400, Note_on_c, 2, 45, 49
3, 356879, Note_on_c, 2, 45, 0
3, 356880, Note_on_c, 2, 45, 49
3, 357119, Note_on_c, 2, 45, 0
3, 357120, Note_on_c, 2, 50, 49
3, 357599, Note_on_c, 2, 50, 0
3, 357600, Note_on_c, 2, 50, 49
3, 357839, Note_on_c, 2, 50, 0
3, 357840, Note_on_c, 2, 50, 49
3, 358319, Note_on_c, 2, 50, 0
3, 358320, Note_on_c, 2, 50, 49
3, 358559, Note_on_c, 2, 50, 0
3, 358560, Note_on_c, 2, 45, 49
3, 359039, Note_on_c, 2, 45, 0
3, 359040, Note_on_c, 2, 45, 49
3, 359279, Note_on_c, 2, 45, 0
3, 359280, Note_on_c, 2, 45, 49
3, 359759, Note_on_c, 2, 45, 0
3, 359760, Note_on_c, 2, 45, 49
3, 359999, Note_on_c, 2, 45, 0
3, 360000, Note_on_c, 2, 50, 49
3, 360479, Note_on_c, 2, 50, 0
3, 360480, Note_on_c, 2, 50, 49
3, 360719, Note_on_c, 2, 50, 0
3, 360720, Note_on_c, 2, 50, 49
3, 361199, Note_on_c, 2, 50, 0
3, 361200, Note_on_c, 2, 50, 49
3, 361439, Note_on_c, 2, 50, 0
3, 361440, Note_on_c, 2, 48, 49
3, 361919, Note_on_c, 2, 48, 0
3, 361920, Note_on_c, 2, 48, 49
3, 362159, Note_on_c, 2, 48, 0
3, 362160, Note_on_c, 2, 48, 49
3, 362639, Note_on_c, 2, 48, 0
3, 362640, Note_on_c, 2, 48, 49
3, 362879, Note_on_c, 2, 48, 0
3, 362880, Note_on_c, 2, 53, 49
3, 363359, Note_on_c, 2, 53, 0
3, 363360, Note_on_c, 2, 53, 49
3, 363599, Note_on_c, 2, 53, 0
3, 363600, Note_on_c, 2, 53, 49
3, 364079, Note_on_c, 2, 53, 0
3, 364080, Note_on_c, 2, 53, 49
3, 364319, Note_on_c, 2, 53, 0
3, 364320, Note_on_c, 2, 48, 49
3, 364799, Note_on_c, 2, 48, 0
3, 364800, Note_on_c, 2, 48, 49
3, 365039, Note_on_c, 2, 48, 0
3, 365040, Note_on_c, 2, 49, 49
3, 365279, Note_on_c, 2, 49, 0
3, 365280, Note_on_c, 2, 50, 49
3, 365519, Note_on_c, 2, 50, 0
3, 365520, Note_on_c, 2, 52, 49
3, 365759, Note_on_c, 2, 52, 0
3, 365760, Note_on_c, 2, 50, 49
3, 366239, Note_on_c, 2, 50, 0
3, 366240, Note_on_c, 2, 55, 49
3, 366479, Note_on_c, 2, 55, 0
3, 366480, Note_on_c, 2, 57, 49
3, 366959, Note_on_c, 2, 57, 0
3, 366960, Note_on_c, 2, 45, 49
3, 367199, Note_on_c, 2, 45, 0
3, 367200, Note_on_c, 2, 50, 49
3, 368639, Note_on_c, 2, 50, 0
3, 368640, Note_on_c, 2, 50, 49
3, 369119, Note_on_c, 2, 50, 0
3, 369120, Note_on_c, 2, 50, 49
3, 369599, Note_on_c, 2, 50, 0
3, 369600, Note_on_c, 2, 50, 49
3, 370079, Note_on_c, 2, 50, 0
3, 370080, Note_on_c, 2, 45, 49
3, 370559, Note_on_c, 2, 45, 0
3, 370560, Note_on_c, 2, 45, 49
3, 371039, Note_on_c, 2, 45, 0
3, 371040, Note_on_c, 2, 45, 49
3, 371519, Note_on_c, 2, 45, 0
3, 371520, Note_on_c, 2, 50, 49
3, 371999, Note_on_c, 2, 50, 0
3, 372000, Note_on_c, 2, 50, 49
3, 372479, Note_on_c, 2, 50, 0
3, 372480, Note_on_c, 2, 50, 49
3, 372959, Note_on_c, 2, 50, 0
3, 372960, Note_on_c, 2, 48, 49
3, 373439, Note_on_c, 2, 48, 0
3, 373440, Note_on_c, 2, 48, 49
3, 373919, Note_on_c, 2, 48, 0
3, 373920, Note_on_c, 2, 48, 49
3, 374399, Note_on_c, 2, 48, 0
3, 374400, Note_on_c, 2, 53, 49
3, 374879, Note_on_c, 2, 53, 0
3, 374880, Note_on_c, 2, 53, 49
3, 375359, Note_on_c, 2, 53, 0
3, 375360, Note_on_c, 2, 53, 49
3, 375839, Note_on_c, 2, 53, 0
3, 375840, Note_on_c, 2, 48, 49
3, 376319, Note_on_c, 2, 48, 0
3, 376320, Note_on_c, 2, 48, 49
3, 376799, Note_on_c, 2, 48, 0
3, 376800, Note_on_c, 2, 49, 49
3, 377279, Note_on_c, 2, 49, 0
3, 377280, Note_on_c, 2, 50, 49
3, 377759, Note_on_c, 2, 50, 0
3, 377760, Note_on_c, 2, 46, 49
3, 378239, Note_on_c, 2, 46, 0
3, 378240, Note_on_c, 2, 43, 49
3, 378719, Note_on_c, 2, 43, 0
3, 378720, Note_on_c, 2, 45, 49
3, 379199, Note_on_c, 2, 45, 0
3, 379200, Note_on_c, 2, 45, 49
3, 379679, Note_on_c, 2, 45, 0
3, 379680, Note_on_c, 2, 45, 49
3, 380159, Note_on_c, 2, 45, 0
3, 380160, Note_on_c, 2, 50, 49
3, 380639, Note_on_c, 2, 50, 0
3, 380640, Note_on_c, 2, 50, 49
3, 381119, Note_on_c, 2, 50, 0
3, 381120, Note_on_c, 2, 50, 49
3, 381599, Note_on_c, 2, 50, 0
3, 381600, Note_on_c, 2, 45, 49
3, 382079, Note_on_c, 2, 45, 0
3, 382080, Note_on_c, 2, 45, 49
3, 382559, Note_on_c, 2, 45, 0
3, 382560, Note_on_c, 2, 45, 49
3, 383039, Note_on_c, 2, 45, 0
3, 383040, Note_on_c, 2, 50, 49
3, 383519, Note_on_c, 2, 50, 0
3, 383520, Note_on_c, 2, 50, 49
3, 383999, Note_on_c, 2, 50, 0
3, 384000, Note_on_c, 2, 50, 49
3, 384479, Note_on_c, 2, 50, 0
3, 384480, Note_on_c, 2, 48, 49
3, 384959, Note_on_c, 2, 48, 0
3, 384960, Note_on_c, 2, 48, 49
3, 385439, Note_on_c, 2, 48, 0
3, 385440, Note_on_c, 2, 48, 49
3, 385919, Note_on_c, 2, 48, 0
3, 385920, Note_on_c, 2, 53, 49
3, 386399, Note_on_c, 2, 53, 0
3, 386400, Note_on_c, 2, 53, 49
3, 386879, Note_on_c, 2, 53, 0
3, 386880, Note_on_c, 2, 53, 49
3, 387359, Note_on_c, 2, 53, 0
3, 387360, Note_on_c, 2, 48, 49
3, 387839, Note_on_c, 2, 48, 0
3, 387840, Note_on_c, 2, 48, 49
3, 388319, Note_on_c, 2, 48, 0
3, 388320, Note_on_c, 2, 49, 49
3, 388799, Note_on_c, 2, 49, 0
3, 388800, Note_on_c, 2, 50, 49
3, 389279, Note_on_c, 2, 50, 0
3, 389280, Note_on_c, 2, 57, 49
3, 389759, Note_on_c, 2, 57, 0
3, 389760, Note_on_c, 2, 45, 49
3, 390239, Note_on_c, 2, 45, 0
3, 390240, Note_on_c, 2, 50, 49
3, 391679, Note_on_c, 2, 50, 0
3, 391680, Note_on_c, 2, 62, 49
3, 391919, Note_on_c, 2, 62, 0
3, 391920, Note_on_c, 2, 50, 49
3, 392159, Note_on_c, 2, 50, 0
3, 392160, Note_on_c, 2, 50, 49
3, 392279, Note_on_c, 2, 50, 0
3, 392280, Note_on_c, 2, 52, 49
3, 392399, Note_on_c, 2, 52, 0
3, 392400, Note_on_c, 2, 53, 49
3, 392519, Note_on_c, 2, 53, 0
3, 392520, Note_on_c, 2, 55, 49
3, 392639, Note_on_c, 2, 55, 0
3, 392640, Note_on_c, 2, 57, 49
3, 392759, Note_on_c, 2, 57, 0
3, 392760, Note_on_c, 2, 59, 49
3, 392879, Note_on_c, 2, 59, 0
3, 392880, Note_on_c, 2, 61, 49
3, 392999, Note_on_c, 2, 61, 0
3, 393000, Note_on_c, 2, 62, 49
3, 393119, Note_on_c, 2, 62, 0
3, 393120, Note_on_c, 2, 57, 49
3, 393359, Note_on_c, 2, 57, 0
3, 393360, Note_on_c, 2, 45, 49
3, 393599, Note_on_c, 2, 45, 0
3, 393600, Note_on_c, 2, 45, 49
3, 393719, Note_on_c, 2, 45, 0
3, 393720, Note_on_c, 2, 49, 49
3, 393839, Note_on_c, 2, 49, 0
3, 393840, Note_on_c, 2, 51, 49
3, 393959, Note_on_c, 2, 51, 0
3, 393960, Note_on_c, 2, 52, 49
3, 394079, Note_on_c, 2, 52, 0
3, 394080, Note_on_c, 2, 53, 49
3, 394199, Note_on_c, 2, 53, 0
3, 394200, Note_on_c, 2, 55, 49
3, 394319, Note_on_c, 2, 55, 0
3, 394320, Note_on_c, 2, 57, 49
3, 394439, Note_on_c, 2, 57, 0
3, 394440, Note_on_c, 2, 58, 49
3, 394559, Note_on_c, 2, 58, 0
3, 394560, Note_on_c, 2, 50, 49
3, 394799, Note_on_c, 2, 50, 0
3, 394800, Note_on_c, 2, 38, 49
3, 395039, Note_on_c, 2, 38, 0
3, 395040, Note_on_c, 2, 50, 49
3, 395159, Note_on_c, 2, 50, 0
3, 395160, Note_on_c, 2, 52, 49
3, 395279, Note_on_c, 2, 52, 0
3, 395280, Note_on_c, 2, 53, 49
3, 395399, Note_on_c, 2, 53, 0
3, 395400, Note_on_c, 2, 55, 49
3, 395519, Note_on_c, 2, 55, 0
3, 395520, Note_on_c, 2, 57, 49
3, 395639, Note_on_c, 2, 57, 0
3, 395640, Note_on_c, 2, 58, 49
3, 395759, Note_on_c, 2, 58, 0
3, 395760, Note_on_c, 2, 60, 49
3, 395879, Note_on_c, 2, 60, 0
3, 395880, Note_on_c, 2, 62, 49
3, 395999, Note_on_c, 2, 62, 0
3, 396000, Note_on_c, 2, 60, 49
3, 396239, Note_on_c, 2, 60, 0
3, 396240, Note_on_c, 2, 48, 49
3, 396479, Note_on_c, 2, 48, 0
3, 396480, Note_on_c, 2, 48, 49
3, 396599, Note_on_c, 2, 48, 0
3, 396600, Note_on_c, 2, 50, 49
3, 396719, Note_on_c, 2, 50, 0
3, 396720, Note_on_c, 2, 52, 49
3, 396839, Note_on_c, 2, 52, 0
3, 396840, Note_on_c, 2, 53, 49
3, 396959, Note_on_c, 2, 53, 0
3, 396960, Note_on_c, 2, 55, 49
3, 397079, Note_on_c, 2, 55, 0
3, 397080, Note_on_c, 2, 57, 49
3, 397199, Note_on_c, 2, 57, 0
3, 397200, Note_on_c, 2, 58, 49
3, 397319, Note_on_c, 2, 58, 0
3, 397320, Note_on_c, 2, 60, 49
3, 397439, Note_on_c, 2, 60, 0
3, 397440, Note_on_c, 2, 53, 49
3, 397679, Note_on_c, 2, 53, 0
3, 397680, Note_on_c, 2, 41, 49
3, 397919, Note_on_c, 2, 41, 0
3, 397920, Note_on_c, 2, 53, 49
3, 398039, Note_on_c, 2, 53, 0
3, 398040, Note_on_c, 2, 55, 49
3, 398159, Note_on_c, 2, 55, 0
3, 398160, Note_on_c, 2, 57, 49
3, 398279, Note_on_c, 2, 57, 0
3, 398280, Note_on_c, 2, 58, 49
3, 398399, Note_on_c, 2, 58, 0
3, 398400, Note_on_c, 2, 60, 49
3, 398519, Note_on_c, 2, 60, 0
3, 398520, Note_on_c, 2, 62, 49
3, 398639, Note_on_c, 2, 62, 0
3, 398640, Note_on_c, 2, 64, 49
3, 398759, Note_on_c, 2, 64, 0
3, 398760, Note_on_c, 2, 65, 49
3, 398879, Note_on_c, 2, 65, 0
3, 398880, Note_on_c, 2, 60, 49
3, 399119, Note_on_c, 2, 60, 0
3, 399120, Note_on_c, 2, 48, 49
3, 399359, Note_on_c, 2, 48, 0
3, 399360, Note_on_c, 2, 49, 49
3, 399479, Note_on_c, 2, 49, 0
3, 399480, Note_on_c, 2, 50, 49
3, 399599, Note_on_c, 2, 50, 0
3, 399600, Note_on_c, 2, 52, 49
3, 399719, Note_on_c, 2, 52, 0
3, 399720, Note_on_c, 2, 53, 49
3, 399839, Note_on_c, 2, 53, 0
3, 399840, Note_on_c, 2, 55, 49
3, 399959, Note_on_c, 2, 55, 0
3, 399960, Note_on_c, 2, 57, 49
3, 400079, Note_on_c, 2, 57, 0
3, 400080, Note_on_c, 2, 59, 49
3, 400199, Note_on_c, 2, 59, 0
3, 400200, Note_on_c, 2, 61, 49
3, 400319, Note_on_c, 2, 61, 0
3, 400320, Note_on_c, 2, 62, 49
3, 400559, Note_on_c, 2, 62, 0
3, 400560, Note_on_c, 2, 50, 49
3, 400799, Note_on_c, 2, 50, 0
3, 400800, Note_on_c, 2, 43, 49
3, 400919, Note_on_c, 2, 43, 0
3, 400920, Note_on_c, 2, 45, 49
3, 401039, Note_on_c, 2, 45, 0
3, 401040, Note_on_c, 2, 46, 49
3, 401159, Note_on_c, 2, 46, 0
3, 401160, Note_on_c, 2, 48, 49
3, 401279, Note_on_c, 2, 48, 0
3, 401280, Note_on_c, 2, 50, 49
3, 401399, Note_on_c, 2, 50, 0
3, 401400, Note_on_c, 2, 52, 49
3, 401519, Note_on_c, 2, 52, 0
3, 401520, Note_on_c, 2, 53, 49
3, 401639, Note_on_c, 2, 53, 0
3, 401640, Note_on_c, 2, 55, 49
3, 401759, Note_on_c, 2, 55, 0
3, 401760, Note_on_c, 2, 45, 49
3, 402239, Note_on_c, 2, 45, 0
3, 402240, Note_on_c, 2, 45, 49
3, 402359, Note_on_c, 2, 45, 0
3, 402360, Note_on_c, 2, 47, 49
3, 402479, Note_on_c, 2, 47, 0
3, 402480, Note_on_c, 2, 49, 49
3, 402599, Note_on_c, 2, 49, 0
3, 402600, Note_on_c, 2, 50, 49
3, 402719, Note_on_c, 2, 50, 0
3, 402720, Note_on_c, 2, 52, 49
3, 402839, Note_on_c, 2, 52, 0
3, 402840, Note_on_c, 2, 53, 49
3, 402959, Note_on_c, 2, 53, 0
3, 402960, Note_on_c, 2, 55, 49
3, 403079, Note_on_c, 2, 55, 0
3, 403080, Note_on_c, 2, 57, 49
3, 403199, Note_on_c, 2, 57, 0
3, 403200, Note_on_c, 2, 50, 49
3, 403439, Note_on_c, 2, 50, 0
3, 403440, Note_on_c, 2, 38, 49
3, 403679, Note_on_c, 2, 38, 0
3, 403680, Note_on_c, 2, 50, 49
3, 403799, Note_on_c, 2, 50, 0
3, 403800, Note_on_c, 2, 52, 49
3, 403919, Note_on_c, 2, 52, 0
3, 403920, Note_on_c, 2, 53, 49
3, 404039, Note_on_c, 2, 53, 0
3, 404040, Note_on_c, 2, 55, 49
3, 404159, Note_on_c, 2, 55, 0
3, 404160, Note_on_c, 2, 57, 49
3, 404279, Note_on_c, 2, 57, 0
3, 404280, Note_on_c, 2, 59, 49
3, 404399, Note_on_c, 2, 59, 0
3, 404400, Note_on_c, 2, 61, 49
3, 404519, Note_on_c, 2, 61, 0
3, 404520, Note_on_c, 2, 62, 49
3, 404639, Note_on_c, 2, 62, 0
3, 404640, Note_on_c, 2, 57, 49
3, 404879, Note_on_c, 2, 57, 0
3, 404880, Note_on_c, 2, 45, 49
3, 405119, Note_on_c, 2, 45, 0
3, 405120, Note_on_c, 2, 45, 49
3, 405239, Note_on_c, 2, 45, 0
3, 405240, Note_on_c, 2, 47, 49
3, 405359, Note_on_c, 2, 47, 0
3, 405360, Note_on_c, 2, 49, 49
3, 405479, Note_on_c, 2, 49, 0
3, 405480, Note_on_c, 2, 50, 49
3, 405599, Note_on_c, 2, 50, 0
3, 405600, Note_on_c, 2, 52, 49
3, 405719, Note_on_c, 2, 52, 0
3, 405720, Note_on_c, 2, 53, 49
3, 405839, Note_on_c, 2, 53, 0
3, 405840, Note_on_c, 2, 55, 49
3, 405959, Note_on_c, 2, 55, 0
3, 405960, Note_on_c, 2, 57, 49
3, 406079, Note_on_c, 2, 57, 0
3, 406080, Note_on_c, 2, 50, 49
3, 406319, Note_on_c, 2, 50, 0
3, 406320, Note_on_c, 2, 38, 49
3, 406559, Note_on_c, 2, 38, 0
3, 406560, Note_on_c, 2, 50, 49
3, 406679, Note_on_c, 2, 50, 0
3, 406680, Note_on_c, 2, 52, 49
3, 406799, Note_on_c, 2, 52, 0
3, 406800, Note_on_c, 2, 53, 49
3, 406919, Note_on_c, 2, 53, 0
3, 406920, Note_on_c, 2, 55, 49
3, 407039, Note_on_c, 2, 55, 0
3, 407040, Note_on_c, 2, 57, 49
3, 407159, Note_on_c, 2, 57, 0
3, 407160, Note_on_c, 2, 58, 49
3, 407279, Note_on_c, 2, 58, 0
3, 407280, Note_on_c, 2, 60, 49
3, 407399, Note_on_c, 2, 60, 0
3, 407400, Note_on_c, 2, 62, 49
3, 407519, Note_on_c, 2, 62, 0
3, 407520, Note_on_c, 2, 60, 49
3, 407759, Note_on_c, 2, 60, 0
3, 407760, Note_on_c, 2, 48, 49
3, 407999, Note_on_c, 2, 48, 0
3, 408000, Note_on_c, 2, 48, 49
3, 408119, Note_on_c, 2, 48, 0
3, 408120, Note_on_c, 2, 50, 49
3, 408239, Note_on_c, 2, 50, 0
3, 408240, Note_on_c, 2, 52, 49
3, 408359, Note_on_c, 2, 52, 0
3, 408360, Note_on_c, 2, 53, 49
3, 408479, Note_on_c, 2, 53, 0
3, 408480, Note_on_c, 2, 55, 49
3, 408599, Note_on_c, 2, 55, 0
3, 408600, Note_on_c, 2, 57, 49
3, 408719, Note_on_c, 2, 57, 0
3, 408720, Note_on_c, 2, 58, 49
3, 408839, Note_on_c, 2, 58, 0
3, 408840, Note_on_c, 2, 60, 49
3, 408959, Note_on_c, 2, 60, 0
3, 408960, Note_on_c, 2, 53, 49
3, 409199, Note_on_c, 2, 53, 0
3, 409200, Note_on_c, 2, 41, 49
3, 409439, Note_on_c, 2, 41, 0
3, 409440, Note_on_c, 2, 53, 49
3, 409559, Note_on_c, 2, 53, 0
3, 409560, Note_on_c, 2, 55, 49
3, 409679, Note_on_c, 2, 55, 0
3, 409680, Note_on_c, 2, 57, 49
3, 409799, Note_on_c, 2, 57, 0
3, 409800, Note_on_c, 2, 58, 49
3, 409919, Note_on_c, 2, 58, 0
3, 409920, Note_on_c, 2, 60, 49
3, 410039, Note_on_c, 2, 60, 0
3, 410040, Note_on_c, 2, 62, 49
3, 410159, Note_on_c, 2, 62, 0
3, 410160, Note_on_c, 2, 64, 49
3, 410279, Note_on_c, 2, 64, 0
3, 410280, Note_on_c, 2, 65, 49
3, 410399, Note_on_c, 2, 65, 0
3, 410400, Note_on_c, 2, 60, 49
3, 410639, Note_on_c, 2, 60, 0
3, 410640, Note_on_c, 2, 48, 49
3, 410879, Note_on_c, 2, 48, 0
3, 410880, Note_on_c, 2, 49, 49
3, 410999, Note_on_c, 2, 49, 0
3, 411000, Note_on_c, 2, 50, 49
3, 411119, Note_on_c, 2, 50, 0
3, 411120, Note_on_c, 2, 52, 49
3, 411239, Note_on_c, 2, 52, 0
3, 411240, Note_on_c, 2, 53, 49
3, 411359, Note_on_c, 2, 53, 0
3, 411360, Note_on_c, 2, 55, 49
3, 411479, Note_on_c, 2, 55, 0
3, 411480, Note_on_c, 2, 57, 49
3, 411599, Note_on_c, 2, 57, 0
3, 411600, Note_on_c, 2, 59, 49
3, 411719, Note_on_c, 2, 59, 0
3, 411720, Note_on_c, 2, 61, 49
3, 411839, Note_on_c, 2, 61, 0
3, 411840, Note_on_c, 2, 50, 49
3, 412079, Note_on_c, 2, 50, 0
3, 412080, Note_on_c, 2, 43, 49
3, 412319, Note_on_c, 2, 43, 0
3, 412320, Note_on_c, 2, 45, 49
3, 412439, Note_on_c, 2, 45, 0
3, 412440, Note_on_c, 2, 47, 49
3, 412559, Note_on_c, 2, 47, 0
3, 412560, Note_on_c, 2, 49, 49
3, 412679, Note_on_c, 2, 49, 0
3, 412680, Note_on_c, 2, 50, 49
3, 412799, Note_on_c, 2, 50, 0
3, 412800, Note_on_c, 2, 52, 49
3, 412919, Note_on_c, 2, 52, 0
3, 412920, Note_on_c, 2, 53, 49
3, 413039, Note_on_c, 2, 53, 0
3, 413040, Note_on_c, 2, 55, 49
3, 413159, Note_on_c, 2, 55, 0
3, 413160, Note_on_c, 2, 57, 49
3, 413279, Note_on_c, 2, 57, 0
3, 413280, Note_on_c, 2, 50, 49
3, 414719, Note_on_c, 2, 50, 0
3, 414720, Note_on_c, 2, 62, 49
3, 415199, Note_on_c, 2, 62, 0
3, 415200, Note_on_c, 2, 50, 49
3, 415439, Note_on_c, 2, 50, 0
3, 415440, Note_on_c, 2, 53, 49
3, 415679, Note_on_c, 2, 53, 0
3, 415680, Note_on_c, 2, 52, 49
3, 415919, Note_on_c, 2, 52, 0
3, 415920, Note_on_c, 2, 50, 49
3, 416159, Note_on_c, 2, 50, 0
3, 416160, Note_on_c, 2, 57, 49
3, 416639, Note_on_c, 2, 57, 0
3, 416640, Note_on_c, 2, 45, 49
3, 416879, Note_on_c, 2, 45, 0
3, 416880, Note_on_c, 2, 49, 49
3, 417119, Note_on_c, 2, 49, 0
3, 417120, Note_on_c, 2, 47, 49
3, 417359, Note_on_c, 2, 47, 0
3, 417360, Note_on_c, 2, 45, 49
3, 417599, Note_on_c, 2, 45, 0
3, 417600, Note_on_c, 2, 50, 49
3, 418079, Note_on_c, 2, 50, 0
3, 418080, Note_on_c, 2, 62, 49
3, 418319, Note_on_c, 2, 62, 0
3, 418320, Note_on_c, 2, 65, 49
3, 418559, Note_on_c, 2, 65, 0
3, 418560, Note_on_c, 2, 64, 49
3, 418799, Note_on_c, 2, 64, 0
3, 418800, Note_on_c, 2, 62, 49
3, 419039, Note_on_c, 2, 62, 0
3, 419040, Note_on_c, 2, 60, 49
3, 419519, Note_on_c, 2, 60, 0
3, 419520, Note_on_c, 2, 48, 49
3, 419759, Note_on_c, 2, 48, 0
3, 419760, Note_on_c, 2, 52, 49
3, 419999, Note_on_c, 2, 52, 0
3, 420000, Note_on_c, 2, 50, 49
3, 420239, Note_on_c, 2, 50, 0
3, 420240, Note_on_c, 2, 48, 49
3, 420479, Note_on_c, 2, 48, 0
3, 420480, Note_on_c, 2, 41, 49
3, 420959, Note_on_c, 2, 41, 0
3, 420960, Note_on_c, 2, 53, 49
3, 421199, Note_on_c, 2, 53, 0
3, 421200, Note_on_c, 2, 57, 49
3, 421439, Note_on_c, 2, 57, 0
3, 421440, Note_on_c, 2, 55, 49
3, 421679, Note_on_c, 2, 55, 0
3, 421680, Note_on_c, 2, 53, 49
3, 421919, Note_on_c, 2, 53, 0
3, 421920, Note_on_c, 2, 48, 49
3, 422399, Note_on_c, 2, 48, 0
3, 422400, Note_on_c, 2, 49, 49
3, 422639, Note_on_c, 2, 49, 0
3, 422640, Note_on_c, 2, 52, 49
3, 422879, Note_on_c, 2, 52, 0
3, 422880, Note_on_c, 2, 50, 49
3, 423119, Note_on_c, 2, 50, 0
3, 423120, Note_on_c, 2, 49, 49
3, 423359, Note_on_c, 2, 49, 0
3, 423360, Note_on_c, 2, 50, 49
3, 423839, Note_on_c, 2, 50, 0
3, 423840, Note_on_c, 2, 43, 49
3, 424079, Note_on_c, 2, 43, 0
3, 424080, Note_on_c, 2, 46, 49
3, 424319, Note_on_c, 2, 46, 0
3, 424320, Note_on_c, 2, 45, 49
3, 424559, Note_on_c, 2, 45, 0
3, 424560, Note_on_c, 2, 43, 49
3, 424799, Note_on_c, 2, 43, 0
3, 424800, Note_on_c, 2, 45, 49
3, 425279, Note_on_c, 2, 45, 0
3, 425280, Note_on_c, 2, 57, 49
3, 425519, Note_on_c, 2, 57, 0
3, 425520, Note_on_c, 2, 61, 49
3, 425759, Note_on_c, 2, 61, 0
3, 425760, Note_on_c, 2, 59, 49
3, 425999, Note_on_c, 2, 59, 0
3, 426000, Note_on_c, 2, 57, 49
3, 426239, Note_on_c, 2, 57, 0
3, 426240, Note_on_c, 2, 62, 49
3, 426719, Note_on_c, 2, 62, 0
3, 426720, Note_on_c, 2, 50, 49
3, 426959, Note_on_c, 2, 50, 0
3, 426960, Note_on_c, 2, 53, 49
3, 427199, Note_on_c, 2, 53, 0
3, 427200, Note_on_c, 2, 52, 49
3, 427439, Note_on_c, 2, 52, 0
3, 427440, Note_on_c, 2, 50, 49
3, 427679, Note_on_c, 2, 50, 0
3, 427680, Note_on_c, 2, 57, 49
3, 428159, Note_on_c, 2, 57, 0
3, 428160, Note_on_c, 2, 45, 49
3, 428399, Note_on_c, 2, 45, 0
3, 428400, Note_on_c, 2, 49, 49
3, 428639, Note_on_c, 2, 49, 0
3, 428640, Note_on_c, 2, 47, 49
3, 428879, Note_on_c, 2, 47, 0
3, 428880, Note_on_c, 2, 45, 49
3, 429119, Note_on_c, 2, 45, 0
3, 429120, Note_on_c, 2, 50, 49
3, 429599, Note_on_c, 2, 50, 0
3, 429600, Note_on_c, 2, 62, 49
3, 429839, Note_on_c, 2, 62, 0
3, 429840, Note_on_c, 2, 65, 49
3, 430079, Note_on_c, 2, 65, 0
3, 430080, Note_on_c, 2, 64, 49
3, 430319, Note_on_c, 2, 64, 0
3, 430320, Note_on_c, 2, 62, 49
3, 430559, Note_on_c, 2, 62, 0
3, 430560, Note_on_c, 2, 60, 49
3, 431039, Note_on_c, 2, 60, 0
3, 431040, Note_on_c, 2, 48, 49
3, 431279, Note_on_c, 2, 48, 0
3, 431280, Note_on_c, 2, 52, 49
3, 431519, Note_on_c, 2, 52, 0
3, 431520, Note_on_c, 2, 50, 49
3, 431759, Note_on_c, 2, 50, 0
3, 431760, Note_on_c, 2, 48, 49
3, 431999, Note_on_c, 2, 48, 0
3, 432000, Note_on_c, 2, 41, 49
3, 432479, Note_on_c, 2, 41, 0
3, 432480, Note_on_c, 2, 53, 49
3, 432719, Note_on_c, 2, 53, 0
3, 432720, Note_on_c, 2, 57, 49
3, 432959, Note_on_c, 2, 57, 0
3, 432960, Note_on_c, 2, 55, 49
3, 433199, Note_on_c, 2, 55, 0
3, 433200, Note_on_c, 2, 53, 49
3, 433439, Note_on_c, 2, 53, 0
3, 433440, Note_on_c, 2, 48, 49
3, 433919, Note_on_c, 2, 48, 0
3, 433920, Note_on_c, 2, 49, 49
3, 434159, Note_on_c, 2, 49, 0
3, 434160, Note_on_c, 2, 52, 49
3, 434399, Note_on_c, 2, 52, 0
3, 434400, Note_on_c, 2, 50, 49
3, 434639, Note_on_c, 2, 50, 0
3, 434640, Note_on_c, 2, 49, 49
3, 434879, Note_on_c, 2, 49, 0
3, 434880, Note_on_c, 2, 50, 49
3, 435359, Note_on_c, 2, 50, 0
3, 435360, Note_on_c, 2, 57, 49
3, 435839, Note_on_c, 2, 57, 0
3, 435840, Note_on_c, 2, 45, 49
3, 436319, Note_on_c, 2, 45, 0
3, 436320, Note_on_c, 2, 50, 49
3, 437759, Note_on_c, 2, 50, 0
3, 437760, Note_on_c, 2, 50, 49
3, 437999, Note_on_c, 2, 50, 0
3, 438000, Note_on_c, 2, 50, 49
3, 438239, Note_on_c, 2, 50, 0
3, 438240, Note_on_c, 2, 50, 49
3, 438479, Note_on_c, 2, 50, 0
3, 438480, Note_on_c, 2, 50, 49
3, 438719, Note_on_c, 2, 50, 0
3, 438720, Note_on_c, 2, 50, 49
3, 438959, Note_on_c, 2, 50, 0
3, 438960, Note_on_c, 2, 50, 49
3, 439199, Note_on_c, 2, 50, 0
3, 439200, Note_on_c, 2, 57, 49
3, 439439, Note_on_c, 2, 57, 0
3, 439440, Note_on_c, 2, 57, 49
3, 439679, Note_on_c, 2, 57, 0
3, 439680, Note_on_c, 2, 57, 49
3, 439919, Note_on_c, 2, 57, 0
3, 439920, Note_on_c, 2, 57, 49
3, 440159, Note_on_c, 2, 57, 0
3, 440160, Note_on_c, 2, 57, 49
3, 440399, Note_on_c, 2, 57, 0
3, 440400, Note_on_c, 2, 57, 49
3, 440639, Note_on_c, 2, 57, 0
3, 440640, Note_on_c, 2, 50, 49
3, 440879, Note_on_c, 2, 50, 0
3, 440880, Note_on_c, 2, 50, 49
3, 441119, Note_on_c, 2, 50, 0
3, 441120, Note_on_c, 2, 50, 49
3, 441359, Note_on_c, 2, 50, 0
3, 441360, Note_on_c, 2, 50, 49
3, 441599, Note_on_c, 2, 50, 0
3, 441600, Note_on_c, 2, 50, 49
3, 441839, Note_on_c, 2, 50, 0
3, 441840, Note_on_c, 2, 50, 49
3, 442079, Note_on_c, 2, 50, 0
3, 442080, Note_on_c, 2, 48, 49
3, 442319, Note_on_c, 2, 48, 0
3, 442320, Note_on_c, 2, 48, 49
3, 442559, Note_on_c, 2, 48, 0
3, 442560, Note_on_c, 2, 48, 49
3, 442799, Note_on_c, 2, 48, 0
3, 442800, Note_on_c, 2, 48, 49
3, 443039, Note_on_c, 2, 48, 0
3, 443040, Note_on_c, 2, 48, 49
3, 443279, Note_on_c, 2, 48, 0
3, 443280, Note_on_c, 2, 48, 49
3, 443519, Note_on_c, 2, 48, 0
3, 443520, Note_on_c, 2, 53, 49
3, 443759, Note_on_c, 2, 53, 0
3, 443760, Note_on_c, 2, 53, 49
3, 443999, Note_on_c, 2, 53, 0
3, 444000, Note_on_c, 2, 53, 49
3, 444239, Note_on_c, 2, 53, 0
3, 444240, Note_on_c, 2, 53, 49
3, 444479, Note_on_c, 2, 53, 0
3, 444480, Note_on_c, 2, 53, 49
3, 444719, Note_on_c, 2, 53, 0
3, 444720, Note_on_c, 2, 53, 49
3, 444959, Note_on_c, 2, 53, 0
3, 444960, Note_on_c, 2, 60, 49
3, 445199, Note_on_c, 2, 60, 0
3, 445200, Note_on_c, 2, 60, 49
3, 445439, Note_on_c, 2, 60, 0
3, 445440, Note_on_c, 2, 61, 49
3, 445679, Note_on_c, 2, 61, 0
3, 445680, Note_on_c, 2, 61, 49
3, 445919, Note_on_c, 2, 61, 0
3, 445920, Note_on_c, 2, 61, 49
3, 446159, Note_on_c, 2, 61, 0
3, 446160, Note_on_c, 2, 61, 49
3, 446399, Note_on_c, 2, 61, 0
3, 446400, Note_on_c, 2, 62, 49
3, 446639, Note_on_c, 2, 62, 0
3, 446640, Note_on_c, 2, 62, 49
3, 446879, Note_on_c, 2, 62, 0
3, 446880, Note_on_c, 2, 50, 49
3, 447119, Note_on_c, 2, 50, 0
3, 447120, Note_on_c, 2, 50, 49
3, 447359, Note_on_c, 2, 50, 0
3, 447360, Note_on_c, 2, 50, 49
3, 447599, Note_on_c, 2, 50, 0
3, 447600, Note_on_c, 2, 50, 49
3, 447839, Note_on_c, 2, 50, 0
3, 447840, Note_on_c, 2, 57, 49
3, 448079, Note_on_c, 2, 57, 0
3, 448080, Note_on_c, 2, 57, 49
3, 448319, Note_on_c, 2, 57, 0
3, 448320, Note_on_c, 2, 57, 49
3, 448559, Note_on_c, 2, 57, 0
3, 448560, Note_on_c, 2, 57, 49
3, 448799, Note_on_c, 2, 57, 0
3, 448800, Note_on_c, 2, 57, 49
3, 449039, Note_on_c, 2, 57, 0
3, 449040, Note_on_c, 2, 57, 49
3, 449279, Note_on_c, 2, 57, 0
3, 449280, Note_on_c, 2, 50, 49
3, 449519, Note_on_c, 2, 50, 0
3, 449520, Note_on_c, 2, 50, 49
3, 449759, Note_on_c, 2, 50, 0
3, 449760, Note_on_c, 2, 50, 49
3, 449999, Note_on_c, 2, 50, 0
3, 450000, Note_on_c, 2, 50, 49
3, 450239, Note_on_c, 2, 50, 0
3, 450240, Note_on_c, 2, 50, 49
3, 450479, Note_on_c, 2, 50, 0
3, 450480, Note_on_c, 2, 50, 49
3, 450719, Note_on_c, 2, 50, 0
3, 450720, Note_on_c, 2, 57, 49
3, 450959, Note_on_c, 2, 57, 0
3, 450960, Note_on_c, 2, 57, 49
3, 451199, Note_on_c, 2, 57, 0
3, 451200, Note_on_c, 2, 57, 49
3, 451439, Note_on_c, 2, 57, 0
3, 451440, Note_on_c, 2, 57, 49
3, 451679, Note_on_c, 2, 57, 0
3, 451680, Note_on_c, 2, 57, 49
3, 451919, Note_on_c, 2, 57, 0
3, 451920, Note_on_c, 2, 57, 49
3, 452159, Note_on_c, 2, 57, 0
3, 452160, Note_on_c, 2, 50, 49
3, 452399, Note_on_c, 2, 50, 0
3, 452400, Note_on_c, 2, 50, 49
3, 452639, Note_on_c, 2, 50, 0
3, 452640, Note_on_c, 2, 50, 49
3, 452879, Note_on_c, 2, 50, 0
3, 452880, Note_on_c, 2, 50, 49
3, 453119, Note_on_c, 2, 50, 0
3, 453120, Note_on_c, 2, 50, 49
3, 453359, Note_on_c, 2, 50, 0
3, 453360, Note_on_c, 2, 50, 49
3, 453599, Note_on_c, 2, 50, 0
3, 453600, Note_on_c, 2, 48, 49
3, 453839, Note_on_c, 2, 48, 0
3, 453840, Note_on_c, 2, 48, 49
3, 454079, Note_on_c, 2, 48, 0
3, 454080, Note_on_c, 2, 48, 49
3, 454319, Note_on_c, 2, 48, 0
3, 454320, Note_on_c, 2, 48, 49
3, 454559, Note_on_c, 2, 48, 0
3, 454560, Note_on_c, 2, 48, 49
3, 454799, Note_on_c, 2, 48, 0
3, 454800, Note_on_c, 2, 48, 49
3, 455039, Note_on_c, 2, 48, 0
3, 455040, Note_on_c, 2, 53, 49
3, 455279, Note_on_c, 2, 53, 0
3, 455280, Note_on_c, 2, 53, 49
3, 455519, Note_on_c, 2, 53, 0
3, 455520, Note_on_c, 2, 53, 49
3, 455759, Note_on_c, 2, 53, 0
3, 455760, Note_on_c, 2, 53, 49
3, 455999, Note_on_c, 2, 53, 0
3, 456000, Note_on_c, 2, 53, 49
3, 456239, Note_on_c, 2, 53, 0
3, 456240, Note_on_c, 2, 53, 49
3, 456479, Note_on_c, 2, 53, 0
3, 456480, Note_on_c, 2, 60, 49
3, 456719, Note_on_c, 2, 60, 0
3, 456720, Note_on_c, 2, 60, 49
3, 456959, Note_on_c, 2, 60, 0
3, 456960, Note_on_c, 2, 61, 49
3, 457199, Note_on_c, 2, 61, 0
3, 457200, Note_on_c, 2, 61, 49
3, 457439, Note_on_c, 2, 61, 0
3, 457440, Note_on_c, 2, 61, 49
3, 457679, Note_on_c, 2, 61, 0
3, 457680, Note_on_c, 2, 61, 49
3, 457919, Note_on_c, 2, 61, 0
3, 457920, Note_on_c, 2, 62, 49
3, 458159, Note_on_c, 2, 62, 0
3, 458160, Note_on_c, 2, 50, 49
3, 458399, Note_on_c, 2, 50, 0
3, 458400, Note_on_c, 2, 55, 49
3, 458639, Note_on_c, 2, 55, 0
3, 458640, Note_on_c, 2, 55, 49
3, 458879, Note_on_c, 2, 55, 0
3, 458880, Note_on_c, 2, 57, 49
3, 459119, Note_on_c, 2, 57, 0
3, 459120, Note_on_c, 2, 57, 49
3, 459359, Note_on_c, 2, 57, 0
3, 459360, Note_on_c, 2, 50, 49
3, 460799, Note_on_c, 2, 50, 0
3, 460800, Note_on_c, 2, 50, 49
3, 460919, Note_on_c, 2, 50, 0
3, 460920, Note_on_c, 2, 62, 49
3, 461039, Note_on_c, 2, 62, 0
3, 461040, Note_on_c, 2, 62, 49
3, 461159, Note_on_c, 2, 62, 0
3, 461160, Note_on_c, 2, 50, 49
3, 461279, Note_on_c, 2, 50, 0
3, 461280, Note_on_c, 2, 50, 49
3, 461399, Note_on_c, 2, 50, 0
3, 461400, Note_on_c, 2, 62, 49
3, 461519, Note_on_c, 2, 62, 0
3, 461520, Note_on_c, 2, 62, 49
3, 461639, Note_on_c, 2, 62, 0
3, 461640, Note_on_c, 2, 50, 49
3, 461759, Note_on_c, 2, 50, 0
3, 461760, Note_on_c, 2, 50, 49
3, 461879, Note_on_c, 2, 50, 0
3, 461880, Note_on_c, 2, 62, 49
3, 461999, Note_on_c, 2, 62, 0
3, 462000, Note_on_c, 2, 62, 49
3, 462119, Note_on_c, 2, 62, 0
3, 462120, Note_on_c, 2, 50, 49
3, 462239, Note_on_c, 2, 50, 0
3, 462240, Note_on_c, 2, 45, 49
3, 462719, Note_on_c, 2, 45, 0
3, 462720, Note_on_c, 2, 57, 49
3, 463199, Note_on_c, 2, 57, 0
3, 463200, Note_on_c, 2, 45, 49
3, 463679, Note_on_c, 2, 45, 0
3, 463680, Note_on_c, 2, 50, 49
3, 463799, Note_on_c, 2, 50, 0
3, 463800, Note_on_c, 2, 62, 49
3, 463919, Note_on_c, 2, 62, 0
3, 463920, Note_on_c, 2, 62, 49
3, 464039, Note_on_c, 2, 62, 0
3, 464040, Note_on_c, 2, 50, 49
3, 464159, Note_on_c, 2, 50, 0
3, 464160, Note_on_c, 2, 50, 49
3, 464279, Note_on_c, 2, 50, 0
3, 464280, Note_on_c, 2, 62, 49
3, 464399, Note_on_c, 2, 62, 0
3, 464400, Note_on_c, 2, 62, 49
3, 464519, Note_on_c, 2, 62, 0
3, 464520, Note_on_c, 2, 50, 49
3, 464639, Note_on_c, 2, 50, 0
3, 464640, Note_on_c, 2, 50, 49
3, 464759, Note_on_c, 2, 50, 0
3, 464760, Note_on_c, 2, 62, 49
3, 464879, Note_on_c, 2, 62, 0
3, 464880, Note_on_c, 2, 62, 49
3, 464999, Note_on_c, 2, 62, 0
3, 465000, Note_on_c, 2, 50, 49
3, 465119, Note_on_c, 2, 50, 0
3, 465120, Note_on_c, 2, 48, 49
3, 465599, Note_on_c, 2, 48, 0
3, 465600, Note_on_c, 2, 60, 49
3, 466079, Note_on_c, 2, 60, 0
3, 466080, Note_on_c, 2, 48, 49
3, 466559, Note_on_c, 2, 48, 0
3, 466560, Note_on_c, 2, 53, 49
3, 466679, Note_on_c, 2, 53, 0
3, 466680, Note_on_c, 2, 57, 49
3, 466799, Note_on_c, 2, 57, 0
3, 466800, Note_on_c, 2, 57, 49
3, 466919, Note_on_c, 2, 57, 0
3, 466920, Note_on_c, 2, 53, 49
3, 467039, Note_on_c, 2, 53, 0
3, 467040, Note_on_c, 2, 53, 49
3, 467159, Note_on_c, 2, 53, 0
3, 467160, Note_on_c, 2, 57, 49
3, 467279, Note_on_c, 2, 57, 0
3, 467280, Note_on_c, 2, 57, 49
3, 467399, Note_on_c, 2, 57, 0
3, 467400, Note_on_c, 2, 53, 49
3, 467519, Note_on_c, 2, 53, 0
3, 467520, Note_on_c, 2, 53, 49
3, 467639, Note_on_c, 2, 53, 0
3, 467640, Note_on_c, 2, 57, 49
3, 467759, Note_on_c, 2, 57, 0
3, 467760, Note_on_c, 2, 57, 49
3, 467879, Note_on_c, 2, 57, 0
3, 467880, Note_on_c, 2, 53, 49
3, 467999, Note_on_c, 2, 53, 0
3, 468000, Note_on_c, 2, 48, 49
3, 468479, Note_on_c, 2, 48, 0
3, 468480, Note_on_c, 2, 49, 49
3, 469199, Note_on_c, 2, 49, 0
3, 469200, Note_on_c, 2, 49, 49
3, 469439, Note_on_c, 2, 49, 0
3, 469440, Note_on_c, 2, 50, 49
3, 469559, Note_on_c, 2, 50, 0
3, 469560, Note_on_c, 2, 62, 49
3, 469679, Note_on_c, 2, 62, 0
3, 469680, Note_on_c, 2, 62, 49
3, 469799, Note_on_c, 2, 62, 0
3, 469800, Note_on_c, 2, 50, 49
3, 469919, Note_on_c, 2, 50, 0
3, 469920, Note_on_c, 2, 50, 49
3, 470039, Note_on_c, 2, 50, 0
3, 470040, Note_on_c, 2, 62, 49
3, 470159, Note_on_c, 2, 62, 0
3, 470160, Note_on_c, 2, 62, 49
3, 470279, Note_on_c, 2, 62, 0
3, 470280, Note_on_c, 2, 50, 49
3, 470399, Note_on_c, 2, 50, 0
3, 470400, Note_on_c, 2, 50, 49
3, 470519, Note_on_c, 2, 50, 0
3, 470520, Note_on_c, 2, 62, 49
3, 470639, Note_on_c, 2, 62, 0
3, 470640, Note_on_c, 2, 62, 49
3, 470759, Note_on_c, 2, 62, 0
3, 470760, Note_on_c, 2, 50, 49
3, 470879, Note_on_c, 2, 50, 0
3, 470880, Note_on_c, 2, 45, 49
3, 471359, Note_on_c, 2, 45, 0
3, 471360, Note_on_c, 2, 57, 49
3, 471839, Note_on_c, 2, 57, 0
3, 471840, Note_on_c, 2, 45, 49
3, 472319, Note_on_c, 2, 45, 0
3, 472320, Note_on_c, 2, 50, 49
3, 472439, Note_on_c, 2, 50, 0
3, 472440, Note_on_c, 2, 62, 49
3, 472559, Note_on_c, 2, 62, 0
3, 472560, Note_on_c, 2, 62, 49
3, 472679, Note_on_c, 2, 62, 0
3, 472680, Note_on_c, 2, 50, 49
3, 472799, Note_on_c, 2, 50, 0
3, 472800, Note_on_c, 2, 50, 49
3, 472919, Note_on_c, 2, 50, 0
3, 472920, Note_on_c, 2, 62, 49
3, 473039, Note_on_c, 2, 62, 0
3, 473040, Note_on_c, 2, 62, 49
3, 473159, Note_on_c, 2, 62, 0
3, 473160, Note_on_c, 2, 50, 49
3, 473279, Note_on_c, 2, 50, 0
3, 473280, Note_on_c, 2, 50, 49
3, 473399, Note_on_c, 2, 50, 0
3, 473400, Note_on_c, 2, 62, 49
3, 473519, Note_on_c, 2, 62, 0
3, 473520, Note_on_c, 2, 62, 49
3, 473639, Note_on_c, 2, 62, 0
3, 473640, Note_on_c, 2, 50, 49
3, 473759, Note_on_c, 2, 50, 0
3, 473760, Note_on_c, 2, 45, 49
3, 474239, Note_on_c, 2, 45, 0
3, 474240, Note_on_c, 2, 57, 49
3, 474719, Note_on_c, 2, 57, 0
3, 474720, Note_on_c, 2, 45, 49
3, 475199, Note_on_c, 2, 45, 0
3, 475200, Note_on_c, 2, 50, 49
3, 475319, Note_on_c, 2, 50, 0
3, 475320, Note_on_c, 2, 62, 49
3, 475439, Note_on_c, 2, 62, 0
3, 475440, Note_on_c, 2, 62, 49
3, 475559, Note_on_c, 2, 62, 0
3, 475560, Note_on_c, 2, 50, 49
3, 475679, Note_on_c, 2, 50, 0
3, 475680, Note_on_c, 2, 50, 49
3, 475799, Note_on_c, 2, 50, 0
3, 475800, Note_on_c, 2, 62, 49
3, 475919, Note_on_c, 2, 62, 0
3, 475920, Note_on_c, 2, 62, 49
3, 476039, Note_on_c, 2, 62, 0
3, 476040, Note_on_c, 2, 50, 49
3, 476159, Note_on_c, 2, 50, 0
3, 476160, Note_on_c, 2, 50, 49
3, 476279, Note_on_c, 2, 50, 0
3, 476280, Note_on_c, 2, 62, 49
3, 476399, Note_on_c, 2, 62, 0
3, 476400, Note_on_c, 2, 62, 49
3, 476519, Note_on_c, 2, 62, 0
3, 476520, Note_on_c, 2, 50, 49
3, 476639, Note_on_c, 2, 50, 0
3, 476640, Note_on_c, 2, 48, 49
3, 477119, Note_on_c, 2, 48, 0
3, 477120, Note_on_c, 2, 60, 49
3, 477599, Note_on_c, 2, 60, 0
3, 477600, Note_on_c, 2, 48, 49
3, 478079, Note_on_c, 2, 48, 0
3, 478080, Note_on_c, 2, 53, 49
3, 478199, Note_on_c, 2, 53, 0
3, 478200, Note_on_c, 2, 57, 49
3, 478319, Note_on_c, 2, 57, 0
3, 478320, Note_on_c, 2, 57, 49
3, 478439, Note_on_c, 2, 57, 0
3, 478440, Note_on_c, 2, 53, 49
3, 478559, Note_on_c, 2, 53, 0
3, 478560, Note_on_c, 2, 53, 49
3, 478679, Note_on_c, 2, 53, 0
3, 478680, Note_on_c, 2, 57, 49
3, 478799, Note_on_c, 2, 57, 0
3, 478800, Note_on_c, 2, 57, 49
3, 478919, Note_on_c, 2, 57, 0
3, 478920, Note_on_c, 2, 53, 49
3, 479039, Note_on_c, 2, 53, 0
3, 479040, Note_on_c, 2, 53, 49
3, 479159, Note_on_c, 2, 53, 0
3, 479160, Note_on_c, 2, 57, 49
3, 479279, Note_on_c, 2, 57, 0
3, 479280, Note_on_c, 2, 57, 49
3, 479399, Note_on_c, 2, 57, 0
3, 479400, Note_on_c, 2, 53, 49
3, 479519, Note_on_c, 2, 53, 0
3, 479520, Note_on_c, 2, 48, 49
3, 479999, Note_on_c, 2, 48, 0
3, 480000, Note_on_c, 2, 49, 49
3, 480719, Note_on_c, 2, 49, 0
3, 480720, Note_on_c, 2, 49, 49
3, 480959, Note_on_c, 2, 49, 0
3, 480960, Note_on_c, 2, 50, 49
3, 481439, Note_on_c, 2, 50, 0
3, 481440, Note_on_c, 2, 57, 49
3, 481919, Note_on_c, 2, 57, 0
3, 481920, Note_on_c, 2, 45, 49
3, 482399, Note_on_c, 2, 45, 0
3, 482400, Note_on_c, 2, 50, 49
3, 483839, Note_on_c, 2, 50, 0
3, 483840, Note_on_c, 2, 50, 49
3, 483959, Note_on_c, 2, 50, 0
3, 483960, Note_on_c, 2, 62, 49
3, 484079, Note_on_c, 2, 62, 0
3, 484080, Note_on_c, 2, 62, 49
3, 484199, Note_on_c, 2, 62, 0
3, 484200, Note_on_c, 2, 50, 49
3, 484319, Note_on_c, 2, 50, 0
3, 484320, Note_on_c, 2, 50, 49
3, 484439, Note_on_c, 2, 50, 0
3, 484440, Note_on_c, 2, 62, 49
3, 484559, Note_on_c, 2, 62, 0
3, 484560, Note_on_c, 2, 62, 49
3, 484679, Note_on_c, 2, 62, 0
3, 484680, Note_on_c, 2, 50, 49
3, 484799, Note_on_c, 2, 50, 0
3, 484800, Note_on_c, 2, 50, 49
3, 484919, Note_on_c, 2, 50, 0
3, 484920, Note_on_c, 2, 62, 49
3, 485039, Note_on_c, 2, 62, 0
3, 485040, Note_on_c, 2, 62, 49
3, 485159, Note_on_c, 2, 62, 0
3, 485160, Note_on_c, 2, 50, 49
3, 485279, Note_on_c, 2, 50, 0
3, 485280, Note_on_c, 2, 43, 49
3, 485399, Note_on_c, 2, 43, 0
3, 485400, Note_on_c, 2, 55, 49
3, 485519, Note_on_c, 2, 55, 0
3, 485520, Note_on_c, 2, 55, 49
3, 485639, Note_on_c, 2, 55, 0
3, 485640, Note_on_c, 2, 43, 49
3, 485759, Note_on_c, 2, 43, 0
3, 485760, Note_on_c, 2, 43, 49
3, 485879, Note_on_c, 2, 43, 0
3, 485880, Note_on_c, 2, 55, 49
3, 485999, Note_on_c, 2, 55, 0
3, 486000, Note_on_c, 2, 55, 49
3, 486119, Note_on_c, 2, 55, 0
3, 486120, Note_on_c, 2, 43, 49
3, 486239, Note_on_c, 2, 43, 0
3, 486240, Note_on_c, 2, 43, 49
3, 486359, Note_on_c, 2, 43, 0
3, 486360, Note_on_c, 2, 55, 49
3, 486479, Note_on_c, 2, 55, 0
3, 486480, Note_on_c, 2, 55, 49
3, 486599, Note_on_c, 2, 55, 0
3, 486600, Note_on_c, 2, 43, 49
3, 486719, Note_on_c, 2, 43, 0
3, 486720, Note_on_c, 2, 45, 49
3, 486839, Note_on_c, 2, 45, 0
3, 486840, Note_on_c, 2, 57, 49
3, 486959, Note_on_c, 2, 57, 0
3, 486960, Note_on_c, 2, 57, 49
3, 487079, Note_on_c, 2, 57, 0
3, 487080, Note_on_c, 2, 45, 49
3, 487199, Note_on_c, 2, 45, 0
3, 487200, Note_on_c, 2, 45, 49
3, 487319, Note_on_c, 2, 45, 0
3, 487320, Note_on_c, 2, 57, 49
3, 487439, Note_on_c, 2, 57, 0
3, 487440, Note_on_c, 2, 57, 49
3, 487559, Note_on_c, 2, 57, 0
3, 487560, Note_on_c, 2, 45, 49
3, 487679, Note_on_c, 2, 45, 0
3, 487680, Note_on_c, 2, 45, 49
3, 487799, Note_on_c, 2, 45, 0
3, 487800, Note_on_c, 2, 57, 49
3, 487919, Note_on_c, 2, 57, 0
3, 487920, Note_on_c, 2, 57, 49
3, 488039, Note_on_c, 2, 57, 0
3, 488040, Note_on_c, 2, 45, 49
3, 488159, Note_on_c, 2, 45, 0
3, 488160, Note_on_c, 2, 50, 49
3, 488639, Note_on_c, 2, 50, 0
3, 489600, Note_on_c, 2, 50, 49
3, 489719, Note_on_c, 2, 50, 0
3, 489720, Note_on_c, 2, 62, 49
3, 489839, Note_on_c, 2, 62, 0
3, 489840, Note_on_c, 2, 62, 49
3, 489959, Note_on_c, 2, 62, 0
3, 489960, Note_on_c, 2, 50, 49
3, 490079, Note_on_c, 2, 50, 0
3, 490080, Note_on_c, 2, 50, 49
3, 490199, Note_on_c, 2, 50, 0
3, 490200, Note_on_c, 2, 62, 49
3, 490319, Note_on_c, 2, 62, 0
3, 490320, Note_on_c, 2, 62, 49
3, 490439, Note_on_c, 2, 62, 0
3, 490440, Note_on_c, 2, 50, 49
3, 490559, Note_on_c, 2, 50, 0
3, 490560, Note_on_c, 2, 50, 49
3, 490679, Note_on_c, 2, 50, 0
3, 490680, Note_on_c, 2, 62, 49
3, 490799, Note_on_c, 2, 62, 0
3, 490800, Note_on_c, 2, 62, 49
3, 490919, Note_on_c, 2, 62, 0
3, 490920, Note_on_c, 2, 50, 49
3, 491039, Note_on_c, 2, 50, 0
3, 491040, Note_on_c, 2, 43, 49
3, 491159, Note_on_c, 2, 43, 0
3, 491160, Note_on_c, 2, 55, 49
3, 491279, Note_on_c, 2, 55, 0
3, 491280, Note_on_c, 2, 55, 49
3, 491399, Note_on_c, 2, 55, 0
3, 491400, Note_on_c, 2, 43, 49
3, 491519, Note_on_c, 2, 43, 0
3, 491520, Note_on_c, 2, 43, 49
3, 491639, Note_on_c, 2, 43, 0
3, 491640, Note_on_c, 2, 55, 49
3, 491759, Note_on_c, 2, 55, 0
3, 491760, Note_on_c, 2, 55, 49
3, 491879, Note_on_c, 2, 55, 0
3, 491880, Note_on_c, 2, 43, 49
3, 491999, Note_on_c, 2, 43, 0
3, 492000, Note_on_c, 2, 43, 49
3, 492119, Note_on_c, 2, 43, 0
3, 492120, Note_on_c, 2, 55, 49
3, 492239, Note_on_c, 2, 55, 0
3, 492240, Note_on_c, 2, 55, 49
3, 492359, Note_on_c, 2, 55, 0
3, 492360, Note_on_c, 2, 43, 49
3, 492479, Note_on_c, 2, 43, 0
3, 492480, Note_on_c, 2, 45, 49
3, 492599, Note_on_c, 2, 45, 0
3, 492600, Note_on_c, 2, 57, 49
3, 492719, Note_on_c, 2, 57, 0
3, 492720, Note_on_c, 2, 57, 49
3, 492839, Note_on_c, 2, 57, 0
3, 492840, Note_on_c, 2, 45, 49
3, 492959, Note_on_c, 2, 45, 0
3, 492960, Note_on_c, 2, 45, 49
3, 493079, Note_on_c, 2, 45, 0
3, 493080, Note_on_c, 2, 57, 49
3, 493199, Note_on_c, 2, 57, 0
3, 493200, Note_on_c, 2, 57, 49
3, 493319, Note_on_c, 2, 57, 0
3, 493320, Note_on_c, 2, 45, 49
3, 493439, Note_on_c, 2, 45, 0
3, 493440, Note_on_c, 2, 45, 49
3, 493559, Note_on_c, 2, 45, 0
3, 493560, Note_on_c, 2, 57, 49
3, 493679, Note_on_c, 2, 57, 0
3, 493680, Note_on_c, 2, 57, 49
3, 493799, Note_on_c, 2, 57, 0
3, 493800, Note_on_c, 2, 45, 49
3, 493919, Note_on_c, 2, 45, 0
3, 493920, Note_on_c, 2, 50, 49
3, 495359, Note_on_c, 2, 50, 0
3, 495360, End_track
0, 0, End_of_file
